<?xml version="1.0" encoding="UTF-8"?>
<!DOCTYPE svg PUBLIC "-//W3C//DTD SVG 1.1//EN" "http://www.w3.org/Graphics/SVG/1.1/DTD/svg11.dtd">
<!-- Creator: CorelDRAW 2021.5 -->
<svg xmlns="http://www.w3.org/2000/svg" xml:space="preserve" width="161.118mm" height="103.647mm" version="1.1" style="shape-rendering:geometricPrecision; text-rendering:geometricPrecision; image-rendering:optimizeQuality; fill-rule:evenodd; clip-rule:evenodd"
viewBox="0 0 2047.83 1317.37"
 xmlns:xlink="http://www.w3.org/1999/xlink"
 xmlns:xodm="http://www.corel.com/coreldraw/odm/2003">
 <defs>
  <style type="text/css">
   <![CDATA[
    .fil2 {fill:#009035}
    .fil0 {fill:#00923F}
    .fil3 {fill:#F57F17}
    .fil1 {fill:white}
    .fil4 {fill:#332C2B;fill-rule:nonzero}
   ]]>
  </style>
 </defs>
 <g id="Layer_x0020_1">
  <metadata id="CorelCorpID_0Corel-Layer"/>
  <g id="_1450777998032">
   <path class="fil0" d="M804.37 538.09l219.54 -512.54 219.55 512.54 -439.09 0zm-15.25 10.06l469.59 0 -117.4 -274.07 -117.4 -274.07 -234.79 548.15zm0 0z"/>
   <path class="fil1" d="M1023.91 25.55l-219.54 512.54 439.09 0 -219.55 -512.54zm-204.18 502.42l204.18 -476.68 204.19 476.68 -408.37 0zm0 0z"/>
   <path class="fil0" d="M1228.1 527.97l-204.19 -476.68 -204.18 476.68 408.37 0zm0 0z"/>
   <path class="fil1" d="M1021.82 432.95c-49.46,0 -89.56,-43.41 -89.56,-96.96 0,-33.88 16.04,-63.7 40.35,-81.04 -34.6,18.18 -58.29,55.2 -58.29,97.92 0,60.68 47.78,109.86 106.72,109.86 58.94,0 106.72,-49.19 106.72,-109.86 0,-40.17 -20.94,-75.3 -52.21,-94.46 21.75,17.69 35.82,45.85 35.82,77.58 0,53.55 -40.1,96.96 -89.56,96.96zm0 0z"/>
   <path class="fil1" d="M929.26 471.13c-3.75,-2.84 -18.2,-26.31 -23.23,-31.33 -5.03,-5.03 -7.33,-6.77 -10.26,-8.77 -2.94,-2 -6.46,-3.74 -6.46,-3.74 0,0 2.81,5.58 3.58,9.97 0.77,4.38 0.16,8.67 -0.38,10.54 -0.55,1.87 -1.26,4.67 -1.26,4.67l-25.13 -0.28c0,0 14.64,9.99 32.2,35.78 17.55,25.79 25.81,26.3 25.81,26.3 0,0 6.52,2.71 9.55,0.97 3.03,-1.74 3.62,-4.12 2.97,-6.51 -0.65,-2.38 -1.68,-4.12 -3.94,-5.8 -2.26,-1.68 -9.1,-5.36 -9.1,-5.36l13.14 -24.36c0,0 -3.74,0.77 -7.48,-2.07zm0 0z"/>
   <path class="fil1" d="M948.16 506.07c-2.52,-0.52 -10.9,-2.45 -10.9,-2.45 0,0 0.96,1.87 1.8,3.28 0.84,1.42 0.77,2.39 0.2,5.1 -0.59,2.7 -2.91,4.45 -2.91,4.45 0,0 7.04,0.45 11.23,-1.42 4.2,-1.87 4.58,-8.71 4.58,-8.71 0,0 -1.48,0.26 -4,-0.26zm0 0z"/>
   <path class="fil1" d="M928.42 496.66c60.23,20.35 123.79,19.29 190.21,-0.26l-18.06 -33.27c-54.05,12.14 -105.28,11.93 -153.82,0l-18.33 33.53zm23.73 -6.94c2.3,0.19 4.61,0.38 6.92,0.58 -0.19,1.26 -0.14,2.27 0.16,2.99 0.49,1.16 1.45,1.83 2.89,2.03 1.05,0.13 1.94,-0.02 2.65,-0.49 0.71,-0.47 1.15,-1.07 1.31,-1.79 0.16,-0.68 0.01,-1.33 -0.41,-1.94 -0.42,-0.62 -1.53,-1.26 -3.34,-2.01 -2.93,-1.22 -4.85,-2.64 -5.76,-4.15 -0.92,-1.51 -1.07,-3.27 -0.46,-5.3 0.41,-1.32 1.1,-2.53 2.1,-3.63 0.98,-1.09 2.21,-1.89 3.66,-2.4 1.45,-0.5 3.26,-0.59 5.48,-0.32 2.73,0.34 4.68,1.24 5.88,2.67 1.21,1.43 1.71,3.5 1.49,6.29 -2.25,-0.08 -4.47,-0.19 -6.68,-0.32 0.11,-1.22 -0.06,-2.13 -0.48,-2.74 -0.43,-0.62 -1.11,-0.98 -2.07,-1.1 -0.79,-0.1 -1.43,0.03 -1.92,0.36 -0.51,0.34 -0.85,0.8 -0.99,1.37 -0.11,0.41 -0.02,0.8 0.2,1.19 0.23,0.39 0.91,0.81 2.07,1.27 2.85,1.14 4.87,2.22 6.05,3.16 1.18,0.95 1.99,2.02 2.4,3.25 0.41,1.23 0.5,2.58 0.23,4.03 -0.31,1.7 -1.03,3.22 -2.18,4.56 -1.16,1.34 -2.62,2.31 -4.39,2.86 -1.73,0.53 -3.82,0.65 -6.23,0.31 -4.21,-0.59 -6.86,-1.92 -7.93,-3.88 -1.05,-1.94 -1.26,-4.24 -0.66,-6.87zm39.99 8.83c-2.97,-0.17 -5.94,-0.35 -8.86,-0.59 -0.63,1.43 -1.23,2.85 -1.85,4.27 -2.72,-0.21 -5.41,-0.44 -8.09,-0.71 2.32,-4.26 4.63,-8.51 6.79,-12.83 2.14,-4.29 4.17,-8.61 6.14,-12.93 2.49,0.22 5,0.39 7.51,0.56 1.11,4.52 2.25,9.07 3.55,13.55 1.31,4.5 2.75,8.97 4.29,13.46 -2.85,-0.09 -5.68,-0.19 -8.49,-0.33 -0.35,-1.49 -0.69,-2.97 -1,-4.46zm-1.17 -5.86c-0.32,-1.62 -0.63,-3.24 -0.92,-4.86 -0.28,-1.61 -0.56,-3.24 -0.8,-4.86 -0.6,1.57 -1.19,3.14 -1.79,4.69 -0.61,1.57 -1.25,3.12 -1.87,4.67 1.78,0.13 3.58,0.24 5.38,0.35zm13.51 -15.8c2.13,0.07 4.3,0.11 6.48,0.17 1.53,2.47 3.08,4.92 4.7,7.35 1.62,2.44 3.34,4.86 5.09,7.29 -0.23,-2.43 -0.43,-4.85 -0.63,-7.29 -0.2,-2.43 -0.44,-4.85 -0.65,-7.29 2.19,-0.03 4.39,-0.07 6.59,-0.11 0.57,4.39 1.14,8.77 1.71,13.15 0.57,4.38 1.14,8.76 1.71,13.15 -2.58,0.07 -5.15,0.16 -7.71,0.19 -1.84,-2.4 -3.65,-4.8 -5.38,-7.21 -1.72,-2.4 -3.35,-4.85 -4.96,-7.3 0.07,2.43 0.17,4.85 0.26,7.27 0.08,2.43 0.14,4.84 0.23,7.27 -2.56,-0.03 -5.11,-0.07 -7.65,-0.1 0.03,-4.42 0.07,-8.85 0.11,-13.28 0.04,-4.42 0.06,-8.85 0.11,-13.27zm24.64 0.04c7.05,-0.3 14.05,-0.74 20.97,-1.32 0.6,2.14 1.23,4.27 1.83,6.41 -2.42,0.21 -4.84,0.42 -7.27,0.62 0.8,3.26 1.6,6.53 2.38,9.79 0.78,3.27 1.58,6.53 2.37,9.8 -2.7,0.2 -5.35,0.4 -8.05,0.56 -0.65,-3.28 -1.28,-6.57 -1.93,-9.85 -0.65,-3.28 -1.28,-6.57 -1.93,-9.85 -2.46,0.12 -4.93,0.23 -7.39,0.33 -0.31,-2.16 -0.65,-4.33 -0.98,-6.5zm32.09 24.21c-1.34,-4.31 -2.68,-8.61 -4.01,-12.92 -1.33,-4.3 -2.67,-8.61 -3.99,-12.92 3.72,-0.4 7.44,-0.83 11.09,-1.31 2.03,-0.26 3.66,-0.28 4.89,-0.02 1.23,0.26 2.42,0.89 3.58,1.89 1.14,1.01 2.07,2.33 2.78,3.92 0.62,1.4 0.92,2.64 0.85,3.73 -0.07,1.1 -0.48,2.05 -1.14,2.84 -0.43,0.5 -1.11,0.97 -2.07,1.4 0.97,0.18 1.74,0.4 2.25,0.64 0.34,0.17 0.9,0.55 1.68,1.14 0.8,0.59 1.35,1.05 1.68,1.39 1.09,1.11 2.22,2.23 3.33,3.33 1.13,1.1 2.28,2.2 3.43,3.29 -2.79,0.5 -5.62,1.02 -8.46,1.47 -1.2,-1.19 -2.39,-2.37 -3.57,-3.57 -1.18,-1.19 -2.34,-2.38 -3.49,-3.59 -0.88,-0.93 -1.53,-1.54 -2.05,-1.78 -0.67,-0.32 -1.34,-0.43 -2.01,-0.34 -0.22,0.02 -0.44,0.05 -0.62,0.07 0.61,1.74 1.22,3.46 1.84,5.2 0.62,1.73 1.22,3.46 1.85,5.18 -2.61,0.32 -5.24,0.65 -7.85,0.96zm2.43 -16.17c0.99,-0.12 2.01,-0.26 2.98,-0.4 0.32,-0.04 0.89,-0.26 1.73,-0.61 0.41,-0.17 0.69,-0.48 0.8,-0.95 0.12,-0.47 0.07,-0.98 -0.14,-1.53 -0.34,-0.83 -0.81,-1.42 -1.43,-1.8 -0.62,-0.38 -1.54,-0.49 -2.78,-0.32 -1,0.13 -2,0.26 -3,0.39 0.62,1.74 1.23,3.49 1.85,5.23zm12.78 -12.79c2.1,-0.36 4.21,-0.72 6.32,-1.08 2.13,4.06 4.26,8.13 6.38,12.19 2.12,4.06 4.24,8.13 6.36,12.18 -2.41,0.52 -4.84,1.04 -7.25,1.56 -1.96,-4.15 -3.94,-8.29 -5.9,-12.42 -1.96,-4.15 -3.94,-8.28 -5.91,-12.43zm0 0z"/>
   <path class="fil1" d="M1111.09 473.19l13.14 24.36c0,0 -6.84,3.67 -9.1,5.36 -2.25,1.67 -3.29,3.42 -3.94,5.8 -0.65,2.39 -0.06,4.78 2.97,6.51 3.04,1.74 9.55,-0.97 9.55,-0.97 0,0 8.26,-0.51 25.81,-26.3 17.55,-25.79 32.2,-35.78 32.2,-35.78l-25.13 0.28c0,0 -0.71,-2.8 -1.26,-4.67 -0.55,-1.87 -1.16,-6.16 -0.38,-10.54 0.77,-4.39 3.58,-9.97 3.58,-9.97 0,0 -3.51,1.74 -6.45,3.74 -2.94,2 -5.23,3.74 -10.26,8.77 -5.03,5.02 -19.48,28.49 -23.23,31.33 -3.74,2.84 -7.48,2.07 -7.48,2.07zm0 0z"/>
   <path class="fil1" d="M1110.57 503.63c0,0 -8.39,1.93 -10.91,2.45 -2.52,0.51 -3.99,0.26 -3.99,0.26 0,0 0.38,6.84 4.58,8.71 4.19,1.87 11.22,1.42 11.22,1.42 0,0 -2.32,-1.74 -2.9,-4.45 -0.58,-2.71 -0.65,-3.68 0.19,-5.1 0.83,-1.41 1.8,-3.28 1.8,-3.28zm0 0z"/>
   <path class="fil0" d="M1021.57 414.89c0.62,-0.83 1.34,-1.6 1.98,-2.18 4.16,-3.79 10.33,-5.8 15.74,-6.89 5.17,-1.04 11.11,-1.4 16.37,-1.74 7.71,-0.51 15.45,-0.82 23.17,-1.07 2.09,-0.07 4.17,-0.13 6.26,-0.19 10.14,-0.29 20.29,-0.47 30.44,-0.59 2.06,-0.02 4.12,-0.05 6.19,-0.05l1.17 0 0.45 1.08c0.55,1.29 -0.34,2.46 -1.43,3.09 -1.88,1.1 -5.31,1.56 -7.44,1.81 -2.92,0.35 -5.89,0.52 -8.82,0.63 -7.99,0.3 -15.99,0.68 -23.97,1.19 -6.1,0.39 -12.22,0.85 -18.29,1.55 -3.27,0.37 -8.34,0.9 -11.39,2.05 -4.81,1.79 -14.23,6.41 -17.12,10.46 -1.75,2.45 -3.11,6.08 -3.82,8.98 -0.71,2.88 -1.06,6.09 -0.52,9.02 0.49,2.68 1.25,5.4 2.39,7.89 0.34,0.75 1.18,2.46 1.77,3.04 0.19,0.2 0.35,0.41 0.47,0.65 1.26,2.57 -1.99,5.15 -4.33,5.44 -4.06,0.51 -8.11,-2.05 -10.03,-5.54 -1.17,-2.14 -1.42,-6.22 -1.74,-8.68 -0.51,-3.9 -1.28,-7.67 -2.99,-11.24 -0.97,-2.02 -2.19,-3.88 -3.69,-5.55 -3.27,-3.67 -7.17,-6.9 -11.53,-9.2 -1.33,-0.71 -4.49,-2.19 -6.02,-2.33 -0.86,-0.08 -2.27,-0.55 -3.13,-0.77 -2.12,-0.56 -4.24,-1.07 -6.39,-1.53 -7.16,-1.53 -14.48,-2.46 -21.8,-2.8 -4.78,-0.22 -9.58,-0.2 -14.36,0.08 -6.32,0.38 -12.98,0.71 -19.31,0.35 -2.4,-0.13 -5.45,-0.38 -7.7,-1.26 -1.24,-0.48 -1.64,-0.89 -2.6,-1.68 -1.16,-0.95 -2.07,-2.54 -2.07,-4.08l0 -1.77 74.33 0.14c5.7,0.1 15.77,1.05 20.71,3.84 3.13,1.77 6.53,4.78 9.08,7.84zm0 0z"/>
   <path class="fil1" d="M1039.63 407.55c-16,3.23 -17.81,10.57 -17.81,10.57 0,0 -4.27,-6.19 -10.2,-9.55 -5.94,-3.35 -19.87,-3.61 -19.87,-3.61l-32.93 -0.06 -31.82 -0.06 -7.78 -0.02c0,0 0,1.55 1.42,2.71 0.93,0.76 1.64,2.12 9.28,2.55 4.05,0.22 10.07,0.18 19.11,-0.35 5.18,-0.31 10.05,-0.3 14.55,-0.09 18.18,0.86 30.26,5.02 31.39,5.11 1.42,0.13 10.2,2.58 18.72,12.12 1.7,1.91 2.98,3.93 3.96,5.96 3.9,8.15 2.93,16.64 4.69,19.83 2.19,4 6.2,4.9 8.26,4.64 2.07,-0.26 3.61,-2.32 2.84,-3.09 -0.77,-0.77 -3.36,-4.77 -4.65,-11.86 -0.57,-3.14 -0.23,-6.58 0.55,-9.75 0.98,-4 2.66,-7.59 4.1,-9.6 2.58,-3.61 10.71,-8.38 17.94,-11.09 4.39,-1.64 17.06,-2.85 30.19,-3.7 8.53,-0.55 17.26,-0.95 24.02,-1.2 3.67,-0.13 6.5,-0.35 8.69,-0.62 8.08,-0.96 7.44,-2.48 7.44,-2.48 0,0 -2.31,0.01 -6.17,0.06 -6.75,0.07 -18.24,0.24 -30.42,0.58 -18.1,0.51 -37.71,1.41 -45.49,2.97zm0 0z"/>
   <path class="fil2" d="M1057.69 423.28c1.7,-0.2 3.39,-0.45 4.98,-0.75 1.72,-0.32 3.43,-0.73 5.1,-1.25 5.79,-1.8 15.01,-1.34 20.99,-0.44l2.07 0.31 -0.8 1.94c-0.42,1.01 -1.43,2 -2.31,2.61 -2.37,1.68 -5.5,2.22 -8.34,2.27 -7.25,0.12 -14.52,0.34 -21.77,0.53 -1.81,0.04 -3.63,0.11 -5.44,0.15 -0.95,0.83 -2.13,1.87 -2.89,2.79 3.82,-0.11 8.01,-0.32 11.54,-0.89 2.88,-0.47 5.76,-0.94 8.64,-1.42l5.24 -0.89 -3.83 3.68c-4.08,3.92 -11.3,6.69 -16.76,7.53 -6.89,1.06 -14.37,1.54 -21.35,1.53l-2 0 0.4 -1.96c0.39,-1.98 1.46,-4.41 2.38,-6.17 5.13,-9.78 14.32,-15.8 24.9,-18.43 6.71,-1.66 13.63,-2.67 20.52,-3.27 6.35,-0.54 12.75,-0.74 19.12,-0.62 2.64,0.05 5.36,0.13 8,0.36l3.27 0.29 -2.19 2.44c-2.58,2.88 -7.46,4.45 -11.19,4.66 -7.55,0.44 -15.1,0.28 -22.66,0.94 -1.78,0.16 -3.61,0.35 -5.37,0.71 -2.63,0.54 -5.86,1.12 -8.3,2.29 -0.66,0.32 -1.31,0.68 -1.94,1.05zm0 0z"/>
   <path class="fil1" d="M1058.83 416.02c-14.18,3.51 -20.85,11.9 -23.83,17.6 -1.74,3.33 -2.24,5.74 -2.24,5.74 0,0 11.04,0.03 21.1,-1.52 10.06,-1.55 15.87,-7.09 15.87,-7.09 0,0 -3.87,0.65 -8.65,1.42 -4.78,0.77 -14.39,0.97 -14.39,0.97 0,0 0.25,-1.35 1.13,-2.5 0.02,-0.02 0.02,-0.03 0.04,-0.05 0.9,-1.16 3.68,-3.56 3.68,-3.56 0,0 2.47,-0.07 6.02,-0.16 6.58,-0.18 16.85,-0.45 21.79,-0.53 7.62,-0.13 9.16,-3.87 9.16,-3.87 0,0 -12.77,-1.94 -20.25,0.39 -1.74,0.53 -3.54,0.95 -5.28,1.28 -5.75,1.09 -10.85,1.16 -10.85,1.16 0,0 1.29,-1.42 4.39,-3.22 3.09,-1.81 4.13,-2.32 11.1,-3.74 1.53,-0.32 3.44,-0.56 5.55,-0.74 7.47,-0.65 17.48,-0.64 22.71,-0.94 6.71,-0.39 10.07,-4.13 10.07,-4.13 0,0 -11.98,-1.01 -26.84,0.26 -6.46,0.56 -13.46,1.54 -20.26,3.23zm0 0z"/>
   <path class="fil0" d="M998.35 433.24c-0.72,-0.8 -1.73,-1.7 -2.58,-2.44 -7.15,-0.19 -14.3,-0.41 -21.46,-0.56l4.25 0.71c2.88,0.48 5.76,0.95 8.64,1.42 3.42,0.55 7.44,0.77 11.15,0.87zm-25.32 -3.03c-1.47,-0.03 -2.94,-0.06 -4.41,-0.09 -2.88,-0.04 -6.04,-0.59 -8.44,-2.29 -0.89,-0.64 -1.93,-1.64 -2.36,-2.68l-0.89 -2.13 2.29 -0.35c6,-0.9 15.25,-1.35 21.07,0.45 2.95,0.92 6.09,1.5 9.18,1.88 -0.38,-0.22 -0.78,-0.43 -1.18,-0.62 -2.43,-1.16 -5.64,-1.75 -8.26,-2.28 -1.16,-0.23 -2.35,-0.39 -3.53,-0.52 -8.12,-0.9 -16.34,-0.65 -24.47,-1.11 -3.78,-0.22 -8.69,-1.81 -11.31,-4.72l-2.43 -2.7 3.62 -0.3c2.73,-0.23 5.54,-0.32 8.26,-0.37 6.56,-0.11 13.15,0.11 19.68,0.69 6.63,0.6 13.29,1.6 19.75,3.2 9.21,2.29 17.39,7.1 22.85,14.98 1.8,2.59 3.93,6.6 4.55,9.76l0.42 2.16 -2.19 0c-6.99,0.01 -14.49,-0.48 -21.38,-1.54 -5.48,-0.84 -12.74,-3.63 -16.84,-7.58l-3.98 -3.82zm0 0z"/>
   <path class="fil1" d="M1010.97 432.25c-3.64,-5.26 -10.21,-11.38 -21.8,-14.25 -6.53,-1.62 -13.24,-2.59 -19.48,-3.15 -15.22,-1.38 -27.62,-0.33 -27.62,-0.33 0,0 3.36,3.74 10.06,4.13 5.69,0.32 17,0.28 24.58,1.12 1.37,0.16 2.62,0.34 3.69,0.56 6.97,1.42 8.01,1.93 11.1,3.74 3.09,1.8 4.39,3.22 4.39,3.22 0,0 -2.13,-0.03 -5.2,-0.35 -3.1,-0.32 -7.16,-0.94 -10.94,-2.1 -7.48,-2.32 -20.26,-0.39 -20.26,-0.39 0,0 1.55,3.74 9.16,3.87 7.61,0.13 27.8,0.7 27.8,0.7 0,0 2.78,2.4 3.68,3.56 0.9,1.16 1.16,2.55 1.16,2.55 0,0 -9.61,-0.19 -14.39,-0.97 -4.78,-0.77 -8.64,-1.42 -8.64,-1.42 0,0 5.81,5.54 15.87,7.09 10.06,1.55 21.11,1.52 21.11,1.52 0,0 -0.85,-4.16 -4.27,-9.08zm0 0z"/>
   <path class="fil1" d="M1011.29 337.05l9.91 71.3c0,0 0.13,0.04 1.16,0.84 1.03,0.8 2.35,-0.71 2.35,-0.71l7.49 -71.43 -20.91 0zm0 0z"/>
   <path class="fil1" d="M1017.97 401.08l-13.03 -10.87 9.42 -7.74 -0.45 -4.38 -10.84 10.38 -9.94 -11.09 0.71 -2.58c0.26,-0.9 1.42,-0.65 1.42,-0.65 0,0 0.07,-2.13 0.77,-3.8 0.71,-1.68 1.42,-0.59 2.78,-1.61 1.35,-1.03 -0.71,-4.51 -0.71,-4.51 0,0 -4.13,2.26 -5.81,3.29 -1.68,1.03 0.07,2.39 0.07,3.74 0,1.35 -1.43,2.97 -1.43,2.97l-6.9 -9.1 10.94 -7.16 -2.1 -1.19 -9.9 6.23 -3.33 -5.41c0,0 1.64,-2.13 3.58,-3.68 1.94,-1.55 7.81,-3.38 7.81,-3.38 0,0 -0.32,1.1 2.13,2.8 2.46,1.71 5.3,1.74 5.3,1.74l1.87 7.61c0,0 4.64,-1.29 6.2,0.06 1.55,1.36 -1.1,0.91 -2.97,1.68 -1.87,0.77 -0.9,1.1 -0.06,2.51 0.83,1.42 2.52,-1.22 4.13,-1.16 1.61,0.06 2,1.68 3.03,1.87 1.04,0.2 1.42,-1.04 1.42,-1.35 0,-0.32 -4.58,-5.87 -4.12,-7.29 0.45,-1.41 3.54,-0.96 3.54,-0.96l-2.84 -15.48c0.06,0.33 -6.99,1.62 -6.99,1.62 0,0 -15.49,2.58 -29.95,12.89 -14.45,10.32 -23.94,26.11 -23.94,26.11 0,0 -0.06,2.07 0.52,2.39 0.58,0.32 3.03,-1.04 3.03,-1.04 0,0 4.58,3.42 7.23,5.1 2.64,1.68 12.72,7.29 12.72,7.29l0.58 4.57 2.07 -2.06c0,0 10.23,4.05 11.97,4.05 1.74,0 2.32,-1.32 2.32,-1.32l-15.1 -8.06c-15.1,-8.06 -20.35,-13.02 -20.35,-13.02 0,0 1.42,-2.32 6.83,-9.16 5.42,-6.83 15.94,-12.57 15.94,-12.57l3.94 6.19c0,0 -1.62,1.48 -6.91,6.12 -5.29,4.64 -10.9,12.9 -10.9,12.9l3.42 1.62c0,0 2.58,-4.96 6.13,-9.28 3.55,-4.32 9.78,-8.73 9.78,-8.73l7.17 8.96 -6.36 5.9 1.16 3.22 7.29 -6.47 10.39 11.08 -9.03 11.99 3.74 0.71 7.94 -10.86 11.78 9.86 -2.55 3.64 1.68 0.74c0,0 1.68,-1.7 2.84,-2.8 1.16,-1.1 0.93,-3.06 0.93,-3.06zm0 0z"/>
   <path class="fil1" d="M956.11 398.2c0,0 2.97,-2 3.29,-3.48 0.32,-1.49 -0.84,-2.58 -0.84,-2.58 0,0 -2.25,1.49 -2.58,3.74 -0.32,2.26 0.13,2.32 0.13,2.32zm0 0z"/>
   <path class="fil1" d="M1000.76 374.54c2.07,1.03 3.42,2.19 5.81,2.77 2.39,0.58 2.91,-1.1 2.91,-1.1 0,0 -0.07,-1.03 -0.78,-1.22 -0.71,-0.19 -1.22,-3.29 -3.74,-5.23 -2.52,-1.93 -5.55,0.97 -5.55,0.97l-0.71 1.49c0,0 0,1.28 2.07,2.32zm0 0z"/>
   <path class="fil1" d="M1031.93 364.29c0,0 0.35,1.16 1.64,3 1.29,1.84 7.19,6.51 7.19,6.51l-5.35 0.17 -0.19 5.61 -3.87 3.28c0,0 1.61,4.33 1.1,5.87 -0.51,1.55 -1.03,1.42 -2.97,2.32 -1.94,0.9 -0.32,3.87 -0.32,3.87l10.52 0.26c0,0 0.32,0.52 2.07,1.87 1.74,1.35 6.45,3.04 6.77,3.04 0.32,0 1.22,1.48 1.22,1.48l3.68 2 0.65 -2.19 2 -0.06c0,0 0,1.74 0.58,2.45 0.58,0.71 2.58,-1.29 3.03,-2.25 0.45,-0.97 0.58,-4.39 0.58,-4.39 0,0 -4.45,2 -8.77,2 -4.33,0 -10.84,-5.74 -10.84,-5.74 0,0 2.19,-2.39 2.19,-4.77 0,-2.39 -2.52,-2.52 -5.1,-4.38 -2.58,-1.87 -1.03,-3.67 -1.03,-3.67 0,0 1.74,-0.52 3.54,-0.26 1.81,0.26 0.84,1.16 2.65,2.13 1.8,0.97 7.48,1.87 7.48,1.87l0.77 4.19c0.77,4.19 3.03,8.1 4.63,7.9 1.6,-0.19 4.7,-2.54 5.61,-3.76 0.9,-1.22 1.52,-5.67 1.52,-5.67 0,0 3.16,0.52 4.33,0.9 1.16,0.39 4.26,0.77 4.26,0.77 0,0 -0.07,8.97 -0.07,10.84 0,1.87 0.32,2.77 0.71,3.28 0.38,0.52 1.87,-0.38 2.13,-0.71 0.26,-0.32 0.32,-12.18 0.32,-12.18 0,0 2.19,0.06 3.29,0.06 1.1,0 6.45,-0.06 6.45,-0.06 0,0 0.07,0.26 0.2,1.16 0.13,0.9 0.49,7.06 0.49,7.06l1.55 0.97 0.52 -9.59c0,0 2.77,-1.29 2.25,-2 -0.52,-0.71 -3.29,-0.39 -3.29,-0.39 0,0 -1.16,-4.32 -1.8,-5.67 -0.65,-1.35 -1.68,-6.84 -1.68,-6.84l1.74 0.06c0,0 1.74,2.52 2.64,4 0.91,1.48 4.39,8.96 5.42,9.8 1.04,0.83 2,-0.71 1.87,-1.29 -0.13,-0.58 -6,-9.55 -7.03,-10.77 -1.04,-1.23 0,-3.09 0,-3.09 0,0 1.74,1.16 2.71,2.26 0.96,1.1 3.39,5.02 4.45,6.25 1.07,1.23 3.75,-0.13 3.75,-0.13 0,0 -5.3,-7.35 -6.84,-9.67 -1.55,-2.32 -10.84,-10.83 -25.03,-18.95 -14.19,-8.13 -32.01,-10.57 -32.01,-10.57l2.2 2.96 -2.19 2.19 10.52 0 0.26 2c0,0 -10.57,2.13 -10.97,2.26 -0.39,0.13 0.13,2.9 0.13,2.9 0,0 0.77,-0.25 6.65,-1.35 5.87,-1.1 6.45,3.67 6.45,3.67 0,0 0,0.07 -4.26,1.62 -4.26,1.55 -11.09,5.61 -11.09,5.61zm11.54 -2.52c2.64,-1.03 9.68,-0.26 9.68,-0.26l-9.61 9.61c0,0 -3.36,-1.29 -4.52,-2.26 -1.16,-0.97 -2.19,-2.5 -2.32,-2.38 0,0 4.13,-3.68 6.77,-4.71zm2.64 10.51l8.07 -8.31c0,0 5.36,0.97 7.23,2.45 1.87,1.48 2.91,4.19 2.84,4.57 -0.06,0.39 1.1,2.07 1.42,1.74 0.32,-0.32 0.9,-2.64 0.9,-2.64 0,0 1.74,-0.83 3.23,-0.38 1.49,0.45 1.55,4.51 1.55,4.51l0.26 11.09 -7.62 -1.23c0,0 -0.32,-1.68 0.13,-3.87 0.45,-2.19 0.45,-4.25 0.45,-4.25 0,0 -2.32,-0.65 -2.52,-0.26l-2.77 5.87c0,0 -6.71,-3.22 -8.78,-4.9 -2.07,-1.68 -4.39,-4.39 -4.39,-4.39zm-1.16 2.07l0.13 0.16c0.56,0.68 2.76,3.31 4,4.09 1.42,0.9 9.61,5.68 9.61,5.68l0.32 6.38c0,0 -0.51,2.06 -1.87,-0.52 -1.35,-2.58 -2.91,-4.9 -3.42,-5.67 -0.52,-0.77 -7.49,-4.84 -8.39,-5.61 -0.9,-0.77 -1.87,-2.45 -1.87,-2.45 0,0 -0.26,-1.29 0.61,-1.68l0.87 -0.38zm29.65 11.48l0.06 -13.41c0,0 0.71,-0.39 2.13,0.25 1.42,0.65 2.32,2.32 3.29,3.8 0.97,1.49 2.91,9.55 2.91,9.55l-8.39 -0.2zm0 0z"/>
   <path class="fil1" d="M1004.36 332.09c11.23,2.53 22.62,2.63 34.2,0l0 -12.9c-11.4,2.62 -22.8,3.22 -34.2,0l0 12.9zm0 0z"/>
   <path class="fil1" d="M1024.23 307.91l0 9.28c0,0.2 -0.03,0.39 -0.08,0.58l4.29 0c-0.05,-0.19 -0.08,-0.38 -0.08,-0.58l0 -9.28c0,-1.25 1.02,-2.26 2.26,-2.26 1.24,0 2.26,1.01 2.26,2.26l0 9.28c0,0.2 -0.03,0.39 -0.07,0.58l2.65 0 0 -18.31 -28.77 0 0 18.31 4.46 0c-0.04,-0.19 -0.07,-0.38 -0.07,-0.58l0 -9.28c0,-1.25 1.01,-2.26 2.26,-2.26 1.24,0 2.25,1.01 2.25,2.26l0 9.28c0,0.2 -0.02,0.39 -0.08,0.58l4.28 0c-0.05,-0.19 -0.08,-0.38 -0.08,-0.58l0 -9.28c0,-1.25 1.01,-2.26 2.26,-2.26 1.24,0 2.26,1.01 2.26,2.26zm0 0z"/>
   <path class="fil1" d="M1021.13 294.5l10.58 0.06c2.61,0.02 8.58,-13.14 1.29,-19.99 -5.75,-5.41 -11.87,-15.34 -11.87,-15.34 0,0 -6.11,9.94 -11.87,15.34 -7.29,6.85 -1.31,20.01 1.29,19.99l10.58 -0.06zm0 0z"/>
   <path class="fil1" d="M1047.45 268.19l-2.41 7.37 6.26 -4.57 6.26 4.57 -2.4 -7.37 6.28 -4.54 -7.75 0.02 -2.38 -7.38 -2.39 7.38 -7.75 -0.02 6.29 4.54zm0 0z"/>
   <path class="fil1" d="M1069.05 282.23l-7.75 -0.02 6.28 4.54 -2.41 7.36 6.26 -4.57 6.26 4.57 -2.41 -7.36 6.28 -4.54 -7.75 0.02 -2.38 -7.38 -2.38 7.38zm0 0z"/>
   <path class="fil1" d="M1081.18 303.38l-7.75 -0.02 6.28 4.54 -2.41 7.36 6.26 -4.56 6.26 4.56 -2.41 -7.36 6.28 -4.54 -7.75 0.02 -2.38 -7.38 -2.38 7.38zm0 0z"/>
   <path class="fil1" d="M1089.76 326.18l-2.38 7.38 -7.75 -0.02 6.28 4.54 -2.41 7.37 6.26 -4.57 6.26 4.57 -2.41 -7.37 6.28 -4.54 -7.75 0.02 -2.38 -7.38zm0 0z"/>
   <path class="fil1" d="M995.87 275.55l-2.41 -7.37 6.29 -4.54 -7.75 0.02 -2.39 -7.38 -2.38 7.38 -7.75 -0.02 6.28 4.54 -2.4 7.37 6.26 -4.57 6.26 4.57zm0 0z"/>
   <path class="fil1" d="M981.68 282.21l-7.75 0.02 -2.38 -7.38 -2.38 7.38 -7.75 -0.02 6.28 4.54 -2.41 7.36 6.26 -4.57 6.26 4.57 -2.41 -7.36 6.28 -4.54zm0 0z"/>
   <path class="fil1" d="M969.03 303.36l-7.75 0.02 -2.38 -7.38 -2.38 7.38 -7.75 -0.02 6.28 4.54 -2.41 7.36 6.26 -4.56 6.26 4.56 -2.41 -7.36 6.28 -4.54zm0 0z"/>
   <path class="fil1" d="M956.8 333.56l-2.38 -7.38 -2.38 7.38 -7.75 -0.02 6.28 4.54 -2.41 7.37 6.26 -4.57 6.26 4.57 -2.41 -7.37 6.28 -4.54 -7.75 0.02zm0 0z"/>
   <path class="fil1" d="M1010.18 223.98l-6.3 19.26 16.39 -11.94 16.38 11.94 -6.3 -19.26 16.43 -11.87 -20.28 0.04 -6.23 -19.29 -6.23 19.29 -20.28 -0.04 16.43 11.87zm0 0z"/>
  </g>
  <g id="_1450778009840">
   <path class="fil3" d="M1540.97 838.78c-7.62,0 -11.65,-4.86 -11.65,-11.64 0,-7.9 10,-16.3 17.47,-16.3 7.11,0 10.93,-0.71 16.06,6.15 2.91,3.89 2.55,6.81 -0.55,10.48 -2.93,3.47 -15.99,11.32 -21.34,11.32zm-428.52 34.93c0,12.55 0.98,25.05 6.15,34.6 2.21,4.09 4.56,6.49 8.45,9.01 15.5,10.06 32.17,-0.25 41.49,-11.98 5.73,-7.21 10.89,-21.54 17.27,-25.81 5.21,1.39 7.51,6.2 11.85,9.11 4.74,3.18 8.56,5.6 13.53,8.59 53.16,32.08 138.37,27.27 198.89,12.11 37.39,-9.37 80.23,-24.82 112.93,-44.27 20.21,-12.03 4.67,-4.17 36.59,-4.17 23.99,0 34.04,-36.1 52.4,-36.1 8.3,0 14.21,12.07 25.62,-1.16 8.61,-9.98 19.2,-26.35 7.82,-39.27 -4.53,-5.14 -4.82,-2.88 -6.66,-10.8 -9.55,0.79 -8.47,12.01 -17.43,18.67 -19.55,14.55 -21.63,23.39 -35.84,37.52 -6.54,6.5 -12.35,12.23 -24.75,12.51 1.47,-5.5 18.89,-21.97 12.03,-42.29 -7.88,-23.36 -31.89,-0.13 -40.29,8.22 -3.57,3.56 -7.95,9.23 -10.84,13.61 -11.64,17.69 -3.91,25.13 -2.82,29.78 -4.54,0.38 -6.01,1.5 -9.81,3 -16.01,6.31 -54.4,17.19 -69.46,20.2 -38.11,7.63 -73,8.24 -114.03,8.24 -32.4,0 -85.38,-13.76 -114.49,-27.57 -16.96,-8.05 -16.54,1.37 -33.08,17.41 -17.34,16.82 -49.22,14.35 -49.22,-14.29 0,-16.19 0.8,-20.25 2.22,-35.04 2.19,-22.75 11.37,-71.21 7.09,-89.56 -10.03,7.35 -15.13,56.41 -16.5,66.17 -2.95,20.94 -9.11,54.07 -9.11,73.56z"/>
   <path class="fil3" d="M885.39 807.34c5.78,-8.64 12.81,-8.76 12.81,-19.8 0,-18.18 -28.61,-23 -46.78,-8.35 -5.11,4.12 -8.46,9.31 -6.78,16.5 2.33,-0.19 13.44,-5.65 17.47,11.65 -7.42,3.92 -14.3,9.32 -25.62,9.32 -35.15,0 -23.24,-45.64 -20.15,-69.05 2.27,-17.15 3.84,-29.41 3.84,-47.39 0,-4.45 0.36,-0.42 -1.16,-3.49 -4.42,3.24 -11.61,27.91 -13.3,34.45 -1.9,7.38 -8.8,67.17 -12.21,84.44 -2.59,13.08 -4.93,28.7 -14.08,34.82 -0.14,-6.1 -3.56,-15.75 -5.83,-19.79 -6.06,-10.78 -20.06,-16.3 -27.19,-2.76 -2.24,4.24 -2.95,8.01 -4.64,12.83 -0.62,1.76 -27.68,40 9.72,40 4.42,0 7.88,-1.45 11.64,-2.33 -1.06,12.76 -31.89,28.36 -42.3,34.56 -9.3,5.54 -12.28,6.39 -12.43,13.18 7.9,0 10.99,-3.04 17.28,-4.84 20.38,-5.83 23.99,2.62 39.77,-28.93 2.6,-5.2 4.56,-9.58 7,-15.12 6.93,-15.7 13.62,-12.09 22.6,-35.62 1.38,-3.6 1.53,-5.54 4.17,-7.48 0.86,10.32 10.66,19.8 23.29,19.8 15.07,0 41.71,-25.93 47.74,-34.93 8.03,5.38 7.94,9.32 22.12,9.32 12.73,0 22.99,-13.96 27.9,-22.17 7.51,-12.57 10.59,-20.03 14.73,-36.51 4.99,-19.87 10.94,-68.88 10.94,-90.37 -2.63,0.95 -1.74,0.63 -3.31,2.51l-5.68 11.79c-19.08,47.91 -2.87,67.89 -20.09,101.01 -7.14,13.73 -13.75,16.91 -31.46,12.79z"/>
   <path class="fil3" d="M1000.67 853.92c5.4,-1.44 7.2,-6.36 11.85,-9.11 15.85,-9.37 33.04,-2.75 42.88,-2.53l0 3.49c-3.46,0.92 -7.73,5.54 -12.66,9.47l-24.33 21.09c-16.91,16.73 -37.05,46.71 -43.38,70.74 -7.82,29.71 -5.39,58.63 14.7,77.32 26.35,24.53 65.29,13.7 92.92,-4.64 18.75,-12.44 22.28,-19.07 35.34,-32.2 6.93,-6.96 24.77,-31.8 29.04,-39.67 1.42,-2.63 7.6,-17.18 -1.02,-9.44 -2.03,1.83 -2.78,4.01 -5.29,6.62 -19.82,20.65 -28.46,32.6 -56.19,46.28 -18.33,9.04 -29.96,9.3 -50.09,9.3 -39.76,0 -67.01,-53.46 -18.91,-107.41 8.51,-9.54 17.16,-17.77 27.24,-25.16 9.68,-7.1 28.47,-20.48 35.07,-27.81 10.31,-11.47 -1.87,-18.94 -15.45,-18.94 -13.68,0 -35.61,-0.09 -44.97,6.27 -4.17,2.83 -16.07,18.24 -16.75,26.34z"/>
   <path class="fil3" d="M596.6 1002.97c0,16.36 -0.89,58.65 0.92,72.44 0.76,5.83 -0.08,6.27 3.74,9.07 5.13,-10.69 5.78,-42 7.05,-58.16 0.41,-5.3 1.01,-8.28 1.06,-15.24 0.05,-6.63 1.26,-8.04 1.24,-15.06l2.25 -47.82c0.11,-13.04 5.02,-61.68 6.96,-75.72 3.54,-25.55 12.34,-51.66 34.61,-65.53 15.49,-9.64 31.37,-10.89 50.47,-15.9 8.63,-2.26 16.02,-5.35 21.84,-10.76 9.2,-8.56 16.71,-24.64 15.2,-34.44 -1.27,-8.21 -25.68,-17.7 -33.56,-17.7 -6.33,0 -16.85,22.05 -19.03,28.71 -3.86,11.78 -6.26,2.85 -30.13,18.78 -56.95,38 -62.63,156.91 -62.63,227.32z"/>
   <path class="fil3" d="M225.14 914.47c21.46,0 44.29,-5.49 55.39,-22.63 3.47,-5.35 6.11,-12.54 10.98,-15.8 0,10.87 2.18,18.38 8.48,26.46 32.33,41.52 51.99,-25.29 66.05,-25.29 9.21,0 19.27,24.61 43.78,-19.1 2.57,-4.58 3.71,-8.05 2.8,-12.34 -6.52,1.74 -9.42,10.57 -13.75,15.37 -10.43,11.56 -19.52,-5.65 -31.7,0.84 -15.37,8.19 -15.89,15.23 -36.06,15.23 -7.02,0 -12.89,-3.32 -16.25,-7.04 -14.55,-16.15 2.14,-40.82 -0.05,-51.18l-3.49 0c-1.17,5 -11.68,25.13 -14.77,30.65 -2.74,4.9 -5.24,9.34 -8.28,13.85 -6.87,10.2 -13.08,14.51 -23.53,21.88 -11.75,8.3 -25.2,15.37 -34.84,22.22 -2.85,2.03 -4.38,2.26 -4.76,6.88z"/>
   <path class="fil3" d="M1882.16 914.47c21.32,0 45.01,-5.38 55.41,-22.6 3.06,-5.06 6.77,-13.02 10.96,-15.82 0,31.17 32.96,58.87 55.11,21.34 9.54,-16.17 19.65,-41.69 -0.38,-55.11 -9.32,4.93 -15.12,24.93 -19.8,33.77 -12.58,-1.05 -17.47,-12.47 -17.47,-25.62 0,-11.9 8.12,-21.58 5.82,-31.44l-3.49 0c-1.34,5.76 -17.7,37.28 -22.79,44.75 -1.73,2.54 -3.38,4.47 -5.16,6.49l-56.58 40.07c-1.99,2.42 -1.24,-0.64 -1.64,4.18z"/>
   <path class="fil3" d="M1811.13 828.3c-6.72,6.37 -9.54,18.63 -20.96,18.63 -9.41,0 2.13,-10.62 -20.48,5.13 -24.78,17.27 -34.34,4.22 -46.65,2.71 -21.24,-2.62 -51.37,38.86 -61.65,55.51 -7.24,11.73 -2.68,15.53 6.28,6.28 4.81,-4.96 8.24,-11.43 13.37,-15.74 32.61,-27.36 49.2,19.07 76.53,-16.63 21.55,-28.15 18.25,-16.31 27.94,-16.31 8.98,0 16.64,-14.7 20.04,-18.39 6.87,-7.47 13.33,5.22 23.84,-15.75 3.19,-6.36 6.71,-12.21 5.03,-19.42 -6.48,1.73 -5.92,8.35 -9.46,13.86 -5.24,8.17 -6.96,1.95 -13.83,0.11z"/>
   <path class="fil3" d="M446.39 888.85c7.28,-15.17 9.9,-41.86 12.74,-61.78 1.13,-7.93 8.64,-63 7.05,-66.31 -6.65,4.87 -18.45,44.6 -19.7,58.32 -1.1,12.09 -3.49,65.39 -8.59,70.59 -1.5,1.53 -13.88,3.9 -8.52,14.94 11.84,24.36 55.77,9.03 66.94,-57.83 5.65,-33.84 12.96,-68.1 12.96,-106.98 -4.49,1.2 -3.75,2.58 -5.51,7.3 -1.27,3.39 -2.59,6.35 -3.64,9.17 -4.61,12.4 -10.53,29.29 -10.69,42.87 -0.24,20.42 -0.39,56.69 -9.24,69.94 -6.94,10.39 -20.13,19.46 -33.8,19.77z"/>
   <path class="fil3" d="M120.34 877.21c-15.8,0 -25.99,-20.01 -57.95,16.58l-11.43 13.02c-5.33,6.81 -17.31,23.19 -17.96,30.95 16.24,0 20.51,-29.11 43.08,-29.11 20.53,0 17.67,6.99 31.44,6.99 20.48,0 32.19,-38.43 44.25,-38.43 9.51,0 15.75,19.59 35.28,-6.64 3.12,-4.19 11.3,-15.39 11.3,-21.3 0,-4.45 0.36,-0.42 -1.16,-3.49 -5.67,1.51 -7.18,9.46 -13.27,15.84 -6.94,7.28 -14.75,1.57 -21.8,-0.68 -12.9,-4.12 -22.05,16.28 -41.78,16.28z"/>
   <path class="fil3" d="M1209.1 778.23c-5.49,-2.91 -9.54,-5.16 -14.91,-8.38l-15.37 -7.92c-1.91,8.18 -12.17,19.08 -12.81,26.78l29.11 16.3c3.73,-7.06 7.79,-13.68 11.65,-20.96 10.1,5.35 19.08,10.99 29.11,16.3 3.12,-5.89 12.84,-21.9 13.97,-26.78 -6.69,-1.56 -24.85,-14.85 -30.28,-16.3 -0.7,3 -8.52,17.26 -10.48,20.96z"/>
   <path class="fil3" d="M1692.35 756.11c2.14,2.92 14.85,11.44 18.63,13.97 -5.48,10.36 -18.11,21.68 -18.63,27.95 4.15,1.11 8.16,5.09 12.11,7.69 6.16,4.07 7.33,6.28 12.35,7.45l19.8 -27.95c-4.88,-1.3 -15.25,-9.76 -19.8,-12.81 3.08,-4.6 17.83,-23.77 18.63,-26.78 -1.59,-2.17 -20.68,-16.46 -24.45,-17.47 -1.47,5.49 -17.17,22.45 -18.63,27.95z"/>
   <path class="fil3" d="M945.94 917.96c5.48,-1.46 7.21,-6.96 9.3,-11.66 6.59,-14.8 10.58,-34.19 13.32,-50.72 3.13,-18.9 9.98,-57.15 9.98,-75.02 -7.55,2.02 -13.31,20.62 -16.3,26.78 -8.73,17.96 -10.83,51.08 -12.92,73.25 -0.72,7.63 -5.71,32.53 -3.39,37.37z"/>
   <path class="fil3" d="M237.95 832.96c18.85,-5.03 32.61,-120.47 32.61,-137.41 -6,1.6 -10.14,13.48 -12.47,18.97 -10.97,25.81 -8.25,10.87 -12.2,42.53 -1.1,8.86 -9.61,72.42 -7.94,75.9z"/>
   <path class="fil3" d="M536.05 878.37c3.85,-0.9 4.13,-1.3 6.13,-4.35 3.46,-5.28 7.94,-16.75 9.69,-22.92 5.13,-18.14 20.69,-101.71 16.79,-110.13 -5.92,2.14 -20.04,35.83 -21.42,41.46l-9.06 75.94c-0.81,6.68 -2.12,11.8 -2.12,20z"/>
   <path class="fil3" d="M1811.13 921.46c13.22,0 42.3,-9.2 52.15,-18.88 11.22,-11.04 17.05,-34.8 21.62,-50.57 1.9,-6.53 3.29,-11.76 4.94,-18.35 1.96,-7.83 5.96,-12.97 0.47,-17 -10.79,7.23 -14.53,48.79 -34.16,68.31 -2.12,2.11 -3.77,2.83 -6.31,5.34 -4.48,4.45 -8.12,6.7 -13.09,10.2l-20.34 14.6c-3.32,2.41 -4.2,2.28 -5.29,6.36z"/>
   <path class="fil3" d="M1072.86 733.98l1.31 -4.61c9.35,-2.47 10.34,-1.4 10.34,8.11 0,7.15 -10,-1.24 -11.65,-3.49zm-6.99 5.82c0,2.59 2.32,4.86 4.14,6.34 2.74,2.25 4.2,2.87 8.67,2.97 -1.65,7.09 -12.07,13.19 -18.13,16.81 -4.04,2.42 -7.14,4.43 -10.99,6.48 -4.21,2.25 -7.89,4.28 -10.48,8.15 8.28,0 21.17,-6.64 27.17,-10.09 6.43,-3.7 15.12,-11.46 19.4,-17.86 3.59,1.9 6.07,3.65 9.32,5.82 0.49,-5.94 5.4,-11.29 -4.66,-13.97 0.09,-3.95 7.55,-26.78 -5.82,-26.78 -4.65,0 -10.13,4.51 -12.51,7.29 -3.1,3.61 -6.12,8.55 -6.12,14.84z"/>
   <path class="fil3" d="M874.91 685.07c14.16,-6.8 12.08,3.63 10.48,10.48 -2.44,-0.57 -5.35,-1.74 -7.36,-3.12 -3.41,-2.35 -3.12,-2.1 -3.12,-7.36zm-6.99 6.99c0,9.77 2.78,7.99 12.81,12.81 -3.56,6.73 -12.55,12.77 -19.28,16.82 -2.81,1.69 -23.88,11.74 -18.76,13.93 4.39,1.89 40.62,-16.29 43.86,-28.42 3.59,1.9 6.07,3.65 9.32,5.82 3.85,-8.03 3.68,-12.03 -4.66,-13.97 0.81,-3.46 8.33,-26.78 -4.66,-26.78 -7.72,0 -18.63,12.24 -18.63,19.8z"/>
   <path class="fil3" d="M328.78 745.62c0.67,0.92 18.67,15.4 20.96,15.14 2.6,-0.29 16.3,-12.04 16.3,-22.12 0,-8.34 -12.68,-15.48 -18.63,-18.63 -6.34,9.47 -17.57,21.06 -18.63,25.62z"/>
   <path class="fil3" d="M77.25 785.22c3.46,0.92 7.59,4.56 10.66,6.81 1.56,1.14 3.14,2.35 4.61,3.54 3.11,2.53 1.58,2.53 5.69,3.63 17.87,-11.97 22.53,-25.9 3.99,-37.76 -3.12,-2 -3.37,-1.58 -6.32,-2.99 -3.22,4.81 -5.68,8.08 -9.58,12.55 -7.89,9.04 -8.93,8.36 -9.06,14.23z"/>
   <path class="fil3" d="M367.2 739.8c2.38,3.55 5.94,5.63 9.32,8.15l10.48 8.15c6.8,-1.58 16.42,-11.99 17.77,-19.43 2.23,-12.32 -15.79,-20.16 -16.61,-20.16 -3.7,0 -6.17,5.83 -10.83,11.3 -3.4,4 -7.33,7.81 -10.13,11.99z"/>
   <path class="fil3" d="M129.65 1026.26l20.96 16.3c5.89,-5.12 27.18,-19.36 11.34,-33.46 -2.52,-2.25 -9.03,-6.48 -12.51,-7.29l-9.98 12.14c-3.93,5.02 -6.29,7.06 -9.81,12.31z"/>
   <path class="fil3" d="M91.23 1030.92c1.75,2.62 17.99,15.14 20.96,15.14 2.52,0 16.3,-11.13 16.3,-22.12 0,-7.52 -12.58,-16.87 -19.8,-17.47 -2.26,8.49 -15.97,18.83 -17.47,24.45z"/>
   <path class="fil3" d="M37.66 787.55l20.96 16.3c7.1,-3.76 17.47,-15.37 17.47,-22.12 0,-7.31 -13,-17.05 -19.8,-18.63 -6.72,12.7 -13.01,16.06 -18.63,24.45z"/>
   <path class="fil3" d="M1485.08 716.51l19.8 16.3c6.97,-1.86 17.47,-13.02 17.47,-23.29 0,-7.44 -12.66,-16.08 -18.63,-17.47 -5.3,10.01 -12.7,15.59 -18.63,24.45z"/>
   <path class="fil3" d="M383.51 942.42c6.83,4.57 13.08,10.64 19.79,15.14 4.86,-1.3 29.31,-19.03 10.35,-33.64 -3.88,-2.99 -6.37,-5.81 -12.68,-5.95 -2.55,9.54 -15.23,16.09 -17.47,24.45z"/>
   <path class="fil3" d="M874.91 887.69c-4.74,3.17 -7.27,8.75 -9.74,14.77 -9.92,24.26 37,14.86 41.18,-0.8 -15.99,3.73 -6.92,5.82 -30.28,5.82 -5.8,0 -7.92,-2.99 -5.4,-7.55 1.24,-2.24 6.07,-6.59 8.21,-8.26 15.84,-12.41 16.98,-6.22 16.98,-16.79 -5.15,0.43 -12.88,9.69 -20.96,1.16 1.05,-1.56 0.66,-1.07 2.14,-2.52 0.16,-0.16 0.44,-0.41 0.61,-0.56l1.91 -1.58c3.33,0.89 8.15,7.27 8.15,-3.49 0,-12.08 -21.25,3.73 -18.93,12.15 1.02,3.71 4.22,5.06 6.12,7.65z"/>
   <path class="fil3" d="M1836.74 780.56c0.94,0.65 2.88,2.33 3.49,2.33 15.77,0 29.79,-4.03 40.38,-9.69 10.64,-5.68 26.39,-22.77 21.48,-27.68 -2.51,-2.51 -12.38,6.36 -15.13,8.42 -2.71,2.03 -4.74,4.1 -7.17,5.64 -9.18,5.79 -27.78,11.23 -36.46,14.77 -4.2,1.71 -5.48,2.06 -6.59,6.22z"/>
   <path class="fil3" d="M1189.31 729.32c6.06,2.91 14.22,1.53 21.33,0.37 7.94,-1.3 13.61,-3.29 19.45,-6.17 27.29,-13.42 31.4,-37.14 18.93,-27.78l-14.79 10.96c-17.07,13.02 -42.46,13.39 -44.93,22.61z"/>
   <path class="fil3" d="M1558.44 910.98c10.91,6.13 65.21,-7.62 65.21,-36.1 -10.13,0.84 -16.05,15.41 -49.32,26.37 -8,2.63 -15.32,2.91 -15.89,9.73z"/>
   <path class="fil3" d="M574.48 699.05c1.56,-2.95 3.48,-6.81 6.28,-8.93 4.42,-3.35 6.16,-3.25 8.86,0.78 -1.74,6.51 -8.49,6.6 -15.14,8.15zm-4.66 -1.16c-7.05,-1.64 -8.72,-5.87 -15.68,-0.57 -3.73,2.84 -8.31,8.95 -8.77,14.55 5.79,-0.48 6,-3.99 10.48,-6.99 7.44,1.73 6.69,3.49 16.3,3.49 9.67,0 27.45,-10.08 23.29,-27.95 -13.94,-3.25 -19.2,5.33 -25.62,17.47z"/>
   <path class="fil3" d="M456.87 962.21c0,7.58 9.64,8.95 -9.96,16.82 -11.38,4.57 -12.16,1.7 -15.66,6.47 2.88,4.31 2.02,3.49 11.65,3.49 7.9,0 13.65,-2.56 17.76,-6.69 11.64,-11.68 6.76,-20.62 5.53,-25.91 4.36,-6.52 10.48,-7.96 10.48,-16.3 0,-11.89 -19.79,8.01 -19.79,22.12z"/>
   <path class="fil3" d="M190.21 781.72c0,3.38 2.45,4.25 3.49,8.15 -1.85,2.12 -3.04,3.28 -5.77,4.71 -6.23,3.25 -8.28,4.48 -15.13,5.83 -5.04,0.99 -5.87,0.22 -7.04,4.6 1.55,2.12 0.88,3.6 10.83,2.71 6.21,-0.56 8.23,-0.65 12.52,-2.65 5.08,-2.37 12.76,-11.75 12.76,-18.68 0,-8.48 -3.41,-9.86 1.35,-14.92 9.54,-10.15 8.63,-8.7 6.8,-16.52 -6.09,0.14 -9.18,3.97 -13.07,10.22 -2.15,3.45 -6.73,11.8 -6.73,16.56z"/>
   <path class="fil3" d="M994.84 743.3c4.5,-16.84 21.22,-9.43 11.45,-2.6 -3.26,2.28 -6.33,2.6 -11.45,2.6zm-5.82 0c-7.09,-3.75 -12.54,-6.6 -19.17,2.95 -2.48,3.57 -4,5.71 -4.12,11.02 5.93,-1.58 6.04,-6.99 10.48,-6.99 5.82,0 5.58,3.49 15.14,3.49 18.83,0 34.52,-29.11 17.47,-29.11 -9.75,0 -16.22,11.88 -19.8,18.63z"/>
   <path class="fil3" d="M1954.35 751.45c6.09,0 5.01,7.51 6.99,11.65 -9.79,5.18 -9.59,3.35 -13.97,2.33 -2.21,-9.51 4.26,-13.97 6.99,-13.97zm-12.81 11.65c0,23.58 25.62,10.48 25.62,-2.33 0,-6.39 0.77,-10.43 -2.27,-15.2 -8.64,-13.56 -23.35,5.54 -23.35,17.53z"/>
   <path class="fil3" d="M158.77 723.5c-3.71,-2.72 -0.95,-1.94 -4.66,-4.66 -2.33,3.48 -5.9,8.15 -11.65,8.15 -4.74,0 -2.33,-2.51 -2.33,-8.15 -4.59,0.38 -4.38,1.17 -5.93,4.55 -4.41,9.62 -4.29,23.45 14.57,13.32 6.48,-3.48 1.63,-0.4 6.5,-0.4 7.62,0 13.97,-10.17 13.97,-17.47 0,-4.45 0.36,-0.42 -1.16,-3.49 -5.78,2.09 -0.2,2.62 -8.56,7.74 -0.15,0.09 -0.52,0.24 -0.76,0.41z"/>
  </g>
  <path class="fil4" d="M76.93 1182.7l-14.42 0 0 -68.68 -21.72 68.68 -7.41 0 -21.85 -68.68 0 68.68 -11.53 0 0 -78.45 22.11 0 16.44 50.51 16.16 -50.51 22.22 0 0 78.45zm78.86 0l-15.1 0 -6.28 -18.67 -30.17 0 -6.14 18.67 -12.06 0 26.03 -78.45 17.4 0 26.33 78.45zm-25.17 -29.99l-11.44 -35.02 -11.44 35.02 22.87 0zm34.19 29.99l0 -78.45 28.91 0c10.69,0 19.26,3.79 25.74,11.36 6.47,7.55 9.71,16.89 9.71,28.01 0,11.1 -3.34,20.4 -10,27.87 -6.65,7.47 -16.2,11.2 -28.62,11.2l-25.74 0zm14.54 -11.55l11.79 0c6.32,0 11.67,-2.37 16.09,-7.12 4.41,-4.75 6.61,-11.83 6.61,-21.2 0,-7.67 -1.92,-14.14 -5.77,-19.46 -3.87,-5.3 -8.95,-7.96 -15.26,-7.96l-13.46 0 0 55.75zm124.09 11.55l-14.95 0 -12.18 -32.25 -19.89 0 0 32.25 -14.12 0 0 -78.45 34.01 0c9.46,0 16.42,2.14 20.85,6.41 4.45,4.26 6.67,9.79 6.67,16.58 0,10.06 -4.71,17.01 -14.14,20.79l13.75 34.66zm-47.02 -43.57l17.6 0c5.08,0 8.89,-1.06 11.38,-3.22 2.49,-2.14 3.73,-5.1 3.73,-8.85 0,-3.45 -1.22,-6.24 -3.67,-8.36 -2.45,-2.14 -5.88,-3.2 -10.3,-3.2l-18.73 0 0 23.62zm123.03 43.57l-15.1 0 -6.28 -18.67 -30.17 0 -6.14 18.67 -12.06 0 26.03 -78.45 17.4 0 26.33 78.45zm-25.17 -29.99l-11.44 -35.02 -11.44 35.02 22.87 0zm26.38 11.08l13.73 -2.92c1.65,7.77 7.96,11.65 18.97,11.65 5,0 8.87,-0.98 11.57,-2.98 2.71,-1.98 4.04,-4.45 4.04,-7.42 0,-2.14 -0.61,-4.12 -1.83,-5.94 -1.24,-1.82 -3.86,-3.26 -7.89,-4.28l-14.99 -3.92c-5.14,-1.33 -8.93,-2.86 -11.38,-4.55 -2.45,-1.71 -4.43,-4.12 -5.91,-7.22 -1.47,-3.1 -2.22,-6.41 -2.22,-9.95 0,-7 2.61,-12.63 7.83,-16.87 5.22,-4.24 11.87,-6.36 19.99,-6.36 6.75,0 12.77,1.49 18.09,4.43 5.3,2.94 8.69,7.12 10.14,12.53l-13.46 3.33c-2.06,-5.94 -6.89,-8.91 -14.48,-8.91 -4.41,0 -7.77,0.9 -10.08,2.75 -2.32,1.84 -3.47,4.18 -3.47,7.02 0,4.47 3.63,7.61 10.91,9.42l13.34 3.34c8.08,2.02 13.5,5.02 16.26,8.98 2.77,3.98 4.14,8.36 4.14,13.14 0,7.69 -2.9,13.77 -8.71,18.18 -5.81,4.43 -13.32,6.63 -22.56,6.65 -7.77,-0.02 -14.57,-1.65 -20.42,-4.9 -5.85,-3.26 -9.73,-8.32 -11.63,-15.22zm136.55 18.91l-15.1 0 -6.28 -18.67 -30.17 0 -6.14 18.67 -12.06 0 26.03 -78.45 17.4 0 26.33 78.45zm-25.17 -29.99l-11.44 -35.02 -11.44 35.02 22.87 0zm92.8 29.99l-14.12 0 0 -34.07 -29.95 0 0 34.07 -14.12 0 0 -78.45 14.12 0 0 32.25 29.95 0 0 -32.25 14.12 0 0 78.45zm123.62 0l-14.42 0 0 -68.68 -21.72 68.68 -7.41 0 -21.85 -68.68 0 68.68 -11.53 0 0 -78.45 22.11 0 16.44 50.51 16.16 -50.51 22.22 0 0 78.45zm31.44 0l-14.12 0 0 -78.45 14.12 0 0 78.45zm31.8 0l-14.54 0 0 -78.45 49.59 0 0 12.12 -35.05 0 0 21.44 27.58 0 0 11.77 -27.58 0 0 33.11zm72.64 0l-15.16 0 0 -66.32 -20.87 0 0 -12.12 56.89 0 0 12.12 -20.85 0 0 66.32zm84.92 0l-15.1 0 -6.28 -18.67 -30.17 0 -6.14 18.67 -12.06 0 26.03 -78.45 17.4 0 26.33 78.45zm-25.17 -29.99l-11.44 -35.02 -11.44 35.02 22.87 0zm92.8 29.99l-14.12 0 0 -34.07 -29.95 0 0 34.07 -14.12 0 0 -78.45 14.12 0 0 32.25 29.95 0 0 -32.25 14.12 0 0 78.45zm71.11 -78.45l0 50.39c0,6.83 -0.77,12.06 -2.31,15.75 -1.53,3.67 -4.49,6.85 -8.87,9.51 -4.4,2.67 -9.75,3.98 -16.07,4 -6.4,-0.02 -11.65,-1.16 -15.77,-3.45 -4.12,-2.3 -7.08,-5.45 -8.89,-9.46 -1.8,-4 -2.71,-9.12 -2.71,-15.32l0 -51.43 14.44 0 0 50.39c0,6.91 1.43,11.44 4.34,13.59 2.88,2.18 6.26,3.26 10.08,3.26 4.41,0 7.92,-1.16 10.57,-3.49 2.65,-2.31 3.96,-6.77 3.96,-13.36l0 -50.39 11.22 0zm64.4 78.45l-48.26 0 0 -78.45 14.87 0 0 65.64 33.39 0 0 12.81zm93.69 -78.45l0 50.39c0,6.83 -0.77,12.06 -2.31,15.75 -1.53,3.67 -4.49,6.85 -8.87,9.51 -4.4,2.67 -9.75,3.98 -16.07,4 -6.4,-0.02 -11.65,-1.16 -15.77,-3.45 -4.12,-2.3 -7.08,-5.45 -8.89,-9.46 -1.8,-4 -2.71,-9.12 -2.71,-15.32l0 -51.43 14.44 0 0 50.39c0,6.91 1.43,11.44 4.34,13.59 2.88,2.18 6.26,3.26 10.08,3.26 4.41,0 7.92,-1.16 10.57,-3.49 2.65,-2.31 3.96,-6.77 3.96,-13.36l0 -50.39 11.22 0zm64.4 78.45l-48.26 0 0 -78.45 14.87 0 0 65.64 33.39 0 0 12.81zm62.95 -78.45l0 50.39c0,6.83 -0.77,12.06 -2.31,15.75 -1.53,3.67 -4.49,6.85 -8.87,9.51 -4.4,2.67 -9.75,3.98 -16.07,4 -6.4,-0.02 -11.65,-1.16 -15.77,-3.45 -4.12,-2.3 -7.08,-5.45 -8.89,-9.46 -1.8,-4 -2.71,-9.12 -2.71,-15.32l0 -51.43 14.44 0 0 50.39c0,6.91 1.43,11.44 4.34,13.59 2.88,2.18 6.26,3.26 10.08,3.26 4.41,0 7.92,-1.16 10.57,-3.49 2.65,-2.31 3.96,-6.77 3.96,-13.36l0 -50.39 11.22 0zm93.08 78.45l-14.42 0 0 -68.68 -21.72 68.68 -7.41 0 -21.85 -68.68 0 68.68 -11.53 0 0 -78.45 22.11 0 16.44 50.51 16.16 -50.51 22.22 0 0 78.45zm60.87 0l-14.12 0 0 -78.45 14.12 0 0 78.45zm17.26 0l0 -78.45 30.56 0c5.18,0 9.46,0.53 12.87,1.61 3.41,1.08 6.37,3.31 8.85,6.73 2.49,3.41 3.75,7.42 3.75,12 0,4.34 -1.27,8.1 -3.79,11.3 -2.53,3.2 -6.02,5.24 -10.47,6.12 5.53,0.96 9.69,3.2 12.53,6.73 2.84,3.51 4.26,7.69 4.26,12.51 0,6.06 -1.98,11.14 -5.94,15.26 -3.98,4.12 -10.08,6.18 -18.3,6.18l-34.31 0zm13.38 -45.51l17.24 0c3.53,0 6.32,-1.06 8.36,-3.16 2.06,-2.12 3.08,-4.81 3.08,-8.06 0,-3.59 -1.18,-6.24 -3.51,-7.94 -2.33,-1.71 -5.06,-2.57 -8.22,-2.57l-16.95 0 0 21.73zm0 33.72l18.28 0c3.87,0 6.92,-1 9.16,-3.04 2.24,-2.02 3.35,-4.77 3.35,-8.22 0,-3.3 -1.14,-5.98 -3.41,-8.1 -2.28,-2.1 -5.3,-3.16 -9.04,-3.16l-18.34 0 0 22.52zm85.53 11.79l-15.16 0 0 -66.32 -20.87 0 0 -12.12 56.89 0 0 12.12 -20.85 0 0 66.32zm43.61 0l-14.12 0 0 -78.45 14.12 0 0 78.45zm16.85 0l0 -78.45 28.91 0c10.69,0 19.26,3.79 25.74,11.36 6.47,7.55 9.71,16.89 9.71,28.01 0,11.1 -3.34,20.4 -10,27.87 -6.65,7.47 -16.2,11.2 -28.62,11.2l-25.74 0zm14.54 -11.55l11.79 0c6.32,0 11.67,-2.37 16.09,-7.12 4.41,-4.75 6.61,-11.83 6.61,-21.2 0,-7.67 -1.92,-14.14 -5.77,-19.46 -3.87,-5.3 -8.95,-7.96 -15.26,-7.96l-13.46 0 0 55.75zm121.56 11.55l-15.1 0 -6.28 -18.67 -30.17 0 -6.14 18.67 -12.06 0 26.03 -78.45 17.4 0 26.33 78.45zm-25.17 -29.99l-11.44 -35.02 -11.44 35.02 22.87 0zm48.73 29.99l-14.12 0 0 -78.45 14.12 0 0 78.45zm48.81 0l-15.01 0 0 -33.11 -26.72 -45.33 17.12 0 18.62 32.35 17.81 -32.35 13.57 0 -25.4 45.33 0 33.11zm87.71 0l-15.1 0 -6.28 -18.67 -30.17 0 -6.14 18.67 -12.06 0 26.03 -78.45 17.4 0 26.33 78.45zm-25.17 -29.99l-11.44 -35.02 -11.44 35.02 22.87 0zm92.8 29.99l-14.12 0 0 -34.07 -29.95 0 0 34.07 -14.12 0 0 -78.45 14.12 0 0 32.25 29.95 0 0 -32.25 14.12 0 0 78.45zm-1422.96 133.45l0 -78.45 30.56 0c5.18,0 9.46,0.53 12.87,1.61 3.41,1.08 6.37,3.31 8.85,6.73 2.49,3.41 3.75,7.42 3.75,12 0,4.34 -1.27,8.1 -3.79,11.3 -2.53,3.2 -6.02,5.24 -10.47,6.12 5.53,0.96 9.69,3.2 12.53,6.73 2.84,3.51 4.26,7.69 4.26,12.51 0,6.06 -1.98,11.14 -5.94,15.26 -3.98,4.12 -10.08,6.18 -18.3,6.18l-34.31 0zm13.38 -45.51l17.24 0c3.53,0 6.32,-1.06 8.36,-3.16 2.06,-2.12 3.08,-4.81 3.08,-8.06 0,-3.59 -1.18,-6.24 -3.51,-7.94 -2.33,-1.71 -5.06,-2.57 -8.22,-2.57l-16.95 0 0 21.73zm0 33.72l18.28 0c3.87,0 6.92,-1 9.16,-3.04 2.24,-2.02 3.35,-4.77 3.35,-8.22 0,-3.3 -1.14,-5.98 -3.41,-8.1 -2.28,-2.1 -5.3,-3.16 -9.04,-3.16l-18.34 0 0 22.52zm78.05 -23.44l0 10.75 -28.86 0 0 -10.75 28.86 0zm34.13 36.45c-9.61,-0.02 -17.03,-3.73 -22.24,-11.18 -5.2,-7.45 -7.81,-16.93 -7.81,-28.42 0,-12.42 2.73,-22.4 8.18,-29.93 5.47,-7.55 12.79,-11.34 21.99,-11.34 6.63,0 12.22,1.78 16.81,5.32 4.57,3.55 7.98,8.47 10.22,14.77 2.24,6.32 3.37,12.22 3.37,17.73 0,9.24 -1.06,16.81 -3.18,22.74 -2.1,5.92 -5.45,10.79 -10.04,14.59 -4.61,3.81 -10.36,5.71 -17.3,5.73zm-0.06 -11.1c3.98,0 7.2,-1.22 9.65,-3.67 2.45,-2.45 4.12,-5.88 5,-10.3 0.88,-4.39 1.33,-10.49 1.33,-18.26 0,-6.45 -1.1,-12.55 -3.26,-18.34 -2.16,-5.79 -6.32,-8.67 -12.44,-8.67 -10.65,0 -15.99,9.85 -15.99,29.52 0,8.94 1.14,16.12 3.39,21.56 2.26,5.43 6.36,8.16 12.3,8.16zm54.67 -28.86c-9.2,-4.2 -13.79,-10.48 -13.79,-18.79 0,-6.44 2.53,-11.73 7.61,-15.89 5.06,-4.16 12.16,-6.24 21.28,-6.24 8.32,0 14.99,1.86 20.03,5.59 5.04,3.71 7.55,8.63 7.55,14.77 0,7.45 -4.65,13.12 -13.97,17.01 11.4,4.87 17.08,11.73 17.08,20.64 0,6.57 -2.84,12.05 -8.53,16.36 -5.71,4.34 -13.38,6.49 -23.03,6.51 -10.18,-0.02 -17.87,-2.02 -23.07,-6.02 -5.2,-4 -7.79,-9.02 -7.79,-15.09 0,-8.61 5.53,-14.89 16.61,-18.85zm18.95 -7.63c7.26,-3 10.87,-7.16 10.87,-12.48 0,-3.49 -1.47,-6.18 -4.41,-8.1 -2.96,-1.92 -6.38,-2.88 -10.24,-2.88 -4.02,0 -7.47,0.86 -10.38,2.59 -2.88,1.73 -4.34,4.24 -4.34,7.53 0,3.41 1.57,6.02 4.71,7.81 3.14,1.8 7.75,3.65 13.79,5.53zm-9.24 12.3c-3.84,1.37 -6.92,3.28 -9.26,5.71 -2.33,2.43 -3.51,5.02 -3.51,7.79 0,2.84 1.47,5.45 4.39,7.89 2.94,2.41 7.45,3.61 13.54,3.61 5.06,0 9.06,-0.98 11.99,-2.96 2.94,-1.96 4.39,-4.49 4.39,-7.55 0,-2.65 -1.22,-4.96 -3.65,-6.96 -2.43,-1.98 -8.4,-4.49 -17.89,-7.51zm69.21 15.16l13.73 -2.92c1.65,7.77 7.96,11.65 18.97,11.65 5,0 8.87,-0.98 11.57,-2.98 2.71,-1.98 4.04,-4.45 4.04,-7.42 0,-2.14 -0.61,-4.12 -1.83,-5.94 -1.24,-1.82 -3.86,-3.26 -7.89,-4.28l-14.99 -3.92c-5.14,-1.33 -8.93,-2.86 -11.38,-4.55 -2.45,-1.71 -4.43,-4.12 -5.91,-7.22 -1.47,-3.1 -2.22,-6.41 -2.22,-9.95 0,-7 2.61,-12.63 7.83,-16.87 5.22,-4.24 11.87,-6.36 19.99,-6.36 6.75,0 12.77,1.49 18.09,4.43 5.3,2.94 8.69,7.12 10.14,12.53l-13.46 3.33c-2.06,-5.94 -6.89,-8.91 -14.48,-8.91 -4.41,0 -7.77,0.9 -10.08,2.75 -2.32,1.84 -3.47,4.18 -3.47,7.02 0,4.47 3.63,7.61 10.91,9.42l13.34 3.34c8.08,2.02 13.5,5.02 16.26,8.98 2.77,3.98 4.14,8.36 4.14,13.14 0,7.69 -2.9,13.77 -8.71,18.18 -5.81,4.43 -13.32,6.63 -22.56,6.65 -7.77,-0.02 -14.57,-1.65 -20.42,-4.9 -5.85,-3.26 -9.73,-8.32 -11.63,-15.22zm129.31 -59.54l0 50.39c0,6.83 -0.77,12.06 -2.31,15.75 -1.53,3.67 -4.49,6.85 -8.87,9.51 -4.4,2.67 -9.75,3.98 -16.07,4 -6.4,-0.02 -11.65,-1.16 -15.77,-3.45 -4.12,-2.3 -7.08,-5.45 -8.89,-9.46 -1.8,-4 -2.71,-9.12 -2.71,-15.32l0 -51.43 14.44 0 0 50.39c0,6.91 1.43,11.44 4.34,13.59 2.88,2.18 6.26,3.26 10.08,3.26 4.41,0 7.92,-1.16 10.57,-3.49 2.65,-2.31 3.96,-6.77 3.96,-13.36l0 -50.39 11.22 0zm77.29 78.45l-14.95 0 -12.18 -32.25 -19.89 0 0 32.25 -14.12 0 0 -78.45 34.01 0c9.46,0 16.42,2.14 20.85,6.41 4.45,4.26 6.67,9.79 6.67,16.58 0,10.06 -4.71,17.01 -14.14,20.79l13.75 34.66zm-47.02 -43.57l17.6 0c5.08,0 8.89,-1.06 11.38,-3.22 2.49,-2.14 3.73,-5.1 3.73,-8.85 0,-3.45 -1.22,-6.24 -3.67,-8.36 -2.45,-2.14 -5.88,-3.2 -10.3,-3.2l-18.73 0 0 23.62zm123.03 43.57l-15.1 0 -6.28 -18.67 -30.17 0 -6.14 18.67 -12.06 0 26.03 -78.45 17.4 0 26.33 78.45zm-25.17 -29.99l-11.44 -35.02 -11.44 35.02 22.87 0zm34.6 29.99l0 -78.45 30.56 0c5.18,0 9.46,0.53 12.87,1.61 3.41,1.08 6.37,3.31 8.85,6.73 2.49,3.41 3.75,7.42 3.75,12 0,4.34 -1.27,8.1 -3.79,11.3 -2.53,3.2 -6.02,5.24 -10.47,6.12 5.53,0.96 9.69,3.2 12.53,6.73 2.84,3.51 4.26,7.69 4.26,12.51 0,6.06 -1.98,11.14 -5.94,15.26 -3.98,4.12 -10.08,6.18 -18.3,6.18l-34.31 0zm13.38 -45.51l17.24 0c3.53,0 6.32,-1.06 8.36,-3.16 2.06,-2.12 3.08,-4.81 3.08,-8.06 0,-3.59 -1.18,-6.24 -3.51,-7.94 -2.33,-1.71 -5.06,-2.57 -8.22,-2.57l-16.95 0 0 21.73zm0 33.72l18.28 0c3.87,0 6.92,-1 9.16,-3.04 2.24,-2.02 3.35,-4.77 3.35,-8.22 0,-3.3 -1.14,-5.98 -3.41,-8.1 -2.28,-2.1 -5.3,-3.16 -9.04,-3.16l-18.34 0 0 22.52zm119.66 11.79l-15.1 0 -6.28 -18.67 -30.17 0 -6.14 18.67 -12.06 0 26.03 -78.45 17.4 0 26.33 78.45zm-25.17 -29.99l-11.44 -35.02 -11.44 35.02 22.87 0zm59.2 29.99l-15.01 0 0 -33.11 -26.72 -45.33 17.12 0 18.62 32.35 17.81 -32.35 13.57 0 -25.4 45.33 0 33.11zm87.71 0l-15.1 0 -6.28 -18.67 -30.17 0 -6.14 18.67 -12.06 0 26.03 -78.45 17.4 0 26.33 78.45zm-25.17 -29.99l-11.44 -35.02 -11.44 35.02 22.87 0z"/>
 </g>
</svg>
