<?xml version="1.0" encoding="UTF-8"?>
<!DOCTYPE svg PUBLIC "-//W3C//DTD SVG 1.1//EN" "http://www.w3.org/Graphics/SVG/1.1/DTD/svg11.dtd">
<!-- Creator: CorelDRAW 2021.5 -->
<svg xmlns="http://www.w3.org/2000/svg" xml:space="preserve" width="161.616mm" height="94.1401mm" version="1.1" style="shape-rendering:geometricPrecision; text-rendering:geometricPrecision; image-rendering:optimizeQuality; fill-rule:evenodd; clip-rule:evenodd"
viewBox="0 0 1994.48 1161.77"
 xmlns:xlink="http://www.w3.org/1999/xlink"
 xmlns:xodm="http://www.corel.com/coreldraw/odm/2003">
 <defs>
  <style type="text/css">
   <![CDATA[
    .fil0 {fill:#1D1819}
    .fil1 {fill:#1D1819;fill-rule:nonzero}
   ]]>
  </style>
 </defs>
 <g id="Layer_x0020_1">
  <metadata id="CorelCorpID_0Corel-Layer"/>
  <g id="_2103480953744">
   <path class="fil0" d="M1361.6 715.68c-5.37,0 -8.21,-3.43 -8.21,-8.21 0,-5.57 7.05,-11.49 12.31,-11.49 5.01,0 7.71,-0.5 11.32,4.33 2.05,2.74 1.8,4.8 -0.38,7.39 -2.06,2.44 -11.27,7.98 -15.04,7.98zm-302.06 24.62c0,8.84 0.69,17.66 4.34,24.39 1.56,2.88 3.21,4.57 5.96,6.35 10.93,7.09 22.68,-0.18 29.24,-8.44 4.04,-5.08 7.68,-15.19 12.17,-18.2 3.67,0.98 5.29,4.37 8.36,6.42 3.34,2.24 6.04,3.94 9.54,6.06 37.47,22.61 97.53,19.22 140.19,8.53 26.36,-6.6 56.56,-17.49 79.6,-31.21 14.25,-8.48 3.29,-2.94 25.79,-2.94 16.91,0 24,-25.45 36.94,-25.45 5.85,0 10.01,8.51 18.06,-0.82 6.07,-7.03 13.54,-18.57 5.51,-27.68 -3.19,-3.62 -3.4,-2.03 -4.7,-7.61 -6.73,0.56 -5.97,8.47 -12.28,13.16 -13.78,10.25 -15.25,16.49 -25.27,26.45 -4.61,4.59 -8.71,8.63 -17.45,8.82 1.03,-3.87 13.32,-15.48 8.48,-29.81 -5.55,-16.47 -22.48,-0.09 -28.4,5.79 -2.52,2.51 -5.61,6.5 -7.64,9.6 -8.21,12.47 -2.76,17.71 -1.99,20.99 -3.2,0.27 -4.24,1.06 -6.91,2.11 -11.29,4.45 -38.35,12.11 -48.96,14.24 -26.86,5.38 -51.45,5.81 -80.38,5.81 -22.84,0 -60.18,-9.7 -80.7,-19.44 -11.96,-5.67 -11.66,0.96 -23.32,12.27 -12.22,11.86 -34.7,10.12 -34.7,-10.07 0,-11.41 0.56,-14.27 1.56,-24.7 1.54,-16.04 8.01,-50.2 5,-63.13 -7.07,5.18 -10.66,39.76 -11.63,46.65 -2.08,14.76 -6.42,38.11 -6.42,51.85z"/>
   <path class="fil0" d="M899.48 693.51c4.08,-6.09 9.03,-6.18 9.03,-13.95 0,-12.81 -20.16,-16.21 -32.97,-5.89 -3.6,2.9 -5.96,6.56 -4.78,11.63 1.64,-0.14 9.47,-3.99 12.31,8.21 -5.23,2.77 -10.08,6.57 -18.06,6.57 -24.78,0 -16.38,-32.17 -14.2,-48.67 1.6,-12.09 2.71,-20.73 2.71,-33.41 0,-3.14 0.25,-0.3 -0.82,-2.46 -3.11,2.28 -8.18,19.67 -9.37,24.28 -1.34,5.2 -6.2,47.35 -8.61,59.52 -1.82,9.22 -3.48,20.23 -9.93,24.55 -0.1,-4.3 -2.51,-11.1 -4.11,-13.95 -4.27,-7.6 -14.14,-11.49 -19.17,-1.94 -1.58,2.99 -2.08,5.65 -3.27,9.04 -0.44,1.24 -19.51,28.19 6.85,28.19 3.12,0 5.56,-1.02 8.21,-1.64 -0.75,8.99 -22.48,19.99 -29.81,24.36 -6.55,3.9 -8.66,4.51 -8.76,9.3 5.57,0 7.75,-2.14 12.18,-3.41 14.36,-4.11 16.91,1.85 28.04,-20.39 1.83,-3.67 3.21,-6.76 4.93,-10.66 4.88,-11.07 9.6,-8.53 15.93,-25.11 0.97,-2.54 1.08,-3.91 2.94,-5.27 0.61,7.27 7.52,13.95 16.42,13.95 10.62,0 29.4,-18.28 33.65,-24.62 5.66,3.79 5.6,6.57 15.6,6.57 8.97,0 16.2,-9.84 19.67,-15.63 5.3,-8.86 7.46,-14.12 10.38,-25.73 3.52,-14 7.71,-48.56 7.71,-63.7 -1.85,0.67 -1.23,0.44 -2.34,1.77l-4 8.31c-13.45,33.77 -2.02,47.85 -14.16,71.2 -5.03,9.68 -9.69,11.92 -22.18,9.01z"/>
   <path class="fil0" d="M980.74 726.35c3.81,-1.02 5.07,-4.48 8.35,-6.42 11.17,-6.6 23.29,-1.94 30.23,-1.78l0 2.46c-2.44,0.65 -5.45,3.91 -8.92,6.68l-17.15 14.86c-11.92,11.8 -26.12,32.93 -30.58,49.86 -5.52,20.94 -3.8,41.32 10.36,54.51 18.57,17.29 46.02,9.65 65.5,-3.27 13.21,-8.77 15.71,-13.44 24.91,-22.69 4.88,-4.91 17.46,-22.41 20.47,-27.96 1,-1.85 5.35,-12.11 -0.72,-6.65 -1.43,1.29 -1.96,2.83 -3.73,4.67 -13.97,14.56 -20.06,22.98 -39.61,32.62 -12.92,6.37 -21.12,6.55 -35.31,6.55 -28.02,0 -47.24,-37.68 -13.33,-75.71 6,-6.73 12.1,-12.52 19.2,-17.73 6.82,-5 20.07,-14.44 24.72,-19.61 7.27,-8.08 -1.32,-13.35 -10.89,-13.35 -9.64,0 -25.1,-0.06 -31.7,4.42 -2.94,2 -11.33,12.85 -11.81,18.56z"/>
   <path class="fil0" d="M695.92 831.41c0,11.53 -0.63,41.34 0.65,51.06 0.54,4.11 -0.06,4.42 2.64,6.39 3.62,-7.54 4.08,-29.61 4.97,-40.99 0.29,-3.73 0.71,-5.84 0.75,-10.74 0.03,-4.67 0.88,-5.67 0.87,-10.62l1.59 -33.71c0.08,-9.19 3.54,-43.48 4.91,-53.37 2.49,-18.01 8.7,-36.41 24.4,-46.19 10.92,-6.8 22.11,-7.68 35.58,-11.21 6.08,-1.6 11.3,-3.77 15.4,-7.59 6.49,-6.03 11.78,-17.37 10.71,-24.27 -0.89,-5.79 -18.1,-12.47 -23.65,-12.47 -4.46,0 -11.87,15.54 -13.42,20.24 -2.72,8.3 -4.42,2.01 -21.24,13.24 -40.14,26.79 -44.14,110.6 -44.14,160.24z"/>
   <path class="fil0" d="M434.08 769.03c15.13,0 31.22,-3.87 39.05,-15.95 2.45,-3.77 4.31,-8.84 7.74,-11.14 0,7.66 1.54,12.95 5.97,18.65 22.79,29.26 36.65,-17.83 46.56,-17.83 6.49,0 13.58,17.35 30.86,-13.47 1.81,-3.23 2.61,-5.68 1.97,-8.7 -4.6,1.23 -6.64,7.46 -9.69,10.83 -7.35,8.15 -13.76,-3.98 -22.35,0.59 -10.83,5.77 -11.2,10.74 -25.42,10.74 -4.94,0 -9.09,-2.34 -11.45,-4.96 -10.26,-11.39 1.51,-28.77 -0.04,-36.08l-2.46 0c-0.82,3.52 -8.23,17.72 -10.41,21.61 -1.93,3.46 -3.69,6.58 -5.83,9.76 -4.85,7.19 -9.22,10.23 -16.59,15.43 -8.29,5.85 -17.76,10.83 -24.56,15.66 -2.01,1.43 -3.09,1.59 -3.36,4.85z"/>
   <path class="fil0" d="M1602.1 769.03c15.03,0 31.73,-3.79 39.06,-15.93 2.16,-3.57 4.77,-9.18 7.73,-11.15 0,21.97 23.24,41.5 38.85,15.04 6.72,-11.4 13.85,-29.39 -0.27,-38.85 -6.57,3.48 -10.66,17.57 -13.95,23.8 -8.87,-0.74 -12.31,-8.79 -12.31,-18.06 0,-8.39 5.72,-15.21 4.1,-22.16l-2.46 0c-0.95,4.06 -12.47,26.28 -16.06,31.54 -1.22,1.79 -2.39,3.15 -3.64,4.57l-39.88 28.24c-1.41,1.71 -0.87,-0.45 -1.16,2.95z"/>
   <path class="fil0" d="M1552.03 708.29c-4.73,4.49 -6.72,13.13 -14.77,13.13 -6.64,0 1.5,-7.49 -14.44,3.62 -17.47,12.17 -24.21,2.98 -32.89,1.91 -14.97,-1.84 -36.21,27.39 -43.46,39.13 -5.11,8.27 -1.89,10.95 4.43,4.43 3.39,-3.5 5.81,-8.06 9.43,-11.1 22.98,-19.29 34.68,13.44 53.95,-11.72 15.19,-19.84 12.87,-11.49 19.7,-11.49 6.33,0 11.73,-10.36 14.12,-12.96 4.84,-5.26 9.39,3.68 16.81,-11.1 2.25,-4.48 4.73,-8.61 3.54,-13.69 -4.57,1.22 -4.17,5.88 -6.67,9.77 -3.69,5.76 -4.9,1.37 -9.75,0.08z"/>
   <path class="fil0" d="M590.04 750.97c5.13,-10.69 6.98,-29.51 8.98,-43.55 0.8,-5.59 6.09,-44.41 4.97,-46.74 -4.69,3.43 -13,31.44 -13.88,41.11 -0.78,8.52 -2.46,46.1 -6.06,49.76 -1.06,1.08 -9.79,2.75 -6.01,10.53 8.34,17.17 39.32,6.36 47.18,-40.76 3.98,-23.85 9.14,-48.01 9.14,-75.41 -3.16,0.84 -2.64,1.82 -3.89,5.14 -0.9,2.39 -1.82,4.47 -2.56,6.47 -3.25,8.74 -7.43,20.64 -7.54,30.22 -0.17,14.4 -0.27,39.96 -6.51,49.3 -4.89,7.32 -14.19,13.72 -23.82,13.93z"/>
   <path class="fil0" d="M360.21 742.76c-11.13,0 -18.32,-14.11 -40.85,11.69l-8.06 9.18c-3.76,4.8 -12.2,16.35 -12.66,21.82 11.45,0 14.45,-20.52 30.37,-20.52 14.47,0 12.46,4.93 22.16,4.93 14.44,0 22.69,-27.09 31.19,-27.09 6.7,0 11.1,13.81 24.87,-4.68 2.2,-2.96 7.96,-10.85 7.96,-15.02 0,-3.14 0.25,-0.3 -0.82,-2.46 -3.99,1.07 -5.06,6.67 -9.35,11.17 -4.89,5.13 -10.4,1.11 -15.37,-0.48 -9.1,-2.9 -15.55,11.47 -29.45,11.47z"/>
   <path class="fil0" d="M1127.67 672.99c-3.87,-2.05 -6.72,-3.64 -10.51,-5.91l-10.83 -5.58c-1.34,5.77 -8.58,13.45 -9.03,18.88l20.52 11.49c2.63,-4.97 5.49,-9.64 8.21,-14.77 7.12,3.77 13.45,7.75 20.52,11.49 2.2,-4.15 9.05,-15.44 9.85,-18.88 -4.71,-1.1 -17.52,-10.47 -21.34,-11.49 -0.49,2.11 -6.01,12.17 -7.39,14.77z"/>
   <path class="fil0" d="M1468.31 657.4c1.51,2.06 10.47,8.07 13.13,9.85 -3.86,7.3 -12.77,15.28 -13.13,19.7 2.92,0.78 5.75,3.59 8.53,5.42 4.35,2.87 5.17,4.43 8.7,5.25l13.95 -19.7c-3.44,-0.92 -10.75,-6.88 -13.95,-9.03 2.17,-3.24 12.57,-16.76 13.13,-18.88 -1.12,-1.53 -14.58,-11.6 -17.24,-12.31 -1.03,3.87 -12.1,15.83 -13.13,19.7z"/>
   <path class="fil0" d="M942.17 771.49c3.87,-1.03 5.08,-4.9 6.56,-8.22 4.65,-10.43 7.46,-24.1 9.39,-35.76 2.21,-13.32 7.04,-40.29 7.04,-52.88 -5.32,1.42 -9.38,14.54 -11.49,18.88 -6.15,12.66 -7.63,36.01 -9.1,51.64 -0.51,5.38 -4.02,22.93 -2.39,26.34z"/>
   <path class="fil0" d="M443.11 711.57c13.29,-3.55 22.98,-84.92 22.98,-96.86 -4.23,1.13 -7.15,9.5 -8.79,13.37 -7.73,18.2 -5.82,7.66 -8.6,29.98 -0.78,6.24 -6.77,51.05 -5.59,53.5z"/>
   <path class="fil0" d="M653.24 743.58c2.71,-0.63 2.91,-0.92 4.32,-3.07 2.44,-3.72 5.6,-11.81 6.83,-16.16 3.62,-12.78 14.58,-71.7 11.84,-77.63 -4.17,1.51 -14.13,25.26 -15.1,29.22l-6.39 53.53c-0.57,4.71 -1.49,8.32 -1.49,14.1z"/>
   <path class="fil0" d="M1552.03 773.95c9.32,0 29.82,-6.48 36.76,-13.31 7.91,-7.78 12.02,-24.53 15.24,-35.65 1.34,-4.61 2.32,-8.29 3.48,-12.94 1.38,-5.52 4.2,-9.14 0.33,-11.98 -7.61,5.09 -10.25,34.4 -24.08,48.15 -1.49,1.49 -2.66,1.99 -4.45,3.76 -3.16,3.13 -5.73,4.72 -9.22,7.19l-14.34 10.29c-2.34,1.7 -2.96,1.61 -3.73,4.48z"/>
   <path class="fil0" d="M1031.64 641.8l0.92 -3.25c6.59,-1.74 7.29,-0.98 7.29,5.71 0,5.04 -7.05,-0.88 -8.21,-2.46zm-4.93 4.1c0,1.83 1.64,3.42 2.91,4.47 1.93,1.58 2.96,2.02 6.11,2.09 -1.16,5 -8.51,9.3 -12.78,11.85 -2.85,1.7 -5.04,3.12 -7.75,4.57 -2.97,1.58 -5.56,3.02 -7.39,5.75 5.84,0 14.92,-4.68 19.15,-7.11 4.53,-2.61 10.66,-8.08 13.68,-12.59 2.53,1.34 4.28,2.57 6.57,4.1 0.35,-4.18 3.81,-7.96 -3.28,-9.85 0.06,-2.78 5.33,-18.88 -4.1,-18.88 -3.27,0 -7.14,3.18 -8.82,5.14 -2.18,2.55 -4.31,6.02 -4.31,10.46z"/>
   <path class="fil0" d="M892.1 607.33c9.98,-4.79 8.51,2.56 7.39,7.39 -1.72,-0.4 -3.77,-1.23 -5.19,-2.2 -2.4,-1.65 -2.2,-1.48 -2.2,-5.19zm-4.93 4.93c0,6.89 1.96,5.64 9.03,9.03 -2.51,4.74 -8.85,9 -13.59,11.86 -1.98,1.19 -16.84,8.27 -13.22,9.82 3.1,1.33 28.63,-11.48 30.92,-20.04 2.53,1.34 4.28,2.57 6.57,4.1 2.71,-5.66 2.59,-8.48 -3.28,-9.85 0.57,-2.44 5.87,-18.88 -3.28,-18.88 -5.44,0 -13.13,8.63 -13.13,13.95z"/>
   <path class="fil0" d="M507.13 650.01c0.47,0.65 13.16,10.85 14.77,10.67 1.83,-0.21 11.49,-8.48 11.49,-15.6 0,-5.88 -8.94,-10.91 -13.13,-13.13 -4.47,6.67 -12.38,14.84 -13.13,18.06z"/>
   <path class="fil0" d="M329.84 677.92c2.44,0.65 5.35,3.21 7.51,4.8 1.1,0.8 2.21,1.65 3.25,2.5 2.19,1.78 1.11,1.78 4.01,2.56 12.6,-8.43 15.88,-18.25 2.81,-26.62 -2.2,-1.41 -2.38,-1.11 -4.46,-2.11 -2.27,3.39 -4,5.7 -6.75,8.85 -5.56,6.38 -6.29,5.89 -6.38,10.03z"/>
   <path class="fil0" d="M534.22 645.91c1.68,2.5 4.19,3.97 6.57,5.75l7.39 5.75c4.79,-1.12 11.58,-8.45 12.53,-13.7 1.57,-8.69 -11.13,-14.21 -11.71,-14.21 -2.61,0 -4.35,4.11 -7.63,7.96 -2.4,2.82 -5.17,5.51 -7.14,8.45z"/>
   <path class="fil0" d="M366.77 847.83l14.77 11.49c4.15,-3.61 19.16,-13.65 7.99,-23.59 -1.78,-1.58 -6.36,-4.57 -8.82,-5.14l-7.04 8.56c-2.77,3.54 -4.44,4.97 -6.92,8.68z"/>
   <path class="fil0" d="M339.69 851.11c1.24,1.85 12.68,10.67 14.77,10.67 1.78,0 11.49,-7.84 11.49,-15.6 0,-5.3 -8.87,-11.89 -13.95,-12.31 -1.6,5.98 -11.25,13.27 -12.31,17.24z"/>
   <path class="fil0" d="M301.93 679.56l14.78 11.49c5,-2.65 12.31,-10.83 12.31,-15.6 0,-5.15 -9.16,-12.02 -13.95,-13.13 -4.74,8.95 -9.17,11.32 -13.13,17.24z"/>
   <path class="fil0" d="M1322.2 629.49l13.95 11.49c4.91,-1.31 12.31,-9.18 12.31,-16.42 0,-5.24 -8.93,-11.33 -13.13,-12.31 -3.73,7.06 -8.95,10.99 -13.13,17.24z"/>
   <path class="fil0" d="M545.71 788.73c4.82,3.22 9.22,7.5 13.95,10.67 3.43,-0.92 20.66,-13.42 7.3,-23.71 -2.74,-2.11 -4.49,-4.09 -8.94,-4.19 -1.8,6.73 -10.74,11.34 -12.31,17.24z"/>
   <path class="fil0" d="M892.1 750.15c-3.34,2.23 -5.13,6.17 -6.86,10.41 -6.99,17.1 26.08,10.48 29.03,-0.56 -11.27,2.63 -4.88,4.1 -21.34,4.1 -4.09,0 -5.59,-2.11 -3.8,-5.33 0.88,-1.58 4.28,-4.64 5.79,-5.82 11.16,-8.75 11.97,-4.38 11.97,-11.83 -3.63,0.3 -9.08,6.83 -14.77,0.82 0.74,-1.1 0.46,-0.75 1.51,-1.78 0.11,-0.11 0.31,-0.29 0.43,-0.39l1.35 -1.11c2.35,0.63 5.75,5.13 5.75,-2.46 0,-8.52 -14.98,2.63 -13.34,8.56 0.72,2.62 2.98,3.56 4.31,5.39z"/>
   <path class="fil0" d="M1570.09 674.63c0.66,0.46 2.03,1.64 2.46,1.64 11.12,0 21,-2.84 28.46,-6.83 7.5,-4.01 18.6,-16.05 15.14,-19.51 -1.77,-1.77 -8.72,4.48 -10.66,5.93 -1.91,1.43 -3.34,2.89 -5.06,3.97 -6.47,4.08 -19.58,7.91 -25.7,10.41 -2.96,1.21 -3.87,1.45 -4.65,4.38z"/>
   <path class="fil0" d="M1113.72 638.52c4.27,2.05 10.02,1.08 15.04,0.26 5.6,-0.91 9.59,-2.32 13.71,-4.35 19.24,-9.46 22.14,-26.18 13.35,-19.58l-10.43 7.73c-12.03,9.18 -29.93,9.44 -31.67,15.94z"/>
   <path class="fil0" d="M1373.91 766.57c7.69,4.32 45.97,-5.37 45.97,-25.45 -7.14,0.59 -11.31,10.87 -34.76,18.59 -5.64,1.86 -10.8,2.05 -11.2,6.86z"/>
   <path class="fil0" d="M680.33 617.18c1.1,-2.08 2.45,-4.8 4.43,-6.3 3.11,-2.36 4.34,-2.29 6.24,0.55 -1.23,4.59 -5.98,4.65 -10.67,5.75zm-3.28 -0.82c-4.97,-1.16 -6.15,-4.14 -11.05,-0.4 -2.63,2.01 -5.86,6.31 -6.18,10.25 4.08,-0.34 4.23,-2.81 7.39,-4.93 5.25,1.22 4.71,2.46 11.49,2.46 6.82,0 19.35,-7.1 16.42,-19.7 -9.83,-2.29 -13.53,3.76 -18.06,12.31z"/>
   <path class="fil0" d="M597.42 802.68c0,5.34 6.79,6.31 -7.02,11.86 -8.02,3.22 -8.57,1.2 -11.03,4.56 2.03,3.04 1.42,2.46 8.21,2.46 5.57,0 9.62,-1.8 12.52,-4.72 8.2,-8.24 4.76,-14.54 3.89,-18.27 3.08,-4.59 7.39,-5.61 7.39,-11.49 0,-8.38 -13.95,5.65 -13.95,15.6z"/>
   <path class="fil0" d="M409.46 675.45c0,2.39 1.73,3 2.46,5.75 -1.3,1.5 -2.14,2.32 -4.07,3.32 -4.39,2.29 -5.84,3.16 -10.67,4.11 -3.56,0.7 -4.14,0.15 -4.96,3.24 1.09,1.49 0.62,2.53 7.63,1.91 4.38,-0.39 5.8,-0.46 8.82,-1.87 3.58,-1.67 8.99,-8.28 8.99,-13.17 0,-5.98 -2.41,-6.95 0.95,-10.52 6.73,-7.16 6.08,-6.13 4.79,-11.64 -4.29,0.1 -6.47,2.8 -9.21,7.2 -1.52,2.43 -4.74,8.32 -4.74,11.67z"/>
   <path class="fil0" d="M976.64 648.37c3.17,-11.87 14.96,-6.65 8.07,-1.84 -2.3,1.61 -4.46,1.84 -8.07,1.84zm-4.1 0c-5,-2.64 -8.84,-4.66 -13.51,2.08 -1.74,2.52 -2.82,4.02 -2.9,7.77 4.18,-1.12 4.26,-4.93 7.39,-4.93 4.1,0 3.93,2.46 10.67,2.46 13.27,0 24.33,-20.52 12.31,-20.52 -6.88,0 -11.44,8.37 -13.95,13.13z"/>
   <path class="fil0" d="M1652.99 654.11c4.29,0 3.53,5.3 4.93,8.21 -6.9,3.65 -6.76,2.36 -9.85,1.64 -1.56,-6.7 3,-9.85 4.93,-9.85zm-9.03 8.21c0,16.62 18.06,7.39 18.06,-1.64 0,-4.51 0.54,-7.35 -1.6,-10.71 -6.09,-9.56 -16.46,3.9 -16.46,12.36z"/>
   <path class="fil0" d="M387.29 634.41c-2.62,-1.92 -0.67,-1.37 -3.28,-3.28 -1.65,2.46 -4.16,5.75 -8.21,5.75 -3.34,0 -1.64,-1.77 -1.64,-5.75 -3.24,0.27 -3.09,0.82 -4.18,3.21 -3.11,6.78 -3.03,16.53 10.27,9.39 4.57,-2.45 1.15,-0.28 4.58,-0.28 5.37,0 9.85,-7.17 9.85,-12.31 0,-3.14 0.25,-0.3 -0.82,-2.46 -4.07,1.47 -0.14,1.85 -6.03,5.46 -0.11,0.07 -0.37,0.17 -0.53,0.29z"/>
  </g>
  <path class="fil1" d="M112.94 971.79l-22.05 0 0 -59.3c0,-6.39 0.28,-13.47 0.83,-21.21l-0.54 0c-1.16,6.09 -2.19,10.45 -3.11,13.14l-23.21 67.37 -18.26 0 -23.64 -66.68c-0.64,-1.79 -1.67,-6.42 -3.11,-13.82l-0.61 0c0.59,9.77 0.9,18.33 0.9,25.71l0 54.79 -20.12 0 0 -99.09 32.69 0 20.26 58.73c1.6,4.69 2.78,9.41 3.51,14.18l0.42 0c1.23,-5.5 2.55,-10.26 3.94,-14.32l20.24 -58.59 31.87 0 0 99.09zm109.66 0l-24.32 0 -7.05 -22.05 -35.24 0 -6.98 22.05 -24.2 0 36.09 -99.09 26.46 0 35.24 99.09zm-36.49 -39.18l-10.64 -33.31c-0.78,-2.5 -1.34,-5.47 -1.67,-8.92l-0.54 0c-0.24,2.9 -0.8,5.78 -1.72,8.63l-10.78 33.59 25.36 0zm48.85 39.18l0 -99.09 35.12 0c35.19,0 52.79,16.09 52.79,48.31 0,15.43 -4.81,27.74 -14.41,36.96 -9.6,9.22 -22.39,13.82 -38.38,13.82l-35.12 0zm22.34 -80.93l0 62.81 11.06 0c9.67,0 17.24,-2.9 22.76,-8.7 5.5,-5.8 8.25,-13.7 8.25,-23.71 0,-9.44 -2.74,-16.86 -8.18,-22.27 -5.47,-5.43 -13.11,-8.14 -22.97,-8.14l-10.92 0zm165.16 80.93l-25.64 0 -15.4 -25.5c-1.16,-1.93 -2.26,-3.66 -3.33,-5.19 -1.06,-1.51 -2.12,-2.81 -3.21,-3.89 -1.09,-1.09 -2.22,-1.91 -3.4,-2.5 -1.18,-0.57 -2.45,-0.85 -3.82,-0.85l-6.01 0 0 37.93 -22.34 0 0 -99.09 35.38 0c24.06,0 36.09,8.99 36.09,26.94 0,3.47 -0.54,6.65 -1.6,9.58 -1.06,2.92 -2.55,5.57 -4.48,7.93 -1.93,2.33 -4.27,4.36 -7.01,6.06 -2.76,1.72 -5.8,3.04 -9.18,4.01l0 0.28c1.49,0.47 2.9,1.2 4.29,2.24 1.39,1.04 2.71,2.24 4.01,3.63 1.3,1.39 2.52,2.88 3.7,4.46 1.18,1.58 2.24,3.14 3.21,4.67l18.73 29.3zm-60.81 -82.37l0 27.57 9.67 0c4.79,0 8.63,-1.39 11.53,-4.15 2.95,-2.81 4.43,-6.3 4.43,-10.43 0,-8.68 -5.19,-13 -15.57,-13l-10.07 0zm157.21 82.37l-24.32 0 -7.05 -22.05 -35.24 0 -6.98 22.05 -24.2 0 36.09 -99.09 26.46 0 35.24 99.09zm-36.49 -39.18l-10.64 -33.31c-0.78,-2.5 -1.34,-5.47 -1.67,-8.92l-0.54 0c-0.24,2.9 -0.8,5.78 -1.72,8.63l-10.78 33.59 25.36 0zm44.3 35.38l0 -22.13c4.01,3.37 8.37,5.9 13.07,7.57 4.69,1.67 9.44,2.52 14.22,2.52 2.83,0 5.28,-0.26 7.36,-0.76 2.1,-0.52 3.85,-1.2 5.26,-2.12 1.41,-0.9 2.45,-1.96 3.14,-3.16 0.71,-1.23 1.04,-2.55 1.04,-3.99 0,-1.94 -0.54,-3.66 -1.65,-5.17 -1.11,-1.53 -2.62,-2.95 -4.53,-4.22 -1.91,-1.3 -4.17,-2.55 -6.82,-3.73 -2.62,-1.2 -5.45,-2.43 -8.49,-3.68 -7.74,-3.21 -13.52,-7.15 -17.31,-11.82 -3.8,-4.65 -5.68,-10.26 -5.68,-16.84 0,-5.17 1.01,-9.6 3.09,-13.3 2.08,-3.73 4.91,-6.77 8.47,-9.18 3.59,-2.38 7.71,-4.15 12.41,-5.28 4.69,-1.13 9.67,-1.7 14.93,-1.7 5.17,0 9.74,0.33 13.73,0.94 3.96,0.61 7.64,1.58 11.02,2.88l0 20.66c-1.67,-1.16 -3.47,-2.17 -5.43,-3.04 -1.96,-0.87 -3.99,-1.6 -6.06,-2.19 -2.05,-0.57 -4.13,-0.99 -6.18,-1.27 -2.05,-0.26 -3.99,-0.4 -5.83,-0.4 -2.55,0 -4.84,0.24 -6.91,0.71 -2.08,0.49 -3.82,1.18 -5.26,2.05 -1.42,0.87 -2.52,1.91 -3.33,3.14 -0.78,1.23 -1.16,2.6 -1.16,4.1 0,1.67 0.42,3.16 1.3,4.46 0.87,1.32 2.12,2.57 3.75,3.75 1.6,1.16 3.56,2.31 5.87,3.44 2.29,1.13 4.91,2.29 7.81,3.49 3.96,1.65 7.5,3.42 10.66,5.28 3.16,1.86 5.87,3.99 8.11,6.32 2.26,2.36 3.99,5.05 5.19,8.07 1.2,3 1.79,6.51 1.79,10.52 0,5.54 -1.04,10.17 -3.14,13.94 -2.1,3.75 -4.93,6.79 -8.54,9.11 -3.59,2.33 -7.76,4.01 -12.53,5.02 -4.79,1.01 -9.81,1.51 -15.12,1.51 -5.43,0 -10.59,-0.45 -15.5,-1.37 -4.91,-0.92 -9.18,-2.31 -12.76,-4.15zm171.03 3.8l-24.32 0 -7.05 -22.05 -35.24 0 -6.98 22.05 -24.2 0 36.09 -99.09 26.46 0 35.24 99.09zm-36.49 -39.18l-10.64 -33.31c-0.78,-2.5 -1.34,-5.47 -1.67,-8.92l-0.54 0c-0.24,2.9 -0.8,5.78 -1.72,8.63l-10.78 33.59 25.36 0zm134.61 39.18l-22.39 0 0 -40.36 -41.04 0 0 40.36 -22.34 0 0 -99.09 22.34 0 0 39.53 41.04 0 0 -39.53 22.39 0 0 99.09zm174.38 0l-22.05 0 0 -59.3c0,-6.39 0.28,-13.47 0.83,-21.21l-0.54 0c-1.16,6.09 -2.19,10.45 -3.11,13.14l-23.21 67.37 -18.26 0 -23.64 -66.68c-0.64,-1.79 -1.67,-6.42 -3.11,-13.82l-0.61 0c0.59,9.77 0.9,18.33 0.9,25.71l0 54.79 -20.12 0 0 -99.09 32.69 0 20.26 58.73c1.6,4.69 2.78,9.41 3.51,14.18l0.42 0c1.23,-5.5 2.55,-10.26 3.94,-14.32l20.24 -58.59 31.87 0 0 99.09zm44.84 0l-22.34 0 0 -99.09 22.34 0 0 99.09zm79.8 -80.93l-34.96 0 0 24.34 32.13 0 0 18.09 -32.13 0 0 38.49 -22.34 0 0 -99.09 57.29 0 0 18.16zm87.63 0l-28.28 0 0 80.93 -22.38 0 0 -80.93 -28.12 0 0 -18.16 78.78 0 0 18.16zm90.6 80.93l-24.32 0 -7.05 -22.05 -35.24 0 -6.98 22.05 -24.2 0 36.09 -99.09 26.46 0 35.24 99.09zm-36.49 -39.18l-10.64 -33.31c-0.78,-2.5 -1.34,-5.47 -1.67,-8.92l-0.54 0c-0.24,2.9 -0.8,5.78 -1.72,8.63l-10.78 33.59 25.36 0zm134.61 39.18l-22.39 0 0 -40.36 -41.04 0 0 40.36 -22.34 0 0 -99.09 22.34 0 0 39.53 41.04 0 0 -39.53 22.39 0 0 99.09zm103.46 -42.91c0,29.74 -13.87,44.63 -41.58,44.63 -26.91,0 -40.36,-14.53 -40.36,-43.59l0 -57.22 22.39 0 0 57.48c0,16.04 6.27,24.06 18.8,24.06 12.29,0 18.45,-7.74 18.45,-23.23l0 -58.31 22.31 0 0 56.19zm80.57 42.91l-59.02 0 0 -99.09 22.34 0 0 80.98 36.68 0 0 18.12zm132.89 -42.91c0,29.74 -13.87,44.63 -41.58,44.63 -26.91,0 -40.36,-14.53 -40.36,-43.59l0 -57.22 22.39 0 0 57.48c0,16.04 6.27,24.06 18.8,24.06 12.29,0 18.45,-7.74 18.45,-23.23l0 -58.31 22.31 0 0 56.19zm80.57 42.91l-59.02 0 0 -99.09 22.34 0 0 80.98 36.68 0 0 18.12zm91.28 -42.91c0,29.74 -13.87,44.63 -41.58,44.63 -26.91,0 -40.36,-14.53 -40.36,-43.59l0 -57.22 22.39 0 0 57.48c0,16.04 6.27,24.06 18.8,24.06 12.29,0 18.45,-7.74 18.45,-23.23l0 -58.31 22.31 0 0 56.19zm134.5 42.91l-22.05 0 0 -59.3c0,-6.39 0.28,-13.47 0.83,-21.21l-0.54 0c-1.16,6.09 -2.19,10.45 -3.11,13.14l-23.21 67.37 -18.26 0 -23.64 -66.68c-0.64,-1.79 -1.67,-6.42 -3.11,-13.82l-0.61 0c0.59,9.77 0.9,18.33 0.9,25.71l0 54.79 -20.12 0 0 -99.09 32.69 0 20.26 58.73c1.6,4.69 2.78,9.41 3.51,14.18l0.42 0c1.23,-5.5 2.55,-10.26 3.94,-14.32l20.24 -58.59 31.87 0 0 99.09zm-1483.12 188.25l0 -99.09 28.19 0c8.56,0 15.38,2.1 20.38,6.27 5.02,4.2 7.55,9.67 7.55,16.39 0,5.61 -1.53,10.5 -4.58,14.65 -3.04,4.15 -7.22,7.1 -12.57,8.84l0 0.28c6.68,0.78 12.03,3.3 16.04,7.55 4.01,4.27 6.01,9.81 6.01,16.63 0,8.47 -3.04,15.33 -9.13,20.59 -6.09,5.26 -13.75,7.88 -23.02,7.88l-28.87 0zm11.6 -88.59l0 32.01 11.89 0c6.34,0 11.34,-1.53 15,-4.6 3.63,-3.07 5.45,-7.38 5.45,-12.97 0,-9.62 -6.32,-14.44 -19.01,-14.44l-13.33 0zm0 42.43l0 35.66 15.76 0c6.82,0 12.1,-1.63 15.85,-4.84 3.78,-3.23 5.64,-7.67 5.64,-13.28 0,-11.7 -7.97,-17.55 -23.92,-17.55l-13.33 0zm104.21 11.2l-37.74 0 0 -8.92 37.74 0 0 8.92zm79.37 -15c0,8.28 -0.73,15.64 -2.24,22.03 -1.49,6.41 -3.66,11.82 -6.49,16.2 -2.83,4.41 -6.32,7.74 -10.45,10.02 -4.13,2.29 -8.8,3.42 -14.06,3.42 -4.98,0 -9.41,-1.08 -13.3,-3.28 -3.89,-2.19 -7.17,-5.38 -9.84,-9.58 -2.69,-4.17 -4.72,-9.34 -6.09,-15.43 -1.39,-6.11 -2.08,-13.11 -2.08,-20.99 0,-8.66 0.73,-16.3 2.17,-22.93 1.46,-6.65 3.59,-12.2 6.39,-16.7 2.81,-4.48 6.3,-7.88 10.47,-10.17 4.17,-2.26 8.94,-3.42 14.34,-3.42 20.78,0 31.16,16.94 31.16,50.81zm-11.61 1.11c0,-28.21 -6.7,-42.29 -20.1,-42.29 -14.15,0 -21.23,14.34 -21.23,43.05 0,26.77 6.94,40.15 20.81,40.15 13.68,0 20.52,-13.63 20.52,-40.9zm23.64 21.21c0,-2.62 0.4,-5.26 1.23,-7.9 0.85,-2.67 2.03,-5.14 3.56,-7.43 1.56,-2.31 3.47,-4.41 5.73,-6.3 2.29,-1.89 4.88,-3.37 7.78,-4.48 -4.29,-2.41 -7.69,-5.47 -10.24,-9.22 -2.52,-3.77 -3.8,-7.93 -3.8,-12.48 0,-3.66 0.71,-7.01 2.12,-10.1 1.39,-3.09 3.35,-5.75 5.83,-8.02 2.5,-2.26 5.45,-4.01 8.84,-5.28 3.42,-1.27 7.1,-1.91 11.06,-1.91 4.01,0 7.71,0.66 11.13,1.93 3.4,1.3 6.35,3.07 8.85,5.33 2.48,2.26 4.41,4.93 5.8,8.02 1.37,3.09 2.08,6.42 2.08,10.02 0,4.55 -1.27,8.7 -3.8,12.48 -2.55,3.75 -5.9,6.82 -10.09,9.22 2.85,1.11 5.4,2.6 7.67,4.48 2.26,1.89 4.15,3.99 5.71,6.3 1.53,2.29 2.71,4.76 3.56,7.43 0.83,2.64 1.23,5.28 1.23,7.9 0,4.34 -0.78,8.3 -2.33,11.89 -1.58,3.59 -3.77,6.68 -6.6,9.22 -2.83,2.57 -6.23,4.55 -10.17,5.99 -3.94,1.42 -8.28,2.12 -13.02,2.12 -4.69,0 -9.01,-0.71 -12.93,-2.12 -3.91,-1.44 -7.29,-3.42 -10.17,-5.99 -2.85,-2.55 -5.07,-5.64 -6.65,-9.22 -1.6,-3.59 -2.38,-7.55 -2.38,-11.89zm12.29 -0.97c0,3.09 0.47,5.87 1.42,8.37 0.94,2.48 2.29,4.6 4.01,6.34 1.72,1.75 3.82,3.09 6.3,4.03 2.45,0.97 5.19,1.44 8.18,1.44 2.9,0 5.57,-0.49 8.02,-1.46 2.43,-0.97 4.55,-2.33 6.32,-4.08 1.77,-1.75 3.16,-3.87 4.15,-6.35 0.99,-2.5 1.49,-5.26 1.49,-8.3 0,-2.76 -0.47,-5.35 -1.42,-7.78 -0.97,-2.41 -2.31,-4.53 -4.06,-6.39 -1.75,-1.84 -3.85,-3.28 -6.27,-4.34 -2.45,-1.06 -5.19,-1.58 -8.23,-1.58 -2.85,0 -5.5,0.49 -7.93,1.49 -2.41,0.99 -4.51,2.36 -6.27,4.13 -1.77,1.79 -3.16,3.89 -4.18,6.37 -1.01,2.45 -1.53,5.17 -1.53,8.11zm3.54 -45.95c0,2.33 0.42,4.53 1.27,6.53 0.85,2 2.03,3.75 3.51,5.24 1.51,1.51 3.23,2.69 5.21,3.54 1.98,0.85 4.1,1.27 6.37,1.27 2.26,0 4.39,-0.45 6.39,-1.32 2,-0.87 3.75,-2.05 5.21,-3.56 1.49,-1.49 2.64,-3.23 3.54,-5.24 0.87,-2 1.3,-4.15 1.3,-6.46 0,-2.41 -0.42,-4.6 -1.27,-6.63 -0.85,-2.03 -2.01,-3.8 -3.49,-5.26 -1.46,-1.49 -3.21,-2.64 -5.21,-3.49 -2.01,-0.85 -4.15,-1.27 -6.46,-1.27 -2.45,0 -4.67,0.42 -6.68,1.3 -2.01,0.9 -3.73,2.08 -5.19,3.56 -1.44,1.51 -2.55,3.28 -3.35,5.28 -0.78,2.03 -1.16,4.2 -1.16,6.51zm101.36 70.55l0 -13.68c1.58,1.39 3.47,2.62 5.64,3.73 2.19,1.11 4.51,2.05 6.91,2.81 2.43,0.76 4.86,1.35 7.29,1.77 2.45,0.4 4.72,0.61 6.77,0.61 7.15,0 12.48,-1.32 16.02,-3.99 3.51,-2.64 5.28,-6.46 5.28,-11.42 0,-2.69 -0.59,-5 -1.77,-6.98 -1.18,-1.98 -2.81,-3.8 -4.86,-5.43 -2.08,-1.65 -4.53,-3.21 -7.36,-4.72 -2.85,-1.49 -5.9,-3.07 -9.18,-4.72 -3.44,-1.75 -6.68,-3.54 -9.67,-5.33 -3,-1.79 -5.59,-3.77 -7.81,-5.94 -2.22,-2.17 -3.94,-4.62 -5.21,-7.36 -1.27,-2.74 -1.91,-5.94 -1.91,-9.62 0,-4.53 0.99,-8.44 2.97,-11.79 1.98,-3.35 4.6,-6.09 7.81,-8.26 3.23,-2.17 6.91,-3.77 11.04,-4.84 4.1,-1.06 8.33,-1.6 12.6,-1.6 9.77,0 16.89,1.18 21.37,3.54l0 13.07c-5.85,-4.06 -13.37,-6.09 -22.53,-6.09 -2.55,0 -5.07,0.26 -7.62,0.78 -2.52,0.54 -4.79,1.42 -6.77,2.6 -1.98,1.2 -3.59,2.76 -4.84,4.65 -1.25,1.89 -1.86,4.17 -1.86,6.91 0,2.52 0.47,4.72 1.42,6.56 0.94,1.84 2.33,3.51 4.17,5.05 1.84,1.51 4.1,3 6.75,4.41 2.64,1.44 5.71,3 9.15,4.69 3.56,1.77 6.91,3.61 10.09,5.54 3.19,1.93 5.97,4.08 8.35,6.42 2.41,2.36 4.29,4.95 5.71,7.81 1.42,2.85 2.1,6.13 2.1,9.81 0,4.88 -0.94,9.03 -2.85,12.41 -1.91,3.4 -4.5,6.16 -7.74,8.26 -3.25,2.12 -7.01,3.66 -11.23,4.6 -4.25,0.94 -8.7,1.42 -13.42,1.42 -1.56,0 -3.49,-0.12 -5.8,-0.38 -2.29,-0.26 -4.65,-0.61 -7.05,-1.11 -2.38,-0.47 -4.65,-1.08 -6.79,-1.79 -2.15,-0.71 -3.87,-1.51 -5.17,-2.38zm152.33 -36.07c0,27.81 -12.55,41.73 -37.67,41.73 -24.04,0 -36.06,-13.37 -36.06,-40.15l0 -60.6 11.6 0 0 59.84c0,20.31 8.59,30.48 25.71,30.48 16.54,0 24.81,-9.81 24.81,-29.44l0 -60.88 11.61 0 0 59.02zm95.79 40.08l-13.82 0 -16.61 -27.79c-1.51,-2.57 -2.97,-4.76 -4.41,-6.6 -1.44,-1.82 -2.9,-3.3 -4.39,-4.44 -1.51,-1.16 -3.11,-2 -4.84,-2.52 -1.72,-0.54 -3.68,-0.8 -5.85,-0.8l-9.53 0 0 42.15 -11.6 0 0 -99.09 29.58 0c4.32,0 8.33,0.54 11.98,1.63 3.66,1.08 6.84,2.71 9.53,4.93 2.71,2.22 4.81,4.98 6.32,8.25 1.53,3.3 2.29,7.15 2.29,11.58 0,3.44 -0.52,6.63 -1.56,9.51 -1.04,2.88 -2.5,5.45 -4.41,7.69 -1.91,2.26 -4.22,4.2 -6.91,5.78 -2.71,1.58 -5.73,2.83 -9.11,3.7l0 0.26c1.67,0.75 3.11,1.58 4.34,2.52 1.2,0.97 2.38,2.08 3.47,3.37 1.11,1.27 2.22,2.74 3.3,4.39 1.09,1.63 2.29,3.51 3.61,5.69l18.61 29.79zm-59.44 -88.59l0 35.95 15.76 0c2.9,0 5.59,-0.45 8.04,-1.32 2.48,-0.87 4.6,-2.12 6.39,-3.77 1.79,-1.63 3.21,-3.63 4.22,-6.01 1.01,-2.36 1.51,-5.02 1.51,-7.97 0,-5.31 -1.7,-9.44 -5.14,-12.41 -3.42,-2.97 -8.4,-4.46 -14.88,-4.46l-15.9 0zm149.76 88.59l-12.86 0 -10.5 -27.79 -42.03 0 -9.88 27.79 -12.9 0 38 -99.09 12.03 0 38.14 99.09zm-27.17 -38.21l-15.54 -42.22c-0.49,-1.39 -1.01,-3.61 -1.51,-6.63l-0.28 0c-0.45,2.81 -0.99,5 -1.58,6.63l-15.43 42.22 34.34 0zm41.75 38.21l0 -99.09 28.19 0c8.56,0 15.38,2.1 20.38,6.27 5.02,4.2 7.55,9.67 7.55,16.39 0,5.61 -1.53,10.5 -4.58,14.65 -3.04,4.15 -7.22,7.1 -12.57,8.84l0 0.28c6.68,0.78 12.03,3.3 16.04,7.55 4.01,4.27 6.01,9.81 6.01,16.63 0,8.47 -3.04,15.33 -9.13,20.59 -6.09,5.26 -13.75,7.88 -23.02,7.88l-28.87 0zm11.6 -88.59l0 32.01 11.89 0c6.34,0 11.34,-1.53 15,-4.6 3.63,-3.07 5.45,-7.38 5.45,-12.97 0,-9.62 -6.32,-14.44 -19.01,-14.44l-13.33 0zm0 42.43l0 35.66 15.76 0c6.82,0 12.1,-1.63 15.85,-4.84 3.78,-3.23 5.64,-7.67 5.64,-13.28 0,-11.7 -7.97,-17.55 -23.92,-17.55l-13.33 0zm146.22 46.16l-12.86 0 -10.5 -27.79 -42.03 0 -9.88 27.79 -12.9 0 38 -99.09 12.03 0 38.14 99.09zm-27.17 -38.21l-15.54 -42.22c-0.49,-1.39 -1.01,-3.61 -1.51,-6.63l-0.28 0c-0.45,2.81 -0.99,5 -1.58,6.63l-15.43 42.22 34.34 0zm95.36 -60.88l-32.67 62.46 0 36.63 -11.63 0 0 -36.35 -31.84 -62.74 13.18 0 22.2 44.77c0.26,0.57 1.08,2.59 2.41,6.09l0.21 0c0.47,-1.56 1.34,-3.59 2.62,-6.09l23.23 -44.77 12.29 0zm79.61 99.09l-12.86 0 -10.5 -27.79 -42.03 0 -9.88 27.79 -12.9 0 38 -99.09 12.03 0 38.14 99.09zm-27.17 -38.21l-15.54 -42.22c-0.49,-1.39 -1.01,-3.61 -1.51,-6.63l-0.28 0c-0.45,2.81 -0.99,5 -1.58,6.63l-15.43 42.22 34.34 0z"/>
  <g id="_2103480963920">
   <path class="fil0" d="M787.21 514.51l209.92 -490.08 209.93 490.08 -419.85 0zm-14.59 9.62l449.02 0 -112.25 -262.06 -112.26 -262.06 -224.51 524.13zm0 0z"/>
   <path class="fil0" d="M1192.37 504.83l-195.24 -455.8 -195.23 455.8 390.48 0zm-208.37 -290.67l-6.02 18.42 15.67 -11.42 15.66 11.42 -6.03 -18.42 15.7 -11.35 -19.39 0.04 -5.95 -18.44 -5.96 18.44 -19.39 -0.04 15.71 11.35zm-51.04 104.78l-2.28 -7.05 -2.27 7.05 -7.41 -0.01 6.01 4.34 -2.31 7.04 5.99 -4.36 5.99 4.36 -2.31 -7.04 6 -4.34 -7.41 0.01zm11.69 -28.87l-7.41 0.01 -2.28 -7.05 -2.28 7.05 -7.41 -0.01 6 4.34 -2.31 7.04 5.99 -4.36 5.99 4.36 -2.31 -7.04 6 -4.34zm12.09 -20.22l-7.41 0.02 -2.28 -7.05 -2.28 7.05 -7.41 -0.02 6 4.34 -2.3 7.04 5.99 -4.36 5.99 4.36 -2.31 -7.04 6 -4.34zm13.57 -6.37l-2.31 -7.04 6.01 -4.34 -7.41 0.02 -2.28 -7.05 -2.28 7.05 -7.41 -0.02 6 4.34 -2.3 7.04 5.98 -4.37 5.99 4.37zm89.77 48.41l-2.28 7.05 -7.41 -0.01 6 4.34 -2.31 7.04 5.99 -4.36 5.99 4.36 -2.31 -7.04 6 -4.34 -7.41 0.01 -2.28 -7.05zm-8.2 -21.8l-7.41 -0.01 6 4.34 -2.31 7.04 5.99 -4.36 5.99 4.36 -2.31 -7.04 6 -4.34 -7.41 0.01 -2.28 -7.05 -2.28 7.05zm-11.6 -20.22l-7.41 -0.02 6 4.34 -2.31 7.04 5.99 -4.36 5.99 4.36 -2.31 -7.04 6.01 -4.34 -7.41 0.02 -2.27 -7.05 -2.28 7.05zm-20.65 -13.43l-2.31 7.04 5.99 -4.37 5.98 4.37 -2.3 -7.04 6 -4.34 -7.41 0.02 -2.28 -7.05 -2.28 7.05 -7.41 -0.02 6.01 4.34zm-25.16 25.16l10.12 0.06c2.5,0.02 8.2,-12.56 1.24,-19.11 -5.5,-5.17 -11.35,-14.67 -11.35,-14.67 0,0 -5.85,9.5 -11.35,14.67 -6.97,6.55 -1.26,19.13 1.24,19.11l10.12 -0.06zm2.97 12.83l0 8.88c0,0.19 -0.03,0.37 -0.08,0.55l4.1 0c-0.05,-0.18 -0.08,-0.37 -0.08,-0.55l0 -8.88c0,-1.19 0.98,-2.16 2.16,-2.16 1.19,0 2.16,0.97 2.16,2.16l0 8.88c0,0.19 -0.03,0.37 -0.07,0.55l2.53 0 0 -17.51 -27.51 0 0 17.51 4.27 0c-0.04,-0.18 -0.07,-0.37 -0.07,-0.55l0 -8.88c0,-1.19 0.97,-2.16 2.16,-2.16 1.19,0 2.15,0.97 2.15,2.16l0 8.88c0,0.19 -0.02,0.37 -0.07,0.55l4.09 0c-0.04,-0.18 -0.07,-0.37 -0.07,-0.55l0 -8.88c0,-1.19 0.97,-2.16 2.16,-2.16 1.19,0 2.16,0.97 2.16,2.16zm-19 23.12c10.74,2.42 21.63,2.52 32.7,0l0 -12.33c-10.9,2.51 -21.8,3.08 -32.7,0l0 12.33zm26.36 30.8c0,0 0.34,1.11 1.57,2.87 1.24,1.76 6.88,6.22 6.88,6.22l-5.12 0.16 -0.19 5.36 -3.7 3.14c0,0 1.55,4.14 1.05,5.62 -0.49,1.48 -0.98,1.36 -2.84,2.22 -1.85,0.86 -0.31,3.7 -0.31,3.7l10.06 0.24c0,0 0.31,0.5 1.98,1.79 1.67,1.29 6.17,2.9 6.48,2.9 0.31,0 1.17,1.41 1.17,1.41l3.52 1.91 0.62 -2.1 1.91 -0.06c0,0 0,1.67 0.55,2.34 0.55,0.68 2.47,-1.23 2.9,-2.15 0.43,-0.93 0.55,-4.19 0.55,-4.19 0,0 -4.25,1.91 -8.39,1.91 -4.14,0 -10.36,-5.49 -10.36,-5.49 0,0 2.1,-2.28 2.1,-4.56 0,-2.28 -2.41,-2.41 -4.88,-4.19 -2.46,-1.79 -0.98,-3.51 -0.98,-3.51 0,0 1.67,-0.5 3.39,-0.25 1.73,0.25 0.81,1.11 2.54,2.03 1.72,0.93 7.15,1.79 7.15,1.79l0.74 4.01c0.74,4.01 2.9,7.74 4.43,7.55 1.53,-0.19 4.49,-2.43 5.36,-3.6 0.86,-1.17 1.45,-5.42 1.45,-5.42 0,0 3.02,0.5 4.14,0.86 1.11,0.37 4.07,0.74 4.07,0.74 0,0 -0.07,8.57 -0.07,10.36 0,1.79 0.31,2.65 0.68,3.14 0.37,0.5 1.79,-0.37 2.03,-0.67 0.24,-0.31 0.31,-11.65 0.31,-11.65 0,0 2.1,0.06 3.14,0.06 1.05,0 6.17,-0.06 6.17,-0.06 0,0 0.06,0.24 0.19,1.11 0.12,0.86 0.47,6.75 0.47,6.75l1.48 0.93 0.5 -9.17c0,0 2.65,-1.24 2.15,-1.91 -0.5,-0.68 -3.15,-0.37 -3.15,-0.37 0,0 -1.11,-4.13 -1.72,-5.42 -0.62,-1.29 -1.61,-6.54 -1.61,-6.54l1.67 0.06c0,0 1.67,2.41 2.53,3.83 0.87,1.41 4.2,8.57 5.18,9.37 0.99,0.8 1.91,-0.68 1.79,-1.24 -0.12,-0.55 -5.74,-9.13 -6.72,-10.3 -0.99,-1.17 0,-2.96 0,-2.96 0,0 1.67,1.11 2.59,2.16 0.92,1.05 3.24,4.8 4.25,5.97 1.02,1.18 3.58,-0.12 3.58,-0.12 0,0 -5.06,-7.02 -6.54,-9.25 -1.48,-2.22 -10.36,-10.36 -23.94,-18.12 -13.57,-7.77 -30.61,-10.11 -30.61,-10.11l2.11 2.83 -2.1 2.1 10.05 0 0.24 1.91c0,0 -10.11,2.04 -10.48,2.16 -0.38,0.12 0.12,2.77 0.12,2.77 0,0 0.74,-0.24 6.36,-1.29 5.62,-1.05 6.17,3.51 6.17,3.51 0,0 0,0.06 -4.07,1.54 -4.07,1.48 -10.61,5.37 -10.61,5.37zm11.04 -2.41c2.53,-0.98 9.26,-0.24 9.26,-0.24l-9.19 9.19c0,0 -3.21,-1.24 -4.32,-2.16 -1.11,-0.93 -2.09,-2.39 -2.22,-2.28 0,0 3.95,-3.52 6.48,-4.5zm2.53 10.05l7.71 -7.95c0,0 5.12,0.93 6.91,2.34 1.79,1.41 2.78,4.01 2.71,4.37 -0.06,0.37 1.05,1.97 1.36,1.67 0.31,-0.31 0.86,-2.53 0.86,-2.53 0,0 1.66,-0.8 3.09,-0.37 1.42,0.43 1.48,4.32 1.48,4.32l0.25 10.6 -7.28 -1.17c0,0 -0.31,-1.6 0.12,-3.7 0.43,-2.1 0.43,-4.07 0.43,-4.07 0,0 -2.22,-0.62 -2.41,-0.25l-2.65 5.61c0,0 -6.42,-3.08 -8.39,-4.68 -1.97,-1.6 -4.19,-4.19 -4.19,-4.19zm-1.11 1.97l0.13 0.15c0.53,0.65 2.64,3.17 3.82,3.91 1.36,0.86 9.19,5.43 9.19,5.43l0.31 6.11c0,0 -0.49,1.97 -1.79,-0.49 -1.29,-2.46 -2.78,-4.68 -3.27,-5.42 -0.49,-0.74 -7.16,-4.63 -8.02,-5.36 -0.86,-0.74 -1.79,-2.34 -1.79,-2.34 0,0 -0.25,-1.24 0.58,-1.61l0.83 -0.37zm28.35 10.97l0.06 -12.82c0,0 0.68,-0.37 2.04,0.24 1.36,0.62 2.22,2.22 3.15,3.63 0.93,1.42 2.78,9.13 2.78,9.13l-8.02 -0.19zm-70.61 -10.79c1.97,0.98 3.27,2.1 5.55,2.65 2.29,0.55 2.78,-1.05 2.78,-1.05 0,0 -0.06,-0.98 -0.75,-1.17 -0.68,-0.19 -1.17,-3.15 -3.58,-5 -2.41,-1.84 -5.31,0.93 -5.31,0.93l-0.67 1.42c0,0 0,1.23 1.97,2.22zm-42.69 22.62c0,0 2.84,-1.91 3.15,-3.33 0.31,-1.42 -0.81,-2.47 -0.81,-2.47 0,0 -2.15,1.42 -2.46,3.58 -0.31,2.16 0.12,2.22 0.12,2.22zm59.15 2.75l-12.46 -10.39 9.01 -7.4 -0.43 -4.19 -10.36 9.92 -9.5 -10.61 0.68 -2.46c0.25,-0.86 1.36,-0.62 1.36,-0.62 0,0 0.06,-2.03 0.74,-3.63 0.68,-1.61 1.36,-0.56 2.66,-1.55 1.29,-0.98 -0.68,-4.32 -0.68,-4.32 0,0 -3.95,2.16 -5.55,3.15 -1.61,0.98 0.06,2.28 0.06,3.58 0,1.29 -1.36,2.84 -1.36,2.84l-6.6 -8.7 10.46 -6.84 -2.01 -1.14 -9.46 5.95 -3.18 -5.18c0,0 1.57,-2.04 3.43,-3.52 1.85,-1.48 7.47,-3.23 7.47,-3.23 0,0 -0.31,1.05 2.03,2.68 2.35,1.64 5.06,1.66 5.06,1.66l1.79 7.28c0,0 4.44,-1.24 5.92,0.06 1.48,1.3 -1.06,0.87 -2.84,1.61 -1.79,0.74 -0.86,1.05 -0.06,2.4 0.8,1.36 2.41,-1.17 3.95,-1.11 1.54,0.06 1.91,1.6 2.89,1.79 0.99,0.19 1.36,-0.99 1.36,-1.29 0,-0.31 -4.38,-5.62 -3.94,-6.97 0.43,-1.35 3.39,-0.92 3.39,-0.92l-2.72 -14.8c0.06,0.32 -6.68,1.55 -6.68,1.55 0,0 -14.81,2.47 -28.63,12.33 -13.82,9.87 -22.89,24.97 -22.89,24.97 0,0 -0.06,1.97 0.5,2.28 0.55,0.31 2.9,-0.99 2.9,-0.99 0,0 4.38,3.27 6.91,4.88 2.53,1.6 12.16,6.97 12.16,6.97l0.55 4.37 1.98 -1.97c0,0 9.78,3.88 11.45,3.88 1.67,0 2.22,-1.26 2.22,-1.26l-14.44 -7.71c-14.44,-7.71 -19.46,-12.45 -19.46,-12.45 0,0 1.36,-2.22 6.53,-8.75 5.19,-6.54 15.25,-12.02 15.25,-12.02l3.76 5.92c0,0 -1.54,1.41 -6.61,5.85 -5.06,4.44 -10.42,12.33 -10.42,12.33l3.27 1.54c0,0 2.47,-4.75 5.86,-8.88 3.4,-4.13 9.35,-8.35 9.35,-8.35l6.85 8.57 -6.08 5.64 1.11 3.08 6.97 -6.19 9.94 10.6 -8.64 11.47 3.58 0.67 7.59 -10.38 11.26 9.43 -2.44 3.48 1.61 0.71c0,0 1.6,-1.63 2.71,-2.68 1.1,-1.05 0.89,-2.93 0.89,-2.93zm-6.38 -61.22l9.47 68.18c0,0 0.12,0.04 1.11,0.8 0.98,0.77 2.25,-0.68 2.25,-0.68l7.16 -68.3 -19.99 0zm-0.31 91.03c-3.48,-5.03 -9.77,-10.88 -20.85,-13.63 -6.24,-1.55 -12.66,-2.48 -18.63,-3.02 -14.56,-1.32 -26.41,-0.32 -26.41,-0.32 0,0 3.21,3.58 9.62,3.95 5.44,0.31 16.26,0.27 23.5,1.07 1.31,0.15 2.51,0.32 3.53,0.53 6.66,1.36 7.66,1.85 10.61,3.58 2.96,1.72 4.19,3.08 4.19,3.08 0,0 -2.04,-0.03 -4.97,-0.33 -2.97,-0.31 -6.85,-0.9 -10.46,-2.01 -7.15,-2.22 -19.37,-0.37 -19.37,-0.37 0,0 1.48,3.58 8.76,3.7 7.28,0.12 26.59,0.67 26.59,0.67 0,0 2.66,2.29 3.52,3.4 0.86,1.11 1.11,2.43 1.11,2.43 0,0 -9.19,-0.19 -13.76,-0.93 -4.57,-0.74 -8.27,-1.36 -8.27,-1.36 0,0 5.55,5.3 15.18,6.78 9.62,1.49 20.18,1.45 20.18,1.45 0,0 -0.81,-3.98 -4.08,-8.68zm45.76 -15.53c-13.56,3.36 -19.94,11.38 -22.79,16.83 -1.66,3.18 -2.14,5.49 -2.14,5.49 0,0 10.56,0.03 20.18,-1.45 9.62,-1.48 15.17,-6.78 15.17,-6.78 0,0 -3.7,0.62 -8.27,1.36 -4.57,0.74 -13.76,0.93 -13.76,0.93 0,0 0.24,-1.29 1.08,-2.39 0.01,-0.01 0.02,-0.03 0.04,-0.04 0.86,-1.11 3.52,-3.4 3.52,-3.4 0,0 2.36,-0.06 5.75,-0.16 6.29,-0.17 16.11,-0.43 20.84,-0.51 7.28,-0.12 8.76,-3.7 8.76,-3.7 0,0 -12.21,-1.85 -19.37,0.37 -1.67,0.51 -3.38,0.91 -5.05,1.23 -5.5,1.04 -10.38,1.11 -10.38,1.11 0,0 1.24,-1.36 4.19,-3.08 2.96,-1.73 3.95,-2.22 10.61,-3.58 1.46,-0.3 3.29,-0.53 5.31,-0.7 7.14,-0.62 16.71,-0.61 21.72,-0.9 6.41,-0.37 9.62,-3.95 9.62,-3.95 0,0 -11.45,-0.97 -25.67,0.24 -6.18,0.53 -12.87,1.47 -19.38,3.09zm-18.35 -8.09c-15.31,3.09 -17.03,10.11 -17.03,10.11 0,0 -4.08,-5.92 -9.75,-9.13 -5.68,-3.2 -19,-3.45 -19,-3.45l-31.48 -0.06 -30.43 -0.06 -7.44 -0.01c0,0 0,1.49 1.36,2.59 0.89,0.73 1.57,2.02 8.88,2.43 3.88,0.22 9.63,0.17 18.27,-0.34 4.95,-0.29 9.61,-0.29 13.91,-0.09 17.38,0.82 28.93,4.8 30.02,4.89 1.36,0.13 9.75,2.47 17.9,11.59 1.62,1.83 2.85,3.76 3.79,5.7 3.73,7.79 2.8,15.91 4.48,18.96 2.1,3.83 5.92,4.69 7.9,4.44 1.97,-0.24 3.45,-2.22 2.71,-2.96 -0.74,-0.74 -3.21,-4.56 -4.45,-11.34 -0.55,-3 -0.22,-6.29 0.52,-9.32 0.94,-3.83 2.54,-7.25 3.92,-9.18 2.47,-3.45 10.24,-8.01 17.15,-10.6 4.19,-1.57 16.31,-2.73 28.86,-3.54 8.16,-0.52 16.5,-0.9 22.97,-1.15 3.5,-0.13 6.21,-0.34 8.31,-0.59 7.73,-0.92 7.12,-2.37 7.12,-2.37 0,0 -2.21,0.01 -5.9,0.06 -6.46,0.07 -17.44,0.23 -29.08,0.55 -17.31,0.49 -36.06,1.35 -43.5,2.84zm67.83 91.87c0,0 -8.02,1.84 -10.43,2.34 -2.41,0.49 -3.82,0.25 -3.82,0.25 0,0 0.37,6.53 4.38,8.32 4.01,1.79 10.73,1.36 10.73,1.36 0,0 -2.22,-1.67 -2.77,-4.25 -0.55,-2.59 -0.62,-3.52 0.19,-4.88 0.8,-1.35 1.72,-3.14 1.72,-3.14zm0.49 -29.1l12.56 23.3c0,0 -6.54,3.51 -8.7,5.12 -2.15,1.6 -3.14,3.27 -3.76,5.55 -0.62,2.28 -0.06,4.57 2.84,6.23 2.9,1.67 9.13,-0.93 9.13,-0.93 0,0 7.9,-0.49 24.68,-25.15 16.78,-24.66 30.79,-34.21 30.79,-34.21l-24.03 0.27c0,0 -0.68,-2.68 -1.21,-4.47 -0.52,-1.79 -1.11,-5.89 -0.37,-10.08 0.74,-4.19 3.42,-9.53 3.42,-9.53 0,0 -3.36,1.66 -6.17,3.58 -2.81,1.91 -5,3.58 -9.81,8.39 -4.81,4.8 -18.63,27.25 -22.21,29.96 -3.58,2.71 -7.15,1.98 -7.15,1.98zm-174.66 22.43c57.59,19.46 118.37,18.44 181.88,-0.24l-17.27 -31.81c-51.68,11.61 -100.67,11.41 -147.08,0l-17.52 32.06zm22.69 -6.63c2.2,0.18 4.41,0.36 6.62,0.55 -0.18,1.21 -0.14,2.17 0.15,2.86 0.47,1.11 1.39,1.75 2.76,1.94 1,0.13 1.85,-0.01 2.53,-0.47 0.68,-0.45 1.1,-1.02 1.26,-1.71 0.15,-0.65 0.01,-1.27 -0.39,-1.85 -0.4,-0.59 -1.46,-1.21 -3.2,-1.92 -2.8,-1.16 -4.64,-2.53 -5.51,-3.97 -0.87,-1.44 -1.03,-3.12 -0.44,-5.06 0.39,-1.26 1.06,-2.42 2,-3.47 0.94,-1.04 2.11,-1.81 3.5,-2.29 1.39,-0.48 3.12,-0.57 5.23,-0.3 2.62,0.32 4.47,1.18 5.62,2.55 1.16,1.37 1.64,3.35 1.43,6.01 -2.15,-0.08 -4.27,-0.18 -6.38,-0.3 0.1,-1.16 -0.06,-2.04 -0.46,-2.62 -0.41,-0.59 -1.06,-0.93 -1.98,-1.05 -0.75,-0.09 -1.36,0.03 -1.83,0.34 -0.49,0.33 -0.81,0.77 -0.95,1.31 -0.1,0.39 -0.02,0.77 0.19,1.14 0.21,0.37 0.87,0.78 1.97,1.21 2.73,1.09 4.66,2.13 5.79,3.02 1.13,0.9 1.9,1.93 2.3,3.11 0.39,1.18 0.47,2.46 0.22,3.85 -0.29,1.62 -0.98,3.08 -2.08,4.36 -1.11,1.28 -2.51,2.21 -4.2,2.74 -1.66,0.51 -3.65,0.62 -5.96,0.29 -4.02,-0.56 -6.56,-1.83 -7.58,-3.71 -1,-1.85 -1.21,-4.05 -0.63,-6.57zm38.24 8.44c-2.84,-0.16 -5.68,-0.34 -8.47,-0.56 -0.6,1.36 -1.18,2.73 -1.77,4.09 -2.6,-0.2 -5.18,-0.42 -7.73,-0.68 2.22,-4.07 4.42,-8.14 6.49,-12.27 2.05,-4.1 3.99,-8.24 5.88,-12.36 2.38,0.21 4.78,0.37 7.18,0.54 1.06,4.32 2.15,8.67 3.4,12.96 1.25,4.3 2.63,8.58 4.1,12.87 -2.73,-0.09 -5.43,-0.18 -8.11,-0.32 -0.34,-1.42 -0.66,-2.84 -0.96,-4.27zm-1.12 -5.6c-0.3,-1.54 -0.6,-3.1 -0.87,-4.65 -0.28,-1.54 -0.53,-3.1 -0.77,-4.65 -0.58,1.5 -1.13,3 -1.71,4.49 -0.58,1.5 -1.19,2.98 -1.79,4.47 1.7,0.13 3.42,0.23 5.14,0.34zm12.92 -15.11c2.04,0.07 4.12,0.11 6.2,0.16 1.46,2.36 2.94,4.7 4.5,7.02 1.55,2.33 3.19,4.65 4.87,6.97 -0.22,-2.32 -0.41,-4.64 -0.6,-6.97 -0.19,-2.32 -0.42,-4.64 -0.62,-6.96 2.09,-0.03 4.2,-0.07 6.3,-0.1 0.54,4.19 1.09,8.39 1.64,12.57 0.54,4.19 1.09,8.38 1.64,12.58 -2.46,0.07 -4.93,0.15 -7.38,0.18 -1.76,-2.3 -3.49,-4.59 -5.15,-6.89 -1.65,-2.3 -3.2,-4.64 -4.75,-6.98 0.07,2.32 0.16,4.64 0.24,6.95 0.08,2.32 0.14,4.63 0.22,6.95 -2.45,-0.03 -4.88,-0.07 -7.32,-0.09 0.03,-4.23 0.07,-8.46 0.11,-12.7 0.04,-4.23 0.06,-8.46 0.1,-12.69zm23.56 0.04c6.74,-0.29 13.44,-0.7 20.05,-1.26 0.57,2.05 1.18,4.08 1.75,6.12 -2.31,0.2 -4.63,0.4 -6.95,0.6 0.77,3.12 1.53,6.24 2.28,9.36 0.75,3.12 1.52,6.25 2.27,9.37 -2.58,0.19 -5.12,0.38 -7.7,0.54 -0.62,-3.14 -1.23,-6.28 -1.85,-9.41 -0.62,-3.14 -1.22,-6.28 -1.84,-9.42 -2.35,0.12 -4.72,0.22 -7.07,0.32 -0.29,-2.07 -0.62,-4.14 -0.94,-6.21zm30.69 23.15c-1.28,-4.12 -2.56,-8.24 -3.83,-12.35 -1.27,-4.11 -2.56,-8.24 -3.82,-12.35 3.56,-0.38 7.11,-0.8 10.61,-1.25 1.94,-0.25 3.5,-0.27 4.67,-0.02 1.18,0.24 2.31,0.85 3.42,1.81 1.09,0.97 1.98,2.23 2.66,3.75 0.59,1.33 0.87,2.52 0.81,3.57 -0.07,1.06 -0.46,1.96 -1.09,2.71 -0.41,0.48 -1.07,0.93 -1.98,1.34 0.93,0.17 1.67,0.38 2.15,0.61 0.32,0.16 0.86,0.52 1.61,1.08 0.77,0.57 1.29,1 1.61,1.33 1.04,1.06 2.13,2.13 3.19,3.18 1.08,1.06 2.18,2.1 3.28,3.14 -2.67,0.48 -5.37,0.98 -8.09,1.41 -1.15,-1.13 -2.28,-2.27 -3.41,-3.41 -1.13,-1.13 -2.24,-2.28 -3.33,-3.43 -0.84,-0.89 -1.46,-1.47 -1.96,-1.7 -0.64,-0.3 -1.28,-0.41 -1.92,-0.33 -0.21,0.02 -0.42,0.05 -0.59,0.07 0.58,1.66 1.17,3.31 1.76,4.97 0.59,1.65 1.16,3.3 1.77,4.96 -2.49,0.31 -5.01,0.62 -7.51,0.92zm2.33 -15.46c0.95,-0.12 1.92,-0.25 2.85,-0.38 0.31,-0.04 0.85,-0.24 1.65,-0.58 0.39,-0.16 0.66,-0.46 0.77,-0.91 0.11,-0.45 0.07,-0.94 -0.14,-1.46 -0.32,-0.79 -0.78,-1.36 -1.37,-1.72 -0.6,-0.36 -1.47,-0.47 -2.66,-0.31 -0.96,0.13 -1.92,0.25 -2.87,0.37 0.59,1.67 1.18,3.33 1.77,5zm12.21 -12.23c2.01,-0.34 4.03,-0.69 6.04,-1.03 2.03,3.88 4.07,7.77 6.1,11.66 2.03,3.88 4.06,7.77 6.08,11.65 -2.3,0.5 -4.63,1 -6.94,1.49 -1.87,-3.96 -3.76,-7.93 -5.64,-11.88 -1.87,-3.96 -3.76,-7.92 -5.65,-11.88zm-122.65 32.42c-2.41,-0.5 -10.42,-2.34 -10.42,-2.34 0,0 0.92,1.79 1.73,3.14 0.8,1.36 0.74,2.28 0.19,4.88 -0.56,2.59 -2.78,4.25 -2.78,4.25 0,0 6.73,0.43 10.74,-1.36 4.01,-1.79 4.38,-8.32 4.38,-8.32 0,0 -1.41,0.24 -3.83,-0.25zm-18.07 -33.42c-3.58,-2.71 -17.4,-25.16 -22.21,-29.96 -4.81,-4.81 -7.01,-6.48 -9.81,-8.39 -2.81,-1.91 -6.18,-3.58 -6.18,-3.58 0,0 2.69,5.33 3.43,9.53 0.74,4.19 0.16,8.29 -0.37,10.08 -0.52,1.79 -1.21,4.47 -1.21,4.47l-24.03 -0.27c0,0 14,9.55 30.79,34.21 16.78,24.66 24.67,25.15 24.67,25.15 0,0 6.23,2.59 9.13,0.93 2.9,-1.66 3.46,-3.94 2.84,-6.23 -0.62,-2.28 -1.61,-3.94 -3.76,-5.55 -2.16,-1.61 -8.7,-5.12 -8.7,-5.12l12.56 -23.3c0,0 -3.58,0.74 -7.15,-1.98zm66.06 -36.23c-0.69,-0.77 -1.66,-1.63 -2.47,-2.33 -6.84,-0.18 -13.67,-0.39 -20.52,-0.54l4.07 0.68c2.76,0.46 5.51,0.91 8.26,1.36 3.27,0.52 7.11,0.73 10.66,0.83zm16.5 -0.5c-0.73,-0.06 -1.47,-0.12 -2.2,-0.19 1.5,2.41 3.04,5.55 3.54,8.1l0.4 2.06 -2.1 0c-6.69,0.01 -13.85,-0.46 -20.45,-1.47 -5.24,-0.8 -12.18,-3.47 -16.11,-7.24l-3.81 -3.66c-1.41,-0.03 -2.81,-0.06 -4.22,-0.09 -2.76,-0.04 -5.77,-0.57 -8.07,-2.19 -0.85,-0.61 -1.84,-1.57 -2.25,-2.56l-0.85 -2.04 2.19 -0.34c5.74,-0.86 14.58,-1.29 20.14,0.43 1.35,0.42 2.74,0.76 4.14,1.05 -1.19,-0.59 -2.36,-1.21 -3.52,-1.85l-0.86 -0.17c-1.1,-0.22 -2.25,-0.37 -3.37,-0.5 -7.76,-0.86 -15.62,-0.62 -23.4,-1.06 -3.61,-0.21 -8.31,-1.73 -10.82,-4.52l-2.32 -2.58 3.46 -0.29c2.61,-0.22 5.29,-0.3 7.9,-0.35 5.42,-0.09 10.87,0.05 16.28,0.46 -0.49,-0.4 -0.97,-0.82 -1.44,-1.23 -0.7,-0.04 -1.4,-0.08 -2.09,-0.11 -4.57,-0.21 -9.16,-0.19 -13.73,0.08 -5.67,0.34 -11.61,0.64 -17.31,0.39 18.12,29.22 49.9,48.6 86.07,48.6 37.58,0 70.41,-20.91 88.12,-52.04 -2.4,0.25 -4.82,0.38 -7.23,0.47 -7.64,0.29 -15.29,0.65 -22.92,1.14l-2.05 0.13c-0.38,0.35 -0.76,0.69 -1.15,1.03l0.6 -0.05c6.07,-0.52 12.19,-0.71 18.28,-0.59 2.52,0.05 5.13,0.13 7.65,0.35l3.12 0.27 -2.1 2.33c-2.47,2.75 -7.13,4.25 -10.7,4.46 -7.22,0.42 -14.44,0.27 -21.67,0.9 -1.7,0.15 -3.46,0.34 -5.14,0.68l-1.8 0.37c-1.26,0.77 -2.54,1.51 -3.83,2.22l0.6 -0.11c1.65,-0.31 3.28,-0.7 4.88,-1.19 5.54,-1.72 14.36,-1.28 20.07,-0.42l1.98 0.29 -0.77 1.85c-0.4,0.96 -1.37,1.91 -2.2,2.49 -2.27,1.61 -5.26,2.13 -7.98,2.17 -6.94,0.12 -13.88,0.32 -20.82,0.51 -1.73,0.04 -3.47,0.11 -5.2,0.14 -0.91,0.79 -2.03,1.79 -2.76,2.67 3.66,-0.1 7.66,-0.3 11.04,-0.85 2.76,-0.45 5.51,-0.9 8.26,-1.36l5.01 -0.85 -3.66 3.52c-3.9,3.75 -10.81,6.4 -16.02,7.2 -6.59,1.01 -13.74,1.47 -20.42,1.46l-1.91 0 0.38 -1.87c0.37,-1.89 1.4,-4.22 2.28,-5.9 0.13,-0.26 0.27,-0.51 0.41,-0.76 -0.88,0.13 -1.76,0.24 -2.65,0.34l-0.15 0.59c-0.68,2.76 -1.01,5.82 -0.5,8.63 0.47,2.56 1.2,5.16 2.28,7.54 0.33,0.72 1.13,2.35 1.69,2.91 0.18,0.19 0.33,0.39 0.45,0.63 1.2,2.46 -1.9,4.92 -4.15,5.2 -3.88,0.49 -7.75,-1.96 -9.59,-5.3 -1.12,-2.05 -1.36,-5.95 -1.66,-8.29 -0.49,-3.73 -1.22,-7.33 -2.86,-10.75 -0.14,-0.29 -0.28,-0.58 -0.43,-0.86zm-55.82 -28.27c-14.78,-16.66 -23.87,-39.29 -23.87,-64.21 0,-32.4 15.34,-60.91 38.59,-77.49 -33.08,17.38 -55.73,52.78 -55.73,93.63 0,17.3 4.07,33.62 11.26,48.02l29.76 0.05zm152.21 -0.88c6.94,-14.19 10.86,-30.22 10.86,-47.19 0,-38.41 -20.02,-72 -49.92,-90.32 20.8,16.91 34.25,43.84 34.25,74.18 0,24.75 -8.96,47.23 -23.56,63.86 9.17,-0.25 18.34,-0.41 27.52,-0.52l0.86 -0.01z"/>
  </g>
 </g>
</svg>
