<?xml version="1.0" encoding="UTF-8"?>
<!DOCTYPE svg PUBLIC "-//W3C//DTD SVG 1.1//EN" "http://www.w3.org/Graphics/SVG/1.1/DTD/svg11.dtd">
<!-- Creator: CorelDRAW -->
<svg xmlns="http://www.w3.org/2000/svg" xml:space="preserve" width="89.2488mm" height="45.374mm" version="1.1" style="shape-rendering:geometricPrecision; text-rendering:geometricPrecision; image-rendering:optimizeQuality; fill-rule:evenodd; clip-rule:evenodd"
viewBox="0 0 7387.8 3755.95"
 xmlns:xlink="http://www.w3.org/1999/xlink"
 xmlns:xodm="http://www.corel.com/coreldraw/odm/2003">
 <defs>
  <style type="text/css">
   <![CDATA[
    .fil0 {fill:#FEFEFE}
    .fil1 {fill:#FEFEFE;fill-rule:nonzero}
   ]]>
  </style>
 </defs>
 <g id="Layer_x0020_1">
  <metadata id="CorelCorpID_0Corel-Layer"/>
  <g id="_1851210660784">
   <path class="fil0" d="M5064.15 2552.73c-20.21,0 -30.86,-12.87 -30.86,-30.86 0,-20.93 26.5,-43.2 46.29,-43.2 18.84,0 28.97,-1.89 42.57,16.29 7.71,10.31 6.75,18.05 -1.45,27.77 -7.76,9.19 -42.38,30 -56.55,30zm-1135.62 92.58c0,33.25 2.62,66.4 16.31,91.7 5.87,10.84 12.09,17.19 22.4,23.89 41.08,26.66 85.25,-0.67 109.95,-31.75 15.18,-19.11 28.86,-57.09 45.76,-68.42 13.81,3.68 19.91,16.42 31.41,24.14 12.56,8.41 22.7,14.83 35.86,22.77 140.88,85 366.68,72.26 527.07,32.08 99.1,-24.82 212.63,-65.76 299.27,-117.33 53.56,-31.88 12.37,-11.04 96.96,-11.04 63.59,0 90.22,-95.66 138.87,-95.66 21.99,0 37.66,31.99 67.9,-3.07 22.81,-26.44 50.89,-69.83 20.74,-104.08 -11.99,-13.62 -12.77,-7.64 -17.66,-28.62 -25.31,2.1 -22.43,31.83 -46.17,49.48 -51.82,38.55 -57.33,61.98 -94.99,99.42 -17.33,17.24 -32.73,32.42 -65.59,33.16 3.89,-14.57 50.06,-58.22 31.89,-112.09 -20.88,-61.9 -84.52,-0.35 -106.77,21.78 -9.47,9.42 -21.08,24.45 -28.72,36.07 -30.85,46.88 -10.36,66.59 -7.49,78.92 -12.03,1 -15.93,3.98 -25.99,7.95 -42.44,16.71 -144.18,45.54 -184.08,53.54 -100.98,20.21 -193.44,21.84 -302.18,21.84 -85.86,0 -226.26,-36.46 -303.41,-73.08 -44.95,-21.33 -43.82,3.62 -87.66,46.14 -45.95,44.58 -130.45,38.04 -130.45,-37.87 0,-42.9 2.12,-53.66 5.89,-92.86 5.79,-60.29 30.12,-188.72 18.8,-237.33 -26.6,19.49 -40.09,149.48 -43.74,175.36 -7.82,55.49 -24.15,143.3 -24.15,194.94z"/>
   <path class="fil0" d="M3326.78 2469.41c15.33,-22.88 33.95,-23.22 33.95,-52.46 0,-48.18 -75.81,-60.96 -123.97,-22.13 -13.55,10.92 -22.42,24.67 -17.98,43.74 6.17,-0.51 35.6,-14.98 46.29,30.86 -19.66,10.4 -37.89,24.68 -67.89,24.68 -93.16,0 -61.59,-120.94 -53.39,-183 6.01,-45.45 10.19,-77.94 10.19,-125.59 0,-11.8 0.95,-1.13 -3.09,-9.25 -11.71,8.58 -30.77,73.96 -35.24,91.28 -5.04,19.56 -23.3,178 -32.36,223.76 -6.86,34.67 -13.07,76.06 -37.32,92.29 -0.36,-16.17 -9.44,-41.72 -15.45,-52.43 -16.06,-28.56 -53.15,-43.2 -72.07,-7.32 -5.93,11.24 -7.82,21.23 -12.3,33.99 -1.64,4.67 -73.35,106 25.76,106 11.73,0 20.88,-3.85 30.86,-6.18 -2.81,33.81 -84.51,75.15 -112.09,91.59 -24.63,14.67 -32.55,16.94 -32.95,34.94 20.93,0 29.12,-8.05 45.8,-12.83 54,-15.45 63.58,6.96 105.41,-76.66 6.9,-13.79 12.08,-25.4 18.55,-40.08 18.36,-41.6 36.09,-32.04 59.89,-94.4 3.65,-9.54 4.06,-14.69 11.05,-19.82 2.27,27.34 28.26,52.46 61.72,52.46 39.93,0 110.54,-68.72 126.52,-92.58 21.27,14.25 21.04,24.68 58.63,24.68 33.74,0 60.92,-36.99 73.94,-58.76 19.91,-33.32 28.06,-53.07 39.03,-96.76 13.22,-52.65 28.99,-182.54 28.99,-239.48 -6.98,2.53 -4.61,1.66 -8.78,6.65l-15.06 31.24c-50.56,126.97 -7.59,179.9 -53.25,267.68 -18.92,36.38 -36.45,44.82 -83.38,33.89z"/>
   <path class="fil0" d="M3632.29 2592.85c14.3,-3.82 19.07,-16.86 31.4,-24.15 41.99,-24.83 87.55,-7.28 113.64,-6.7l0 9.25c-9.16,2.45 -20.47,14.69 -33.53,25.1l-64.47 55.88c-44.82,44.34 -98.2,123.79 -114.96,187.46 -20.74,78.73 -14.28,155.36 38.95,204.92 69.81,65.01 173.01,36.29 246.24,-12.31 49.68,-32.97 59.05,-50.53 93.66,-85.32 18.35,-18.45 65.65,-84.27 76.95,-105.13 3.77,-6.96 20.12,-45.53 -2.72,-25.02 -5.4,4.84 -7.36,10.63 -14.01,17.56 -52.53,54.73 -75.42,86.39 -148.91,122.65 -48.57,23.96 -79.4,24.64 -132.74,24.64 -105.36,0 -177.59,-141.67 -50.11,-284.65 22.54,-25.29 45.49,-47.08 72.19,-66.67 25.65,-18.81 75.47,-54.28 92.94,-73.71 27.33,-30.39 -4.97,-50.2 -40.96,-50.2 -36.26,0 -94.37,-0.24 -119.17,16.61 -11.04,7.51 -42.6,48.33 -44.39,69.8z"/>
   <path class="fil0" d="M2561.48 2987.84c0,43.35 -2.35,155.42 2.43,191.99 2.02,15.44 -0.22,16.61 9.92,24.03 13.59,-28.33 15.33,-111.3 18.68,-154.12 1.1,-14.03 2.68,-21.94 2.81,-40.39 0.12,-17.57 3.33,-21.31 3.29,-39.92l5.96 -126.73c0.29,-34.56 13.29,-163.45 18.44,-200.64 9.38,-67.71 32.69,-136.9 91.73,-173.66 41.06,-25.56 83.13,-28.86 133.76,-42.14 22.86,-5.99 42.46,-14.17 57.89,-28.52 24.38,-22.69 44.27,-65.3 40.27,-91.26 -3.36,-21.75 -68.05,-46.89 -88.94,-46.89 -16.79,0 -44.64,58.42 -50.44,76.09 -10.23,31.2 -16.6,7.56 -79.85,49.76 -150.92,100.71 -165.97,415.82 -165.97,602.42z"/>
   <path class="fil0" d="M1577.08 2753.31c56.88,0 117.36,-14.54 146.8,-59.96 9.2,-14.19 16.2,-33.24 29.1,-41.88 0,28.8 5.79,48.69 22.47,70.11 85.67,110.02 137.79,-67.03 175.03,-67.03 24.42,0 51.07,65.2 116.02,-50.64 6.8,-12.13 9.82,-21.34 7.42,-32.69 -17.28,4.62 -24.97,28.03 -36.43,40.72 -27.64,30.63 -51.74,-14.96 -84.02,2.23 -40.73,21.7 -42.1,40.37 -95.57,40.37 -18.59,0 -34.16,-8.79 -43.06,-18.66 -38.57,-42.81 5.68,-108.17 -0.14,-135.64l-9.25 0c-3.09,13.24 -30.95,66.59 -39.13,81.22 -7.27,13 -13.87,24.76 -21.93,36.7 -18.22,27.02 -34.66,38.44 -62.36,57.99 -31.15,21.99 -66.78,40.73 -92.32,58.89 -7.57,5.38 -11.61,5.99 -12.62,18.24z"/>
   <path class="fil0" d="M5968.31 2753.31c56.5,0 119.28,-14.25 146.86,-59.91 8.1,-13.42 17.95,-34.5 29.05,-41.93 0,82.6 87.35,156 146.04,56.55 25.28,-42.84 52.08,-110.49 -1,-146.04 -24.7,13.07 -40.06,66.06 -52.46,89.49 -33.33,-2.77 -46.28,-33.04 -46.28,-67.89 0,-31.54 21.51,-57.18 15.43,-83.32l-9.26 0c-3.56,15.26 -46.89,98.8 -60.39,118.6 -4.59,6.72 -8.97,11.84 -13.67,17.18l-149.95 106.18c-5.28,6.42 -3.29,-1.71 -4.35,11.08z"/>
   <path class="fil0" d="M5780.08 2524.96c-17.8,16.89 -25.27,49.38 -55.54,49.38 -24.95,0 5.65,-28.15 -54.29,13.61 -65.68,45.76 -91.01,11.19 -123.64,7.17 -56.3,-6.93 -136.14,102.98 -163.38,147.11 -19.2,31.09 -7.09,41.15 16.65,16.64 12.75,-13.15 21.84,-30.29 35.45,-41.71 86.41,-72.5 130.38,50.54 202.81,-44.05 57.11,-74.61 48.38,-43.22 74.05,-43.22 23.8,0 44.1,-38.95 53.09,-48.73 18.19,-19.79 35.32,13.84 63.18,-41.74 8.45,-16.85 17.78,-32.36 13.33,-51.48 -17.18,4.59 -15.7,22.13 -25.08,36.74 -13.89,21.64 -18.43,5.16 -36.64,0.3z"/>
   <path class="fil0" d="M2163.4 2685.43c19.29,-40.21 26.24,-110.94 33.77,-163.73 3,-21.01 22.89,-166.96 18.69,-175.72 -17.63,12.91 -48.9,118.19 -52.2,154.56 -2.91,32.03 -9.24,173.3 -22.78,187.06 -3.98,4.06 -36.79,10.35 -22.58,39.58 31.37,64.56 147.81,23.92 177.39,-153.25 14.97,-89.66 34.34,-180.48 34.34,-283.5 -11.89,3.17 -9.93,6.85 -14.61,19.34 -3.37,8.98 -6.85,16.82 -9.64,24.3 -12.23,32.86 -27.92,77.61 -28.33,113.61 -0.64,54.13 -1.03,150.23 -24.49,185.36 -18.38,27.52 -53.35,51.58 -89.57,52.39z"/>
   <path class="fil0" d="M1299.35 2654.57c-41.86,0 -68.89,-53.04 -153.57,43.93l-30.29 34.52c-14.12,18.04 -45.88,61.45 -47.59,82.02 43.04,0 54.34,-77.15 114.18,-77.15 54.41,0 46.84,18.52 83.32,18.52 54.27,0 85.32,-101.83 117.26,-101.83 25.21,0 41.74,51.9 93.49,-17.61 8.28,-11.12 29.95,-40.78 29.95,-56.45 0,-11.8 0.94,-1.13 -3.09,-9.26 -15.02,4.01 -19.02,25.07 -35.16,41.99 -18.39,19.28 -39.09,4.16 -57.78,-1.8 -34.19,-10.91 -58.44,43.14 -110.72,43.14z"/>
   <path class="fil0" d="M4184.66 2392.26c-14.55,-7.7 -25.27,-13.68 -39.5,-22.22l-40.73 -20.98c-5.06,21.68 -32.25,50.56 -33.95,70.97l77.15 43.2c9.89,-18.7 20.64,-36.25 30.86,-55.54 26.77,14.17 50.57,29.14 77.14,43.2 8.27,-15.61 34.02,-58.04 37.03,-70.97 -17.71,-4.13 -65.85,-39.36 -80.23,-43.2 -1.85,7.95 -22.59,45.74 -27.78,55.54z"/>
   <path class="fil0" d="M5465.32 2333.63c5.66,7.73 39.36,30.33 49.38,37.03 -14.54,27.45 -47.99,57.45 -49.38,74.06 10.99,2.93 21.63,13.47 32.08,20.37 16.33,10.79 19.43,16.65 32.72,19.74l52.46 -74.06c-12.93,-3.45 -40.4,-25.88 -52.46,-33.95 8.17,-12.2 47.24,-63 49.37,-70.97 -4.21,-5.75 -54.79,-43.62 -64.8,-46.29 -3.89,14.56 -45.49,59.5 -49.38,74.06z"/>
   <path class="fil0" d="M3487.25 2762.57c14.53,-3.87 19.11,-18.43 24.65,-30.89 17.47,-39.22 28.04,-90.59 35.3,-134.42 8.3,-50.09 26.45,-151.45 26.45,-198.82 -20.02,5.34 -35.27,54.66 -43.2,70.97 -23.14,47.61 -28.69,135.37 -34.23,194.13 -1.9,20.23 -15.13,86.2 -8.97,99.03z"/>
   <path class="fil0" d="M1611.03 2537.3c49.96,-13.34 86.4,-319.26 86.4,-364.13 -15.89,4.24 -26.88,35.73 -33.05,50.26 -29.08,68.41 -21.87,28.81 -32.32,112.72 -2.93,23.47 -25.47,191.91 -21.03,201.15z"/>
   <path class="fil0" d="M2401.01 2657.65c10.2,-2.38 10.96,-3.45 16.24,-11.52 9.16,-14.01 21.04,-44.4 25.67,-60.74 13.59,-48.06 54.82,-269.55 44.49,-291.87 -15.69,5.68 -53.11,94.95 -56.77,109.86l-24.01 201.26c-2.14,17.71 -5.62,31.28 -5.62,53.01z"/>
   <path class="fil0" d="M5780.08 2771.83c35.02,0 112.11,-24.37 138.2,-50.04 29.73,-29.26 45.19,-92.23 57.31,-134.02 5.02,-17.32 8.72,-31.17 13.09,-48.64 5.2,-20.75 15.8,-34.38 1.25,-45.04 -28.59,19.15 -38.52,129.32 -90.53,181.03 -5.63,5.59 -10.01,7.49 -16.71,14.15 -11.88,11.78 -21.53,17.76 -34.68,27.04l-53.9 38.68c-8.82,6.38 -11.13,6.04 -14.01,16.85z"/>
   <path class="fil0" d="M3823.61 2275l3.47 -12.23c24.77,-6.56 27.39,-3.7 27.39,21.48 0,18.94 -26.49,-3.29 -30.86,-9.25zm-18.51 15.43c0,6.86 6.15,12.87 10.96,16.81 7.26,5.95 11.14,7.61 22.98,7.87 -4.38,18.8 -31.98,34.95 -48.04,44.54 -10.7,6.4 -18.93,11.73 -29.11,17.17 -11.15,5.96 -20.9,11.36 -27.77,21.61 21.94,0 56.11,-17.59 72.02,-26.74 17.03,-9.81 40.06,-30.37 51.42,-47.32 9.53,5.04 16.09,9.68 24.68,15.43 1.32,-15.74 14.31,-29.92 -12.34,-37.03 0.24,-10.46 20.02,-70.97 -15.43,-70.97 -12.31,0 -26.84,11.94 -33.15,19.3 -8.21,9.59 -16.22,22.66 -16.22,39.33z"/>
   <path class="fil0" d="M3299.01 2145.39c37.53,-18 32.01,9.62 27.77,27.78 -6.46,-1.51 -14.19,-4.63 -19.49,-8.28 -9.02,-6.22 -8.28,-5.55 -8.28,-19.5zm-18.51 18.52c0,25.89 7.36,21.19 33.94,33.95 -9.43,17.83 -33.25,33.85 -51.08,44.58 -7.45,4.48 -63.3,31.1 -49.72,36.93 11.65,5 107.65,-43.18 116.24,-75.33 9.53,5.03 16.1,9.67 24.69,15.42 10.21,-21.27 9.73,-31.88 -12.35,-37.03 2.14,-9.17 22.07,-70.97 -12.34,-70.97 -20.45,0 -49.37,32.44 -49.37,52.46z"/>
   <path class="fil0" d="M1851.73 2305.86c1.78,2.43 49.48,40.8 55.54,40.11 6.89,-0.78 43.2,-31.89 43.2,-58.63 0,-22.11 -33.59,-41.02 -49.38,-49.38 -16.8,25.1 -46.55,55.81 -49.37,67.89z"/>
   <path class="fil0" d="M1185.17 2410.78c9.17,2.45 20.12,12.07 28.25,18.04 4.13,3.02 8.32,6.21 12.22,9.38 8.24,6.7 4.18,6.7 15.07,9.61 47.36,-31.7 59.72,-68.62 10.59,-100.07 -8.27,-5.3 -8.93,-4.18 -16.75,-7.93 -8.53,12.73 -15.05,21.42 -25.38,33.25 -20.92,23.97 -23.65,22.16 -24,37.72z"/>
   <path class="fil0" d="M1953.56 2290.43c6.31,9.41 15.74,14.92 24.68,21.6l27.77 21.6c18.02,-4.2 43.52,-31.77 47.1,-51.5 5.91,-32.65 -41.85,-53.42 -44.01,-53.42 -9.79,0 -16.36,15.45 -28.69,29.94 -9.02,10.6 -19.43,20.69 -26.85,31.78z"/>
   <path class="fil0" d="M1324.04 3049.56l55.54 43.2c15.6,-13.56 72.02,-51.3 30.06,-88.68 -6.68,-5.95 -23.92,-17.18 -33.14,-19.33l-26.46 32.18c-10.41,13.29 -16.67,18.7 -26,32.62z"/>
   <path class="fil0" d="M1222.2 3061.9c4.64,6.95 47.68,40.12 55.54,40.12 6.69,0 43.2,-29.49 43.2,-58.63 0,-19.92 -33.33,-44.7 -52.46,-46.29 -6.01,22.48 -42.31,49.9 -46.29,64.8z"/>
   <path class="fil0" d="M1080.25 2416.95l55.54 43.21c18.82,-9.96 46.29,-40.73 46.29,-58.63 0,-19.38 -34.45,-45.18 -52.46,-49.38 -17.81,33.66 -34.48,42.55 -49.38,64.8z"/>
   <path class="fil0" d="M4916.02 2228.71l52.46 43.2c18.47,-4.93 46.29,-34.51 46.29,-61.72 0,-19.71 -33.56,-42.61 -49.38,-46.29 -14.03,26.52 -33.65,41.32 -49.38,64.81z"/>
   <path class="fil0" d="M1996.76 2827.38c18.1,12.13 34.66,28.2 52.46,40.12 12.88,-3.44 77.66,-50.44 27.43,-89.16 -10.29,-7.93 -16.88,-15.39 -33.61,-15.77 -6.75,25.29 -40.37,42.65 -46.29,64.81z"/>
   <path class="fil0" d="M3299.01 2682.34c-12.55,8.4 -19.27,23.19 -25.8,39.15 -26.3,64.29 98.04,39.39 109.13,-2.12 -42.38,9.88 -18.34,15.43 -80.24,15.43 -15.38,0 -21,-7.93 -14.3,-20.02 3.29,-5.94 16.1,-17.46 21.76,-21.89 41.98,-32.88 45.01,-16.47 45.01,-44.49 -13.66,1.13 -34.13,25.67 -55.55,3.09 2.77,-4.15 1.74,-2.83 5.67,-6.68 0.42,-0.42 1.17,-1.08 1.61,-1.48l5.07 -4.18c8.83,2.36 21.6,19.27 21.6,-9.26 0,-32.01 -56.31,9.9 -50.16,32.2 2.71,9.83 11.19,13.4 16.22,20.26z"/>
   <path class="fil0" d="M5847.97 2398.44c2.48,1.72 7.62,6.17 9.25,6.17 41.8,0 78.94,-10.69 107.01,-25.68 28.2,-15.07 69.93,-60.35 56.93,-73.36 -6.66,-6.66 -32.8,16.85 -40.08,22.32 -7.18,5.38 -12.56,10.86 -19.01,14.93 -24.34,15.34 -73.62,29.75 -96.63,39.15 -11.12,4.54 -14.53,5.46 -17.47,16.47z"/>
   <path class="fil0" d="M4132.21 2262.66c16.04,7.7 37.67,4.06 56.53,0.98 21.04,-3.44 36.06,-8.72 51.55,-16.33 72.31,-35.58 83.22,-98.43 50.17,-73.62l-39.2 29.05c-45.25,34.51 -112.54,35.48 -119.06,59.92z"/>
   <path class="fil0" d="M5110.43 2744.06c28.92,16.24 172.81,-20.21 172.81,-95.67 -26.85,2.23 -42.53,40.85 -130.7,69.88 -21.19,6.98 -40.61,7.71 -42.12,25.79z"/>
   <path class="fil0" d="M2502.85 2182.42c4.14,-7.82 9.21,-18.04 16.65,-23.67 11.7,-8.87 16.32,-8.61 23.48,2.07 -4.61,17.26 -22.49,17.49 -40.12,21.6zm-12.34 -3.09c-18.67,-4.35 -23.11,-15.56 -41.55,-1.51 -9.89,7.53 -22.01,23.72 -23.24,38.55 15.33,-1.27 15.9,-10.57 27.77,-18.52 19.73,4.59 17.71,9.25 43.2,9.25 25.63,0 72.75,-26.7 61.72,-74.06 -36.94,-8.6 -50.88,14.13 -67.89,46.29z"/>
   <path class="fil0" d="M2191.17 2879.83c0,20.1 25.55,23.73 -26.41,44.58 -30.16,12.1 -32.23,4.51 -41.48,17.15 7.64,11.41 5.35,9.25 30.86,9.25 20.93,0 36.17,-6.78 47.07,-17.73 30.85,-30.97 17.91,-54.65 14.65,-68.68 11.56,-17.27 27.77,-21.09 27.77,-43.2 0,-31.51 -52.46,21.23 -52.46,58.63z"/>
   <path class="fil0" d="M1484.5 2401.53c0,8.96 6.5,11.26 9.26,21.6 -4.89,5.63 -8.05,8.7 -15.3,12.47 -16.51,8.61 -21.94,11.87 -40.11,15.45 -13.36,2.63 -15.56,0.58 -18.67,12.19 4.12,5.62 2.34,9.54 28.7,7.18 16.46,-1.48 21.8,-1.72 33.17,-7.04 13.45,-6.28 33.8,-31.12 33.8,-49.52 0,-22.46 -9.05,-26.12 3.58,-39.54 25.29,-26.9 22.85,-23.05 18.03,-43.77 -16.14,0.36 -24.32,10.51 -34.63,27.08 -5.7,9.15 -17.83,31.27 -17.83,43.9z"/>
   <path class="fil0" d="M3616.86 2299.69c11.91,-44.62 56.23,-24.99 30.35,-6.9 -8.64,6.03 -16.77,6.9 -30.35,6.9zm-15.43 0c-18.78,-9.94 -33.24,-17.5 -50.8,7.83 -6.56,9.46 -10.6,15.13 -10.92,29.2 15.7,-4.2 16.02,-18.52 27.78,-18.52 15.4,0 14.77,9.25 40.11,9.25 49.9,0 91.49,-77.15 46.29,-77.15 -25.85,0 -42.99,31.48 -52.46,49.38z"/>
   <path class="fil0" d="M6159.65 2321.29c16.14,0 13.26,19.92 18.51,30.86 -25.93,13.72 -25.4,8.88 -37.03,6.17 -5.87,-25.19 11.28,-37.03 18.52,-37.03zm-33.95 30.86c0,62.49 67.89,27.78 67.89,-6.18 0,-16.94 2.04,-27.65 -6.01,-40.28 -22.88,-35.93 -61.88,14.68 -61.88,46.45z"/>
   <path class="fil0" d="M1401.18 2247.23c-9.83,-7.21 -2.52,-5.14 -12.34,-12.35 -6.18,9.24 -15.63,21.6 -30.86,21.6 -12.57,0 -6.18,-6.65 -6.18,-21.6 -12.17,1.02 -11.61,3.1 -15.72,12.06 -11.69,25.5 -11.37,62.15 38.62,35.3 17.16,-9.22 4.32,-1.06 17.22,-1.06 20.18,0 37.03,-26.95 37.03,-46.3 0,-11.8 0.94,-1.12 -3.09,-9.25 -15.31,5.55 -0.53,6.95 -22.68,20.52 -0.41,0.25 -1.38,0.65 -2,1.08z"/>
  </g>
  <g id="_1851210654544">
   <path class="fil0" d="M2937.92 1852.85l755.97 -1764.88 755.98 1764.88 -1511.95 0zm-52.52 34.63l1617 0 -404.24 -943.74 -404.27 -943.74 -808.49 1887.48zm0 0z"/>
   <path class="fil0" d="M4396.98 1817.99l-703.1 -1641.41 -703.08 1641.41 1406.18 0zm-750.37 -1046.76l-21.7 66.34 56.43 -41.12 56.4 41.12 -21.7 -66.34 56.56 -40.88 -69.82 0.12 -21.44 -66.41 -21.47 66.41 -69.82 -0.12 56.56 40.88zm-183.8 377.33l-8.2 -25.4 -8.19 25.4 -26.69 -0.05 21.62 15.62 -8.3 25.36 21.56 -15.72 21.57 15.72 -8.3 -25.36 21.62 -15.62 -26.69 0.05zm42.1 -103.96l-26.69 0.05 -8.2 -25.4 -8.19 25.4 -26.69 -0.05 21.62 15.61 -8.3 25.35 21.56 -15.69 21.57 15.69 -8.3 -25.35 21.62 -15.61zm43.55 -72.83l-26.69 0.05 -8.19 -25.4 -8.2 25.4 -26.69 -0.05 21.62 15.64 -8.3 25.35 21.57 -15.73 21.56 15.73 -8.3 -25.35 21.62 -15.64zm48.88 -22.95l-8.3 -25.37 21.65 -15.62 -26.69 0.06 -8.23 -25.4 -8.19 25.4 -26.69 -0.06 21.62 15.62 -8.28 25.37 21.54 -15.72 21.57 15.72zm323.27 174.34l-8.2 25.4 -26.69 -0.05 21.62 15.62 -8.3 25.36 21.57 -15.72 21.57 15.72 -8.3 -25.36 21.62 -15.62 -26.7 0.05 -8.19 -25.4zm-29.54 -78.51l-26.69 -0.05 21.62 15.61 -8.3 25.35 21.56 -15.69 21.57 15.69 -8.3 -25.35 21.62 -15.61 -26.69 0.05 -8.2 -25.4 -8.19 25.4zm-41.77 -72.83l-26.69 -0.05 21.62 15.64 -8.3 25.35 21.57 -15.73 21.57 15.73 -8.3 -25.35 21.61 -15.64 -26.69 0.05 -8.19 -25.4 -8.2 25.4zm-74.38 -48.37l-8.3 25.37 21.57 -15.72 21.54 15.72 -8.27 -25.37 21.61 -15.62 -26.69 0.06 -8.19 -25.4 -8.23 25.4 -26.69 -0.06 21.65 15.62zm-90.62 90.6l36.44 0.21c9,0.07 29.54,-45.24 4.45,-68.82 -19.81,-18.62 -40.88,-52.84 -40.88,-52.84 0,0 -21.05,34.22 -40.88,52.84 -25.09,23.58 -4.53,68.9 4.45,68.82l36.44 -0.21zm10.68 46.19l0 31.96c0,0.67 -0.1,1.35 -0.28,1.99l14.77 0c-0.18,-0.65 -0.29,-1.32 -0.29,-1.99l0 -31.96c0,-4.3 3.52,-7.79 7.79,-7.79 4.26,0 7.78,3.49 7.78,7.79l0 31.96c0,0.67 -0.1,1.35 -0.26,1.99l9.13 0 0 -63.05 -99.08 0 0 63.05 15.36 0c-0.16,-0.65 -0.26,-1.32 -0.26,-1.99l0 -31.96c0,-4.3 3.49,-7.79 7.79,-7.79 4.26,0 7.76,3.49 7.76,7.79l0 31.96c0,0.67 -0.07,1.35 -0.26,1.99l14.74 0c-0.16,-0.65 -0.26,-1.32 -0.26,-1.99l0 -31.96c0,-4.3 3.49,-7.79 7.79,-7.79 4.26,0 7.78,3.49 7.78,7.79zm-68.43 83.25c38.67,8.71 77.9,9.05 117.75,0l0 -44.41c-39.26,9.02 -78.51,11.1 -117.75,0l0 44.41zm94.91 110.89c0,0 1.22,3.98 5.67,10.32 4.45,6.33 24.78,22.42 24.78,22.42l-18.44 0.57 -0.67 19.32 -13.32 11.3c0,0 5.56,14.9 3.77,20.23 -1.75,5.32 -3.54,4.88 -10.21,7.99 -6.67,3.1 -1.11,13.32 -1.11,13.32l36.23 0.88c0,0 1.11,1.79 7.11,6.44 6,4.65 22.21,10.45 23.33,10.45 1.11,0 4.21,5.1 4.21,5.1l12.67 6.88 2.23 -7.56 6.88 -0.21c0,0 0,6 1.99,8.44 1.99,2.43 8.9,-4.45 10.45,-7.76 1.56,-3.34 1.99,-15.11 1.99,-15.11 0,0 -15.31,6.88 -30.21,6.88 -14.9,0 -37.32,-19.76 -37.32,-19.76 0,0 7.55,-8.22 7.55,-16.42 0,-8.22 -8.67,-8.66 -17.56,-15.1 -8.87,-6.44 -3.54,-12.65 -3.54,-12.65 0,0 5.99,-1.79 12.2,-0.9 6.23,0.9 2.9,4.01 9.13,7.32 6.21,3.34 25.76,6.44 25.76,6.44l2.66 14.43c2.67,14.44 10.45,27.88 15.96,27.21 5.51,-0.67 16.19,-8.74 19.32,-12.95 3.1,-4.22 5.22,-19.53 5.22,-19.53 0,0 10.89,1.78 14.9,3.1 3.98,1.34 14.66,2.66 14.66,2.66 0,0 -0.23,30.88 -0.23,37.32 0,6.44 1.11,9.54 2.46,11.3 1.32,1.79 6.44,-1.32 7.32,-2.43 0.88,-1.11 1.11,-41.94 1.11,-41.94 0,0 7.56,0.21 11.33,0.21 3.77,0 22.21,-0.21 22.21,-0.21 0,0 0.23,0.88 0.68,3.98 0.44,3.1 1.68,24.31 1.68,24.31l5.32 3.34 1.79 -33.03c0,0 9.54,-4.45 7.76,-6.88 -1.78,-2.46 -11.32,-1.34 -11.32,-1.34 0,0 -4.01,-14.88 -6.21,-19.53 -2.23,-4.66 -5.79,-23.53 -5.79,-23.53l6 0.21c0,0 6,8.66 9.11,13.78 3.13,5.09 15.12,30.85 18.67,33.75 3.58,2.87 6.88,-2.46 6.44,-4.45 -0.44,-1.99 -20.66,-32.87 -24.2,-37.08 -3.57,-4.22 0,-10.66 0,-10.66 0,0 6,4.01 9.34,7.79 3.31,3.77 11.66,17.3 15.31,21.51 3.68,4.24 12.91,-0.44 12.91,-0.44 0,0 -18.23,-25.29 -23.56,-33.31 -5.32,-7.99 -37.32,-37.29 -86.2,-65.25 -48.88,-27.99 -110.22,-36.41 -110.22,-36.41l7.57 10.19 -7.55 7.55 36.21 0 0.88 6.88c0,0 -36.41,7.34 -37.75,7.78 -1.35,0.44 0.44,9.98 0.44,9.98 0,0 2.66,-0.88 22.89,-4.65 20.22,-3.77 22.21,12.65 22.21,12.65 0,0 0,0.23 -14.66,5.55 -14.67,5.33 -38.2,19.32 -38.2,19.32zm39.75 -8.66c9.11,-3.54 33.33,-0.89 33.33,-0.89l-33.1 33.08c0,0 -11.56,-4.45 -15.56,-7.78 -3.99,-3.34 -7.52,-8.61 -8,-8.2 0,0 14.23,-12.66 23.33,-16.21zm9.11 36.17l27.77 -28.62c0,0 18.44,3.34 24.88,8.43 6.44,5.1 10.01,14.44 9.78,15.75 -0.21,1.35 3.77,7.11 4.88,6 1.12,-1.11 3.1,-9.11 3.1,-9.11 0,0 6,-2.87 11.13,-1.32 5.12,1.55 5.32,15.54 5.32,15.54l0.91 38.18 -26.22 -4.22c0,0 -1.12,-5.76 0.44,-13.31 1.55,-7.56 1.55,-14.64 1.55,-14.64 0,0 -7.99,-2.22 -8.66,-0.9l-9.54 20.2c0,0 -23.12,-11.09 -30.23,-16.86 -7.12,-5.77 -15.11,-15.11 -15.11,-15.11zm-4.01 7.12l0.46 0.54c1.91,2.33 9.52,11.41 13.76,14.1 4.89,3.1 33.1,19.55 33.1,19.55l1.12 21.98c0,0 -1.76,7.09 -6.45,-1.78 -4.65,-8.87 -10.01,-16.86 -11.76,-19.53 -1.78,-2.67 -25.79,-16.65 -28.89,-19.32 -3.1,-2.67 -6.44,-8.43 -6.44,-8.43 0,0 -0.9,-4.45 2.1,-5.79l3 -1.32zm102.1 39.52l0.21 -46.17c0,0 2.46,-1.35 7.35,0.88 4.88,2.23 7.99,7.99 11.32,13.09 3.34,5.12 10.01,32.87 10.01,32.87l-28.89 -0.67zm-254.27 -38.85c7.11,3.54 11.76,7.55 19.99,9.54 8.22,1.99 10.01,-3.78 10.01,-3.78 0,0 -0.23,-3.54 -2.69,-4.21 -2.43,-0.67 -4.21,-11.32 -12.88,-18 -8.67,-6.65 -19.11,3.34 -19.11,3.34l-2.43 5.12c0,0 0,4.43 7.11,8zm-153.75 81.46c0,0 10.21,-6.88 11.33,-11.97 1.11,-5.12 -2.9,-8.9 -2.9,-8.9 0,0 -7.76,5.12 -8.87,12.88 -1.11,7.78 0.44,7.99 0.44,7.99zm213.03 9.91l-44.87 -37.42 32.43 -26.64 -1.56 -15.11 -37.32 35.74 -34.21 -38.19 2.43 -8.87c0.9,-3.1 4.88,-2.23 4.88,-2.23 0,0 0.23,-7.32 2.67,-13.09 2.46,-5.79 4.88,-2.01 9.57,-5.55 4.65,-3.54 -2.46,-15.55 -2.46,-15.55 0,0 -14.22,7.78 -19.99,11.33 -5.79,3.54 0.23,8.22 0.23,12.87 0,4.66 -4.92,10.21 -4.92,10.21l-23.77 -31.31 37.68 -24.64 -7.24 -4.11 -34.08 21.44 -11.46 -18.65c0,0 5.66,-7.34 12.33,-12.67 6.67,-5.32 26.89,-11.63 26.89,-11.63 0,0 -1.11,3.77 7.32,9.64 8.46,5.89 18.24,6 18.24,6l6.44 26.19c0,0 15.98,-4.45 21.33,0.22 5.33,4.68 -3.8,3.13 -10.24,5.79 -6.44,2.67 -3.1,3.77 -0.21,8.64 2.87,4.88 8.67,-4.21 14.22,-3.98 5.54,0.21 6.88,5.76 10.42,6.44 3.58,0.67 4.89,-3.57 4.89,-4.66 0,-1.11 -15.78,-20.22 -14.2,-25.11 1.55,-4.87 12.2,-3.31 12.2,-3.31l-9.77 -53.3c0.2,1.13 -24.06,5.56 -24.06,5.56 0,0 -53.33,8.89 -103.12,44.4 -49.75,35.53 -82.41,89.92 -82.41,89.92 0,0 -0.21,7.11 1.78,8.22 1.99,1.12 10.45,-3.57 10.45,-3.57 0,0 15.78,11.76 24.88,17.56 9.11,5.77 43.78,25.09 43.78,25.09l1.99 15.74 7.11 -7.08c0,0 35.22,13.96 41.22,13.96 6,0 7.99,-4.55 7.99,-4.55l-51.98 -27.76c-52.01,-27.75 -70.09,-44.84 -70.09,-44.84 0,0 4.88,-7.99 23.53,-31.52 18.67,-23.53 54.91,-43.3 54.91,-43.3l13.55 21.32c0,0 -5.56,5.09 -23.79,21.08 -18.21,15.98 -37.53,44.4 -37.53,44.4l11.77 5.56c0,0 8.9,-17.09 21.1,-31.96 12.23,-14.88 33.67,-30.08 33.67,-30.08l24.68 30.85 -21.89 20.33 4.01 11.09 25.08 -22.29 35.79 38.18 -31.11 41.3 12.87 2.43 27.34 -37.4 40.55 33.96 -8.8 12.55 5.79 2.56c0,0 5.77,-5.87 9.78,-9.65 3.98,-3.77 3.21,-10.55 3.21,-10.55zm-23 -220.47l34.11 245.53c0,0 0.44,0.13 4.01,2.9 3.54,2.76 8.1,-2.46 8.1,-2.46l25.79 -245.97 -72 0zm-1.11 327.82c-12.55,-18.1 -35.17,-39.18 -75.08,-49.08 -22.47,-5.59 -45.59,-8.92 -67.08,-10.87 -52.42,-4.76 -95.12,-1.13 -95.12,-1.13 0,0 11.56,12.88 34.65,14.22 19.58,1.12 58.56,0.99 84.62,3.86 4.71,0.54 9.02,1.16 12.7,1.91 24,4.88 27.56,6.65 38.22,12.88 10.66,6.21 15.11,11.09 15.11,11.09 0,0 -7.34,-0.1 -17.9,-1.19 -10.68,-1.11 -24.67,-3.23 -37.66,-7.23 -25.75,-8 -69.75,-1.35 -69.75,-1.35 0,0 5.33,12.88 31.55,13.32 26.2,0.44 95.74,2.41 95.74,2.41 0,0 9.57,8.24 12.67,12.26 3.1,3.98 4.01,8.77 4.01,8.77 0,0 -33.1,-0.67 -49.55,-3.34 -16.45,-2.67 -29.77,-4.89 -29.77,-4.89 0,0 19.99,19.09 54.64,24.42 34.66,5.35 72.67,5.22 72.67,5.22 0,0 -2.92,-14.33 -14.68,-31.27zm164.79 -55.91c-48.82,12.1 -71.78,40.97 -82.06,60.59 -6,11.46 -7.71,19.76 -7.71,19.76 0,0 38.02,0.1 72.67,-5.22 34.66,-5.33 54.65,-24.42 54.65,-24.42 0,0 -13.32,2.23 -29.77,4.89 -16.45,2.67 -49.55,3.34 -49.55,3.34 0,0 0.88,-4.65 3.87,-8.61 0.06,-0.06 0.08,-0.11 0.13,-0.16 3.1,-4.01 12.67,-12.26 12.67,-12.26 0,0 8.51,-0.23 20.71,-0.57 22.66,-0.62 58.01,-1.55 75.03,-1.84 26.22,-0.44 31.55,-13.32 31.55,-13.32 0,0 -43.99,-6.67 -69.75,1.35 -5.99,1.84 -12.18,3.29 -18.18,4.42 -19.81,3.75 -37.37,4.01 -37.37,4.01 0,0 4.45,-4.88 15.11,-11.09 10.65,-6.23 14.22,-7.99 38.23,-12.88 5.27,-1.08 11.85,-1.91 19.11,-2.53 25.71,-2.25 60.18,-2.2 78.21,-3.23 23.09,-1.35 34.66,-14.23 34.66,-14.23 0,0 -41.26,-3.49 -92.43,0.88 -22.24,1.92 -46.35,5.31 -69.78,11.13zm-66.1 -29.15c-55.11,11.12 -61.32,36.41 -61.32,36.41 0,0 -14.68,-21.32 -35.11,-32.87 -20.46,-11.54 -68.43,-12.42 -68.43,-12.42l-113.38 -0.21 -109.57 -0.21 -26.8 -0.05c0,0 0,5.36 4.89,9.34 3.2,2.61 5.64,7.29 31.96,8.77 13.96,0.78 34.68,0.62 65.79,-1.22 17.82,-1.06 34.6,-1.03 50.1,-0.31 62.59,2.95 104.2,17.28 108.1,17.61 4.89,0.46 35.12,8.9 64.45,41.74 5.84,6.56 10.26,13.53 13.63,20.53 13.43,28.06 10.09,57.29 16.14,68.27 7.55,13.78 21.33,16.89 28.44,15.98 7.11,-0.88 12.44,-7.99 9.78,-10.65 -2.67,-2.67 -11.56,-16.42 -16,-40.83 -1.97,-10.81 -0.8,-22.66 1.89,-33.57 3.39,-13.78 9.16,-26.12 14.11,-33.04 8.9,-12.42 36.89,-28.86 61.76,-38.18 15.11,-5.66 58.73,-9.83 103.94,-12.75 29.38,-1.89 59.43,-3.26 82.71,-4.14 12.62,-0.46 22.37,-1.22 29.92,-2.12 27.83,-3.31 25.64,-8.53 25.64,-8.53 0,0 -7.97,0.05 -21.23,0.21 -23.25,0.26 -62.82,0.83 -104.75,1.99 -62.32,1.75 -129.84,4.86 -156.64,10.24zm244.26 330.82c0,0 -28.88,6.65 -37.55,8.43 -8.67,1.76 -13.76,0.89 -13.76,0.89 0,0 1.32,23.53 15.78,29.97 14.43,6.44 38.63,4.88 38.63,4.88 0,0 -7.99,-6 -9.98,-15.31 -1.99,-9.34 -2.22,-12.67 0.67,-17.57 2.87,-4.86 6.21,-11.3 6.21,-11.3zm1.79 -104.79l45.23 83.9c0,0 -23.56,12.64 -31.35,18.43 -7.76,5.77 -11.32,11.77 -13.55,19.97 -2.22,8.23 -0.21,16.45 10.22,22.42 10.45,6 32.89,-3.34 32.89,-3.34 0,0 28.45,-1.76 88.86,-90.57 60.44,-88.81 110.87,-123.21 110.87,-123.21l-86.54 0.99c0,0 -2.45,-9.65 -4.35,-16.09 -1.89,-6.44 -4.01,-21.2 -1.32,-36.28 2.67,-15.11 12.31,-34.32 12.31,-34.32 0,0 -12.1,6 -22.22,12.88 -10.11,6.88 -18,12.88 -35.32,30.21 -17.33,17.3 -67.08,98.12 -80,107.89 -12.87,9.78 -25.75,7.12 -25.75,7.12zm-628.99 80.79c207.38,70.05 426.25,66.41 654.98,-0.89l-62.2 -114.56c-186.13,41.79 -362.53,41.1 -529.67,0l-63.11 115.45zm81.73 -23.9c7.91,0.65 15.88,1.32 23.84,1.99 -0.65,4.34 -0.49,7.81 0.55,10.29 1.68,4.01 4.99,6.31 9.93,6.98 3.62,0.47 6.67,-0.05 9.13,-1.68 2.43,-1.6 3.96,-3.67 4.52,-6.15 0.55,-2.33 0.03,-4.58 -1.39,-6.67 -1.45,-2.12 -5.28,-4.35 -11.51,-6.94 -10.08,-4.19 -16.7,-9.1 -19.83,-14.27 -3.15,-5.2 -3.7,-11.25 -1.57,-18.24 1.39,-4.54 3.8,-8.72 7.21,-12.49 3.39,-3.75 7.61,-6.51 12.6,-8.24 4.99,-1.74 11.22,-2.04 18.85,-1.09 9.41,1.17 16.12,4.27 20.25,9.18 4.17,4.92 5.9,12.05 5.15,21.65 -7.76,-0.29 -15.39,-0.65 -22.99,-1.09 0.36,-4.19 -0.21,-7.34 -1.66,-9.44 -1.47,-2.12 -3.83,-3.36 -7.11,-3.77 -2.72,-0.34 -4.92,0.1 -6.6,1.24 -1.75,1.18 -2.92,2.76 -3.41,4.73 -0.36,1.42 -0.08,2.77 0.7,4.11 0.78,1.35 3.13,2.8 7.11,4.37 9.83,3.93 16.79,7.66 20.84,10.89 4.06,3.25 6.85,6.95 8.28,11.19 1.4,4.25 1.71,8.87 0.8,13.87 -1.06,5.84 -3.54,11.09 -7.5,15.69 -4.01,4.64 -9.03,7.97 -15.13,9.86 -5.97,1.83 -13.16,2.22 -21.46,1.06 -14.49,-2.02 -23.63,-6.6 -27.31,-13.37 -3.63,-6.68 -4.35,-14.59 -2.28,-23.67zm137.71 30.41c-10.21,-0.6 -20.45,-1.22 -30.51,-2.02 -2.17,4.92 -4.25,9.83 -6.37,14.72 -9.36,-0.72 -18.64,-1.52 -27.85,-2.46 7.99,-14.66 15.93,-29.3 23.38,-44.17 7.37,-14.77 14.35,-29.67 21.16,-44.51 8.56,0.75 17.22,1.35 25.86,1.95 3.82,15.56 7.76,31.22 12.23,46.65 4.5,15.49 9.47,30.9 14.77,46.34 -9.83,-0.31 -19.54,-0.65 -29.22,-1.13 -1.22,-5.12 -2.38,-10.24 -3.44,-15.36zm-4.03 -20.17c-1.08,-5.56 -2.17,-11.14 -3.15,-16.73 -0.99,-5.56 -1.91,-11.15 -2.76,-16.74 -2.07,5.41 -4.09,10.81 -6.16,16.17 -2.09,5.41 -4.3,10.73 -6.44,16.08 6.13,0.47 12.33,0.83 18.52,1.22zm46.53 -54.41c7.34,0.23 14.82,0.39 22.32,0.6 5.25,8.5 10.6,16.94 16.19,25.29 5.58,8.4 11.48,16.74 17.53,25.09 -0.78,-8.35 -1.47,-16.71 -2.18,-25.09 -0.7,-8.35 -1.52,-16.7 -2.22,-25.08 7.52,-0.11 15.12,-0.24 22.68,-0.36 1.96,15.1 3.93,30.21 5.89,45.28 1.96,15.08 3.93,30.18 5.89,45.29 -8.87,0.26 -17.74,0.54 -26.56,0.65 -6.34,-8.28 -12.57,-16.52 -18.54,-24.82 -5.93,-8.28 -11.54,-16.71 -17.1,-25.14 0.26,8.35 0.57,16.7 0.89,25.03 0.28,8.35 0.49,16.68 0.8,25.03 -8.82,-0.1 -17.59,-0.23 -26.36,-0.33 0.11,-15.23 0.26,-30.46 0.39,-45.73 0.16,-15.23 0.21,-30.46 0.36,-45.69zm84.85 0.12c24.29,-1.03 48.39,-2.53 72.21,-4.55 2.07,7.38 4.24,14.69 6.31,22.06 -8.33,0.73 -16.68,1.46 -25.03,2.15 2.76,11.22 5.51,22.47 8.2,33.72 2.68,11.25 5.46,22.5 8.17,33.75 -9.29,0.7 -18.44,1.37 -27.72,1.94 -2.23,-11.3 -4.43,-22.63 -6.65,-33.91 -2.23,-11.3 -4.4,-22.62 -6.65,-33.93 -8.48,0.41 -16.99,0.8 -25.45,1.14 -1.06,-7.45 -2.22,-14.9 -3.39,-22.37zm110.51 83.36c-4.63,-14.85 -9.23,-29.67 -13.81,-44.48 -4.58,-14.82 -9.2,-29.67 -13.76,-44.48 12.8,-1.37 25.6,-2.86 38.19,-4.49 7.01,-0.91 12.6,-0.96 16.84,-0.08 4.24,0.89 8.33,3.05 12.31,6.52 3.93,3.48 7.11,8.01 9.57,13.5 2.12,4.81 3.15,9.07 2.92,12.85 -0.26,3.81 -1.66,7.06 -3.93,9.78 -1.47,1.74 -3.82,3.34 -7.11,4.81 3.34,0.62 6,1.37 7.76,2.2 1.17,0.57 3.1,1.89 5.79,3.91 2.77,2.04 4.66,3.62 5.79,4.78 3.75,3.82 7.66,7.67 11.48,11.46 3.88,3.8 7.86,7.57 11.8,11.32 -9.62,1.73 -19.35,3.52 -29.12,5.07 -4.14,-4.08 -8.23,-8.17 -12.28,-12.28 -4.06,-4.08 -8.07,-8.19 -12,-12.36 -3.02,-3.2 -5.27,-5.3 -7.06,-6.13 -2.3,-1.09 -4.63,-1.47 -6.9,-1.19 -0.74,0.07 -1.5,0.18 -2.14,0.26 2.09,5.98 4.21,11.92 6.33,17.9 2.13,5.95 4.19,11.9 6.37,17.85 -8.97,1.11 -18.05,2.25 -27.03,3.31zm8.38 -55.68c3.42,-0.41 6.9,-0.9 10.27,-1.37 1.11,-0.16 3.05,-0.88 5.94,-2.09 1.4,-0.57 2.38,-1.66 2.77,-3.29 0.41,-1.63 0.26,-3.39 -0.5,-5.27 -1.16,-2.85 -2.79,-4.89 -4.94,-6.21 -2.14,-1.3 -5.3,-1.68 -9.57,-1.12 -3.44,0.47 -6.9,0.91 -10.34,1.35 2.12,6 4.24,12 6.36,18zm43.99 -44.04c7.24,-1.24 14.51,-2.48 21.75,-3.72 7.32,13.99 14.66,27.98 21.99,41.97 7.29,13.96 14.61,27.99 21.9,41.95 -8.3,1.78 -16.68,3.59 -24.98,5.38 -6.75,-14.28 -13.55,-28.55 -20.31,-42.78 -6.75,-14.27 -13.55,-28.53 -20.36,-42.8zm-441.68 116.73c-8.67,-1.78 -37.52,-8.43 -37.52,-8.43 0,0 3.3,6.44 6.2,11.3 2.9,4.89 2.67,8.23 0.68,17.57 -2.02,9.3 -10.01,15.31 -10.01,15.31 0,0 24.23,1.56 38.66,-4.88 14.46,-6.44 15.78,-29.97 15.78,-29.97 0,0 -5.09,0.88 -13.78,-0.89zm-65.07 -120.33c-12.91,-9.78 -62.66,-90.59 -79.99,-107.89 -17.33,-17.33 -25.24,-23.33 -35.33,-30.21 -10.11,-6.88 -22.24,-12.88 -22.24,-12.88 0,0 9.68,19.21 12.34,34.32 2.67,15.08 0.56,29.84 -1.32,36.28 -1.89,6.44 -4.35,16.09 -4.35,16.09l-86.53 -0.99c0,0 50.43,34.39 110.86,123.21 60.42,88.8 88.86,90.57 88.86,90.57 0,0 22.45,9.34 32.87,3.34 10.45,-5.98 12.47,-14.2 10.24,-22.42 -2.22,-8.19 -5.79,-14.2 -13.55,-19.97 -7.78,-5.79 -31.34,-18.43 -31.34,-18.43l45.23 -83.9c0,0 -12.88,2.66 -25.76,-7.12zm237.88 -130.47c-2.48,-2.77 -5.98,-5.88 -8.9,-8.41 -24.62,-0.65 -49.24,-1.39 -73.89,-1.94l14.64 2.46c9.93,1.66 19.83,3.29 29.73,4.88 11.77,1.89 25.61,2.64 38.41,3zm59.43 -1.8c-2.65,-0.2 -5.29,-0.43 -7.92,-0.7 5.41,8.67 10.94,19.97 12.76,29.19l1.45 7.42 -7.56 0c-24.07,0.03 -49.88,-1.66 -73.62,-5.3 -18.88,-2.9 -43.86,-12.49 -58.01,-26.09l-13.71 -13.16c-5.07,-0.11 -10.14,-0.21 -15.18,-0.31 -9.93,-0.16 -20.79,-2.04 -29.06,-7.89 -3.08,-2.19 -6.65,-5.66 -8.12,-9.23l-3.08 -7.35 7.89 -1.21c20.66,-3.1 52.5,-4.66 72.54,1.55 4.84,1.51 9.83,2.75 14.87,3.77 -4.3,-2.13 -8.54,-4.35 -12.72,-6.68l-3.02 -0.61c-3.98,-0.8 -8.1,-1.34 -12.15,-1.8 -27.96,-3.1 -56.26,-2.23 -84.26,-3.83 -13.01,-0.75 -29.92,-6.23 -38.95,-16.27l-8.35 -9.31 12.46 -1.03c9.39,-0.8 19.06,-1.08 28.45,-1.27 19.52,-0.33 39.13,0.18 58.61,1.63 -1.74,-1.46 -3.47,-2.93 -5.17,-4.43 -2.52,-0.15 -5.03,-0.29 -7.55,-0.41 -16.48,-0.78 -32.98,-0.7 -49.45,0.28 -20.4,1.21 -41.79,2.28 -62.34,1.42 65.25,105.24 179.69,175.02 309.94,175.02 135.33,0 253.56,-75.31 317.33,-187.42 -8.64,0.89 -17.37,1.35 -26.02,1.68 -27.52,1.03 -55.06,2.36 -82.53,4.11l-7.39 0.49c-1.37,1.25 -2.74,2.49 -4.13,3.71l2.16 -0.19c21.85,-1.85 43.91,-2.53 65.85,-2.12 9.07,0.18 18.46,0.47 27.54,1.24l11.25 0.99 -7.55 8.4c-8.9,9.91 -25.69,15.31 -38.53,16.06 -25.99,1.51 -52.01,0.96 -78.03,3.24 -6.13,0.55 -12.44,1.22 -18.49,2.43 -2.08,0.42 -4.26,0.86 -6.5,1.32 -4.53,2.79 -9.13,5.45 -13.8,8l2.17 -0.41c5.92,-1.11 11.82,-2.5 17.56,-4.29 19.94,-6.18 51.7,-4.63 72.28,-1.5l7.14 1.06 -2.77 6.67c-1.45,3.46 -4.93,6.88 -7.94,8.97 -8.17,5.79 -18.93,7.66 -28.73,7.81 -24.98,0.42 -49.99,1.17 -74.97,1.84 -6.23,0.16 -12.49,0.39 -18.72,0.52 -3.29,2.84 -7.32,6.44 -9.93,9.59 13.17,-0.36 27.57,-1.08 39.75,-3.05 9.93,-1.61 19.84,-3.23 29.74,-4.88l18.03 -3.05 -13.19 12.67c-14.04,13.5 -38.91,23.05 -57.7,25.93 -23.71,3.65 -49.47,5.31 -73.52,5.28l-6.88 0 1.37 -6.75c1.34,-6.8 5.04,-15.18 8.19,-21.27 0.49,-0.92 0.99,-1.83 1.48,-2.73 -3.16,0.46 -6.33,0.88 -9.52,1.24 -0.19,0.71 -0.37,1.42 -0.55,2.11 -2.43,9.93 -3.65,20.98 -1.81,31.06 1.68,9.24 4.32,18.6 8.23,27.16 1.18,2.58 4.06,8.46 6.1,10.47 0.65,0.68 1.19,1.42 1.61,2.25 4.35,8.84 -6.85,17.71 -14.92,18.72 -13.96,1.76 -27.93,-7.06 -34.53,-19.09 -4.03,-7.37 -4.88,-21.41 -6,-29.87 -1.75,-13.45 -4.4,-26.41 -10.29,-38.72 -0.5,-1.04 -1.02,-2.07 -1.56,-3.09zm-201 -101.82c-53.24,-60 -85.98,-141.48 -85.98,-231.25 0,-116.66 55.24,-219.34 138.95,-279.04 -119.14,62.58 -200.71,190.08 -200.71,337.18 0,62.31 14.64,121.1 40.56,172.91l107.18 0.2zm548.13 -3.18c25,-51.1 39.1,-108.82 39.1,-169.93 0,-138.3 -72.11,-259.28 -179.77,-325.26 74.9,60.9 123.34,157.88 123.34,267.12 0,89.13 -32.27,170.09 -84.85,229.96 33.01,-0.9 66.06,-1.5 99.09,-1.86l3.09 -0.03z"/>
  </g>
  <path class="fil1" d="M-0 3133.5l62 0 76.79 151.47 76.09 -151.47 61.64 0 0 246.59 -50.02 0 0 -166.62 -70.1 141.62 -35.93 0 -70.45 -141.62 0 166.62 -50.02 0 0 -246.59zm513.25 246.59l-19.37 -47.91 -114.13 0 -19.38 47.91 -57.42 0 107.09 -246.59 57.42 0 105.33 246.59 -59.53 0zm-115.19 -92.64l77.85 0 -38.75 -95.82 -39.1 95.82zm305.07 -153.94c25.13,0 47.56,5.22 67.28,15.68 19.73,10.45 35.05,25.01 45.97,43.67 10.92,18.67 16.38,39.99 16.38,63.94 0,23.96 -5.58,45.27 -16.74,63.94 -11.15,18.67 -26.71,33.24 -46.68,43.68 -19.96,10.45 -42.74,15.68 -68.33,15.68l-102.51 0 0 -246.59 104.62 0zm1.41 199.73c13.63,0 25.89,-3.23 36.81,-9.68 10.93,-6.46 19.44,-15.45 25.55,-26.95 6.1,-11.51 9.16,-24.66 9.16,-39.45 0,-14.79 -3.23,-28.06 -9.68,-39.81 -6.46,-11.74 -15.26,-20.84 -26.42,-27.3 -11.16,-6.46 -23.77,-9.68 -37.87,-9.68l-47.9 0 0 152.88 50.37 0zm316.34 46.85l-39.1 -70.45 -5.28 0 -51.43 0 0 70.45 -55.66 0 0 -246.59 107.09 0c32.18,0 57.07,7.46 74.68,22.37 17.62,14.92 26.41,35.99 26.41,63.23 0,19.02 -3.93,35.29 -11.8,48.79 -7.87,13.5 -19.32,23.77 -34.34,30.83l52.48 81.37 -63.05 0zm-95.82 -116.96l51.43 0c15.5,0 27.42,-3.58 35.75,-10.74 8.34,-7.16 12.51,-17.66 12.51,-31.52 0,-13.63 -4.17,-23.9 -12.51,-30.83 -8.34,-6.93 -20.26,-10.39 -35.75,-10.39l-51.43 0 0 83.48zm381.51 116.96l-19.37 -47.91 -114.13 0 -19.38 47.91 -57.42 0 107.09 -246.59 57.42 0 105.33 246.59 -59.53 0zm-115.19 -92.64l77.85 0 -38.75 -95.82 -39.1 95.82zm362.84 -85.25c-12.68,-7.75 -26.12,-13.91 -40.34,-18.49 -14.2,-4.58 -26.36,-6.87 -36.46,-6.87 -9.63,0 -17.26,1.76 -22.9,5.29 -5.64,3.52 -8.46,8.68 -8.46,15.5 0,8.69 4.06,15.32 12.16,19.9 8.1,4.59 20.6,9.34 37.51,14.27 16.91,4.93 30.82,9.86 41.74,14.79 10.92,4.93 20.26,12.33 28,22.19 7.75,9.87 11.62,22.9 11.62,39.1 0,15.74 -4.16,29.29 -12.5,40.69 -8.34,11.39 -19.79,20.02 -34.35,25.89 -14.56,5.87 -31.12,8.81 -49.67,8.81 -19.97,0 -39.58,-3.53 -58.83,-10.57 -19.25,-7.04 -35.93,-16.67 -50.02,-28.88l22.19 -45.44c12.45,11.27 26.77,20.31 42.98,27.13 16.21,6.81 31,10.21 44.39,10.21 11.51,0 20.49,-2.11 26.95,-6.34 6.46,-4.23 9.68,-10.33 9.68,-18.32 0,-6.34 -2.18,-11.56 -6.51,-15.68 -4.35,-4.11 -9.87,-7.45 -16.56,-10.04 -6.69,-2.58 -15.91,-5.51 -27.65,-8.8 -16.91,-4.7 -30.71,-9.4 -41.4,-14.1 -10.68,-4.69 -19.9,-11.85 -27.65,-21.49 -7.75,-9.63 -11.63,-22.42 -11.63,-38.39 0,-14.8 4,-27.77 11.98,-38.93 7.99,-11.15 19.15,-19.73 33.47,-25.71 14.33,-5.99 31,-8.98 50.02,-8.98 16.91,0 33.58,2.46 50.02,7.39 16.44,4.93 31,11.51 43.68,19.73l-21.49 46.15zm244.12 177.9l-19.37 -47.91 -114.13 0 -19.38 47.91 -57.42 0 107.09 -246.59 57.42 0 105.33 246.59 -59.53 0zm-115.19 -92.64l77.85 0 -38.75 -95.82 -39.1 95.82zm200.45 -153.94l55.66 0 0 102.86 111.67 0 0 -102.86 55.66 0 0 246.59 -55.66 0 0 -97.22 -111.67 0 0 97.22 -55.66 0 0 -246.59zm359.67 0l62 0 76.79 151.47 76.09 -151.47 61.64 0 0 246.59 -50.02 0 0 -166.62 -70.1 141.62 -35.93 0 -70.45 -141.62 0 166.62 -50.02 0 0 -246.59zm331.14 0l55.66 0 0 246.59 -55.66 0 0 -246.59zm110.26 0l177.19 0 -0.35 46.15 -121.18 0 0 60.58 111.31 0 0 46.5 -111.31 0 0 93.35 -55.66 0 0 -246.59zm185.29 0l206.08 0 0 47.2 -75.39 0 0 199.39 -55.66 0 0 -199.39 -75.04 0 0 -47.2zm418.14 246.59l-19.37 -47.91 -114.13 0 -19.38 47.91 -57.42 0 107.09 -246.59 57.42 0 105.33 246.59 -59.53 0zm-115.19 -92.64l77.85 0 -38.75 -95.82 -39.1 95.82zm200.45 -153.94l55.66 0 0 102.86 111.67 0 0 -102.86 55.66 0 0 246.59 -55.66 0 0 -97.22 -111.67 0 0 97.22 -55.66 0 0 -246.59zm328.67 144.78c0,17.62 4.99,31.53 14.97,41.74 9.97,10.21 23.3,15.32 39.98,15.32 16.2,0 29.12,-5.05 38.75,-15.15 9.63,-10.09 14.44,-24.07 14.44,-41.92l0 -144.78 55.66 0 0 144.78c0,21.6 -4.4,40.34 -13.21,56.19 -8.81,15.85 -21.43,28.06 -37.87,36.64 -16.44,8.57 -35.82,12.86 -58.13,12.86 -22.31,0 -41.8,-4.29 -58.47,-12.86 -16.67,-8.58 -29.48,-20.79 -38.4,-36.64 -8.92,-15.85 -13.39,-34.58 -13.39,-56.19l0 -144.78 55.66 0 0 144.78zm213.83 -144.78l55.66 0 0 197.97 105.67 0 0 48.62 -161.33 0 0 -246.59zm328.31 144.78c0,17.62 4.99,31.53 14.97,41.74 9.97,10.21 23.3,15.32 39.98,15.32 16.2,0 29.12,-5.05 38.75,-15.15 9.63,-10.09 14.44,-24.07 14.44,-41.92l0 -144.78 55.66 0 0 144.78c0,21.6 -4.4,40.34 -13.21,56.19 -8.81,15.85 -21.43,28.06 -37.87,36.64 -16.44,8.57 -35.82,12.86 -58.13,12.86 -22.31,0 -41.8,-4.29 -58.47,-12.86 -16.67,-8.58 -29.48,-20.79 -38.4,-36.64 -8.92,-15.85 -13.39,-34.58 -13.39,-56.19l0 -144.78 55.66 0 0 144.78zm213.83 -144.78l55.66 0 0 197.97 105.67 0 0 48.62 -161.33 0 0 -246.59zm245.88 144.78c0,17.62 4.99,31.53 14.97,41.74 9.97,10.21 23.3,15.32 39.98,15.32 16.2,0 29.12,-5.05 38.75,-15.15 9.63,-10.09 14.44,-24.07 14.44,-41.92l0 -144.78 55.66 0 0 144.78c0,21.6 -4.4,40.34 -13.21,56.19 -8.81,15.85 -21.43,28.06 -37.87,36.64 -16.44,8.57 -35.82,12.86 -58.13,12.86 -22.31,0 -41.8,-4.29 -58.47,-12.86 -16.67,-8.58 -29.48,-20.79 -38.4,-36.64 -8.92,-15.85 -13.39,-34.58 -13.39,-56.19l0 -144.78 55.66 0 0 144.78zm213.83 -144.78l62 0 76.79 151.47 76.09 -151.47 61.64 0 0 246.59 -50.02 0 0 -166.62 -70.1 141.62 -35.93 0 -70.45 -141.62 0 166.62 -50.02 0 0 -246.59zm413.57 0l55.66 0 0 246.59 -55.66 0 0 -246.59zm223.69 0c27.24,0 48.73,5.52 64.47,16.56 15.73,11.03 23.6,26.07 23.6,45.09 0,13.15 -3.82,24.6 -11.45,34.34 -7.63,9.75 -18.03,16.38 -31.17,19.91 15.97,3.05 28.53,10.16 37.69,21.31 9.16,11.16 13.74,24.84 13.74,41.04 0,21.13 -8.34,37.81 -25.02,50.02 -16.67,12.21 -39.34,18.32 -67.99,18.32l-117.3 0 0 -246.59 113.43 0zm-2.82 99.34c10.57,0 18.85,-2.41 24.84,-7.23 5.98,-4.81 8.98,-11.56 8.98,-20.26 0,-8.45 -3,-15.02 -8.98,-19.73 -5.99,-4.69 -14.27,-6.93 -24.84,-6.69l-54.95 0 0 53.9 54.95 0zm0 101.8c13.15,0 23.48,-2.64 31,-7.92 7.52,-5.29 11.27,-12.62 11.27,-22.02 0,-8.92 -3.76,-15.97 -11.27,-21.13 -7.52,-5.17 -17.85,-7.63 -31,-7.4l-54.95 0 0 58.47 54.95 0zm115.9 -201.14l206.08 0 0 47.2 -75.39 0 0 199.39 -55.66 0 0 -199.39 -75.04 0 0 -47.2zm236.02 0l55.66 0 0 246.59 -55.66 0 0 -246.59zm214.88 0c25.13,0 47.56,5.22 67.28,15.68 19.73,10.45 35.05,25.01 45.97,43.67 10.92,18.67 16.38,39.99 16.38,63.94 0,23.96 -5.58,45.27 -16.74,63.94 -11.15,18.67 -26.71,33.24 -46.68,43.68 -19.96,10.45 -42.74,15.68 -68.33,15.68l-102.51 0 0 -246.59 104.62 0zm1.41 199.73c13.63,0 25.89,-3.23 36.81,-9.68 10.93,-6.46 19.44,-15.45 25.55,-26.95 6.1,-11.51 9.16,-24.66 9.16,-39.45 0,-14.79 -3.23,-28.06 -9.68,-39.81 -6.46,-11.74 -15.26,-20.84 -26.42,-27.3 -11.16,-6.46 -23.77,-9.68 -37.87,-9.68l-47.9 0 0 152.88 50.37 0zm346.99 46.85l-19.37 -47.91 -114.13 0 -19.38 47.91 -57.42 0 107.09 -246.59 57.42 0 105.33 246.59 -59.53 0zm-115.19 -92.64l77.85 0 -38.75 -95.82 -39.1 95.82zm200.45 -153.94l55.66 0 0 246.59 -55.66 0 0 -246.59zm318.8 0l-89.83 166.97 0 79.62 -55.66 0 0 -78.2 -91.24 -168.39 56.02 0 63.05 110.61 61.65 -110.61 56.01 0zm208.19 246.59l-19.37 -47.91 -114.13 0 -19.38 47.91 -57.42 0 107.09 -246.59 57.42 0 105.33 246.59 -59.53 0zm-115.19 -92.64l77.85 0 -38.75 -95.82 -39.1 95.82zm200.45 -153.94l55.66 0 0 102.86 111.67 0 0 -102.86 55.66 0 0 246.59 -55.66 0 0 -97.22 -111.67 0 0 97.22 -55.66 0 0 -246.59zm-5669.07 371.99c27.24,0 48.73,5.52 64.47,16.56 15.73,11.03 23.6,26.07 23.6,45.09 0,13.15 -3.82,24.6 -11.45,34.34 -7.63,9.75 -18.03,16.38 -31.17,19.91 15.97,3.05 28.53,10.16 37.69,21.31 9.16,11.16 13.74,24.84 13.74,41.04 0,21.13 -8.34,37.81 -25.02,50.02 -16.67,12.21 -39.34,18.32 -67.99,18.32l-117.3 0 0 -246.59 113.43 0zm-2.82 99.34c10.57,0 18.85,-2.41 24.84,-7.23 5.98,-4.81 8.98,-11.56 8.98,-20.26 0,-8.45 -3,-15.02 -8.98,-19.73 -5.99,-4.69 -14.27,-6.93 -24.84,-6.69l-54.95 0 0 53.9 54.95 0zm0 101.8c13.15,0 23.48,-2.64 31,-7.92 7.52,-5.29 11.27,-12.62 11.27,-22.02 0,-8.92 -3.76,-15.97 -11.27,-21.13 -7.52,-5.17 -17.85,-7.63 -31,-7.4l-54.95 0 0 58.47 54.95 0zm133.16 -80.31l90.88 0 0 35.93 -90.88 0 0 -35.93zm235.67 -122.95c34.52,0 61.06,10.81 79.61,32.42 18.56,21.6 27.83,52.61 27.83,92.99 0,40.16 -9.27,71.11 -27.83,92.83 -18.55,21.72 -45.09,32.58 -79.61,32.58 -34.76,0 -61.47,-10.86 -80.15,-32.58 -18.67,-21.72 -28,-52.66 -28,-92.83 0,-40.39 9.34,-71.39 28,-92.99 18.67,-21.6 45.39,-32.42 80.15,-32.42zm0 42.63c-17.62,0 -30.53,6.57 -38.75,19.73 -8.22,13.15 -12.33,34.17 -12.33,63.05 0,28.66 4.11,49.62 12.33,62.89 8.22,13.27 21.13,19.9 38.75,19.9 17.14,0 29.82,-6.63 38.04,-19.9 8.22,-13.27 12.33,-34.23 12.33,-62.89 0,-28.88 -4.11,-49.9 -12.33,-63.05 -8.22,-13.15 -20.9,-19.73 -38.04,-19.73zm232.14 -42.98c26.31,0 47.09,5.93 62.36,17.79 15.26,11.86 22.9,27.89 22.9,48.09 0,10.8 -2.88,20.73 -8.63,29.77 -5.75,9.04 -13.56,16.27 -23.43,21.66 13.86,5.41 24.78,13.63 32.76,24.66 7.99,11.03 11.98,23.6 11.98,37.69 0,14.56 -3.99,27.24 -11.98,38.05 -7.99,10.8 -19.32,19.14 -34,25.01 -14.68,5.87 -31.88,8.81 -51.6,8.81 -19.49,0 -36.58,-2.88 -51.26,-8.63 -14.68,-5.75 -26.01,-13.97 -34,-24.66 -7.98,-10.69 -11.98,-23.19 -11.98,-37.51 0,-14.09 4.23,-26.83 12.68,-38.22 8.46,-11.39 19.97,-19.78 34.53,-25.19 -10.8,-5.87 -19.32,-13.5 -25.54,-22.9 -6.22,-9.4 -9.34,-19.61 -9.34,-30.64 0,-19.49 7.63,-35 22.9,-46.5 15.26,-11.51 35.81,-17.26 61.64,-17.26zm0.36 38.4c-12.21,0 -21.66,2.64 -28.36,7.92 -6.7,5.28 -10.04,12.74 -10.04,22.37 0,9.4 3.34,16.74 10.04,22.02 6.7,5.28 16.15,7.93 28.36,7.93 12.21,0 21.66,-2.58 28.36,-7.76 6.69,-5.17 10.03,-12.56 10.03,-22.19 0,-9.63 -3.34,-17.09 -10.03,-22.37 -6.7,-5.28 -16.15,-7.92 -28.36,-7.92zm0 102.16c-14.33,0 -25.42,2.93 -33.29,8.81 -7.86,5.87 -11.8,14.32 -11.8,25.36 0,11.03 3.93,19.61 11.8,25.71 7.87,6.11 18.96,9.16 33.29,9.16 14.32,0 25.48,-3 33.47,-8.98 7.98,-5.99 11.98,-14.5 11.98,-25.55 0,-11.03 -4,-19.55 -11.98,-25.54 -7.99,-5.99 -19.15,-8.98 -33.47,-8.98zm385.73 -69.4c-12.68,-7.75 -26.12,-13.91 -40.34,-18.49 -14.2,-4.58 -26.36,-6.87 -36.46,-6.87 -9.63,0 -17.26,1.76 -22.9,5.29 -5.64,3.52 -8.46,8.68 -8.46,15.5 0,8.69 4.06,15.32 12.16,19.9 8.1,4.59 20.6,9.34 37.51,14.27 16.91,4.93 30.82,9.86 41.74,14.79 10.92,4.93 20.26,12.33 28,22.19 7.75,9.87 11.62,22.9 11.62,39.1 0,15.74 -4.16,29.29 -12.5,40.69 -8.34,11.39 -19.79,20.02 -34.35,25.89 -14.56,5.87 -31.12,8.81 -49.67,8.81 -19.97,0 -39.58,-3.53 -58.83,-10.57 -19.25,-7.04 -35.93,-16.67 -50.02,-28.88l22.19 -45.44c12.45,11.27 26.77,20.31 42.98,27.13 16.21,6.81 31,10.21 44.39,10.21 11.51,0 20.49,-2.11 26.95,-6.34 6.46,-4.23 9.68,-10.33 9.68,-18.32 0,-6.34 -2.18,-11.56 -6.51,-15.68 -4.35,-4.11 -9.87,-7.45 -16.56,-10.04 -6.69,-2.58 -15.91,-5.51 -27.65,-8.8 -16.91,-4.7 -30.71,-9.4 -41.4,-14.1 -10.68,-4.69 -19.9,-11.85 -27.65,-21.49 -7.75,-9.63 -11.63,-22.42 -11.63,-38.39 0,-14.8 4,-27.77 11.98,-38.93 7.99,-11.15 19.15,-19.73 33.47,-25.71 14.33,-5.99 31,-8.98 50.02,-8.98 16.91,0 33.58,2.46 50.02,7.39 16.44,4.93 31,11.51 43.68,19.73l-21.49 46.15zm62 -68.69l55.66 0 0 246.59 -55.66 0 0 -246.59zm214.88 0c25.13,0 47.56,5.22 67.28,15.68 19.73,10.45 35.05,25.01 45.97,43.67 10.92,18.67 16.38,39.99 16.38,63.94 0,23.96 -5.58,45.27 -16.74,63.94 -11.15,18.67 -26.71,33.24 -46.68,43.68 -19.96,10.45 -42.74,15.68 -68.33,15.68l-102.51 0 0 -246.59 104.62 0zm1.41 199.73c13.63,0 25.89,-3.23 36.81,-9.68 10.93,-6.46 19.44,-15.45 25.55,-26.95 6.1,-11.51 9.16,-24.66 9.16,-39.45 0,-14.79 -3.23,-28.06 -9.68,-39.81 -6.46,-11.74 -15.26,-20.84 -26.42,-27.3 -11.16,-6.46 -23.77,-9.68 -37.87,-9.68l-47.9 0 0 152.88 50.37 0zm279.71 -203.61c24.66,0 47.08,5.51 67.28,16.56 20.2,11.03 36.11,26.24 47.74,45.62 11.62,19.37 17.43,40.92 17.43,64.64 0,23.72 -5.81,45.32 -17.43,64.81 -11.63,19.49 -27.54,34.82 -47.74,45.97 -20.2,11.15 -42.62,16.73 -67.28,16.73 -24.66,0 -47.08,-5.58 -67.28,-16.73 -20.2,-11.16 -36.11,-26.42 -47.73,-45.8 -11.63,-19.37 -17.44,-41.03 -17.44,-64.99 0,-23.72 5.81,-45.27 17.44,-64.64 11.62,-19.38 27.47,-34.58 47.56,-45.62 20.07,-11.04 42.56,-16.56 67.46,-16.56zm0.7 48.61c-13.62,0 -26.3,3.47 -38.04,10.4 -11.74,6.93 -21.02,16.38 -27.83,28.36 -6.81,11.97 -10.21,25.12 -10.21,39.45 0,14.56 3.47,27.83 10.39,39.81 6.93,11.98 16.21,21.49 27.83,28.53 11.63,7.04 24.25,10.56 37.87,10.56 13.63,0 26.12,-3.46 37.51,-10.39 11.39,-6.93 20.44,-16.44 27.13,-28.53 6.7,-12.09 10.04,-25.42 10.04,-39.98 0,-14.33 -3.34,-27.48 -10.04,-39.45 -6.69,-11.98 -15.74,-21.43 -27.13,-28.36 -11.39,-6.93 -23.89,-10.4 -37.51,-10.4zm285.33 60.24l98.99 0 0 113.08c-13.15,9.63 -29.25,17.43 -48.27,23.43 -19.02,5.98 -36.99,8.98 -53.9,8.98 -24.66,0 -46.97,-5.58 -66.93,-16.73 -19.97,-11.16 -35.7,-26.42 -47.21,-45.8 -11.51,-19.37 -17.26,-41.03 -17.26,-64.99 0,-23.72 5.87,-45.27 17.62,-64.64 11.74,-19.38 27.89,-34.58 48.43,-45.62 20.55,-11.04 43.39,-16.56 68.52,-16.56 18.32,0 35.88,3.29 52.67,9.86 16.79,6.58 31.52,15.5 44.2,26.78l-31.35 39.8c-9.16,-8.68 -19.38,-15.5 -30.65,-20.43 -11.27,-4.93 -22.9,-7.4 -34.87,-7.4 -14.32,0 -27.42,3.47 -39.28,10.4 -11.85,6.93 -21.19,16.32 -28,28.18 -6.81,11.86 -10.21,25.07 -10.21,39.63 0,14.56 3.47,27.89 10.39,39.98 6.93,12.09 16.32,21.6 28.19,28.53 11.86,6.93 24.95,10.39 39.28,10.39 7.28,0 15.15,-1.23 23.6,-3.69 8.46,-2.47 16.68,-5.82 24.66,-10.04l0 -32.41 -48.62 0 0 -50.73zm145.49 -104.97l55.66 0 0 246.59 -55.66 0 0 -246.59zm261.73 246.59l-39.1 -70.45 -5.28 0 -51.43 0 0 70.45 -55.66 0 0 -246.59 107.09 0c32.18,0 57.07,7.46 74.68,22.37 17.62,14.92 26.41,35.99 26.41,63.23 0,19.02 -3.93,35.29 -11.8,48.79 -7.87,13.5 -19.32,23.77 -34.34,30.83l52.48 81.37 -63.05 0zm-95.82 -116.96l51.43 0c15.5,0 27.42,-3.58 35.75,-10.74 8.34,-7.16 12.51,-17.66 12.51,-31.52 0,-13.63 -4.17,-23.9 -12.51,-30.83 -8.34,-6.93 -20.26,-10.39 -35.75,-10.39l-51.43 0 0 83.48zm199.39 -129.63l55.66 0 0 246.59 -55.66 0 0 -246.59zm355.08 68.69c-12.68,-7.75 -26.12,-13.91 -40.34,-18.49 -14.2,-4.58 -26.36,-6.87 -36.46,-6.87 -9.63,0 -17.26,1.76 -22.9,5.29 -5.64,3.52 -8.46,8.68 -8.46,15.5 0,8.69 4.06,15.32 12.16,19.9 8.1,4.59 20.6,9.34 37.51,14.27 16.91,4.93 30.82,9.86 41.74,14.79 10.92,4.93 20.26,12.33 28,22.19 7.75,9.87 11.62,22.9 11.62,39.1 0,15.74 -4.16,29.29 -12.5,40.69 -8.34,11.39 -19.79,20.02 -34.35,25.89 -14.56,5.87 -31.12,8.81 -49.67,8.81 -19.97,0 -39.58,-3.53 -58.83,-10.57 -19.25,-7.04 -35.93,-16.67 -50.02,-28.88l22.19 -45.44c12.45,11.27 26.77,20.31 42.98,27.13 16.21,6.81 31,10.21 44.39,10.21 11.51,0 20.49,-2.11 26.95,-6.34 6.46,-4.23 9.68,-10.33 9.68,-18.32 0,-6.34 -2.18,-11.56 -6.51,-15.68 -4.35,-4.11 -9.87,-7.45 -16.56,-10.04 -6.69,-2.58 -15.91,-5.51 -27.65,-8.8 -16.91,-4.7 -30.71,-9.4 -41.4,-14.1 -10.68,-4.69 -19.9,-11.85 -27.65,-21.49 -7.75,-9.63 -11.63,-22.42 -11.63,-38.39 0,-14.8 4,-27.77 11.98,-38.93 7.99,-11.15 19.15,-19.73 33.47,-25.71 14.33,-5.99 31,-8.98 50.02,-8.98 16.91,0 33.58,2.46 50.02,7.39 16.44,4.93 31,11.51 43.68,19.73l-21.49 46.15zm113.43 76.09c0,17.62 4.99,31.53 14.97,41.74 9.97,10.21 23.3,15.32 39.98,15.32 16.2,0 29.12,-5.05 38.75,-15.15 9.63,-10.09 14.44,-24.07 14.44,-41.92l0 -144.78 55.66 0 0 144.78c0,21.6 -4.4,40.34 -13.21,56.19 -8.81,15.85 -21.43,28.06 -37.87,36.64 -16.44,8.57 -35.82,12.86 -58.13,12.86 -22.31,0 -41.8,-4.29 -58.47,-12.86 -16.67,-8.58 -29.48,-20.79 -38.4,-36.64 -8.92,-15.85 -13.39,-34.58 -13.39,-56.19l0 -144.78 55.66 0 0 144.78zm365.31 101.81l-39.1 -70.45 -5.28 0 -51.43 0 0 70.45 -55.66 0 0 -246.59 107.09 0c32.18,0 57.07,7.46 74.68,22.37 17.62,14.92 26.41,35.99 26.41,63.23 0,19.02 -3.93,35.29 -11.8,48.79 -7.87,13.5 -19.32,23.77 -34.34,30.83l52.48 81.37 -63.05 0zm-95.82 -116.96l51.43 0c15.5,0 27.42,-3.58 35.75,-10.74 8.34,-7.16 12.51,-17.66 12.51,-31.52 0,-13.63 -4.17,-23.9 -12.51,-30.83 -8.34,-6.93 -20.26,-10.39 -35.75,-10.39l-51.43 0 0 83.48zm381.51 116.96l-19.37 -47.91 -114.13 0 -19.38 47.91 -57.42 0 107.09 -246.59 57.42 0 105.33 246.59 -59.53 0zm-115.19 -92.64l77.85 0 -38.75 -95.82 -39.1 95.82zm313.88 -153.94c27.24,0 48.73,5.52 64.47,16.56 15.73,11.03 23.6,26.07 23.6,45.09 0,13.15 -3.82,24.6 -11.45,34.34 -7.63,9.75 -18.03,16.38 -31.17,19.91 15.97,3.05 28.53,10.16 37.69,21.31 9.16,11.16 13.74,24.84 13.74,41.04 0,21.13 -8.34,37.81 -25.02,50.02 -16.67,12.21 -39.34,18.32 -67.99,18.32l-117.3 0 0 -246.59 113.43 0zm-2.82 99.34c10.57,0 18.85,-2.41 24.84,-7.23 5.98,-4.81 8.98,-11.56 8.98,-20.26 0,-8.45 -3,-15.02 -8.98,-19.73 -5.99,-4.69 -14.27,-6.93 -24.84,-6.69l-54.95 0 0 53.9 54.95 0zm0 101.8c13.15,0 23.48,-2.64 31,-7.92 7.52,-5.29 11.27,-12.62 11.27,-22.02 0,-8.92 -3.76,-15.97 -11.27,-21.13 -7.52,-5.17 -17.85,-7.63 -31,-7.4l-54.95 0 0 58.47 54.95 0zm322.33 45.44l-19.37 -47.91 -114.13 0 -19.38 47.91 -57.42 0 107.09 -246.59 57.42 0 105.33 246.59 -59.53 0zm-115.19 -92.64l77.85 0 -38.75 -95.82 -39.1 95.82zm408.99 -153.94l-89.83 166.97 0 79.62 -55.66 0 0 -78.2 -91.24 -168.39 56.02 0 63.05 110.61 61.65 -110.61 56.01 0zm208.19 246.59l-19.37 -47.91 -114.13 0 -19.38 47.91 -57.42 0 107.09 -246.59 57.42 0 105.33 246.59 -59.53 0zm-115.19 -92.64l77.85 0 -38.75 -95.82 -39.1 95.82z"/>
 </g>
</svg>
