<?xml version="1.0" encoding="UTF-8"?>
<!DOCTYPE svg PUBLIC "-//W3C//DTD SVG 1.1//EN" "http://www.w3.org/Graphics/SVG/1.1/DTD/svg11.dtd">
<!-- Creator: CorelDRAW -->
<svg xmlns="http://www.w3.org/2000/svg" xml:space="preserve" width="89.2488mm" height="45.374mm" version="1.1" style="shape-rendering:geometricPrecision; text-rendering:geometricPrecision; image-rendering:optimizeQuality; fill-rule:evenodd; clip-rule:evenodd"
viewBox="0 0 7779.1 3954.89"
 xmlns:xlink="http://www.w3.org/1999/xlink"
 xmlns:xodm="http://www.corel.com/coreldraw/odm/2003">
 <defs>
  <style type="text/css">
   <![CDATA[
    .fil0 {fill:#FEFEFE}
    .fil1 {fill:#FEFEFE;fill-rule:nonzero}
   ]]>
  </style>
 </defs>
 <g id="Layer_x0020_1">
  <metadata id="CorelCorpID_0Corel-Layer"/>
  <g id="_1854018528208">
   <path class="fil0" d="M5096.02 2687.94c-21.28,0 -32.49,-13.55 -32.49,-32.49 0,-22.04 27.9,-45.49 48.74,-45.49 19.84,0 30.51,-1.99 44.83,17.15 8.11,10.85 7.11,19.01 -1.53,29.24 -8.17,9.67 -44.63,31.59 -59.55,31.59zm-1195.77 97.48c0,35.01 2.75,69.91 17.17,96.56 6.18,11.41 12.73,18.1 23.59,25.15 43.26,28.07 89.77,-0.71 115.77,-33.43 15.99,-20.13 30.38,-60.12 48.18,-72.04 14.54,3.88 20.96,17.29 33.08,25.42 13.22,8.86 23.9,15.61 37.76,23.98 148.34,89.51 386.1,76.09 554.99,33.78 104.35,-26.13 223.89,-69.24 315.13,-123.54 56.39,-33.57 13.02,-11.63 102.09,-11.63 66.96,0 95,-100.72 146.22,-100.72 23.16,0 39.65,33.68 71.5,-3.23 24.02,-27.84 53.59,-73.53 21.83,-109.6 -12.63,-14.34 -13.45,-8.05 -18.6,-30.14 -26.65,2.21 -23.62,33.51 -48.62,52.11 -54.56,40.59 -60.37,65.27 -100.02,104.69 -18.25,18.16 -34.46,34.14 -69.07,34.92 4.1,-15.34 52.72,-61.3 33.58,-118.03 -21.99,-65.18 -89,-0.37 -112.43,22.93 -9.97,9.92 -22.19,25.75 -30.25,37.99 -32.49,49.36 -10.91,70.12 -7.89,83.1 -12.66,1.05 -16.77,4.19 -27.37,8.37 -44.69,17.6 -151.82,47.96 -193.83,56.38 -106.33,21.28 -203.69,22.99 -318.18,22.99 -90.4,0 -238.24,-38.39 -319.48,-76.95 -47.33,-22.46 -46.14,3.81 -92.3,48.58 -48.38,46.94 -137.36,40.05 -137.36,-39.88 0,-45.18 2.23,-56.51 6.21,-97.78 6.1,-63.48 31.72,-198.72 19.79,-249.9 -28.01,20.52 -42.21,157.4 -46.06,184.65 -8.24,58.42 -25.43,150.89 -25.43,205.27z"/>
   <path class="fil0" d="M3266.63 2600.21c16.14,-24.09 35.75,-24.45 35.75,-55.24 0,-50.73 -79.82,-64.19 -130.53,-23.31 -14.27,11.5 -23.61,25.97 -18.93,46.06 6.49,-0.54 37.49,-15.78 48.74,32.49 -20.7,10.95 -39.89,25.99 -71.49,25.99 -98.09,0 -64.85,-127.34 -56.22,-192.69 6.33,-47.86 10.73,-82.07 10.73,-132.24 0,-12.43 1,-1.19 -3.25,-9.74 -12.33,9.03 -32.4,77.88 -37.1,96.11 -5.31,20.6 -24.54,187.43 -34.07,235.62 -7.23,36.5 -13.76,80.08 -39.3,97.18 -0.37,-17.03 -9.94,-43.93 -16.27,-55.21 -16.91,-30.07 -55.97,-45.49 -75.88,-7.71 -6.24,11.84 -8.24,22.36 -12.95,35.79 -1.73,4.92 -77.23,111.61 27.12,111.61 12.35,0 21.99,-4.05 32.49,-6.5 -2.96,35.6 -88.98,79.13 -118.03,96.44 -25.94,15.45 -34.27,17.83 -34.69,36.79 22.04,0 30.66,-8.48 48.23,-13.51 56.86,-16.27 66.95,7.33 110.99,-80.72 7.26,-14.52 12.72,-26.75 19.53,-42.2 19.33,-43.81 38,-33.74 63.06,-99.4 3.84,-10.05 4.27,-15.47 11.64,-20.87 2.39,28.79 29.76,55.24 64.99,55.24 42.05,0 116.4,-72.36 133.22,-97.48 22.4,15 22.16,25.99 61.74,25.99 35.53,0 64.15,-38.94 77.85,-61.87 20.96,-35.08 29.55,-55.88 41.1,-101.88 13.92,-55.44 30.52,-192.21 30.52,-252.17 -7.35,2.67 -4.85,1.75 -9.25,7l-15.85 32.89c-53.24,133.7 -7.99,189.43 -56.07,281.86 -19.93,38.31 -38.38,47.2 -87.8,35.68z"/>
   <path class="fil0" d="M3588.32 2730.18c15.06,-4.03 20.08,-17.75 33.06,-25.43 44.22,-26.15 92.18,-7.67 119.66,-7.06l0 9.74c-9.65,2.58 -21.56,15.47 -35.31,26.43l-67.88 58.84c-47.2,46.69 -103.4,130.34 -121.05,197.39 -21.83,82.9 -15.04,163.59 41.01,215.77 73.51,68.45 182.18,38.21 259.28,-12.96 52.31,-34.72 62.18,-53.2 98.62,-89.84 19.32,-19.43 69.13,-88.73 81.03,-110.7 3.97,-7.33 21.19,-47.94 -2.86,-26.35 -5.68,5.1 -7.75,11.19 -14.76,18.49 -55.31,57.63 -79.41,90.97 -156.8,129.15 -51.15,25.23 -83.61,25.95 -139.77,25.95 -110.94,0 -187,-149.18 -52.77,-299.72 23.73,-26.63 47.9,-49.58 76.01,-70.2 27.01,-19.8 79.47,-57.15 97.87,-77.62 28.78,-32 -5.24,-52.86 -43.13,-52.86 -38.18,0 -99.36,-0.25 -125.48,17.49 -11.63,7.91 -44.85,50.89 -46.74,73.49z"/>
   <path class="fil0" d="M2460.79 3146.09c0,45.65 -2.48,163.66 2.56,202.15 2.13,16.26 -0.23,17.48 10.44,25.3 14.31,-29.84 16.14,-117.2 19.67,-162.29 1.16,-14.77 2.82,-23.11 2.96,-42.53 0.13,-18.5 3.5,-22.44 3.46,-42.04l6.28 -133.44c0.31,-36.39 14,-172.11 19.42,-211.27 9.88,-71.3 34.42,-144.15 96.59,-182.86 43.23,-26.92 87.53,-30.39 140.85,-44.37 24.07,-6.31 44.71,-14.92 60.95,-30.03 25.67,-23.89 46.61,-68.76 42.4,-96.1 -3.54,-22.91 -71.66,-49.38 -93.65,-49.38 -17.68,0 -47.01,61.52 -53.11,80.12 -10.77,32.85 -17.48,7.96 -84.08,52.39 -158.91,106.04 -174.76,437.85 -174.76,634.33z"/>
   <path class="fil0" d="M1424.25 2899.15c59.9,0 123.58,-15.31 154.57,-63.13 9.68,-14.94 17.06,-35 30.64,-44.1 0,30.32 6.09,51.27 23.66,73.83 90.2,115.85 145.09,-70.58 184.3,-70.58 25.71,0 53.77,68.66 122.17,-53.32 7.16,-12.77 10.34,-22.47 7.81,-34.42 -18.2,4.86 -26.3,29.51 -38.36,42.87 -29.1,32.25 -54.48,-15.75 -88.47,2.35 -42.88,22.85 -44.33,42.51 -100.63,42.51 -19.58,0 -35.97,-9.26 -45.34,-19.65 -40.61,-45.08 5.98,-113.89 -0.15,-142.82l-9.74 0c-3.25,13.95 -32.59,70.12 -41.2,85.52 -7.65,13.68 -14.61,26.07 -23.09,38.65 -19.18,28.45 -36.49,40.48 -65.66,61.07 -32.8,23.15 -70.32,42.88 -97.21,62.01 -7.97,5.67 -12.22,6.31 -13.29,19.2z"/>
   <path class="fil0" d="M6048.07 2899.15c59.49,0 125.6,-15.01 154.63,-63.08 8.53,-14.13 18.9,-36.33 30.59,-44.15 0,86.98 91.97,164.27 153.77,59.54 26.62,-45.11 54.84,-116.34 -1.05,-153.77 -26.01,13.76 -42.19,69.56 -55.24,94.23 -35.1,-2.92 -48.73,-34.79 -48.73,-71.49 0,-33.21 22.65,-60.21 16.25,-87.73l-9.75 0c-3.75,16.07 -49.38,104.04 -63.58,124.88 -4.83,7.08 -9.45,12.46 -14.39,18.09l-157.89 111.8c-5.56,6.76 -3.46,-1.8 -4.58,11.67z"/>
   <path class="fil0" d="M5849.87 2658.69c-18.74,17.78 -26.61,51.99 -58.49,51.99 -26.27,0 5.94,-29.64 -57.16,14.33 -69.15,48.18 -95.83,11.78 -130.19,7.55 -59.28,-7.3 -143.35,108.44 -172.03,154.9 -20.21,32.74 -7.47,43.33 17.53,17.52 13.42,-13.85 22.99,-31.89 37.32,-43.92 90.99,-76.35 137.29,53.22 213.56,-46.39 60.13,-78.56 50.94,-45.51 77.98,-45.51 25.06,0 46.43,-41.01 55.91,-51.31 19.16,-20.84 37.19,14.57 66.53,-43.96 8.9,-17.75 18.72,-34.07 14.03,-54.21 -18.09,4.84 -16.53,23.3 -26.41,38.68 -14.63,22.78 -19.41,5.43 -38.58,0.31z"/>
   <path class="fil0" d="M2041.63 2827.66c20.31,-42.33 27.63,-116.81 35.56,-172.41 3.16,-22.12 24.1,-175.81 19.68,-185.03 -18.57,13.6 -51.49,124.45 -54.96,162.75 -3.07,33.73 -9.73,182.48 -23.99,196.97 -4.19,4.27 -38.74,10.9 -23.78,41.68 33.03,67.98 155.64,25.19 186.79,-161.37 15.76,-94.41 36.16,-190.04 36.16,-298.51 -12.52,3.34 -10.45,7.21 -15.38,20.36 -3.55,9.46 -7.22,17.71 -10.15,25.59 -12.87,34.6 -29.4,81.72 -29.84,119.63 -0.67,57 -1.08,158.19 -25.79,195.17 -19.36,28.98 -56.18,54.31 -94.31,55.16z"/>
   <path class="fil0" d="M1131.82 2795.17c-44.08,0 -72.54,-55.84 -161.7,46.26l-31.89 36.35c-14.87,18.99 -48.31,64.71 -50.11,86.36 45.32,0 57.22,-81.23 120.22,-81.23 57.29,0 49.32,19.5 87.74,19.5 57.14,0 89.84,-107.23 123.47,-107.23 26.54,0 43.95,54.65 98.44,-18.54 8.72,-11.71 31.54,-42.94 31.54,-59.44 0,-12.43 0.99,-1.19 -3.25,-9.75 -15.81,4.22 -20.03,26.4 -37.03,44.22 -19.37,20.3 -41.16,4.38 -60.84,-1.9 -36,-11.49 -61.54,45.42 -116.59,45.42z"/>
   <path class="fil0" d="M4169.95 2518.97c-15.32,-8.11 -26.61,-14.41 -41.59,-23.39l-42.88 -22.1c-5.33,22.83 -33.96,53.24 -35.75,74.73l81.23 45.49c10.42,-19.69 21.74,-38.17 32.49,-58.49 28.19,14.92 53.25,30.68 81.23,45.49 8.71,-16.44 35.82,-61.12 39,-74.73 -18.65,-4.35 -69.34,-41.45 -84.48,-45.49 -1.95,8.37 -23.79,48.17 -29.25,58.49z"/>
   <path class="fil0" d="M5518.43 2457.24c5.96,8.14 41.45,31.94 51.99,39 -15.31,28.9 -50.54,60.49 -51.99,77.98 11.58,3.09 22.78,14.18 33.78,21.45 17.2,11.37 20.46,17.53 34.46,20.79l55.23 -77.98c-13.61,-3.63 -42.54,-27.25 -55.23,-35.75 8.6,-12.85 49.74,-66.34 51.98,-74.73 -4.44,-6.06 -57.69,-45.93 -68.23,-48.74 -4.1,15.33 -47.9,62.65 -51.99,77.98z"/>
   <path class="fil0" d="M3435.6 2908.89c15.3,-4.08 20.12,-19.41 25.96,-32.53 18.39,-41.3 29.52,-95.39 37.17,-141.54 8.74,-52.74 27.85,-159.47 27.85,-209.35 -21.08,5.62 -37.14,57.55 -45.49,74.73 -24.36,50.13 -30.21,142.54 -36.04,204.41 -2,21.3 -15.93,90.77 -9.45,104.27z"/>
   <path class="fil0" d="M1460 2671.69c52.6,-14.04 90.98,-336.17 90.98,-383.42 -16.74,4.46 -28.3,37.62 -34.8,52.92 -30.62,72.03 -23.03,30.33 -34.03,118.69 -3.09,24.71 -26.82,202.08 -22.15,211.8z"/>
   <path class="fil0" d="M2291.83 2798.41c10.74,-2.5 11.54,-3.63 17.1,-12.13 9.65,-14.75 22.16,-46.75 27.03,-63.96 14.31,-50.61 57.73,-283.83 46.85,-307.32 -16.52,5.98 -55.92,99.97 -59.78,115.68l-25.29 211.92c-2.26,18.65 -5.92,32.94 -5.92,55.82z"/>
   <path class="fil0" d="M5849.87 2918.64c36.88,0 118.04,-25.66 145.52,-52.69 31.31,-30.81 47.58,-97.12 60.34,-141.12 5.28,-18.23 9.18,-32.82 13.78,-51.22 5.47,-21.85 16.64,-36.2 1.32,-47.42 -30.11,20.16 -40.56,136.16 -95.33,190.61 -5.93,5.88 -10.54,7.89 -17.6,14.9 -12.51,12.4 -22.67,18.7 -36.52,28.47l-56.75 40.73c-9.28,6.72 -11.72,6.36 -14.76,17.74z"/>
   <path class="fil0" d="M3789.78 2395.5l3.65 -12.87c26.08,-6.9 28.84,-3.9 28.84,22.62 0,19.94 -27.89,-3.47 -32.49,-9.74zm-19.49 16.25c0,7.23 6.48,13.55 11.54,17.7 7.64,6.27 11.73,8.01 24.2,8.29 -4.61,19.79 -33.67,36.8 -50.58,46.9 -11.27,6.74 -19.93,12.35 -30.65,18.08 -11.74,6.28 -22.01,11.96 -29.24,22.76 23.11,0 59.09,-18.52 75.83,-28.15 17.93,-10.33 42.19,-31.98 54.15,-49.83 10.03,5.31 16.94,10.19 25.99,16.25 1.39,-16.57 15.07,-31.5 -13,-39 0.25,-11.02 21.08,-74.73 -16.25,-74.73 -12.96,0 -28.26,12.58 -34.91,20.33 -8.65,10.09 -17.08,23.86 -17.08,41.41z"/>
   <path class="fil0" d="M3237.39 2259.02c39.52,-18.96 33.71,10.13 29.24,29.25 -6.8,-1.59 -14.94,-4.87 -20.53,-8.72 -9.5,-6.55 -8.72,-5.85 -8.72,-20.54zm-19.49 19.5c0,27.26 7.75,22.31 35.74,35.75 -9.93,18.77 -35.01,35.64 -53.79,46.94 -7.84,4.72 -66.65,32.75 -52.36,38.88 12.26,5.26 113.35,-45.46 122.39,-79.32 10.03,5.3 16.95,10.18 26,16.24 10.75,-22.39 10.25,-33.57 -13,-38.99 2.25,-9.66 23.24,-74.73 -13,-74.73 -21.53,0 -51.98,34.16 -51.98,55.23z"/>
   <path class="fil0" d="M1713.45 2427.99c1.87,2.56 52.1,42.96 58.49,42.24 7.25,-0.82 45.49,-33.58 45.49,-61.74 0,-23.28 -35.37,-43.2 -51.99,-51.99 -17.69,26.43 -49.02,58.76 -51.98,71.49z"/>
   <path class="fil0" d="M1011.58 2538.47c9.66,2.58 21.19,12.71 29.75,18.99 4.35,3.18 8.76,6.54 12.87,9.88 8.68,7.06 4.4,7.06 15.87,10.12 49.87,-33.38 62.88,-72.26 11.15,-105.37 -8.71,-5.58 -9.4,-4.4 -17.64,-8.35 -8.99,13.41 -15.85,22.56 -26.72,35.01 -22.03,25.24 -24.9,23.33 -25.27,39.72z"/>
   <path class="fil0" d="M1820.67 2411.75c6.64,9.91 16.58,15.72 25.99,22.74l29.24 22.75c18.98,-4.42 45.83,-33.45 49.6,-54.22 6.22,-34.38 -44.07,-56.25 -46.34,-56.25 -10.31,0 -17.22,16.26 -30.21,31.53 -9.5,11.16 -20.46,21.79 -28.28,33.46z"/>
   <path class="fil0" d="M1157.81 3211.08l58.49 45.49c16.43,-14.28 75.84,-54.01 31.65,-93.38 -7.03,-6.27 -25.19,-18.09 -34.9,-20.35l-27.86 33.89c-10.96,14 -17.55,19.69 -27.38,34.35z"/>
   <path class="fil0" d="M1050.58 3224.08c4.89,7.31 50.21,42.25 58.49,42.25 7.04,0 45.49,-31.05 45.49,-61.74 0,-20.98 -35.1,-47.07 -55.23,-48.74 -6.33,23.67 -44.55,52.54 -48.74,68.23z"/>
   <path class="fil0" d="M901.11 2544.96l58.49 45.5c19.81,-10.49 48.74,-42.88 48.74,-61.74 0,-20.4 -36.28,-47.57 -55.23,-51.99 -18.76,35.44 -36.3,44.8 -51.99,68.23z"/>
   <path class="fil0" d="M4940.04 2346.76l55.24 45.49c19.45,-5.19 48.74,-36.34 48.74,-64.99 0,-20.75 -35.34,-44.86 -51.99,-48.74 -14.77,27.93 -35.43,43.51 -51.99,68.24z"/>
   <path class="fil0" d="M1866.16 2977.13c19.06,12.77 36.49,29.7 55.24,42.25 13.56,-3.63 81.78,-53.12 28.89,-93.88 -10.83,-8.35 -17.77,-16.2 -35.39,-16.6 -7.11,26.63 -42.51,44.91 -48.74,68.24z"/>
   <path class="fil0" d="M3237.39 2824.41c-13.21,8.85 -20.29,24.41 -27.17,41.22 -27.69,67.7 103.23,41.48 114.91,-2.23 -44.63,10.4 -19.31,16.25 -84.49,16.25 -16.19,0 -22.11,-8.35 -15.06,-21.08 3.47,-6.25 16.95,-18.38 22.91,-23.05 44.2,-34.62 47.39,-17.35 47.39,-46.85 -14.38,1.19 -35.94,27.03 -58.49,3.25 2.92,-4.37 1.83,-2.98 5.97,-7.03 0.44,-0.44 1.23,-1.13 1.69,-1.56l5.33 -4.4c9.3,2.48 22.75,20.29 22.75,-9.75 0,-33.71 -59.3,10.42 -52.82,33.91 2.85,10.35 11.78,14.11 17.08,21.34z"/>
   <path class="fil0" d="M5921.36 2525.47c2.61,1.81 8.02,6.49 9.74,6.49 44.02,0 83.13,-11.25 112.68,-27.04 29.7,-15.86 73.63,-63.55 59.94,-77.24 -7.01,-7.01 -34.53,17.75 -42.2,23.5 -7.56,5.67 -13.22,11.44 -20.02,15.72 -25.63,16.15 -77.52,31.33 -101.75,41.22 -11.71,4.78 -15.3,5.74 -18.39,17.35z"/>
   <path class="fil0" d="M4114.72 2382.5c16.89,8.11 39.67,4.27 59.52,1.03 22.16,-3.62 37.97,-9.18 54.28,-17.2 76.14,-37.46 87.62,-103.64 52.83,-77.52l-41.27 30.59c-47.64,36.34 -118.5,37.36 -125.37,63.1z"/>
   <path class="fil0" d="M5144.75 2889.4c30.45,17.1 181.97,-21.28 181.97,-100.73 -28.28,2.35 -44.78,43.01 -137.62,73.58 -22.31,7.35 -42.76,8.11 -44.35,27.15z"/>
   <path class="fil0" d="M2399.05 2298.02c4.36,-8.24 9.7,-18.99 17.53,-24.92 12.32,-9.34 17.19,-9.06 24.72,2.18 -4.85,18.17 -23.68,18.42 -42.25,22.74zm-13 -3.25c-19.66,-4.58 -24.34,-16.39 -43.76,-1.6 -10.42,7.93 -23.18,24.98 -24.48,40.59 16.14,-1.34 16.74,-11.13 29.24,-19.5 20.77,4.84 18.65,9.74 45.49,9.74 26.99,0 76.61,-28.12 64.99,-77.98 -38.9,-9.06 -53.57,14.88 -71.49,48.74z"/>
   <path class="fil0" d="M2070.87 3032.36c0,21.16 26.9,24.99 -27.8,46.94 -31.76,12.74 -33.93,4.75 -43.68,18.06 8.05,12.01 5.63,9.74 32.49,9.74 22.04,0 38.08,-7.14 49.56,-18.67 32.49,-32.61 18.86,-57.54 15.43,-72.32 12.17,-18.18 29.24,-22.21 29.24,-45.49 0,-33.17 -55.24,22.36 -55.24,61.74z"/>
   <path class="fil0" d="M1326.77 2528.73c0,9.44 6.84,11.85 9.75,22.74 -5.15,5.93 -8.48,9.16 -16.11,13.14 -17.39,9.06 -23.11,12.5 -42.23,16.26 -14.07,2.77 -16.39,0.61 -19.66,12.84 4.34,5.92 2.47,10.04 30.22,7.56 17.33,-1.56 22.95,-1.81 34.93,-7.41 14.16,-6.62 35.59,-32.77 35.59,-52.14 0,-23.65 -9.53,-27.5 3.77,-41.64 26.63,-28.33 24.07,-24.27 18.98,-46.09 -17,0.38 -25.61,11.07 -36.47,28.52 -6,9.63 -18.77,32.92 -18.77,46.22z"/>
   <path class="fil0" d="M3572.07 2421.49c12.54,-46.98 59.21,-26.31 31.95,-7.26 -9.1,6.35 -17.66,7.26 -31.95,7.26zm-16.25 0c-19.78,-10.47 -35,-18.43 -53.49,8.25 -6.91,9.96 -11.17,15.93 -11.5,30.75 16.53,-4.42 16.87,-19.5 29.25,-19.5 16.22,0 15.55,9.74 42.24,9.74 52.54,0 96.33,-81.23 48.74,-81.23 -27.22,0 -45.27,33.15 -55.24,51.99z"/>
   <path class="fil0" d="M6249.54 2444.24c17,0 13.96,20.97 19.49,32.49 -27.31,14.45 -26.75,9.35 -38.99,6.49 -6.18,-26.52 11.88,-38.99 19.5,-38.99zm-35.75 32.49c0,65.8 71.48,29.25 71.48,-6.5 0,-17.83 2.14,-29.11 -6.33,-42.41 -24.09,-37.83 -65.15,15.45 -65.15,48.92z"/>
   <path class="fil0" d="M1239.04 2366.26c-10.35,-7.59 -2.65,-5.41 -13,-13 -6.51,9.73 -16.46,22.75 -32.49,22.75 -13.24,0 -6.5,-7 -6.5,-22.75 -12.81,1.07 -12.22,3.26 -16.55,12.7 -12.31,26.85 -11.98,65.44 40.67,37.17 18.07,-9.71 4.55,-1.12 18.13,-1.12 21.25,0 38.99,-28.38 38.99,-48.75 0,-12.42 0.99,-1.18 -3.25,-9.74 -16.12,5.84 -0.56,7.32 -23.88,21.61 -0.43,0.26 -1.46,0.68 -2.11,1.14z"/>
  </g>
  <g id="_1854018539536">
   <path class="fil0" d="M2933.65 1950.99l796.01 -1858.35 796.02 1858.35 -1592.03 0zm-55.3 36.46l1702.65 0 -425.66 -993.72 -425.68 -993.72 -851.31 1987.45zm0 0z"/>
   <path class="fil0" d="M4469.99 1914.29l-740.34 -1728.35 -740.32 1728.35 1480.66 0zm-790.11 -1102.2l-22.85 69.85 59.42 -43.3 59.39 43.3 -22.85 -69.85 59.56 -43.05 -73.52 0.13 -22.57 -69.93 -22.61 69.93 -73.52 -0.13 59.56 43.05zm-193.53 397.31l-8.64 -26.74 -8.63 26.74 -28.1 -0.05 22.77 16.45 -8.74 26.71 22.71 -16.55 22.71 16.55 -8.74 -26.71 22.77 -16.45 -28.1 0.05zm44.33 -109.47l-28.1 0.05 -8.64 -26.74 -8.63 26.74 -28.1 -0.05 22.77 16.44 -8.74 26.69 22.71 -16.53 22.71 16.53 -8.74 -26.69 22.77 -16.44zm45.86 -76.69l-28.1 0.05 -8.63 -26.74 -8.64 26.74 -28.1 -0.05 22.77 16.47 -8.74 26.69 22.71 -16.56 22.71 16.56 -8.74 -26.69 22.77 -16.47zm51.47 -24.16l-8.74 -26.72 22.79 -16.45 -28.1 0.06 -8.66 -26.74 -8.63 26.74 -28.1 -0.06 22.77 16.45 -8.72 26.72 22.68 -16.55 22.71 16.55zm340.39 183.57l-8.64 26.74 -28.1 -0.05 22.77 16.45 -8.74 26.71 22.71 -16.55 22.71 16.55 -8.74 -26.71 22.77 -16.45 -28.11 0.05 -8.63 -26.74zm-31.1 -82.67l-28.1 -0.05 22.77 16.44 -8.74 26.69 22.71 -16.53 22.71 16.53 -8.74 -26.69 22.77 -16.44 -28.1 0.05 -8.64 -26.74 -8.63 26.74zm-43.98 -76.69l-28.1 -0.05 22.77 16.47 -8.74 26.69 22.71 -16.56 22.71 16.56 -8.74 -26.69 22.76 -16.47 -28.1 0.05 -8.63 -26.74 -8.64 26.74zm-78.32 -50.93l-8.74 26.72 22.71 -16.55 22.68 16.55 -8.71 -26.72 22.76 -16.45 -28.1 0.06 -8.63 -26.74 -8.66 26.74 -28.1 -0.06 22.79 16.45zm-95.42 95.4l38.37 0.22c9.47,0.08 31.1,-47.63 4.68,-72.47 -20.86,-19.6 -43.05,-55.64 -43.05,-55.64 0,0 -22.17,36.03 -43.05,55.64 -26.42,24.83 -4.77,72.54 4.68,72.47l38.37 -0.22zm11.24 48.64l0 33.65c0,0.71 -0.1,1.42 -0.3,2.1l15.55 0c-0.19,-0.68 -0.31,-1.39 -0.31,-2.1l0 -33.65c0,-4.52 3.7,-8.2 8.2,-8.2 4.49,0 8.19,3.68 8.19,8.2l0 33.65c0,0.71 -0.1,1.42 -0.27,2.1l9.61 0 0 -66.39 -104.32 0 0 66.39 16.18 0c-0.17,-0.68 -0.28,-1.39 -0.28,-2.1l0 -33.65c0,-4.52 3.68,-8.2 8.2,-8.2 4.49,0 8.17,3.68 8.17,8.2l0 33.65c0,0.71 -0.08,1.42 -0.27,2.1l15.52 0c-0.17,-0.68 -0.28,-1.39 -0.28,-2.1l0 -33.65c0,-4.52 3.68,-8.2 8.2,-8.2 4.49,0 8.19,3.68 8.19,8.2zm-72.06 87.66c40.71,9.17 82.03,9.53 123.99,0l0 -46.76c-41.34,9.5 -82.67,11.69 -123.99,0l0 46.76zm99.94 116.76c0,0 1.28,4.19 5.97,10.87 4.68,6.67 26.09,23.6 26.09,23.6l-19.42 0.6 -0.71 20.34 -14.02 11.9c0,0 5.86,15.69 3.97,21.3 -1.85,5.6 -3.73,5.14 -10.76,8.41 -7.03,3.27 -1.17,14.02 -1.17,14.02l38.15 0.92c0,0 1.17,1.88 7.49,6.78 6.32,4.9 23.39,11 24.56,11 1.17,0 4.44,5.37 4.44,5.37l13.34 7.24 2.34 -7.96 7.24 -0.22c0,0 0,6.32 2.09,8.88 2.1,2.56 9.37,-4.68 11,-8.17 1.64,-3.51 2.1,-15.91 2.1,-15.91 0,0 -16.12,7.24 -31.81,7.24 -15.69,0 -39.29,-20.81 -39.29,-20.81 0,0 7.95,-8.66 7.95,-17.29 0,-8.66 -9.13,-9.12 -18.49,-15.9 -9.34,-6.78 -3.73,-13.32 -3.73,-13.32 0,0 6.31,-1.88 12.85,-0.95 6.56,0.95 3.05,4.22 9.61,7.71 6.54,3.51 27.12,6.78 27.12,6.78l2.8 15.19c2.81,15.2 11.01,29.36 16.8,28.65 5.8,-0.71 17.05,-9.2 20.34,-13.64 3.27,-4.45 5.5,-20.56 5.5,-20.56 0,0 11.46,1.87 15.69,3.27 4.19,1.41 15.44,2.8 15.44,2.8 0,0 -0.24,32.52 -0.24,39.3 0,6.78 1.17,10.05 2.59,11.9 1.39,1.88 6.78,-1.39 7.71,-2.56 0.92,-1.17 1.17,-44.16 1.17,-44.16 0,0 7.96,0.22 11.93,0.22 3.97,0 23.39,-0.22 23.39,-0.22 0,0 0.24,0.92 0.71,4.19 0.46,3.27 1.77,25.6 1.77,25.6l5.6 3.51 1.88 -34.78c0,0 10.05,-4.68 8.17,-7.24 -1.87,-2.59 -11.92,-1.41 -11.92,-1.41 0,0 -4.23,-15.66 -6.54,-20.56 -2.34,-4.91 -6.1,-24.78 -6.1,-24.78l6.32 0.22c0,0 6.32,9.12 9.59,14.51 3.29,5.36 15.92,32.49 19.66,35.54 3.77,3.02 7.24,-2.59 6.78,-4.68 -0.46,-2.1 -21.76,-34.61 -25.49,-39.05 -3.76,-4.45 0,-11.23 0,-11.23 0,0 6.32,4.23 9.83,8.2 3.49,3.97 12.28,18.22 16.12,22.65 3.87,4.46 13.59,-0.46 13.59,-0.46 0,0 -19.19,-26.63 -24.81,-35.07 -5.6,-8.41 -39.29,-39.27 -90.76,-68.7 -51.47,-29.47 -116.06,-38.34 -116.06,-38.34l7.98 10.73 -7.95 7.95 38.12 0 0.92 7.24c0,0 -38.34,7.73 -39.75,8.19 -1.42,0.46 0.46,10.51 0.46,10.51 0,0 2.8,-0.92 24.1,-4.9 21.29,-3.97 23.39,13.32 23.39,13.32 0,0 0,0.24 -15.44,5.85 -15.45,5.61 -40.23,20.34 -40.23,20.34zm41.86 -9.12c9.59,-3.73 35.1,-0.93 35.1,-0.93l-34.86 34.83c0,0 -12.17,-4.68 -16.39,-8.19 -4.2,-3.51 -7.92,-9.06 -8.42,-8.64 0,0 14.98,-13.34 24.56,-17.07zm9.59 38.09l29.24 -30.14c0,0 19.42,3.51 26.2,8.87 6.78,5.37 10.54,15.2 10.29,16.59 -0.22,1.42 3.97,7.49 5.14,6.32 1.18,-1.17 3.27,-9.59 3.27,-9.59 0,0 6.32,-3.02 11.71,-1.39 5.39,1.63 5.6,16.36 5.6,16.36l0.96 40.2 -27.61 -4.45c0,0 -1.18,-6.07 0.46,-14.02 1.63,-7.96 1.63,-15.42 1.63,-15.42 0,0 -8.41,-2.34 -9.12,-0.95l-10.05 21.27c0,0 -24.34,-11.68 -31.83,-17.75 -7.5,-6.08 -15.91,-15.91 -15.91,-15.91zm-4.22 7.5l0.49 0.57c2.01,2.45 10.02,12.01 14.49,14.84 5.15,3.27 34.86,20.59 34.86,20.59l1.18 23.14c0,0 -1.86,7.46 -6.79,-1.87 -4.9,-9.34 -10.54,-17.75 -12.39,-20.56 -1.87,-2.81 -27.15,-17.54 -30.42,-20.34 -3.27,-2.81 -6.78,-8.87 -6.78,-8.87 0,0 -0.95,-4.69 2.21,-6.1l3.16 -1.39zm107.51 41.61l0.22 -48.61c0,0 2.59,-1.42 7.74,0.92 5.14,2.34 8.41,8.41 11.92,13.78 3.51,5.39 10.54,34.61 10.54,34.61l-30.42 -0.71zm-267.74 -40.91c7.49,3.73 12.39,7.95 21.05,10.05 8.66,2.09 10.54,-3.98 10.54,-3.98 0,0 -0.24,-3.73 -2.83,-4.44 -2.56,-0.71 -4.44,-11.92 -13.56,-18.95 -9.13,-7 -20.13,3.51 -20.13,3.51l-2.55 5.39c0,0 0,4.66 7.49,8.42zm-161.89 85.78c0,0 10.76,-7.24 11.93,-12.6 1.17,-5.4 -3.05,-9.37 -3.05,-9.37 0,0 -8.18,5.39 -9.34,13.56 -1.17,8.19 0.46,8.41 0.46,8.41zm224.31 10.43l-47.25 -39.41 34.15 -28.05 -1.64 -15.91 -39.29 37.64 -36.02 -40.22 2.56 -9.34c0.95,-3.27 5.14,-2.34 5.14,-2.34 0,0 0.24,-7.71 2.81,-13.78 2.59,-6.09 5.14,-2.12 10.08,-5.85 4.9,-3.73 -2.59,-16.37 -2.59,-16.37 0,0 -14.97,8.19 -21.05,11.93 -6.1,3.73 0.24,8.66 0.24,13.55 0,4.91 -5.18,10.76 -5.18,10.76l-25.02 -32.97 39.68 -25.95 -7.63 -4.33 -35.88 22.57 -12.06 -19.64c0,0 5.96,-7.73 12.99,-13.34 7.03,-5.6 28.32,-12.25 28.32,-12.25 0,0 -1.17,3.97 7.71,10.15 8.91,6.21 19.2,6.32 19.2,6.32l6.78 27.58c0,0 16.82,-4.68 22.46,0.23 5.61,4.92 -4,3.29 -10.78,6.09 -6.78,2.81 -3.27,3.97 -0.22,9.1 3.02,5.14 9.13,-4.44 14.97,-4.19 5.83,0.22 7.24,6.07 10.97,6.78 3.77,0.71 5.15,-3.76 5.15,-4.91 0,-1.17 -16.61,-21.29 -14.95,-26.44 1.63,-5.13 12.85,-3.49 12.85,-3.49l-10.29 -56.12c0.21,1.19 -25.33,5.86 -25.33,5.86 0,0 -56.15,9.36 -108.58,46.75 -52.38,37.41 -86.78,94.68 -86.78,94.68 0,0 -0.22,7.49 1.87,8.66 2.1,1.18 11,-3.76 11,-3.76 0,0 16.61,12.39 26.2,18.49 9.59,6.08 46.1,26.42 46.1,26.42l2.1 16.58 7.49 -7.45c0,0 37.09,14.7 43.41,14.7 6.32,0 8.41,-4.79 8.41,-4.79l-54.73 -29.23c-54.76,-29.22 -73.8,-47.22 -73.8,-47.22 0,0 5.14,-8.41 24.78,-33.19 19.66,-24.78 57.81,-45.59 57.81,-45.59l14.27 22.44c0,0 -5.86,5.36 -25.05,22.19 -19.18,16.83 -39.52,46.75 -39.52,46.75l12.39 5.86c0,0 9.37,-18 22.22,-33.65 12.88,-15.66 35.46,-31.67 35.46,-31.67l25.98 32.49 -23.05 21.41 4.23 11.68 26.41 -23.47 37.69 40.2 -32.76 43.49 13.55 2.56 28.79 -39.38 42.7 35.75 -9.27 13.21 6.1 2.69c0,0 6.08,-6.18 10.29,-10.16 4.19,-3.97 3.38,-11.1 3.38,-11.1zm-24.21 -232.15l35.92 258.53c0,0 0.46,0.14 4.22,3.05 3.73,2.91 8.52,-2.59 8.52,-2.59l27.15 -258.99 -75.81 0zm-1.17 345.18c-13.21,-19.05 -37.04,-41.25 -79.06,-51.68 -23.66,-5.88 -48.01,-9.4 -70.64,-11.44 -55.2,-5.01 -100.16,-1.19 -100.16,-1.19 0,0 12.17,13.56 36.49,14.97 20.61,1.18 61.66,1.04 89.11,4.06 4.96,0.57 9.5,1.22 13.37,2.01 25.27,5.14 29.02,7 40.24,13.56 11.23,6.54 15.91,11.68 15.91,11.68 0,0 -7.73,-0.1 -18.84,-1.26 -11.24,-1.17 -25.97,-3.4 -39.65,-7.62 -27.12,-8.42 -73.44,-1.42 -73.44,-1.42 0,0 5.61,13.56 33.23,14.02 27.59,0.46 100.81,2.54 100.81,2.54 0,0 10.08,8.68 13.34,12.91 3.26,4.19 4.22,9.23 4.22,9.23 0,0 -34.86,-0.71 -52.18,-3.51 -17.32,-2.81 -31.34,-5.15 -31.34,-5.15 0,0 21.05,20.1 57.54,25.71 36.49,5.63 76.52,5.5 76.52,5.5 0,0 -3.08,-15.09 -15.46,-32.93zm173.51 -58.87c-51.41,12.74 -75.59,43.14 -86.4,63.8 -6.32,12.06 -8.11,20.81 -8.11,20.81 0,0 40.03,0.1 76.52,-5.5 36.49,-5.61 57.54,-25.71 57.54,-25.71 0,0 -14.02,2.34 -31.34,5.15 -17.32,2.81 -52.18,3.51 -52.18,3.51 0,0 0.92,-4.9 4.08,-9.06 0.06,-0.06 0.09,-0.11 0.14,-0.17 3.27,-4.22 13.34,-12.91 13.34,-12.91 0,0 8.96,-0.24 21.81,-0.6 23.86,-0.65 61.08,-1.63 79,-1.93 27.61,-0.46 33.22,-14.02 33.22,-14.02 0,0 -46.32,-7.03 -73.44,1.42 -6.31,1.93 -12.82,3.46 -19.14,4.65 -20.86,3.95 -39.35,4.22 -39.35,4.22 0,0 4.69,-5.14 15.91,-11.68 11.22,-6.56 14.97,-8.41 40.25,-13.56 5.55,-1.14 12.47,-2.01 20.12,-2.67 27.07,-2.37 63.37,-2.32 82.35,-3.4 24.32,-1.42 36.49,-14.98 36.49,-14.98 0,0 -43.44,-3.68 -97.33,0.92 -23.42,2.02 -48.8,5.59 -73.48,11.71zm-69.6 -30.69c-58.03,11.71 -64.57,38.34 -64.57,38.34 0,0 -15.46,-22.44 -36.97,-34.61 -21.55,-12.15 -72.06,-13.07 -72.06,-13.07l-119.39 -0.22 -115.38 -0.22 -28.21 -0.05c0,0 0,5.64 5.15,9.83 3.37,2.75 5.94,7.68 33.65,9.23 14.7,0.82 36.52,0.65 69.28,-1.28 18.77,-1.12 36.43,-1.09 52.75,-0.32 65.9,3.1 109.72,18.19 113.82,18.54 5.15,0.49 36.98,9.37 67.86,43.96 6.15,6.91 10.81,14.24 14.35,21.62 14.14,29.55 10.63,60.32 17,71.89 7.95,14.51 22.46,17.78 29.95,16.83 7.49,-0.92 13.1,-8.41 10.29,-11.22 -2.81,-2.81 -12.17,-17.29 -16.85,-43 -2.07,-11.38 -0.85,-23.86 1.99,-35.35 3.56,-14.51 9.64,-27.5 14.86,-34.8 9.37,-13.07 38.84,-30.39 65.03,-40.2 15.91,-5.96 61.84,-10.35 109.44,-13.42 30.93,-1.99 62.58,-3.43 87.09,-4.36 13.28,-0.49 23.55,-1.28 31.5,-2.23 29.3,-3.49 26.99,-8.99 26.99,-8.99 0,0 -8.39,0.05 -22.36,0.22 -24.48,0.27 -66.15,0.87 -110.29,2.1 -65.62,1.85 -136.72,5.12 -164.94,10.78zm257.2 348.34c0,0 -30.41,7 -39.54,8.87 -9.13,1.86 -14.49,0.93 -14.49,0.93 0,0 1.39,24.78 16.61,31.56 15.19,6.78 40.68,5.14 40.68,5.14 0,0 -8.41,-6.32 -10.51,-16.12 -2.09,-9.83 -2.34,-13.34 0.71,-18.5 3.02,-5.12 6.54,-11.9 6.54,-11.9zm1.88 -110.34l47.63 88.34c0,0 -24.81,13.31 -33.01,19.41 -8.17,6.08 -11.92,12.39 -14.27,21.02 -2.34,8.66 -0.22,17.32 10.76,23.61 11,6.32 34.63,-3.51 34.63,-3.51 0,0 29.96,-1.86 93.57,-95.36 63.65,-93.52 116.74,-129.73 116.74,-129.73l-91.12 1.04c0,0 -2.58,-10.16 -4.58,-16.94 -1.99,-6.78 -4.22,-22.32 -1.39,-38.2 2.81,-15.91 12.96,-36.14 12.96,-36.14 0,0 -12.74,6.32 -23.39,13.56 -10.64,7.24 -18.95,13.56 -37.19,31.81 -18.24,18.22 -70.64,103.31 -84.23,113.61 -13.55,10.29 -27.12,7.5 -27.12,7.5zm-662.3 85.07c218.37,73.77 448.83,69.93 689.67,-0.93l-65.49 -120.63c-195.98,44.01 -381.73,43.28 -557.72,0l-66.45 121.56zm86.06 -25.16c8.33,0.68 16.72,1.39 25.1,2.1 -0.68,4.57 -0.51,8.22 0.58,10.83 1.77,4.22 5.26,6.64 10.46,7.35 3.81,0.5 7.03,-0.05 9.61,-1.77 2.55,-1.68 4.17,-3.86 4.76,-6.48 0.58,-2.45 0.03,-4.82 -1.46,-7.03 -1.53,-2.23 -5.56,-4.58 -12.12,-7.3 -10.62,-4.41 -17.59,-9.58 -20.88,-15.03 -3.32,-5.47 -3.9,-11.85 -1.66,-19.2 1.46,-4.79 4,-9.18 7.59,-13.15 3.56,-3.95 8.01,-6.86 13.27,-8.68 5.26,-1.83 11.82,-2.15 19.85,-1.15 9.91,1.23 16.97,4.5 21.32,9.67 4.39,5.18 6.21,12.69 5.42,22.8 -8.17,-0.31 -16.2,-0.69 -24.2,-1.15 0.38,-4.41 -0.22,-7.73 -1.74,-9.94 -1.55,-2.23 -4.04,-3.54 -7.49,-3.97 -2.86,-0.36 -5.18,0.1 -6.95,1.31 -1.85,1.25 -3.08,2.91 -3.59,4.98 -0.38,1.5 -0.09,2.92 0.73,4.33 0.82,1.42 3.29,2.95 7.49,4.6 10.35,4.14 17.68,8.06 21.95,11.47 4.28,3.43 7.22,7.32 8.72,11.78 1.47,4.47 1.8,9.34 0.85,14.6 -1.12,6.15 -3.73,11.68 -7.9,16.53 -4.22,4.88 -9.51,8.39 -15.93,10.38 -6.28,1.93 -13.86,2.34 -22.6,1.12 -15.25,-2.13 -24.88,-6.95 -28.75,-14.08 -3.82,-7.03 -4.58,-15.37 -2.4,-24.92zm145 32.02c-10.76,-0.63 -21.54,-1.28 -32.13,-2.13 -2.28,5.18 -4.47,10.35 -6.7,15.5 -9.86,-0.76 -19.63,-1.6 -29.32,-2.59 8.41,-15.44 16.77,-30.86 24.61,-46.51 7.76,-15.55 15.11,-31.24 22.28,-46.87 9.01,0.79 18.13,1.42 27.23,2.05 4.03,16.39 8.17,32.87 12.87,49.12 4.74,16.31 9.97,32.54 15.55,48.79 -10.35,-0.32 -20.58,-0.68 -30.77,-1.19 -1.28,-5.4 -2.5,-10.78 -3.63,-16.18zm-4.24 -21.24c-1.14,-5.86 -2.28,-11.73 -3.32,-17.62 -1.04,-5.86 -2.01,-11.74 -2.91,-17.62 -2.18,5.69 -4.31,11.38 -6.48,17.02 -2.21,5.69 -4.52,11.3 -6.78,16.94 6.45,0.5 12.99,0.87 19.5,1.28zm48.99 -57.29c7.73,0.24 15.6,0.41 23.5,0.63 5.53,8.95 11.17,17.83 17.05,26.63 5.87,8.85 12.09,17.62 18.46,26.42 -0.82,-8.79 -1.55,-17.6 -2.29,-26.42 -0.73,-8.79 -1.6,-17.59 -2.34,-26.41 7.92,-0.11 15.92,-0.25 23.88,-0.38 2.07,15.9 4.14,31.81 6.21,47.68 2.07,15.88 4.14,31.78 6.21,47.69 -9.34,0.27 -18.68,0.57 -27.96,0.68 -6.68,-8.72 -13.24,-17.4 -19.52,-26.14 -6.24,-8.72 -12.15,-17.6 -18.01,-26.47 0.28,8.79 0.6,17.59 0.93,26.36 0.3,8.79 0.51,17.56 0.85,26.36 -9.29,-0.1 -18.52,-0.24 -27.75,-0.35 0.11,-16.04 0.27,-32.08 0.41,-48.15 0.17,-16.04 0.22,-32.08 0.38,-48.11zm89.34 0.13c25.57,-1.09 50.95,-2.67 76.03,-4.79 2.18,7.77 4.46,15.47 6.64,23.23 -8.77,0.77 -17.56,1.53 -26.36,2.27 2.91,11.82 5.8,23.66 8.64,35.51 2.82,11.85 5.74,23.69 8.6,35.54 -9.78,0.73 -19.42,1.44 -29.19,2.04 -2.34,-11.9 -4.66,-23.83 -7,-35.7 -2.34,-11.9 -4.63,-23.82 -7,-35.73 -8.93,0.44 -17.89,0.85 -26.8,1.2 -1.12,-7.84 -2.34,-15.69 -3.56,-23.56zm116.36 87.77c-4.87,-15.64 -9.72,-31.24 -14.54,-46.84 -4.82,-15.6 -9.69,-31.24 -14.49,-46.84 13.48,-1.44 26.96,-3.02 40.22,-4.73 7.38,-0.96 13.27,-1.01 17.73,-0.09 4.46,0.93 8.77,3.22 12.96,6.87 4.14,3.67 7.49,8.44 10.08,14.22 2.23,5.06 3.32,9.55 3.08,13.53 -0.27,4.01 -1.74,7.43 -4.14,10.29 -1.55,1.83 -4.03,3.51 -7.49,5.06 3.51,0.65 6.32,1.45 8.17,2.32 1.23,0.6 3.27,1.99 6.1,4.11 2.92,2.15 4.91,3.81 6.1,5.04 3.95,4.03 8.06,8.08 12.09,12.06 4.09,4 8.28,7.98 12.42,11.92 -10.13,1.82 -20.37,3.7 -30.66,5.33 -4.36,-4.3 -8.66,-8.6 -12.93,-12.93 -4.28,-4.3 -8.5,-8.63 -12.64,-13.01 -3.18,-3.37 -5.55,-5.58 -7.43,-6.45 -2.42,-1.15 -4.87,-1.55 -7.27,-1.26 -0.78,0.08 -1.58,0.19 -2.26,0.27 2.21,6.29 4.44,12.55 6.67,18.84 2.24,6.27 4.41,12.53 6.7,18.79 -9.45,1.17 -19.01,2.37 -28.46,3.49zm8.82 -58.63c3.6,-0.44 7.27,-0.95 10.82,-1.44 1.17,-0.17 3.21,-0.92 6.26,-2.21 1.47,-0.6 2.51,-1.74 2.92,-3.46 0.43,-1.72 0.27,-3.56 -0.52,-5.55 -1.22,-3 -2.94,-5.15 -5.2,-6.54 -2.26,-1.37 -5.58,-1.77 -10.08,-1.18 -3.62,0.5 -7.27,0.96 -10.89,1.42 2.23,6.32 4.46,12.64 6.69,18.95zm46.32 -46.37c7.63,-1.31 15.28,-2.61 22.91,-3.92 7.71,14.73 15.44,29.46 23.15,44.19 7.68,14.7 15.38,29.47 23.06,44.17 -8.74,1.87 -17.56,3.78 -26.31,5.67 -7.1,-15.04 -14.27,-30.06 -21.38,-45.05 -7.1,-15.03 -14.27,-30.04 -21.43,-45.06zm-465.08 122.92c-9.13,-1.87 -39.51,-8.87 -39.51,-8.87 0,0 3.48,6.78 6.53,11.9 3.05,5.15 2.81,8.66 0.71,18.5 -2.13,9.8 -10.54,16.12 -10.54,16.12 0,0 25.51,1.64 40.7,-5.14 15.23,-6.78 16.61,-31.56 16.61,-31.56 0,0 -5.36,0.92 -14.51,-0.93zm-68.52 -126.71c-13.59,-10.29 -65.98,-95.39 -84.22,-113.61 -18.24,-18.24 -26.58,-24.56 -37.2,-31.81 -10.64,-7.24 -23.42,-13.56 -23.42,-13.56 0,0 10.19,20.23 13,36.14 2.81,15.88 0.59,31.42 -1.39,38.2 -1.99,6.78 -4.58,16.94 -4.58,16.94l-91.11 -1.04c0,0 53.1,36.22 116.74,129.73 63.62,93.51 93.57,95.36 93.57,95.36 0,0 23.64,9.83 34.61,3.51 11,-6.29 13.13,-14.95 10.78,-23.61 -2.34,-8.63 -6.09,-14.95 -14.27,-21.02 -8.19,-6.1 -33,-19.41 -33,-19.41l47.63 -88.34c0,0 -13.56,2.8 -27.12,-7.5zm250.48 -137.38c-2.61,-2.92 -6.29,-6.19 -9.37,-8.86 -25.92,-0.68 -51.84,-1.46 -77.8,-2.04l15.42 2.59c10.45,1.74 20.88,3.46 31.31,5.14 12.39,1.99 26.97,2.78 40.44,3.16zm62.57 -1.89c-2.79,-0.21 -5.57,-0.45 -8.34,-0.74 5.69,9.13 11.52,21.03 13.44,30.73l1.53 7.81 -7.96 0c-25.35,0.03 -52.52,-1.74 -77.52,-5.58 -19.88,-3.05 -46.19,-13.15 -61.08,-27.47l-14.43 -13.86c-5.33,-0.11 -10.68,-0.22 -15.99,-0.33 -10.46,-0.17 -21.9,-2.15 -30.6,-8.31 -3.24,-2.31 -7,-5.96 -8.55,-9.72l-3.24 -7.74 8.31 -1.27c21.76,-3.27 55.28,-4.91 76.38,1.63 5.1,1.59 10.35,2.89 15.65,3.97 -4.52,-2.24 -9,-4.58 -13.4,-7.03l-3.18 -0.64c-4.19,-0.85 -8.52,-1.41 -12.8,-1.9 -29.44,-3.27 -59.24,-2.34 -88.72,-4.04 -13.7,-0.79 -31.51,-6.56 -41.01,-17.13l-8.79 -9.81 13.12 -1.09c9.88,-0.85 20.07,-1.14 29.96,-1.33 20.55,-0.35 41.2,0.19 61.71,1.72 -1.83,-1.53 -3.65,-3.09 -5.45,-4.66 -2.65,-0.16 -5.3,-0.31 -7.95,-0.43 -17.35,-0.82 -34.73,-0.74 -52.07,0.3 -21.48,1.27 -44.01,2.41 -65.64,1.49 68.71,110.81 189.2,184.29 326.35,184.29 142.5,0 266.99,-79.3 334.14,-197.35 -9.1,0.93 -18.29,1.42 -27.4,1.77 -28.97,1.09 -57.98,2.48 -86.9,4.33l-7.78 0.51c-1.44,1.32 -2.89,2.62 -4.35,3.9l2.27 -0.2c23.01,-1.95 46.24,-2.67 69.34,-2.23 9.55,0.19 19.44,0.5 29,1.31l11.85 1.04 -7.95 8.85c-9.37,10.43 -27.05,16.12 -40.57,16.91 -27.37,1.59 -54.76,1.01 -82.16,3.41 -6.46,0.58 -13.1,1.28 -19.47,2.56 -2.19,0.44 -4.49,0.91 -6.84,1.39 -4.77,2.94 -9.61,5.74 -14.53,8.42l2.28 -0.43c6.23,-1.17 12.45,-2.63 18.49,-4.51 21,-6.51 54.44,-4.87 76.11,-1.58l7.52 1.12 -2.92 7.03c-1.53,3.64 -5.19,7.24 -8.36,9.45 -8.6,6.1 -19.93,8.06 -30.25,8.22 -26.31,0.44 -52.64,1.23 -78.94,1.93 -6.56,0.17 -13.15,0.41 -19.72,0.55 -3.46,2.99 -7.71,6.78 -10.46,10.1 13.87,-0.38 29.03,-1.14 41.86,-3.22 10.46,-1.69 20.89,-3.4 31.32,-5.14l18.98 -3.22 -13.89 13.34c-14.78,14.22 -40.97,24.27 -60.75,27.31 -24.96,3.84 -52.09,5.59 -77.42,5.56l-7.24 0 1.45 -7.1c1.41,-7.16 5.31,-15.99 8.63,-22.39 0.51,-0.97 1.04,-1.93 1.56,-2.88 -3.33,0.49 -6.67,0.92 -10.02,1.31 -0.2,0.75 -0.39,1.5 -0.58,2.22 -2.56,10.46 -3.84,22.09 -1.91,32.7 1.77,9.73 4.55,19.59 8.66,28.6 1.25,2.72 4.27,8.91 6.42,11.03 0.68,0.71 1.26,1.5 1.69,2.37 4.58,9.31 -7.22,18.65 -15.72,19.72 -14.7,1.86 -29.41,-7.43 -36.36,-20.1 -4.24,-7.76 -5.14,-22.55 -6.32,-31.45 -1.85,-14.16 -4.63,-27.8 -10.83,-40.77 -0.52,-1.1 -1.07,-2.18 -1.64,-3.25zm-211.65 -107.21c-56.06,-63.17 -90.54,-148.97 -90.54,-243.5 0,-122.84 58.16,-230.95 146.31,-293.82 -125.45,65.89 -211.34,200.15 -211.34,355.04 0,65.61 15.41,127.51 42.71,182.07l112.86 0.21zm577.16 -3.35c26.32,-53.81 41.17,-114.58 41.17,-178.93 0,-145.63 -75.93,-273.02 -189.29,-342.49 78.86,64.13 129.87,166.24 129.87,281.27 0,93.86 -33.98,179.1 -89.34,242.14 34.76,-0.95 69.56,-1.58 104.34,-1.96l3.25 -0.03z"/>
  </g>
  <path class="fil1" d="M-0 3299.47l65.28 0 80.86 159.5 80.12 -159.5 64.91 0 0 259.65 -52.67 0 0 -175.45 -73.81 149.12 -37.84 0 -74.18 -149.12 0 175.45 -52.67 0 0 -259.65zm540.44 259.65l-20.4 -50.45 -120.18 0 -20.4 50.45 -60.46 0 112.76 -259.65 60.46 0 110.9 259.65 -62.69 0zm-121.29 -97.55l81.98 0 -40.8 -100.89 -41.18 100.89zm321.23 -162.1c26.46,0 50.07,5.5 70.85,16.51 20.77,11 36.9,26.33 48.41,45.99 11.5,19.66 17.25,42.11 17.25,67.32 0,25.22 -5.87,47.67 -17.62,67.32 -11.74,19.66 -28.13,35 -49.15,46 -21.01,11.01 -45,16.51 -71.95,16.51l-107.94 0 0 -259.65 110.16 0zm1.48 210.31c14.35,0 27.26,-3.4 38.76,-10.2 11.51,-6.8 20.47,-16.26 26.9,-28.38 6.42,-12.12 9.64,-25.97 9.64,-41.54 0,-15.58 -3.4,-29.55 -10.2,-41.92 -6.8,-12.36 -16.07,-21.95 -27.82,-28.75 -11.75,-6.8 -25.03,-10.2 -39.88,-10.2l-50.44 0 0 160.98 53.04 0zm333.1 49.33l-41.18 -74.18 -5.56 0 -54.15 0 0 74.18 -58.61 0 0 -259.65 112.76 0c33.88,0 60.09,7.85 78.64,23.55 18.55,15.71 27.81,37.9 27.81,66.58 0,20.03 -4.14,37.16 -12.42,51.37 -8.29,14.22 -20.34,25.03 -36.16,32.46l55.26 85.68 -66.39 0zm-100.89 -123.15l54.15 0c16.32,0 28.87,-3.77 37.65,-11.31 8.78,-7.54 13.17,-18.6 13.17,-33.19 0,-14.35 -4.39,-25.16 -13.17,-32.46 -8.78,-7.3 -21.33,-10.94 -37.65,-10.94l-54.15 0 0 87.9zm401.71 123.15l-20.4 -50.45 -120.18 0 -20.4 50.45 -60.46 0 112.76 -259.65 60.46 0 110.9 259.65 -62.69 0zm-121.29 -97.55l81.98 0 -40.8 -100.89 -41.18 100.89zm382.06 -89.77c-13.35,-8.16 -27.51,-14.65 -42.47,-19.47 -14.96,-4.82 -27.75,-7.23 -38.39,-7.23 -10.14,0 -18.17,1.86 -24.11,5.57 -5.94,3.7 -8.91,9.14 -8.91,16.32 0,9.15 4.27,16.13 12.8,20.95 8.52,4.83 21.69,9.83 39.5,15.03 17.81,5.19 32.45,10.38 43.96,15.58 11.5,5.19 21.33,12.99 29.49,23.37 8.16,10.39 12.24,24.11 12.24,41.18 0,16.57 -4.38,30.85 -13.16,42.84 -8.79,11.99 -20.84,21.08 -36.17,27.26 -15.33,6.18 -32.76,9.27 -52.3,9.27 -21.02,0 -41.67,-3.71 -61.95,-11.13 -20.27,-7.42 -37.84,-17.55 -52.67,-30.41l23.37 -47.85c13.11,11.87 28.19,21.39 45.25,28.56 17.07,7.17 32.64,10.76 46.74,10.76 12.12,0 21.57,-2.22 28.38,-6.68 6.8,-4.45 10.2,-10.88 10.2,-19.29 0,-6.68 -2.29,-12.18 -6.86,-16.51 -4.58,-4.32 -10.39,-7.84 -17.44,-10.57 -7.04,-2.72 -16.75,-5.8 -29.11,-9.27 -17.81,-4.95 -32.34,-9.89 -43.59,-14.84 -11.24,-4.94 -20.95,-12.48 -29.11,-22.63 -8.16,-10.14 -12.25,-23.61 -12.25,-40.43 0,-15.58 4.21,-29.24 12.61,-40.99 8.41,-11.74 20.16,-20.77 35.24,-27.07 15.09,-6.31 32.64,-9.46 52.67,-9.46 17.81,0 35.36,2.59 52.67,7.78 17.31,5.19 32.64,12.12 46,20.77l-22.63 48.59zm257.05 187.32l-20.4 -50.45 -120.18 0 -20.4 50.45 -60.46 0 112.76 -259.65 60.46 0 110.9 259.65 -62.69 0zm-121.29 -97.55l81.98 0 -40.8 -100.89 -41.18 100.89zm211.06 -162.1l58.61 0 0 108.31 117.58 0 0 -108.31 58.61 0 0 259.65 -58.61 0 0 -102.37 -117.58 0 0 102.37 -58.61 0 0 -259.65zm378.72 0l65.28 0 80.86 159.5 80.12 -159.5 64.91 0 0 259.65 -52.67 0 0 -175.45 -73.81 149.12 -37.84 0 -74.18 -149.12 0 175.45 -52.67 0 0 -259.65zm348.67 0l58.61 0 0 259.65 -58.61 0 0 -259.65zm116.1 0l186.57 0 -0.37 48.59 -127.6 0 0 63.79 117.21 0 0 48.97 -117.21 0 0 98.29 -58.61 0 0 -259.65zm195.1 0l217 0 0 49.7 -79.38 0 0 209.95 -58.61 0 0 -209.95 -79.01 0 0 -49.7zm440.29 259.65l-20.4 -50.45 -120.18 0 -20.4 50.45 -60.46 0 112.76 -259.65 60.46 0 110.9 259.65 -62.69 0zm-121.29 -97.55l81.98 0 -40.8 -100.89 -41.18 100.89zm211.06 -162.1l58.61 0 0 108.31 117.58 0 0 -108.31 58.61 0 0 259.65 -58.61 0 0 -102.37 -117.58 0 0 102.37 -58.61 0 0 -259.65zm346.08 152.45c0,18.55 5.26,33.2 15.77,43.96 10.5,10.76 24.54,16.13 42.1,16.13 17.06,0 30.66,-5.32 40.8,-15.95 10.14,-10.63 15.21,-25.35 15.21,-44.14l0 -152.45 58.61 0 0 152.45c0,22.75 -4.64,42.47 -13.91,59.17 -9.27,16.69 -22.57,29.55 -39.88,38.58 -17.31,9.02 -37.71,13.54 -61.21,13.54 -23.49,0 -44.02,-4.51 -61.57,-13.54 -17.55,-9.03 -31.04,-21.89 -40.43,-38.58 -9.4,-16.69 -14.09,-36.42 -14.09,-59.17l0 -152.45 58.61 0 0 152.45zm225.16 -152.45l58.61 0 0 208.46 111.27 0 0 51.19 -169.88 0 0 -259.65zm345.7 152.45c0,18.55 5.26,33.2 15.77,43.96 10.5,10.76 24.54,16.13 42.1,16.13 17.06,0 30.66,-5.32 40.8,-15.95 10.14,-10.63 15.21,-25.35 15.21,-44.14l0 -152.45 58.61 0 0 152.45c0,22.75 -4.64,42.47 -13.91,59.17 -9.27,16.69 -22.57,29.55 -39.88,38.58 -17.31,9.02 -37.71,13.54 -61.21,13.54 -23.49,0 -44.02,-4.51 -61.57,-13.54 -17.55,-9.03 -31.04,-21.89 -40.43,-38.58 -9.4,-16.69 -14.09,-36.42 -14.09,-59.17l0 -152.45 58.61 0 0 152.45zm225.16 -152.45l58.61 0 0 208.46 111.27 0 0 51.19 -169.88 0 0 -259.65zm258.91 152.45c0,18.55 5.26,33.2 15.77,43.96 10.5,10.76 24.54,16.13 42.1,16.13 17.06,0 30.66,-5.32 40.8,-15.95 10.14,-10.63 15.21,-25.35 15.21,-44.14l0 -152.45 58.61 0 0 152.45c0,22.75 -4.64,42.47 -13.91,59.17 -9.27,16.69 -22.57,29.55 -39.88,38.58 -17.31,9.02 -37.71,13.54 -61.21,13.54 -23.49,0 -44.02,-4.51 -61.57,-13.54 -17.55,-9.03 -31.04,-21.89 -40.43,-38.58 -9.4,-16.69 -14.09,-36.42 -14.09,-59.17l0 -152.45 58.61 0 0 152.45zm225.16 -152.45l65.28 0 80.86 159.5 80.12 -159.5 64.91 0 0 259.65 -52.67 0 0 -175.45 -73.81 149.12 -37.84 0 -74.18 -149.12 0 175.45 -52.67 0 0 -259.65zm435.47 0l58.61 0 0 259.65 -58.61 0 0 -259.65zm235.54 0c28.69,0 51.31,5.81 67.88,17.43 16.56,11.62 24.85,27.45 24.85,47.48 0,13.85 -4.02,25.9 -12.05,36.16 -8.04,10.27 -18.98,17.25 -32.83,20.96 16.81,3.22 30.04,10.69 39.68,22.44 9.65,11.75 14.47,26.16 14.47,43.21 0,22.25 -8.78,39.82 -26.34,52.67 -17.55,12.86 -41.42,19.29 -71.59,19.29l-123.52 0 0 -259.65 119.44 0zm-2.97 104.6c11.13,0 19.85,-2.54 26.16,-7.61 6.3,-5.06 9.46,-12.18 9.46,-21.33 0,-8.9 -3.16,-15.82 -9.46,-20.77 -6.31,-4.94 -15.03,-7.3 -26.16,-7.04l-57.86 0 0 56.75 57.86 0zm0 107.19c13.85,0 24.73,-2.78 32.64,-8.34 7.91,-5.57 11.87,-13.29 11.87,-23.19 0,-9.4 -3.96,-16.81 -11.87,-22.25 -7.91,-5.44 -18.79,-8.04 -32.64,-7.79l-57.86 0 0 61.57 57.86 0zm122.04 -211.79l217 0 0 49.7 -79.38 0 0 209.95 -58.61 0 0 -209.95 -79.01 0 0 -49.7zm248.52 0l58.61 0 0 259.65 -58.61 0 0 -259.65zm226.26 0c26.46,0 50.07,5.5 70.85,16.51 20.77,11 36.9,26.33 48.41,45.99 11.5,19.66 17.25,42.11 17.25,67.32 0,25.22 -5.87,47.67 -17.62,67.32 -11.74,19.66 -28.13,35 -49.15,46 -21.01,11.01 -45,16.51 -71.95,16.51l-107.94 0 0 -259.65 110.16 0zm1.48 210.31c14.35,0 27.26,-3.4 38.76,-10.2 11.51,-6.8 20.47,-16.26 26.9,-28.38 6.42,-12.12 9.64,-25.97 9.64,-41.54 0,-15.58 -3.4,-29.55 -10.2,-41.92 -6.8,-12.36 -16.07,-21.95 -27.82,-28.75 -11.75,-6.8 -25.03,-10.2 -39.88,-10.2l-50.44 0 0 160.98 53.04 0zm365.37 49.33l-20.4 -50.45 -120.18 0 -20.4 50.45 -60.46 0 112.76 -259.65 60.46 0 110.9 259.65 -62.69 0zm-121.29 -97.55l81.98 0 -40.8 -100.89 -41.18 100.89zm211.06 -162.1l58.61 0 0 259.65 -58.61 0 0 -259.65zm335.69 0l-94.59 175.81 0 83.83 -58.61 0 0 -82.34 -96.07 -177.3 58.98 0 66.39 116.47 64.92 -116.47 58.97 0zm219.21 259.65l-20.4 -50.45 -120.18 0 -20.4 50.45 -60.46 0 112.76 -259.65 60.46 0 110.9 259.65 -62.69 0zm-121.29 -97.55l81.98 0 -40.8 -100.89 -41.18 100.89zm211.06 -162.1l58.61 0 0 108.31 117.58 0 0 -108.31 58.61 0 0 259.65 -58.61 0 0 -102.37 -117.58 0 0 102.37 -58.61 0 0 -259.65zm-5969.34 391.69c28.69,0 51.31,5.81 67.88,17.43 16.56,11.62 24.85,27.45 24.85,47.48 0,13.85 -4.02,25.9 -12.05,36.16 -8.04,10.27 -18.98,17.25 -32.83,20.96 16.81,3.22 30.04,10.69 39.68,22.44 9.65,11.75 14.47,26.16 14.47,43.21 0,22.25 -8.78,39.82 -26.34,52.67 -17.55,12.86 -41.42,19.29 -71.59,19.29l-123.52 0 0 -259.65 119.44 0zm-2.97 104.6c11.13,0 19.85,-2.54 26.16,-7.61 6.3,-5.06 9.46,-12.18 9.46,-21.33 0,-8.9 -3.16,-15.82 -9.46,-20.77 -6.31,-4.94 -15.03,-7.3 -26.16,-7.04l-57.86 0 0 56.75 57.86 0zm0 107.19c13.85,0 24.73,-2.78 32.64,-8.34 7.91,-5.57 11.87,-13.29 11.87,-23.19 0,-9.4 -3.96,-16.81 -11.87,-22.25 -7.91,-5.44 -18.79,-8.04 -32.64,-7.79l-57.86 0 0 61.57 57.86 0zm140.22 -84.56l95.7 0 0 37.83 -95.7 0 0 -37.83zm248.15 -129.46c36.35,0 64.29,11.38 83.82,34.13 19.54,22.75 29.3,55.39 29.3,97.92 0,42.29 -9.76,74.87 -29.3,97.74 -19.53,22.87 -47.48,34.31 -83.82,34.31 -36.6,0 -64.73,-11.44 -84.39,-34.31 -19.66,-22.87 -29.49,-55.45 -29.49,-97.74 0,-42.53 9.83,-75.17 29.49,-97.92 19.66,-22.75 47.79,-34.13 84.39,-34.13zm0 44.89c-18.55,0 -32.15,6.92 -40.8,20.77 -8.66,13.85 -12.99,35.98 -12.99,66.39 0,30.18 4.33,52.24 12.99,66.22 8.66,13.97 22.25,20.95 40.8,20.95 18.05,0 31.4,-6.98 40.06,-20.95 8.66,-13.97 12.98,-36.04 12.98,-66.22 0,-30.41 -4.32,-52.54 -12.98,-66.39 -8.66,-13.85 -22.01,-20.77 -40.06,-20.77zm244.44 -45.25c27.7,0 49.59,6.24 65.66,18.73 16.07,12.49 24.11,29.36 24.11,50.63 0,11.37 -3.03,21.83 -9.09,31.34 -6.06,9.52 -14.28,17.13 -24.67,22.81 14.59,5.69 26.09,14.35 34.5,25.97 8.41,11.62 12.61,24.85 12.61,39.68 0,15.33 -4.2,28.69 -12.61,40.07 -8.41,11.37 -20.34,20.15 -35.8,26.33 -15.45,6.18 -33.57,9.27 -54.34,9.27 -20.53,0 -38.52,-3.03 -53.97,-9.09 -15.45,-6.06 -27.39,-14.71 -35.8,-25.97 -8.4,-11.25 -12.61,-24.41 -12.61,-39.5 0,-14.83 4.45,-28.25 13.35,-40.24 8.91,-11.99 21.02,-20.83 36.36,-26.52 -11.37,-6.18 -20.34,-14.22 -26.89,-24.11 -6.55,-9.89 -9.83,-20.65 -9.83,-32.27 0,-20.53 8.04,-36.85 24.11,-48.97 16.07,-12.12 37.71,-18.17 64.91,-18.17zm0.37 40.43c-12.86,0 -22.81,2.78 -29.86,8.34 -7.05,5.56 -10.57,13.41 -10.57,23.55 0,9.89 3.52,17.62 10.57,23.19 7.05,5.56 17.01,8.35 29.86,8.35 12.86,0 22.81,-2.72 29.86,-8.17 7.04,-5.44 10.56,-13.22 10.56,-23.37 0,-10.14 -3.52,-17.99 -10.56,-23.55 -7.05,-5.56 -17.01,-8.34 -29.86,-8.34zm0 107.57c-15.09,0 -26.77,3.09 -35.06,9.27 -8.28,6.18 -12.42,15.08 -12.42,26.71 0,11.62 4.14,20.65 12.42,27.07 8.29,6.43 19.97,9.65 35.06,9.65 15.08,0 26.83,-3.16 35.24,-9.46 8.4,-6.31 12.61,-15.27 12.61,-26.9 0,-11.62 -4.21,-20.59 -12.61,-26.89 -8.41,-6.31 -20.16,-9.46 -35.24,-9.46zm406.16 -73.08c-13.35,-8.16 -27.51,-14.65 -42.47,-19.47 -14.96,-4.82 -27.75,-7.23 -38.39,-7.23 -10.14,0 -18.17,1.86 -24.11,5.57 -5.94,3.7 -8.91,9.14 -8.91,16.32 0,9.15 4.27,16.13 12.8,20.95 8.52,4.83 21.69,9.83 39.5,15.03 17.81,5.19 32.45,10.38 43.96,15.58 11.5,5.19 21.33,12.99 29.49,23.37 8.16,10.39 12.24,24.11 12.24,41.18 0,16.57 -4.38,30.85 -13.16,42.84 -8.79,11.99 -20.84,21.08 -36.17,27.26 -15.33,6.18 -32.76,9.27 -52.3,9.27 -21.02,0 -41.67,-3.71 -61.95,-11.13 -20.27,-7.42 -37.84,-17.55 -52.67,-30.41l23.37 -47.85c13.11,11.87 28.19,21.39 45.25,28.56 17.07,7.17 32.64,10.76 46.74,10.76 12.12,0 21.57,-2.22 28.38,-6.68 6.8,-4.45 10.2,-10.88 10.2,-19.29 0,-6.68 -2.29,-12.18 -6.86,-16.51 -4.58,-4.32 -10.39,-7.84 -17.44,-10.57 -7.04,-2.72 -16.75,-5.8 -29.11,-9.27 -17.81,-4.95 -32.34,-9.89 -43.59,-14.84 -11.24,-4.94 -20.95,-12.48 -29.11,-22.63 -8.16,-10.14 -12.25,-23.61 -12.25,-40.43 0,-15.58 4.21,-29.24 12.61,-40.99 8.41,-11.74 20.16,-20.77 35.24,-27.07 15.09,-6.31 32.64,-9.46 52.67,-9.46 17.81,0 35.36,2.59 52.67,7.78 17.31,5.19 32.64,12.12 46,20.77l-22.63 48.59zm65.28 -72.33l58.61 0 0 259.65 -58.61 0 0 -259.65zm226.26 0c26.46,0 50.07,5.5 70.85,16.51 20.77,11 36.9,26.33 48.41,45.99 11.5,19.66 17.25,42.11 17.25,67.32 0,25.22 -5.87,47.67 -17.62,67.32 -11.74,19.66 -28.13,35 -49.15,46 -21.01,11.01 -45,16.51 -71.95,16.51l-107.94 0 0 -259.65 110.16 0zm1.48 210.31c14.35,0 27.26,-3.4 38.76,-10.2 11.51,-6.8 20.47,-16.26 26.9,-28.38 6.42,-12.12 9.64,-25.97 9.64,-41.54 0,-15.58 -3.4,-29.55 -10.2,-41.92 -6.8,-12.36 -16.07,-21.95 -27.82,-28.75 -11.75,-6.8 -25.03,-10.2 -39.88,-10.2l-50.44 0 0 160.98 53.04 0zm294.52 -214.39c25.97,0 49.58,5.8 70.85,17.43 21.27,11.62 38.02,27.63 50.27,48.03 12.24,20.4 18.36,43.08 18.36,68.06 0,24.97 -6.12,47.72 -18.36,68.25 -12.25,20.53 -29,36.66 -50.27,48.41 -21.27,11.74 -44.88,17.62 -70.85,17.62 -25.97,0 -49.58,-5.87 -70.85,-17.62 -21.27,-11.75 -38.02,-27.82 -50.26,-48.23 -12.25,-20.4 -18.37,-43.21 -18.37,-68.43 0,-24.98 6.12,-47.67 18.37,-68.06 12.24,-20.4 28.93,-36.42 50.07,-48.03 21.14,-11.63 44.82,-17.43 71.03,-17.43zm0.74 51.18c-14.34,0 -27.69,3.65 -40.06,10.95 -12.36,7.3 -22.13,17.25 -29.3,29.86 -7.17,12.6 -10.76,26.45 -10.76,41.54 0,15.33 3.65,29.3 10.94,41.92 7.3,12.61 17.07,22.63 29.3,30.04 12.25,7.42 25.54,11.12 39.88,11.12 14.35,0 27.51,-3.64 39.5,-10.94 11.99,-7.3 21.52,-17.31 28.56,-30.04 7.05,-12.73 10.57,-26.77 10.57,-42.1 0,-15.09 -3.52,-28.94 -10.57,-41.54 -7.04,-12.61 -16.57,-22.57 -28.56,-29.86 -11.99,-7.3 -25.15,-10.95 -39.5,-10.95zm300.45 63.43l104.24 0 0 119.07c-13.85,10.14 -30.79,18.36 -50.82,24.67 -20.03,6.3 -38.94,9.46 -56.75,9.46 -25.97,0 -49.46,-5.87 -70.47,-17.62 -21.02,-11.75 -37.59,-27.82 -49.71,-48.23 -12.12,-20.4 -18.17,-43.21 -18.17,-68.43 0,-24.98 6.18,-47.67 18.55,-68.06 12.36,-20.4 29.36,-36.42 51,-48.03 21.64,-11.63 45.69,-17.43 72.14,-17.43 19.29,0 37.78,3.46 55.46,10.38 17.68,6.93 33.19,16.33 46.54,28.2l-33.01 41.91c-9.65,-9.14 -20.4,-16.32 -32.28,-21.51 -11.86,-5.19 -24.11,-7.79 -36.72,-7.79 -15.08,0 -28.87,3.65 -41.36,10.95 -12.48,7.3 -22.31,17.19 -29.49,29.67 -7.17,12.49 -10.76,26.4 -10.76,41.73 0,15.33 3.65,29.36 10.94,42.1 7.3,12.73 17.19,22.75 29.68,30.04 12.49,7.3 26.27,10.94 41.36,10.94 7.66,0 15.95,-1.3 24.85,-3.89 8.91,-2.6 17.56,-6.13 25.97,-10.57l0 -34.12 -51.19 0 0 -53.42zm153.2 -110.53l58.61 0 0 259.65 -58.61 0 0 -259.65zm275.6 259.65l-41.18 -74.18 -5.56 0 -54.15 0 0 74.18 -58.61 0 0 -259.65 112.76 0c33.88,0 60.09,7.85 78.64,23.55 18.55,15.71 27.81,37.9 27.81,66.58 0,20.03 -4.14,37.16 -12.42,51.37 -8.29,14.22 -20.34,25.03 -36.16,32.46l55.26 85.68 -66.39 0zm-100.89 -123.15l54.15 0c16.32,0 28.87,-3.77 37.65,-11.31 8.78,-7.54 13.17,-18.6 13.17,-33.19 0,-14.35 -4.39,-25.16 -13.17,-32.46 -8.78,-7.3 -21.33,-10.94 -37.65,-10.94l-54.15 0 0 87.9zm209.95 -136.5l58.61 0 0 259.65 -58.61 0 0 -259.65zm373.89 72.33c-13.35,-8.16 -27.51,-14.65 -42.47,-19.47 -14.96,-4.82 -27.75,-7.23 -38.39,-7.23 -10.14,0 -18.17,1.86 -24.11,5.57 -5.94,3.7 -8.91,9.14 -8.91,16.32 0,9.15 4.27,16.13 12.8,20.95 8.52,4.83 21.69,9.83 39.5,15.03 17.81,5.19 32.45,10.38 43.96,15.58 11.5,5.19 21.33,12.99 29.49,23.37 8.16,10.39 12.24,24.11 12.24,41.18 0,16.57 -4.38,30.85 -13.16,42.84 -8.79,11.99 -20.84,21.08 -36.17,27.26 -15.33,6.18 -32.76,9.27 -52.3,9.27 -21.02,0 -41.67,-3.71 -61.95,-11.13 -20.27,-7.42 -37.84,-17.55 -52.67,-30.41l23.37 -47.85c13.11,11.87 28.19,21.39 45.25,28.56 17.07,7.17 32.64,10.76 46.74,10.76 12.12,0 21.57,-2.22 28.38,-6.68 6.8,-4.45 10.2,-10.88 10.2,-19.29 0,-6.68 -2.29,-12.18 -6.86,-16.51 -4.58,-4.32 -10.39,-7.84 -17.44,-10.57 -7.04,-2.72 -16.75,-5.8 -29.11,-9.27 -17.81,-4.95 -32.34,-9.89 -43.59,-14.84 -11.24,-4.94 -20.95,-12.48 -29.11,-22.63 -8.16,-10.14 -12.25,-23.61 -12.25,-40.43 0,-15.58 4.21,-29.24 12.61,-40.99 8.41,-11.74 20.16,-20.77 35.24,-27.07 15.09,-6.31 32.64,-9.46 52.67,-9.46 17.81,0 35.36,2.59 52.67,7.78 17.31,5.19 32.64,12.12 46,20.77l-22.63 48.59zm119.44 80.12c0,18.55 5.26,33.2 15.77,43.96 10.5,10.76 24.54,16.13 42.1,16.13 17.06,0 30.66,-5.32 40.8,-15.95 10.14,-10.63 15.21,-25.35 15.21,-44.14l0 -152.45 58.61 0 0 152.45c0,22.75 -4.64,42.47 -13.91,59.17 -9.27,16.69 -22.57,29.55 -39.88,38.58 -17.31,9.02 -37.71,13.54 -61.21,13.54 -23.49,0 -44.02,-4.51 -61.57,-13.54 -17.55,-9.03 -31.04,-21.89 -40.43,-38.58 -9.4,-16.69 -14.09,-36.42 -14.09,-59.17l0 -152.45 58.61 0 0 152.45zm384.65 107.2l-41.18 -74.18 -5.56 0 -54.15 0 0 74.18 -58.61 0 0 -259.65 112.76 0c33.88,0 60.09,7.85 78.64,23.55 18.55,15.71 27.81,37.9 27.81,66.58 0,20.03 -4.14,37.16 -12.42,51.37 -8.29,14.22 -20.34,25.03 -36.16,32.46l55.26 85.68 -66.39 0zm-100.89 -123.15l54.15 0c16.32,0 28.87,-3.77 37.65,-11.31 8.78,-7.54 13.17,-18.6 13.17,-33.19 0,-14.35 -4.39,-25.16 -13.17,-32.46 -8.78,-7.3 -21.33,-10.94 -37.65,-10.94l-54.15 0 0 87.9zm401.71 123.15l-20.4 -50.45 -120.18 0 -20.4 50.45 -60.46 0 112.76 -259.65 60.46 0 110.9 259.65 -62.69 0zm-121.29 -97.55l81.98 0 -40.8 -100.89 -41.18 100.89zm330.5 -162.1c28.69,0 51.31,5.81 67.88,17.43 16.56,11.62 24.85,27.45 24.85,47.48 0,13.85 -4.02,25.9 -12.05,36.16 -8.04,10.27 -18.98,17.25 -32.83,20.96 16.81,3.22 30.04,10.69 39.68,22.44 9.65,11.75 14.47,26.16 14.47,43.21 0,22.25 -8.78,39.82 -26.34,52.67 -17.55,12.86 -41.42,19.29 -71.59,19.29l-123.52 0 0 -259.65 119.44 0zm-2.97 104.6c11.13,0 19.85,-2.54 26.16,-7.61 6.3,-5.06 9.46,-12.18 9.46,-21.33 0,-8.9 -3.16,-15.82 -9.46,-20.77 -6.31,-4.94 -15.03,-7.3 -26.16,-7.04l-57.86 0 0 56.75 57.86 0zm0 107.19c13.85,0 24.73,-2.78 32.64,-8.34 7.91,-5.57 11.87,-13.29 11.87,-23.19 0,-9.4 -3.96,-16.81 -11.87,-22.25 -7.91,-5.44 -18.79,-8.04 -32.64,-7.79l-57.86 0 0 61.57 57.86 0zm339.4 47.85l-20.4 -50.45 -120.18 0 -20.4 50.45 -60.46 0 112.76 -259.65 60.46 0 110.9 259.65 -62.69 0zm-121.29 -97.55l81.98 0 -40.8 -100.89 -41.18 100.89zm430.65 -162.1l-94.59 175.81 0 83.83 -58.61 0 0 -82.34 -96.07 -177.3 58.98 0 66.39 116.47 64.92 -116.47 58.97 0zm219.21 259.65l-20.4 -50.45 -120.18 0 -20.4 50.45 -60.46 0 112.76 -259.65 60.46 0 110.9 259.65 -62.69 0zm-121.29 -97.55l81.98 0 -40.8 -100.89 -41.18 100.89z"/>
 </g>
</svg>
