<?xml version="1.0" encoding="UTF-8"?>
<!DOCTYPE svg PUBLIC "-//W3C//DTD SVG 1.1//EN" "http://www.w3.org/Graphics/SVG/1.1/DTD/svg11.dtd">
<!-- Creator: CorelDRAW 2021.5 -->
<svg xmlns="http://www.w3.org/2000/svg" xml:space="preserve" width="57.9665mm" height="57.9665mm" version="1.1" style="shape-rendering:geometricPrecision; text-rendering:geometricPrecision; image-rendering:optimizeQuality; fill-rule:evenodd; clip-rule:evenodd"
viewBox="0 0 201.76 201.76"
 xmlns:xlink="http://www.w3.org/1999/xlink"
 xmlns:xodm="http://www.corel.com/coreldraw/odm/2003">
 <defs>
  <style type="text/css">
   <![CDATA[
    .fil2 {fill:#FEFEFE}
    .fil1 {fill:#1E491B}
    .fil0 {fill:url(#id0)}
   ]]>
  </style>
  <linearGradient id="id0" gradientUnits="userSpaceOnUse" x1="80.02" y1="153.07" x2="236.54" y2="-41.98">
   <stop offset="0" style="stop-opacity:1; stop-color:#1B5E20"/>
   <stop offset="0.631373" style="stop-opacity:1; stop-color:#8DA710"/>
   <stop offset="1" style="stop-opacity:1; stop-color:#FFF000"/>
  </linearGradient>
 </defs>
 <g id="Layer_x0020_1">
  <metadata id="CorelCorpID_0Corel-Layer"/>
  <rect class="fil0" x="-0" y="-0" width="201.76" height="201.76"/>
  <g id="_1450786139968">
   <g>
    <path class="fil1" d="M64.55 145.95l37.07 -86.56 37.08 86.56 -74.15 0zm-2.58 1.7l79.3 0 -19.83 -46.28 -19.83 -46.28 -39.65 92.57zm0 0z"/>
    <path class="fil1" d="M136.11 144.24l-34.48 -80.5 -34.48 80.5 68.96 0zm-36.8 -51.34l-1.06 3.25 2.77 -2.02 2.77 2.02 -1.06 -3.25 2.77 -2.01 -3.42 0.01 -1.05 -3.26 -1.05 3.26 -3.42 -0.01 2.77 2.01zm-9.01 18.5l-0.4 -1.25 -0.4 1.25 -1.31 -0 1.06 0.77 -0.41 1.24 1.06 -0.77 1.06 0.77 -0.41 -1.24 1.06 -0.77 -1.31 0zm2.07 -5.1l-1.31 0 -0.4 -1.25 -0.4 1.25 -1.31 -0 1.06 0.77 -0.41 1.24 1.06 -0.77 1.06 0.77 -0.41 -1.24 1.06 -0.77zm2.14 -3.57l-1.31 0 -0.4 -1.25 -0.4 1.25 -1.31 -0 1.06 0.77 -0.41 1.24 1.06 -0.77 1.06 0.77 -0.41 -1.24 1.06 -0.77zm2.4 -1.12l-0.41 -1.24 1.06 -0.77 -1.31 0 -0.4 -1.25 -0.4 1.25 -1.31 -0 1.06 0.77 -0.41 1.24 1.06 -0.77 1.06 0.77zm15.85 8.55l-0.4 1.25 -1.31 -0 1.06 0.77 -0.41 1.24 1.06 -0.77 1.06 0.77 -0.41 -1.24 1.06 -0.77 -1.31 0 -0.4 -1.25zm-1.45 -3.85l-1.31 -0 1.06 0.77 -0.41 1.24 1.06 -0.77 1.06 0.77 -0.41 -1.24 1.06 -0.77 -1.31 0 -0.4 -1.25 -0.4 1.25zm-2.05 -3.57l-1.31 -0 1.06 0.77 -0.41 1.24 1.06 -0.77 1.06 0.77 -0.41 -1.24 1.06 -0.77 -1.31 0 -0.4 -1.25 -0.4 1.25zm-3.65 -2.37l-0.41 1.24 1.06 -0.77 1.06 0.77 -0.41 -1.24 1.06 -0.77 -1.31 0 -0.4 -1.25 -0.4 1.25 -1.31 -0 1.06 0.77zm-4.44 4.44l1.79 0.01c0.44,0 1.45,-2.22 0.22,-3.38 -0.97,-0.91 -2.01,-2.59 -2.01,-2.59 0,0 -1.03,1.68 -2.01,2.59 -1.23,1.16 -0.22,3.38 0.22,3.38l1.79 -0.01zm0.52 2.27l0 1.57c0,0.03 -0,0.07 -0.01,0.1l0.72 0c-0.01,-0.03 -0.01,-0.06 -0.01,-0.1l0 -1.57c0,-0.21 0.17,-0.38 0.38,-0.38 0.21,0 0.38,0.17 0.38,0.38l0 1.57c0,0.03 -0,0.07 -0.01,0.1l0.45 0 0 -3.09 -4.86 0 0 3.09 0.75 0c-0.01,-0.03 -0.01,-0.06 -0.01,-0.1l0 -1.57c0,-0.21 0.17,-0.38 0.38,-0.38 0.21,0 0.38,0.17 0.38,0.38l0 1.57c0,0.03 -0,0.07 -0.01,0.1l0.72 0c-0.01,-0.03 -0.01,-0.06 -0.01,-0.1l0 -1.57c0,-0.21 0.17,-0.38 0.38,-0.38 0.21,0 0.38,0.17 0.38,0.38zm-3.36 4.08c1.9,0.43 3.82,0.44 5.78,0l0 -2.18c-1.93,0.44 -3.85,0.54 -5.78,0l0 2.18zm4.65 5.44c0,0 0.06,0.2 0.28,0.51 0.22,0.31 1.22,1.1 1.22,1.1l-0.9 0.03 -0.03 0.95 -0.65 0.55c0,0 0.27,0.73 0.19,0.99 -0.09,0.26 -0.17,0.24 -0.5,0.39 -0.33,0.15 -0.05,0.65 -0.05,0.65l1.78 0.04c0,0 0.05,0.09 0.35,0.32 0.29,0.23 1.09,0.51 1.14,0.51 0.05,0 0.21,0.25 0.21,0.25l0.62 0.34 0.11 -0.37 0.34 -0.01c0,0 0,0.29 0.1,0.41 0.1,0.12 0.44,-0.22 0.51,-0.38 0.08,-0.16 0.1,-0.74 0.1,-0.74 0,0 -0.75,0.34 -1.48,0.34 -0.73,0 -1.83,-0.97 -1.83,-0.97 0,0 0.37,-0.4 0.37,-0.81 0,-0.4 -0.42,-0.42 -0.86,-0.74 -0.44,-0.32 -0.17,-0.62 -0.17,-0.62 0,0 0.29,-0.09 0.6,-0.04 0.31,0.04 0.14,0.2 0.45,0.36 0.3,0.16 1.26,0.32 1.26,0.32l0.13 0.71c0.13,0.71 0.51,1.37 0.78,1.33 0.27,-0.03 0.79,-0.43 0.95,-0.64 0.15,-0.21 0.26,-0.96 0.26,-0.96 0,0 0.53,0.09 0.73,0.15 0.2,0.07 0.72,0.13 0.72,0.13 0,0 -0.01,1.51 -0.01,1.83 0,0.32 0.05,0.47 0.12,0.55 0.06,0.09 0.32,-0.06 0.36,-0.12 0.04,-0.05 0.05,-2.06 0.05,-2.06 0,0 0.37,0.01 0.56,0.01 0.19,0 1.09,-0.01 1.09,-0.01 0,0 0.01,0.04 0.03,0.2 0.02,0.15 0.08,1.19 0.08,1.19l0.26 0.16 0.09 -1.62c0,0 0.47,-0.22 0.38,-0.34 -0.09,-0.12 -0.56,-0.07 -0.56,-0.07 0,0 -0.2,-0.73 -0.3,-0.96 -0.11,-0.23 -0.28,-1.15 -0.28,-1.15l0.29 0.01c0,0 0.29,0.42 0.45,0.68 0.15,0.25 0.74,1.51 0.92,1.65 0.18,0.14 0.34,-0.12 0.32,-0.22 -0.02,-0.1 -1.01,-1.61 -1.19,-1.82 -0.18,-0.21 0,-0.52 0,-0.52 0,0 0.29,0.2 0.46,0.38 0.16,0.19 0.57,0.85 0.75,1.06 0.18,0.21 0.63,-0.02 0.63,-0.02 0,0 -0.89,-1.24 -1.16,-1.63 -0.26,-0.39 -1.83,-1.83 -4.23,-3.2 -2.4,-1.37 -5.41,-1.79 -5.41,-1.79l0.37 0.5 -0.37 0.37 1.78 0 0.04 0.34c0,0 -1.79,0.36 -1.85,0.38 -0.07,0.02 0.02,0.49 0.02,0.49 0,0 0.13,-0.04 1.12,-0.23 0.99,-0.19 1.09,0.62 1.09,0.62 0,0 0,0.01 -0.72,0.27 -0.72,0.26 -1.87,0.95 -1.87,0.95zm1.95 -0.42c0.45,-0.17 1.63,-0.04 1.63,-0.04l-1.62 1.62c0,0 -0.57,-0.22 -0.76,-0.38 -0.2,-0.16 -0.37,-0.42 -0.39,-0.4 0,0 0.7,-0.62 1.14,-0.8zm0.45 1.77l1.36 -1.4c0,0 0.9,0.16 1.22,0.41 0.32,0.25 0.49,0.71 0.48,0.77 -0.01,0.07 0.19,0.35 0.24,0.29 0.05,-0.05 0.15,-0.45 0.15,-0.45 0,0 0.29,-0.14 0.55,-0.06 0.25,0.08 0.26,0.76 0.26,0.76l0.04 1.87 -1.29 -0.21c0,0 -0.05,-0.28 0.02,-0.65 0.08,-0.37 0.08,-0.72 0.08,-0.72 0,0 -0.39,-0.11 -0.42,-0.04l-0.47 0.99c0,0 -1.13,-0.54 -1.48,-0.83 -0.35,-0.28 -0.74,-0.74 -0.74,-0.74zm-0.2 0.35l0.02 0.03c0.09,0.11 0.47,0.56 0.67,0.69 0.24,0.15 1.62,0.96 1.62,0.96l0.05 1.08c0,0 -0.09,0.35 -0.32,-0.09 -0.23,-0.44 -0.49,-0.83 -0.58,-0.96 -0.09,-0.13 -1.26,-0.82 -1.42,-0.95 -0.15,-0.13 -0.32,-0.41 -0.32,-0.41 0,0 -0.04,-0.22 0.1,-0.28l0.15 -0.07zm5.01 1.94l0.01 -2.26c0,0 0.12,-0.07 0.36,0.04 0.24,0.11 0.39,0.39 0.56,0.64 0.16,0.25 0.49,1.61 0.49,1.61l-1.42 -0.03zm-12.47 -1.9c0.35,0.17 0.58,0.37 0.98,0.47 0.4,0.1 0.49,-0.19 0.49,-0.19 0,0 -0.01,-0.17 -0.13,-0.21 -0.12,-0.03 -0.21,-0.56 -0.63,-0.88 -0.42,-0.33 -0.94,0.16 -0.94,0.16l-0.12 0.25c0,0 0,0.22 0.35,0.39zm-7.54 4c0,0 0.5,-0.34 0.56,-0.59 0.05,-0.25 -0.14,-0.44 -0.14,-0.44 0,0 -0.38,0.25 -0.43,0.63 -0.05,0.38 0.02,0.39 0.02,0.39zm10.45 0.49l-2.2 -1.83 1.59 -1.31 -0.08 -0.74 -1.83 1.75 -1.68 -1.87 0.12 -0.44c0.04,-0.15 0.24,-0.11 0.24,-0.11 0,0 0.01,-0.36 0.13,-0.64 0.12,-0.28 0.24,-0.1 0.47,-0.27 0.23,-0.17 -0.12,-0.76 -0.12,-0.76 0,0 -0.7,0.38 -0.98,0.56 -0.28,0.17 0.01,0.4 0.01,0.63 0,0.23 -0.24,0.5 -0.24,0.5l-1.17 -1.54 1.85 -1.21 -0.36 -0.2 -1.67 1.05 -0.56 -0.91c0,0 0.28,-0.36 0.6,-0.62 0.33,-0.26 1.32,-0.57 1.32,-0.57 0,0 -0.05,0.19 0.36,0.47 0.41,0.29 0.89,0.29 0.89,0.29l0.32 1.29c0,0 0.78,-0.22 1.05,0.01 0.26,0.23 -0.19,0.15 -0.5,0.28 -0.32,0.13 -0.15,0.19 -0.01,0.42 0.14,0.24 0.42,-0.21 0.7,-0.2 0.27,0.01 0.34,0.28 0.51,0.32 0.18,0.03 0.24,-0.17 0.24,-0.23 0,-0.05 -0.77,-0.99 -0.7,-1.23 0.08,-0.24 0.6,-0.16 0.6,-0.16l-0.48 -2.61c0.01,0.06 -1.18,0.27 -1.18,0.27 0,0 -2.62,0.44 -5.06,2.18 -2.44,1.74 -4.04,4.41 -4.04,4.41 0,0 -0.01,0.35 0.09,0.4 0.1,0.05 0.51,-0.18 0.51,-0.18 0,0 0.77,0.58 1.22,0.86 0.45,0.28 2.15,1.23 2.15,1.23l0.1 0.77 0.35 -0.35c0,0 1.73,0.68 2.02,0.68 0.29,0 0.39,-0.22 0.39,-0.22l-2.55 -1.36c-2.55,-1.36 -3.44,-2.2 -3.44,-2.2 0,0 0.24,-0.39 1.15,-1.55 0.92,-1.15 2.69,-2.12 2.69,-2.12l0.66 1.05c0,0 -0.27,0.25 -1.17,1.03 -0.89,0.78 -1.84,2.18 -1.84,2.18l0.58 0.27c0,0 0.44,-0.84 1.04,-1.57 0.6,-0.73 1.65,-1.48 1.65,-1.48l1.21 1.51 -1.07 1 0.2 0.54 1.23 -1.09 1.76 1.87 -1.53 2.03 0.63 0.12 1.34 -1.83 1.99 1.67 -0.43 0.62 0.28 0.13c0,0 0.28,-0.29 0.48,-0.47 0.2,-0.19 0.16,-0.52 0.16,-0.52zm-1.13 -10.81l1.67 12.04c0,0 0.02,0.01 0.2,0.14 0.17,0.14 0.4,-0.12 0.4,-0.12l1.26 -12.06 -3.53 0zm-0.05 16.08c-0.62,-0.89 -1.73,-1.92 -3.68,-2.41 -1.1,-0.27 -2.24,-0.44 -3.29,-0.53 -2.57,-0.23 -4.67,-0.06 -4.67,-0.06 0,0 0.57,0.63 1.7,0.7 0.96,0.05 2.87,0.05 4.15,0.19 0.23,0.03 0.44,0.06 0.62,0.09 1.18,0.24 1.35,0.33 1.87,0.63 0.52,0.3 0.74,0.54 0.74,0.54 0,0 -0.36,-0.01 -0.88,-0.06 -0.52,-0.05 -1.21,-0.16 -1.85,-0.36 -1.26,-0.39 -3.42,-0.07 -3.42,-0.07 0,0 0.26,0.63 1.55,0.65 1.29,0.02 4.7,0.12 4.7,0.12 0,0 0.47,0.4 0.62,0.6 0.15,0.2 0.2,0.43 0.2,0.43 0,0 -1.62,-0.03 -2.43,-0.16 -0.81,-0.13 -1.46,-0.24 -1.46,-0.24 0,0 0.98,0.94 2.68,1.2 1.7,0.26 3.56,0.26 3.56,0.26 0,0 -0.14,-0.7 -0.72,-1.53zm8.08 -2.74c-2.39,0.59 -3.52,2.01 -4.02,2.97 -0.29,0.56 -0.38,0.97 -0.38,0.97 0,0 1.86,0 3.56,-0.26 1.7,-0.26 2.68,-1.2 2.68,-1.2 0,0 -0.65,0.11 -1.46,0.24 -0.81,0.13 -2.43,0.16 -2.43,0.16 0,0 0.04,-0.23 0.19,-0.42 0,-0 0,-0.01 0.01,-0.01 0.15,-0.2 0.62,-0.6 0.62,-0.6 0,0 0.42,-0.01 1.02,-0.03 1.11,-0.03 2.85,-0.08 3.68,-0.09 1.29,-0.02 1.55,-0.65 1.55,-0.65 0,0 -2.16,-0.33 -3.42,0.07 -0.29,0.09 -0.6,0.16 -0.89,0.22 -0.97,0.18 -1.83,0.2 -1.83,0.2 0,0 0.22,-0.24 0.74,-0.54 0.52,-0.31 0.7,-0.39 1.87,-0.63 0.26,-0.05 0.58,-0.09 0.94,-0.12 1.26,-0.11 2.95,-0.11 3.84,-0.16 1.13,-0.07 1.7,-0.7 1.7,-0.7 0,0 -2.02,-0.17 -4.53,0.04 -1.09,0.09 -2.27,0.26 -3.42,0.55zm-3.24 -1.43c-2.7,0.55 -3.01,1.79 -3.01,1.79 0,0 -0.72,-1.04 -1.72,-1.61 -1,-0.57 -3.36,-0.61 -3.36,-0.61l-5.56 -0.01 -5.37 -0.01 -1.31 -0c0,0 0,0.26 0.24,0.46 0.16,0.13 0.28,0.36 1.57,0.43 0.68,0.04 1.7,0.03 3.23,-0.06 0.87,-0.05 1.7,-0.05 2.46,-0.02 3.07,0.14 5.11,0.85 5.3,0.86 0.24,0.02 1.72,0.44 3.16,2.05 0.29,0.32 0.5,0.66 0.67,1.01 0.66,1.38 0.49,2.81 0.79,3.35 0.37,0.68 1.05,0.83 1.4,0.78 0.35,-0.04 0.61,-0.39 0.48,-0.52 -0.13,-0.13 -0.57,-0.81 -0.79,-2 -0.1,-0.53 -0.04,-1.11 0.09,-1.65 0.17,-0.68 0.45,-1.28 0.69,-1.62 0.44,-0.61 1.81,-1.42 3.03,-1.87 0.74,-0.28 2.88,-0.48 5.1,-0.63 1.44,-0.09 2.91,-0.16 4.06,-0.2 0.62,-0.02 1.1,-0.06 1.47,-0.1 1.36,-0.16 1.26,-0.42 1.26,-0.42 0,0 -0.39,0 -1.04,0.01 -1.14,0.01 -3.08,0.04 -5.14,0.1 -3.06,0.09 -6.37,0.24 -7.68,0.5zm11.98 16.22c0,0 -1.42,0.33 -1.84,0.41 -0.42,0.09 -0.67,0.04 -0.67,0.04 0,0 0.06,1.15 0.77,1.47 0.71,0.32 1.89,0.24 1.89,0.24 0,0 -0.39,-0.29 -0.49,-0.75 -0.1,-0.46 -0.11,-0.62 0.03,-0.86 0.14,-0.24 0.3,-0.55 0.3,-0.55zm0.09 -5.14l2.22 4.11c0,0 -1.16,0.62 -1.54,0.9 -0.38,0.28 -0.56,0.58 -0.66,0.98 -0.11,0.4 -0.01,0.81 0.5,1.1 0.51,0.29 1.61,-0.16 1.61,-0.16 0,0 1.39,-0.09 4.36,-4.44 2.96,-4.36 5.44,-6.04 5.44,-6.04l-4.24 0.05c0,0 -0.12,-0.47 -0.21,-0.79 -0.09,-0.32 -0.2,-1.04 -0.06,-1.78 0.13,-0.74 0.6,-1.68 0.6,-1.68 0,0 -0.59,0.29 -1.09,0.63 -0.5,0.34 -0.88,0.63 -1.73,1.48 -0.85,0.85 -3.29,4.81 -3.92,5.29 -0.63,0.48 -1.26,0.35 -1.26,0.35zm-30.85 3.96c10.17,3.44 20.91,3.26 32.12,-0.04l-3.05 -5.62c-9.13,2.05 -17.78,2.02 -25.98,0l-3.09 5.66zm4.01 -1.17c0.39,0.03 0.78,0.06 1.17,0.1 -0.03,0.21 -0.02,0.38 0.03,0.51 0.08,0.2 0.25,0.31 0.49,0.34 0.18,0.02 0.33,-0 0.45,-0.08 0.12,-0.08 0.19,-0.18 0.22,-0.3 0.03,-0.11 0,-0.22 -0.07,-0.33 -0.07,-0.1 -0.26,-0.21 -0.56,-0.34 -0.49,-0.21 -0.82,-0.45 -0.97,-0.7 -0.15,-0.26 -0.18,-0.55 -0.08,-0.89 0.07,-0.22 0.19,-0.43 0.35,-0.61 0.17,-0.18 0.37,-0.32 0.62,-0.4 0.24,-0.09 0.55,-0.1 0.92,-0.05 0.46,0.06 0.79,0.21 0.99,0.45 0.2,0.24 0.29,0.59 0.25,1.06 -0.38,-0.01 -0.75,-0.03 -1.13,-0.05 0.02,-0.21 -0.01,-0.36 -0.08,-0.46 -0.07,-0.1 -0.19,-0.16 -0.35,-0.19 -0.13,-0.02 -0.24,0.01 -0.32,0.06 -0.09,0.06 -0.14,0.14 -0.17,0.23 -0.02,0.07 -0,0.14 0.03,0.2 0.04,0.07 0.15,0.14 0.35,0.21 0.48,0.19 0.82,0.38 1.02,0.53 0.2,0.16 0.34,0.34 0.41,0.55 0.07,0.21 0.08,0.44 0.04,0.68 -0.05,0.29 -0.17,0.54 -0.37,0.77 -0.2,0.23 -0.44,0.39 -0.74,0.48 -0.29,0.09 -0.65,0.11 -1.05,0.05 -0.71,-0.1 -1.16,-0.32 -1.34,-0.66 -0.18,-0.33 -0.21,-0.72 -0.11,-1.16zm6.75 1.49c-0.5,-0.03 -1,-0.06 -1.5,-0.1 -0.11,0.24 -0.21,0.48 -0.31,0.72 -0.46,-0.04 -0.91,-0.07 -1.37,-0.12 0.39,-0.72 0.78,-1.44 1.15,-2.17 0.36,-0.72 0.7,-1.45 1.04,-2.18 0.42,0.04 0.84,0.07 1.27,0.1 0.19,0.76 0.38,1.53 0.6,2.29 0.22,0.76 0.46,1.52 0.72,2.27 -0.48,-0.01 -0.96,-0.03 -1.43,-0.06 -0.06,-0.25 -0.12,-0.5 -0.17,-0.75zm-0.2 -0.99c-0.05,-0.27 -0.11,-0.55 -0.15,-0.82 -0.05,-0.27 -0.09,-0.55 -0.14,-0.82 -0.1,0.27 -0.2,0.53 -0.3,0.79 -0.1,0.27 -0.21,0.53 -0.32,0.79 0.3,0.02 0.6,0.04 0.91,0.06zm2.28 -2.67c0.36,0.01 0.73,0.02 1.09,0.03 0.26,0.42 0.52,0.83 0.79,1.24 0.27,0.41 0.56,0.82 0.86,1.23 -0.04,-0.41 -0.07,-0.82 -0.11,-1.23 -0.03,-0.41 -0.07,-0.82 -0.11,-1.23 0.37,-0.01 0.74,-0.01 1.11,-0.02 0.1,0.74 0.19,1.48 0.29,2.22 0.1,0.74 0.19,1.48 0.29,2.22 -0.44,0.01 -0.87,0.03 -1.3,0.03 -0.31,-0.41 -0.62,-0.81 -0.91,-1.22 -0.29,-0.41 -0.57,-0.82 -0.84,-1.23 0.01,0.41 0.03,0.82 0.04,1.23 0.01,0.41 0.02,0.82 0.04,1.23 -0.43,-0.01 -0.86,-0.01 -1.29,-0.02 0.01,-0.75 0.01,-1.49 0.02,-2.24 0.01,-0.75 0.01,-1.49 0.02,-2.24zm4.16 0.01c1.19,-0.05 2.37,-0.12 3.54,-0.22 0.1,0.36 0.21,0.72 0.31,1.08 -0.41,0.04 -0.82,0.07 -1.23,0.11 0.14,0.55 0.27,1.1 0.4,1.65 0.13,0.55 0.27,1.1 0.4,1.66 -0.45,0.03 -0.9,0.07 -1.36,0.1 -0.11,-0.55 -0.22,-1.11 -0.33,-1.66 -0.11,-0.55 -0.22,-1.11 -0.33,-1.66 -0.42,0.02 -0.83,0.04 -1.25,0.06 -0.05,-0.37 -0.11,-0.73 -0.17,-1.1zm5.42 4.09c-0.23,-0.73 -0.45,-1.45 -0.68,-2.18 -0.22,-0.73 -0.45,-1.45 -0.67,-2.18 0.63,-0.07 1.26,-0.14 1.87,-0.22 0.34,-0.04 0.62,-0.05 0.83,-0 0.21,0.04 0.41,0.15 0.6,0.32 0.19,0.17 0.35,0.39 0.47,0.66 0.1,0.24 0.15,0.45 0.14,0.63 -0.01,0.19 -0.08,0.35 -0.19,0.48 -0.07,0.08 -0.19,0.16 -0.35,0.24 0.16,0.03 0.29,0.07 0.38,0.11 0.06,0.03 0.15,0.09 0.28,0.19 0.14,0.1 0.23,0.18 0.28,0.23 0.18,0.19 0.38,0.38 0.56,0.56 0.19,0.19 0.39,0.37 0.58,0.56 -0.47,0.08 -0.95,0.17 -1.43,0.25 -0.2,-0.2 -0.4,-0.4 -0.6,-0.6 -0.2,-0.2 -0.4,-0.4 -0.59,-0.61 -0.15,-0.16 -0.26,-0.26 -0.35,-0.3 -0.11,-0.05 -0.23,-0.07 -0.34,-0.06 -0.04,0 -0.07,0.01 -0.11,0.01 0.1,0.29 0.21,0.58 0.31,0.88 0.1,0.29 0.21,0.58 0.31,0.88 -0.44,0.05 -0.89,0.11 -1.33,0.16zm0.41 -2.73c0.17,-0.02 0.34,-0.04 0.5,-0.07 0.05,-0.01 0.15,-0.04 0.29,-0.1 0.07,-0.03 0.12,-0.08 0.14,-0.16 0.02,-0.08 0.01,-0.17 -0.02,-0.26 -0.06,-0.14 -0.14,-0.24 -0.24,-0.3 -0.11,-0.06 -0.26,-0.08 -0.47,-0.05 -0.17,0.02 -0.34,0.04 -0.51,0.07 0.1,0.29 0.21,0.59 0.31,0.88zm2.16 -2.16c0.36,-0.06 0.71,-0.12 1.07,-0.18 0.36,0.69 0.72,1.37 1.08,2.06 0.36,0.68 0.72,1.37 1.07,2.06 -0.41,0.09 -0.82,0.18 -1.23,0.26 -0.33,-0.7 -0.66,-1.4 -1,-2.1 -0.33,-0.7 -0.66,-1.4 -1,-2.1zm-21.66 5.72c-0.42,-0.09 -1.84,-0.41 -1.84,-0.41 0,0 0.16,0.32 0.3,0.55 0.14,0.24 0.13,0.4 0.03,0.86 -0.1,0.46 -0.49,0.75 -0.49,0.75 0,0 1.19,0.08 1.9,-0.24 0.71,-0.32 0.77,-1.47 0.77,-1.47 0,0 -0.25,0.04 -0.68,-0.04zm-3.19 -5.9c-0.63,-0.48 -3.07,-4.44 -3.92,-5.29 -0.85,-0.85 -1.24,-1.14 -1.73,-1.48 -0.5,-0.34 -1.09,-0.63 -1.09,-0.63 0,0 0.47,0.94 0.6,1.68 0.13,0.74 0.03,1.46 -0.06,1.78 -0.09,0.32 -0.21,0.79 -0.21,0.79l-4.24 -0.05c0,0 2.47,1.69 5.44,6.04 2.96,4.36 4.36,4.44 4.36,4.44 0,0 1.1,0.46 1.61,0.16 0.51,-0.29 0.61,-0.7 0.5,-1.1 -0.11,-0.4 -0.28,-0.7 -0.66,-0.98 -0.38,-0.28 -1.54,-0.9 -1.54,-0.9l2.22 -4.11c0,0 -0.63,0.13 -1.26,-0.35zm11.67 -6.4c-0.12,-0.14 -0.29,-0.29 -0.44,-0.41 -1.21,-0.03 -2.42,-0.07 -3.62,-0.1l0.72 0.12c0.49,0.08 0.97,0.16 1.46,0.24 0.58,0.09 1.26,0.13 1.88,0.15zm2.91 -0.09c-0.13,-0.01 -0.26,-0.02 -0.39,-0.03 0.27,0.42 0.54,0.98 0.63,1.43l0.07 0.36 -0.37 0c-1.18,0 -2.45,-0.08 -3.61,-0.26 -0.93,-0.14 -2.15,-0.61 -2.85,-1.28l-0.67 -0.65c-0.25,-0.01 -0.5,-0.01 -0.74,-0.02 -0.49,-0.01 -1.02,-0.1 -1.43,-0.39 -0.15,-0.11 -0.33,-0.28 -0.4,-0.45l-0.15 -0.36 0.39 -0.06c1.01,-0.15 2.57,-0.23 3.56,0.08 0.24,0.07 0.48,0.14 0.73,0.19 -0.21,-0.1 -0.42,-0.21 -0.62,-0.33l-0.15 -0.03c-0.19,-0.04 -0.4,-0.07 -0.6,-0.09 -1.37,-0.15 -2.76,-0.11 -4.13,-0.19 -0.64,-0.04 -1.47,-0.31 -1.91,-0.8l-0.41 -0.46 0.61 -0.05c0.46,-0.04 0.93,-0.05 1.4,-0.06 0.96,-0.02 1.92,0.01 2.87,0.08 -0.09,-0.07 -0.17,-0.14 -0.25,-0.22 -0.12,-0.01 -0.25,-0.01 -0.37,-0.02 -0.81,-0.04 -1.62,-0.03 -2.42,0.01 -1,0.06 -2.05,0.11 -3.06,0.07 3.2,5.16 8.81,8.58 15.2,8.58 6.64,0 12.43,-3.69 15.56,-9.19 -0.42,0.04 -0.85,0.07 -1.28,0.08 -1.35,0.05 -2.7,0.12 -4.05,0.2l-0.36 0.02c-0.07,0.06 -0.13,0.12 -0.2,0.18l0.11 -0.01c1.07,-0.09 2.15,-0.12 3.23,-0.1 0.45,0.01 0.91,0.02 1.35,0.06l0.55 0.05 -0.37 0.41c-0.44,0.49 -1.26,0.75 -1.89,0.79 -1.27,0.07 -2.55,0.05 -3.83,0.16 -0.3,0.03 -0.61,0.06 -0.91,0.12l-0.32 0.07c-0.22,0.14 -0.45,0.27 -0.68,0.39l0.11 -0.02c0.29,-0.05 0.58,-0.12 0.86,-0.21 0.98,-0.3 2.54,-0.23 3.54,-0.07l0.35 0.05 -0.14 0.33c-0.07,0.17 -0.24,0.34 -0.39,0.44 -0.4,0.28 -0.93,0.38 -1.41,0.38 -1.23,0.02 -2.45,0.06 -3.68,0.09 -0.31,0.01 -0.61,0.02 -0.92,0.03 -0.16,0.14 -0.36,0.32 -0.49,0.47 0.65,-0.02 1.35,-0.05 1.95,-0.15 0.49,-0.08 0.97,-0.16 1.46,-0.24l0.88 -0.15 -0.65 0.62c-0.69,0.66 -1.91,1.13 -2.83,1.27 -1.16,0.18 -2.43,0.26 -3.61,0.26l-0.34 0 0.07 -0.33c0.07,-0.33 0.25,-0.74 0.4,-1.04 0.02,-0.04 0.05,-0.09 0.07,-0.13 -0.15,0.02 -0.31,0.04 -0.47,0.06l-0.03 0.1c-0.12,0.49 -0.18,1.03 -0.09,1.52 0.08,0.45 0.21,0.91 0.4,1.33 0.06,0.13 0.2,0.41 0.3,0.51 0.03,0.03 0.06,0.07 0.08,0.11 0.21,0.43 -0.34,0.87 -0.73,0.92 -0.68,0.09 -1.37,-0.35 -1.69,-0.94 -0.2,-0.36 -0.24,-1.05 -0.29,-1.46 -0.09,-0.66 -0.22,-1.3 -0.51,-1.9 -0.02,-0.05 -0.05,-0.1 -0.08,-0.15zm-9.86 -4.99c-2.61,-2.94 -4.22,-6.94 -4.22,-11.34 0,-5.72 2.71,-10.76 6.81,-13.69 -5.84,3.07 -9.84,9.32 -9.84,16.54 0,3.06 0.72,5.94 1.99,8.48l5.26 0.01zm26.88 -0.16c1.23,-2.51 1.92,-5.34 1.92,-8.33 0,-6.78 -3.54,-12.72 -8.82,-15.95 3.67,2.99 6.05,7.74 6.05,13.1 0,4.37 -1.58,8.34 -4.16,11.28 1.62,-0.04 3.24,-0.07 4.86,-0.09l0.15 -0z"/>
   </g>
   <g>
    <path class="fil2" d="M63.89 145.52l37.07 -86.56 37.08 86.56 -74.15 0zm-2.58 1.7l79.3 0 -19.83 -46.28 -19.83 -46.28 -39.65 92.57zm0 0z"/>
    <path class="fil2" d="M135.45 143.81l-34.48 -80.5 -34.48 80.5 68.96 0zm-36.8 -51.34l-1.06 3.25 2.77 -2.02 2.77 2.02 -1.06 -3.25 2.77 -2.01 -3.42 0.01 -1.05 -3.26 -1.05 3.26 -3.42 -0.01 2.77 2.01zm-9.01 18.5l-0.4 -1.25 -0.4 1.25 -1.31 -0 1.06 0.77 -0.41 1.24 1.06 -0.77 1.06 0.77 -0.41 -1.24 1.06 -0.77 -1.31 0zm2.07 -5.1l-1.31 0 -0.4 -1.25 -0.4 1.25 -1.31 -0 1.06 0.77 -0.41 1.24 1.06 -0.77 1.06 0.77 -0.41 -1.24 1.06 -0.77zm2.14 -3.57l-1.31 0 -0.4 -1.25 -0.4 1.25 -1.31 -0 1.06 0.77 -0.41 1.24 1.06 -0.77 1.06 0.77 -0.41 -1.24 1.06 -0.77zm2.4 -1.12l-0.41 -1.24 1.06 -0.77 -1.31 0 -0.4 -1.25 -0.4 1.25 -1.31 -0 1.06 0.77 -0.41 1.24 1.06 -0.77 1.06 0.77zm15.85 8.55l-0.4 1.25 -1.31 -0 1.06 0.77 -0.41 1.24 1.06 -0.77 1.06 0.77 -0.41 -1.24 1.06 -0.77 -1.31 0 -0.4 -1.25zm-1.45 -3.85l-1.31 -0 1.06 0.77 -0.41 1.24 1.06 -0.77 1.06 0.77 -0.41 -1.24 1.06 -0.77 -1.31 0 -0.4 -1.25 -0.4 1.25zm-2.05 -3.57l-1.31 -0 1.06 0.77 -0.41 1.24 1.06 -0.77 1.06 0.77 -0.41 -1.24 1.06 -0.77 -1.31 0 -0.4 -1.25 -0.4 1.25zm-3.65 -2.37l-0.41 1.24 1.06 -0.77 1.06 0.77 -0.41 -1.24 1.06 -0.77 -1.31 0 -0.4 -1.25 -0.4 1.25 -1.31 -0 1.06 0.77zm-4.44 4.44l1.79 0.01c0.44,0 1.45,-2.22 0.22,-3.38 -0.97,-0.91 -2.01,-2.59 -2.01,-2.59 0,0 -1.03,1.68 -2.01,2.59 -1.23,1.16 -0.22,3.38 0.22,3.38l1.79 -0.01zm0.52 2.27l0 1.57c0,0.03 -0.01,0.07 -0.01,0.1l0.72 0c-0.01,-0.03 -0.01,-0.06 -0.01,-0.1l0 -1.57c0,-0.21 0.17,-0.38 0.38,-0.38 0.21,0 0.38,0.17 0.38,0.38l0 1.57c0,0.03 -0,0.07 -0.01,0.1l0.45 0 0 -3.09 -4.86 0 0 3.09 0.75 0c-0.01,-0.03 -0.01,-0.06 -0.01,-0.1l0 -1.57c0,-0.21 0.17,-0.38 0.38,-0.38 0.21,0 0.38,0.17 0.38,0.38l0 1.57c0,0.03 -0,0.07 -0.01,0.1l0.72 0c-0.01,-0.03 -0.01,-0.06 -0.01,-0.1l0 -1.57c0,-0.21 0.17,-0.38 0.38,-0.38 0.21,0 0.38,0.17 0.38,0.38zm-3.36 4.08c1.9,0.43 3.82,0.44 5.78,0l0 -2.18c-1.93,0.44 -3.85,0.54 -5.78,0l0 2.18zm4.65 5.44c0,0 0.06,0.2 0.28,0.51 0.22,0.31 1.22,1.1 1.22,1.1l-0.9 0.03 -0.03 0.95 -0.65 0.55c0,0 0.27,0.73 0.19,0.99 -0.09,0.26 -0.17,0.24 -0.5,0.39 -0.33,0.15 -0.05,0.65 -0.05,0.65l1.78 0.04c0,0 0.05,0.09 0.35,0.32 0.29,0.23 1.09,0.51 1.14,0.51 0.05,0 0.21,0.25 0.21,0.25l0.62 0.34 0.11 -0.37 0.34 -0.01c0,0 0,0.29 0.1,0.41 0.1,0.12 0.44,-0.22 0.51,-0.38 0.08,-0.16 0.1,-0.74 0.1,-0.74 0,0 -0.75,0.34 -1.48,0.34 -0.73,0 -1.83,-0.97 -1.83,-0.97 0,0 0.37,-0.4 0.37,-0.81 0,-0.4 -0.42,-0.42 -0.86,-0.74 -0.44,-0.32 -0.17,-0.62 -0.17,-0.62 0,0 0.29,-0.09 0.6,-0.04 0.31,0.04 0.14,0.2 0.45,0.36 0.3,0.16 1.26,0.32 1.26,0.32l0.13 0.71c0.13,0.71 0.51,1.37 0.78,1.33 0.27,-0.03 0.79,-0.43 0.95,-0.64 0.15,-0.21 0.26,-0.96 0.26,-0.96 0,0 0.53,0.09 0.73,0.15 0.2,0.07 0.72,0.13 0.72,0.13 0,0 -0.01,1.51 -0.01,1.83 0,0.32 0.05,0.47 0.12,0.55 0.06,0.09 0.32,-0.06 0.36,-0.12 0.04,-0.05 0.05,-2.06 0.05,-2.06 0,0 0.37,0.01 0.56,0.01 0.19,0 1.09,-0.01 1.09,-0.01 0,0 0.01,0.04 0.03,0.2 0.02,0.15 0.08,1.19 0.08,1.19l0.26 0.16 0.09 -1.62c0,0 0.47,-0.22 0.38,-0.34 -0.09,-0.12 -0.56,-0.07 -0.56,-0.07 0,0 -0.2,-0.73 -0.3,-0.96 -0.11,-0.23 -0.28,-1.15 -0.28,-1.15l0.29 0.01c0,0 0.29,0.42 0.45,0.68 0.15,0.25 0.74,1.51 0.92,1.65 0.18,0.14 0.34,-0.12 0.32,-0.22 -0.02,-0.1 -1.01,-1.61 -1.19,-1.82 -0.18,-0.21 0,-0.52 0,-0.52 0,0 0.29,0.2 0.46,0.38 0.16,0.19 0.57,0.85 0.75,1.06 0.18,0.21 0.63,-0.02 0.63,-0.02 0,0 -0.89,-1.24 -1.16,-1.63 -0.26,-0.39 -1.83,-1.83 -4.23,-3.2 -2.4,-1.37 -5.41,-1.79 -5.41,-1.79l0.37 0.5 -0.37 0.37 1.78 0 0.04 0.34c0,0 -1.79,0.36 -1.85,0.38 -0.07,0.02 0.02,0.49 0.02,0.49 0,0 0.13,-0.04 1.12,-0.23 0.99,-0.19 1.09,0.62 1.09,0.62 0,0 0,0.01 -0.72,0.27 -0.72,0.26 -1.87,0.95 -1.87,0.95zm1.95 -0.42c0.45,-0.17 1.64,-0.04 1.64,-0.04l-1.62 1.62c0,0 -0.57,-0.22 -0.76,-0.38 -0.2,-0.16 -0.37,-0.42 -0.39,-0.4 0,0 0.7,-0.62 1.14,-0.8zm0.45 1.77l1.36 -1.4c0,0 0.9,0.16 1.22,0.41 0.32,0.25 0.49,0.71 0.48,0.77 -0.01,0.07 0.19,0.35 0.24,0.29 0.05,-0.05 0.15,-0.45 0.15,-0.45 0,0 0.29,-0.14 0.55,-0.06 0.25,0.08 0.26,0.76 0.26,0.76l0.04 1.87 -1.29 -0.21c0,0 -0.05,-0.28 0.02,-0.65 0.08,-0.37 0.08,-0.72 0.08,-0.72 0,0 -0.39,-0.11 -0.42,-0.04l-0.47 0.99c0,0 -1.13,-0.54 -1.48,-0.83 -0.35,-0.28 -0.74,-0.74 -0.74,-0.74zm-0.2 0.35l0.02 0.03c0.09,0.11 0.47,0.56 0.67,0.69 0.24,0.15 1.62,0.96 1.62,0.96l0.05 1.08c0,0 -0.09,0.35 -0.32,-0.09 -0.23,-0.44 -0.49,-0.83 -0.58,-0.96 -0.09,-0.13 -1.26,-0.82 -1.42,-0.95 -0.15,-0.13 -0.32,-0.41 -0.32,-0.41 0,0 -0.04,-0.22 0.1,-0.28l0.15 -0.07zm5.01 1.94l0.01 -2.26c0,0 0.12,-0.07 0.36,0.04 0.24,0.11 0.39,0.39 0.56,0.64 0.16,0.25 0.49,1.61 0.49,1.61l-1.42 -0.03zm-12.47 -1.9c0.35,0.17 0.58,0.37 0.98,0.47 0.4,0.1 0.49,-0.19 0.49,-0.19 0,0 -0.01,-0.17 -0.13,-0.21 -0.12,-0.03 -0.21,-0.56 -0.63,-0.88 -0.42,-0.33 -0.94,0.16 -0.94,0.16l-0.12 0.25c0,0 0,0.22 0.35,0.39zm-7.54 4c0,0 0.5,-0.34 0.56,-0.59 0.05,-0.25 -0.14,-0.44 -0.14,-0.44 0,0 -0.38,0.25 -0.44,0.63 -0.05,0.38 0.02,0.39 0.02,0.39zm10.45 0.49l-2.2 -1.84 1.59 -1.31 -0.08 -0.74 -1.83 1.75 -1.68 -1.87 0.12 -0.44c0.04,-0.15 0.24,-0.11 0.24,-0.11 0,0 0.01,-0.36 0.13,-0.64 0.12,-0.28 0.24,-0.1 0.47,-0.27 0.23,-0.17 -0.12,-0.76 -0.12,-0.76 0,0 -0.7,0.38 -0.98,0.56 -0.28,0.17 0.01,0.4 0.01,0.63 0,0.23 -0.24,0.5 -0.24,0.5l-1.17 -1.54 1.85 -1.21 -0.36 -0.2 -1.67 1.05 -0.56 -0.91c0,0 0.28,-0.36 0.6,-0.62 0.33,-0.26 1.32,-0.57 1.32,-0.57 0,0 -0.05,0.19 0.36,0.47 0.41,0.29 0.89,0.29 0.89,0.29l0.32 1.29c0,0 0.78,-0.22 1.05,0.01 0.26,0.23 -0.19,0.15 -0.5,0.28 -0.32,0.13 -0.15,0.19 -0.01,0.42 0.14,0.24 0.42,-0.21 0.7,-0.2 0.27,0.01 0.34,0.28 0.51,0.32 0.18,0.03 0.24,-0.17 0.24,-0.23 0,-0.05 -0.77,-0.99 -0.7,-1.23 0.08,-0.24 0.6,-0.16 0.6,-0.16l-0.48 -2.61c0.01,0.06 -1.18,0.27 -1.18,0.27 0,0 -2.62,0.44 -5.06,2.18 -2.44,1.74 -4.04,4.41 -4.04,4.41 0,0 -0.01,0.35 0.09,0.4 0.1,0.05 0.51,-0.18 0.51,-0.18 0,0 0.77,0.58 1.22,0.86 0.45,0.28 2.15,1.23 2.15,1.23l0.1 0.77 0.35 -0.35c0,0 1.73,0.68 2.02,0.68 0.29,0 0.39,-0.22 0.39,-0.22l-2.55 -1.36c-2.55,-1.36 -3.44,-2.2 -3.44,-2.2 0,0 0.24,-0.39 1.15,-1.55 0.92,-1.15 2.69,-2.12 2.69,-2.12l0.66 1.05c0,0 -0.27,0.25 -1.17,1.03 -0.89,0.78 -1.84,2.18 -1.84,2.18l0.58 0.27c0,0 0.44,-0.84 1.03,-1.57 0.6,-0.73 1.65,-1.48 1.65,-1.48l1.21 1.51 -1.07 1 0.2 0.54 1.23 -1.09 1.76 1.87 -1.53 2.03 0.63 0.12 1.34 -1.83 1.99 1.67 -0.43 0.62 0.28 0.13c0,0 0.28,-0.29 0.48,-0.47 0.2,-0.19 0.16,-0.52 0.16,-0.52zm-1.13 -10.81l1.67 12.04c0,0 0.02,0.01 0.2,0.14 0.17,0.14 0.4,-0.12 0.4,-0.12l1.26 -12.06 -3.53 0zm-0.05 16.08c-0.62,-0.89 -1.73,-1.92 -3.68,-2.41 -1.1,-0.27 -2.24,-0.44 -3.29,-0.53 -2.57,-0.23 -4.67,-0.06 -4.67,-0.06 0,0 0.57,0.63 1.7,0.7 0.96,0.05 2.87,0.05 4.15,0.19 0.23,0.03 0.44,0.06 0.62,0.09 1.18,0.24 1.35,0.33 1.87,0.63 0.52,0.3 0.74,0.54 0.74,0.54 0,0 -0.36,-0.01 -0.88,-0.06 -0.52,-0.05 -1.21,-0.16 -1.85,-0.36 -1.26,-0.39 -3.42,-0.07 -3.42,-0.07 0,0 0.26,0.63 1.55,0.65 1.29,0.02 4.7,0.12 4.7,0.12 0,0 0.47,0.4 0.62,0.6 0.15,0.2 0.2,0.43 0.2,0.43 0,0 -1.62,-0.03 -2.43,-0.16 -0.81,-0.13 -1.46,-0.24 -1.46,-0.24 0,0 0.98,0.94 2.68,1.2 1.7,0.26 3.56,0.26 3.56,0.26 0,0 -0.14,-0.7 -0.72,-1.53zm8.08 -2.74c-2.39,0.59 -3.52,2.01 -4.02,2.97 -0.29,0.56 -0.38,0.97 -0.38,0.97 0,0 1.86,0 3.56,-0.26 1.7,-0.26 2.68,-1.2 2.68,-1.2 0,0 -0.65,0.11 -1.46,0.24 -0.81,0.13 -2.43,0.16 -2.43,0.16 0,0 0.04,-0.23 0.19,-0.42 0,-0 0,-0.01 0.01,-0.01 0.15,-0.2 0.62,-0.6 0.62,-0.6 0,0 0.42,-0.01 1.02,-0.03 1.11,-0.03 2.85,-0.08 3.68,-0.09 1.29,-0.02 1.55,-0.65 1.55,-0.65 0,0 -2.16,-0.33 -3.42,0.07 -0.29,0.09 -0.6,0.16 -0.89,0.22 -0.97,0.18 -1.83,0.2 -1.83,0.2 0,0 0.22,-0.24 0.74,-0.54 0.52,-0.31 0.7,-0.39 1.87,-0.63 0.26,-0.05 0.58,-0.09 0.94,-0.12 1.26,-0.11 2.95,-0.11 3.84,-0.16 1.13,-0.07 1.7,-0.7 1.7,-0.7 0,0 -2.02,-0.17 -4.53,0.04 -1.09,0.09 -2.27,0.26 -3.42,0.55zm-3.24 -1.43c-2.7,0.55 -3.01,1.79 -3.01,1.79 0,0 -0.72,-1.04 -1.72,-1.61 -1,-0.57 -3.36,-0.61 -3.36,-0.61l-5.56 -0.01 -5.37 -0.01 -1.31 -0c0,0 0,0.26 0.24,0.46 0.16,0.13 0.28,0.36 1.57,0.43 0.68,0.04 1.7,0.03 3.23,-0.06 0.87,-0.05 1.7,-0.05 2.46,-0.02 3.07,0.14 5.11,0.85 5.3,0.86 0.24,0.02 1.72,0.44 3.16,2.05 0.29,0.32 0.5,0.66 0.67,1.01 0.66,1.38 0.49,2.81 0.79,3.35 0.37,0.68 1.05,0.83 1.4,0.78 0.35,-0.04 0.61,-0.39 0.48,-0.52 -0.13,-0.13 -0.57,-0.81 -0.79,-2 -0.1,-0.53 -0.04,-1.11 0.09,-1.65 0.17,-0.68 0.45,-1.28 0.69,-1.62 0.44,-0.61 1.81,-1.42 3.03,-1.87 0.74,-0.28 2.88,-0.48 5.1,-0.63 1.44,-0.09 2.91,-0.16 4.06,-0.2 0.62,-0.02 1.1,-0.06 1.47,-0.1 1.36,-0.16 1.26,-0.42 1.26,-0.42 0,0 -0.39,0 -1.04,0.01 -1.14,0.01 -3.08,0.04 -5.14,0.1 -3.06,0.09 -6.37,0.24 -7.68,0.5zm11.98 16.22c0,0 -1.42,0.33 -1.84,0.41 -0.42,0.09 -0.67,0.04 -0.67,0.04 0,0 0.06,1.15 0.77,1.47 0.71,0.32 1.89,0.24 1.89,0.24 0,0 -0.39,-0.29 -0.49,-0.75 -0.1,-0.46 -0.11,-0.62 0.03,-0.86 0.14,-0.24 0.3,-0.55 0.3,-0.55zm0.09 -5.14l2.22 4.11c0,0 -1.16,0.62 -1.54,0.9 -0.38,0.28 -0.56,0.58 -0.66,0.98 -0.11,0.4 -0.01,0.81 0.5,1.1 0.51,0.29 1.61,-0.16 1.61,-0.16 0,0 1.4,-0.09 4.36,-4.44 2.96,-4.36 5.44,-6.04 5.44,-6.04l-4.24 0.05c0,0 -0.12,-0.47 -0.21,-0.79 -0.09,-0.32 -0.2,-1.04 -0.07,-1.78 0.13,-0.74 0.6,-1.68 0.6,-1.68 0,0 -0.59,0.29 -1.09,0.63 -0.5,0.34 -0.88,0.63 -1.73,1.48 -0.85,0.85 -3.29,4.81 -3.92,5.29 -0.63,0.48 -1.26,0.35 -1.26,0.35zm-30.85 3.96c10.17,3.44 20.91,3.26 32.12,-0.04l-3.05 -5.62c-9.13,2.05 -17.78,2.02 -25.98,0l-3.09 5.66zm4.01 -1.17c0.39,0.03 0.78,0.06 1.17,0.1 -0.03,0.21 -0.02,0.38 0.03,0.51 0.08,0.2 0.25,0.31 0.49,0.34 0.18,0.02 0.33,-0 0.45,-0.08 0.12,-0.08 0.19,-0.18 0.22,-0.3 0.03,-0.11 0,-0.22 -0.07,-0.33 -0.07,-0.1 -0.26,-0.21 -0.56,-0.34 -0.49,-0.21 -0.82,-0.45 -0.97,-0.7 -0.15,-0.26 -0.18,-0.55 -0.08,-0.89 0.07,-0.22 0.19,-0.43 0.35,-0.61 0.17,-0.18 0.37,-0.32 0.62,-0.4 0.24,-0.09 0.55,-0.1 0.92,-0.05 0.46,0.06 0.79,0.21 0.99,0.45 0.2,0.24 0.29,0.59 0.25,1.06 -0.38,-0.01 -0.75,-0.03 -1.13,-0.05 0.02,-0.21 -0.01,-0.36 -0.08,-0.46 -0.07,-0.1 -0.19,-0.16 -0.35,-0.19 -0.13,-0.02 -0.24,0.01 -0.32,0.06 -0.09,0.06 -0.14,0.14 -0.17,0.23 -0.02,0.07 -0,0.14 0.03,0.2 0.04,0.07 0.15,0.14 0.35,0.21 0.48,0.19 0.82,0.38 1.02,0.53 0.2,0.16 0.34,0.34 0.41,0.55 0.07,0.21 0.08,0.44 0.04,0.68 -0.05,0.29 -0.17,0.54 -0.37,0.77 -0.2,0.23 -0.44,0.39 -0.74,0.48 -0.29,0.09 -0.65,0.11 -1.05,0.05 -0.71,-0.1 -1.16,-0.32 -1.34,-0.66 -0.18,-0.33 -0.21,-0.72 -0.11,-1.16zm6.75 1.49c-0.5,-0.03 -1,-0.06 -1.5,-0.1 -0.11,0.24 -0.21,0.48 -0.31,0.72 -0.46,-0.04 -0.91,-0.07 -1.37,-0.12 0.39,-0.72 0.78,-1.44 1.15,-2.17 0.36,-0.72 0.7,-1.45 1.04,-2.18 0.42,0.04 0.84,0.07 1.27,0.1 0.19,0.76 0.38,1.53 0.6,2.29 0.22,0.76 0.46,1.52 0.72,2.27 -0.48,-0.02 -0.96,-0.03 -1.43,-0.06 -0.06,-0.25 -0.12,-0.5 -0.17,-0.75zm-0.2 -0.99c-0.05,-0.27 -0.11,-0.55 -0.15,-0.82 -0.05,-0.27 -0.09,-0.55 -0.14,-0.82 -0.1,0.27 -0.2,0.53 -0.3,0.79 -0.1,0.27 -0.21,0.53 -0.32,0.79 0.3,0.02 0.6,0.04 0.91,0.06zm2.28 -2.67c0.36,0.01 0.73,0.02 1.09,0.03 0.26,0.42 0.52,0.83 0.79,1.24 0.27,0.41 0.56,0.82 0.86,1.23 -0.04,-0.41 -0.07,-0.82 -0.11,-1.23 -0.03,-0.41 -0.07,-0.82 -0.11,-1.23 0.37,-0.01 0.74,-0.01 1.11,-0.02 0.1,0.74 0.19,1.48 0.29,2.22 0.1,0.74 0.19,1.48 0.29,2.22 -0.44,0.01 -0.87,0.03 -1.3,0.03 -0.31,-0.41 -0.62,-0.81 -0.91,-1.22 -0.29,-0.41 -0.57,-0.82 -0.84,-1.23 0.01,0.41 0.03,0.82 0.04,1.23 0.01,0.41 0.02,0.82 0.04,1.23 -0.43,-0.01 -0.86,-0.01 -1.29,-0.02 0.01,-0.75 0.01,-1.49 0.02,-2.24 0.01,-0.75 0.01,-1.49 0.02,-2.24zm4.16 0.01c1.19,-0.05 2.37,-0.12 3.54,-0.22 0.1,0.36 0.21,0.72 0.31,1.08 -0.41,0.04 -0.82,0.07 -1.23,0.11 0.14,0.55 0.27,1.1 0.4,1.65 0.13,0.55 0.27,1.1 0.4,1.66 -0.46,0.03 -0.9,0.07 -1.36,0.1 -0.11,-0.55 -0.22,-1.11 -0.33,-1.66 -0.11,-0.55 -0.22,-1.11 -0.33,-1.66 -0.42,0.02 -0.83,0.04 -1.25,0.06 -0.05,-0.37 -0.11,-0.73 -0.17,-1.1zm5.42 4.09c-0.23,-0.73 -0.45,-1.45 -0.68,-2.18 -0.22,-0.73 -0.45,-1.45 -0.67,-2.18 0.63,-0.07 1.26,-0.14 1.87,-0.22 0.34,-0.04 0.62,-0.05 0.83,-0 0.21,0.04 0.41,0.15 0.6,0.32 0.19,0.17 0.35,0.39 0.47,0.66 0.1,0.24 0.15,0.45 0.14,0.63 -0.01,0.19 -0.08,0.35 -0.19,0.48 -0.07,0.08 -0.19,0.16 -0.35,0.24 0.16,0.03 0.29,0.07 0.38,0.11 0.06,0.03 0.15,0.09 0.28,0.19 0.14,0.1 0.23,0.18 0.28,0.23 0.18,0.19 0.38,0.38 0.56,0.56 0.19,0.19 0.39,0.37 0.58,0.56 -0.47,0.08 -0.95,0.17 -1.43,0.25 -0.2,-0.2 -0.4,-0.4 -0.6,-0.6 -0.2,-0.2 -0.4,-0.4 -0.59,-0.61 -0.15,-0.16 -0.26,-0.26 -0.35,-0.3 -0.11,-0.05 -0.23,-0.07 -0.34,-0.06 -0.04,0 -0.07,0.01 -0.11,0.01 0.1,0.29 0.21,0.58 0.31,0.88 0.1,0.29 0.21,0.58 0.31,0.88 -0.44,0.05 -0.89,0.11 -1.33,0.16zm0.41 -2.73c0.17,-0.02 0.34,-0.04 0.5,-0.07 0.05,-0.01 0.15,-0.04 0.29,-0.1 0.07,-0.03 0.12,-0.08 0.14,-0.16 0.02,-0.08 0.01,-0.17 -0.02,-0.26 -0.06,-0.14 -0.14,-0.24 -0.24,-0.3 -0.11,-0.06 -0.26,-0.08 -0.47,-0.05 -0.17,0.02 -0.34,0.04 -0.51,0.07 0.1,0.29 0.21,0.59 0.31,0.88zm2.16 -2.16c0.36,-0.06 0.71,-0.12 1.07,-0.18 0.36,0.69 0.72,1.37 1.08,2.06 0.36,0.68 0.72,1.37 1.07,2.06 -0.41,0.09 -0.82,0.18 -1.23,0.26 -0.33,-0.7 -0.66,-1.4 -1,-2.1 -0.33,-0.7 -0.66,-1.4 -1,-2.1zm-21.66 5.73c-0.42,-0.09 -1.84,-0.41 -1.84,-0.41 0,0 0.16,0.32 0.3,0.55 0.14,0.24 0.13,0.4 0.03,0.86 -0.1,0.46 -0.49,0.75 -0.49,0.75 0,0 1.19,0.08 1.9,-0.24 0.71,-0.32 0.77,-1.47 0.77,-1.47 0,0 -0.25,0.04 -0.68,-0.04zm-3.19 -5.9c-0.63,-0.48 -3.07,-4.44 -3.92,-5.29 -0.85,-0.85 -1.24,-1.14 -1.73,-1.48 -0.5,-0.34 -1.09,-0.63 -1.09,-0.63 0,0 0.47,0.94 0.61,1.68 0.13,0.74 0.03,1.46 -0.06,1.78 -0.09,0.32 -0.21,0.79 -0.21,0.79l-4.24 -0.05c0,0 2.47,1.69 5.44,6.04 2.96,4.36 4.36,4.44 4.36,4.44 0,0 1.1,0.46 1.61,0.16 0.51,-0.29 0.61,-0.7 0.5,-1.1 -0.11,-0.4 -0.28,-0.7 -0.66,-0.98 -0.38,-0.28 -1.54,-0.9 -1.54,-0.9l2.22 -4.11c0,0 -0.63,0.13 -1.26,-0.35zm11.67 -6.4c-0.12,-0.14 -0.29,-0.29 -0.44,-0.41 -1.21,-0.03 -2.41,-0.07 -3.62,-0.1l0.72 0.12c0.49,0.08 0.97,0.16 1.46,0.24 0.58,0.09 1.26,0.13 1.88,0.15zm2.91 -0.09c-0.13,-0.01 -0.26,-0.02 -0.39,-0.03 0.26,0.42 0.54,0.98 0.63,1.43l0.07 0.36 -0.37 0c-1.18,0 -2.45,-0.08 -3.61,-0.26 -0.93,-0.14 -2.15,-0.61 -2.84,-1.28l-0.67 -0.65c-0.25,-0.01 -0.5,-0.01 -0.74,-0.02 -0.49,-0.01 -1.02,-0.1 -1.43,-0.39 -0.15,-0.11 -0.33,-0.28 -0.4,-0.45l-0.15 -0.36 0.39 -0.06c1.01,-0.15 2.57,-0.23 3.56,0.08 0.24,0.07 0.48,0.14 0.73,0.19 -0.21,-0.1 -0.42,-0.21 -0.62,-0.33l-0.15 -0.03c-0.2,-0.04 -0.4,-0.07 -0.6,-0.09 -1.37,-0.15 -2.76,-0.11 -4.13,-0.19 -0.64,-0.04 -1.47,-0.31 -1.91,-0.8l-0.41 -0.46 0.61 -0.05c0.46,-0.04 0.93,-0.05 1.4,-0.06 0.96,-0.02 1.92,0.01 2.88,0.08 -0.09,-0.07 -0.17,-0.14 -0.25,-0.22 -0.12,-0.01 -0.25,-0.01 -0.37,-0.02 -0.81,-0.04 -1.62,-0.03 -2.42,0.01 -1,0.06 -2.05,0.11 -3.06,0.07 3.2,5.16 8.81,8.58 15.2,8.58 6.64,0 12.43,-3.69 15.56,-9.19 -0.42,0.04 -0.85,0.07 -1.28,0.08 -1.35,0.05 -2.7,0.12 -4.05,0.2l-0.36 0.02c-0.07,0.06 -0.14,0.12 -0.2,0.18l0.11 -0.01c1.07,-0.09 2.15,-0.12 3.23,-0.1 0.45,0.01 0.91,0.02 1.35,0.06l0.55 0.05 -0.37 0.41c-0.44,0.49 -1.26,0.75 -1.89,0.79 -1.27,0.07 -2.55,0.05 -3.83,0.16 -0.3,0.03 -0.61,0.06 -0.91,0.12l-0.32 0.07c-0.22,0.14 -0.45,0.27 -0.68,0.39l0.11 -0.02c0.29,-0.05 0.58,-0.12 0.86,-0.21 0.98,-0.3 2.54,-0.23 3.54,-0.07l0.35 0.05 -0.14 0.33c-0.07,0.17 -0.24,0.34 -0.39,0.44 -0.4,0.28 -0.93,0.38 -1.41,0.38 -1.23,0.02 -2.45,0.06 -3.68,0.09 -0.31,0.01 -0.61,0.02 -0.92,0.03 -0.16,0.14 -0.36,0.32 -0.49,0.47 0.65,-0.02 1.35,-0.05 1.95,-0.15 0.49,-0.08 0.97,-0.16 1.46,-0.24l0.88 -0.15 -0.65 0.62c-0.69,0.66 -1.91,1.13 -2.83,1.27 -1.16,0.18 -2.43,0.26 -3.61,0.26l-0.34 0 0.07 -0.33c0.07,-0.33 0.25,-0.74 0.4,-1.04 0.02,-0.04 0.05,-0.09 0.07,-0.13 -0.15,0.02 -0.31,0.04 -0.47,0.06l-0.03 0.1c-0.12,0.49 -0.18,1.03 -0.09,1.52 0.08,0.45 0.21,0.91 0.4,1.33 0.06,0.13 0.2,0.41 0.3,0.51 0.03,0.03 0.06,0.07 0.08,0.11 0.21,0.43 -0.34,0.87 -0.73,0.92 -0.68,0.09 -1.37,-0.35 -1.69,-0.94 -0.2,-0.36 -0.24,-1.05 -0.29,-1.46 -0.09,-0.66 -0.22,-1.29 -0.51,-1.9 -0.02,-0.05 -0.05,-0.1 -0.08,-0.15zm-9.86 -4.99c-2.61,-2.94 -4.22,-6.94 -4.22,-11.34 0,-5.72 2.71,-10.76 6.81,-13.69 -5.84,3.07 -9.84,9.32 -9.84,16.54 0,3.06 0.72,5.94 1.99,8.48l5.26 0.01zm26.88 -0.16c1.23,-2.51 1.92,-5.34 1.92,-8.33 0,-6.78 -3.54,-12.72 -8.82,-15.95 3.67,2.99 6.05,7.74 6.05,13.1 0,4.37 -1.58,8.34 -4.16,11.28 1.62,-0.04 3.24,-0.07 4.86,-0.09l0.15 -0z"/>
   </g>
  </g>
 </g>
</svg>
