<?xml version="1.0" encoding="UTF-8"?>
<!DOCTYPE svg PUBLIC "-//W3C//DTD SVG 1.1//EN" "http://www.w3.org/Graphics/SVG/1.1/DTD/svg11.dtd">
<!-- Creator: CorelDRAW -->
<svg xmlns="http://www.w3.org/2000/svg" xml:space="preserve" width="67.2754mm" height="67.2754mm" version="1.1" style="shape-rendering:geometricPrecision; text-rendering:geometricPrecision; image-rendering:optimizeQuality; fill-rule:evenodd; clip-rule:evenodd"
viewBox="0 0 14227.27 14227.27"
 xmlns:xlink="http://www.w3.org/1999/xlink"
 xmlns:xodm="http://www.corel.com/coreldraw/odm/2003">
 <defs>
  <style type="text/css">
   <![CDATA[
    .fil1 {fill:#FEFEFE}
    .fil0 {fill:url(#id1)}
   ]]>
  </style>
    <clipPath id="id0">
     <path d="M3932.43 3396.3l6393.53 0 0 7452.38 -6393.53 0 0 -7452.38z"/>
    </clipPath>
  <linearGradient id="id1" gradientUnits="userSpaceOnUse" x1="5435.98" y1="19926.63" x2="11871.09" y2="-8701.22">
   <stop offset="0" style="stop-opacity:1; stop-color:#0D2919"/>
   <stop offset="0.419608" style="stop-opacity:1; stop-color:#1B5E20"/>
   <stop offset="1" style="stop-opacity:1; stop-color:#FFF000"/>
  </linearGradient>
 </defs>
 <g id="Layer_x0020_1">
  <metadata id="CorelCorpID_0Corel-Layer"/>
  <rect class="fil0" x="-0.01" y="0.01" width="14227.27" height="14227.27"/>
  <g id="_2657727762128">
   <g style="clip-path:url(#id0)">
    <image x="3932.43" y="3396.3" width="6393.53" height="7452.38" xlink:href="icon_Images\icon_ImgID1.png"/>
   </g>
  </g>
  <g id="_2657727767552">
   <path class="fil1" d="M4106.95 10632.17l2959.45 -6909.16 2959.53 6909.16 -5918.97 0zm-205.64 135.56l6330.26 0 -1582.53 -3694.59 -1582.64 -3694.56 -3165.09 7389.15zm0 0z"/>
   <path class="fil1" d="M9818.88 10495.68l-2752.49 -6425.8 -2752.41 6425.8 5504.9 0zm-2937.58 -4097.83l-84.93 259.7 220.91 -160.98 220.8 160.98 -84.95 -259.7 221.44 -160.07 -273.36 0.51 -83.94 -259.99 -84.04 259.99 -273.36 -0.51 221.42 160.07zm-719.53 1477.15l-32.1 -99.44 -32.08 99.44 -104.49 -0.21 84.65 61.16 -32.5 99.31 84.42 -61.54 84.44 61.54 -32.48 -99.31 84.63 -61.16 -104.49 0.21zm164.83 -407.01l-104.47 0.21 -32.1 -99.42 -32.1 99.42 -104.47 -0.21 84.63 61.16 -32.5 99.23 84.44 -61.46 84.42 61.46 -32.48 -99.23 84.63 -61.16zm170.49 -285.09l-104.49 0.21 -32.08 -99.44 -32.1 99.44 -104.47 -0.21 84.63 61.24 -32.5 99.23 84.44 -61.56 84.42 61.56 -32.48 -99.23 84.63 -61.24zm191.35 -89.79l-32.48 -99.33 84.74 -61.14 -104.49 0.19 -32.21 -99.42 -32.08 99.42 -104.49 -0.19 84.65 61.14 -32.4 99.33 84.32 -61.56 84.44 61.56zm1265.55 682.46l-32.1 99.44 -104.47 -0.21 84.63 61.16 -32.5 99.31 84.44 -61.54 84.44 61.54 -32.5 -99.31 84.63 -61.16 -104.49 0.21 -32.08 -99.44zm-115.62 -307.36l-104.49 -0.21 84.63 61.16 -32.48 99.23 84.42 -61.46 84.44 61.46 -32.5 -99.23 84.65 -61.16 -104.49 0.21 -32.1 -99.42 -32.08 99.42zm-163.51 -285.09l-104.49 -0.21 84.65 61.24 -32.5 99.23 84.44 -61.56 84.44 61.56 -32.5 -99.23 84.63 -61.24 -104.49 0.21 -32.08 -99.44 -32.1 99.44zm-291.18 -189.34l-32.48 99.33 84.42 -61.56 84.34 61.56 -32.4 -99.33 84.65 -61.14 -104.49 0.19 -32.1 -99.42 -32.19 99.42 -104.49 -0.19 84.74 61.14zm-354.75 354.65l142.66 0.82c35.23,0.3 115.62,-177.09 17.4,-269.4 -77.55,-72.9 -160.07,-206.85 -160.07,-206.85 0,0 -82.41,133.95 -160.05,206.85 -98.21,92.31 -17.72,269.7 17.4,269.4l142.64 -0.82zm41.83 180.83l0 125.13c0,2.64 -0.42,5.27 -1.12,7.78l57.82 0c-0.72,-2.52 -1.12,-5.14 -1.12,-7.78l0 -125.13c0,-16.81 13.77,-30.47 30.47,-30.47 16.71,0 30.47,13.66 30.47,30.47l0 125.13c0,2.64 -0.4,5.27 -1.02,7.78l35.74 0 0 -246.82 -387.87 0 0 246.82 60.14 0c-0.61,-2.52 -1.02,-5.14 -1.02,-7.78l0 -125.13c0,-16.81 13.66,-30.47 30.47,-30.47 16.71,0 30.37,13.66 30.37,30.47l0 125.13c0,2.64 -0.3,5.27 -0.99,7.78l57.69 0c-0.59,-2.52 -1.02,-5.14 -1.02,-7.78l0 -125.13c0,-16.81 13.68,-30.47 30.5,-30.47 16.71,0 30.47,13.66 30.47,30.47zm-267.9 325.91c151.35,34.11 304.95,35.42 460.96,0l0 -173.86c-153.68,35.34 -307.36,43.44 -460.96,0l0 173.86zm371.57 434.12c0,0 4.76,15.59 22.16,40.39 17.43,24.81 96.98,87.78 96.98,87.78l-72.18 2.22 -2.62 75.62 -52.15 44.24c0,0 21.78,58.33 14.78,79.18 -6.87,20.85 -13.87,19.14 -39.99,31.3 -26.12,12.14 -4.36,52.13 -4.36,52.13l141.84 3.45c0,0 4.36,6.98 27.85,25.21 23.5,18.23 86.96,40.9 91.32,40.9 4.36,0 16.52,19.94 16.52,19.94l49.59 26.94 8.71 -29.56 26.94 -0.82c0,0 0,23.5 7.78,33.01 7.8,9.52 34.83,-17.4 40.9,-30.37 6.09,-13.07 7.8,-59.13 7.8,-59.13 0,0 -59.93,26.92 -118.26,26.92 -58.3,0 -146.09,-77.34 -146.09,-77.34 0,0 29.56,-32.19 29.56,-64.29 0,-32.21 -33.92,-33.92 -68.75,-59.13 -34.72,-25.21 -13.87,-49.51 -13.87,-49.51 0,0 23.5,-6.98 47.79,-3.55 24.4,3.55 11.34,15.71 35.74,28.66 24.3,13.07 100.83,25.21 100.83,25.21l10.43 56.51c10.45,56.49 40.92,109.12 62.47,106.5 21.57,-2.62 63.38,-34.22 75.62,-50.73 12.16,-16.5 20.47,-76.43 20.47,-76.43 0,0 42.61,6.98 58.3,12.16 15.59,5.24 57.42,10.43 57.42,10.43 0,0 -0.91,120.88 -0.91,146.09 0,25.21 4.34,37.35 9.6,44.24 5.16,6.98 25.21,-5.16 28.66,-9.52 3.45,-4.36 4.36,-164.21 4.36,-164.21 0,0 29.56,0.8 44.35,0.8 14.78,0 86.96,-0.8 86.96,-0.8 0,0 0.91,3.45 2.64,15.59 1.71,12.16 6.58,95.17 6.58,95.17l20.85 13.07 6.98 -129.3c0,0 37.37,-17.4 30.39,-26.92 -7,-9.62 -44.35,-5.27 -44.35,-5.27 0,0 -15.69,-58.22 -24.3,-76.45 -8.71,-18.21 -22.69,-92.12 -22.69,-92.12l23.5 0.8c0,0 23.5,33.92 35.63,53.97 12.24,19.94 59.24,120.78 73.11,132.11 13.96,11.25 26.92,-9.6 25.21,-17.4 -1.73,-7.8 -80.89,-128.68 -94.76,-145.18 -13.98,-16.52 0,-41.72 0,-41.72 0,0 23.47,15.69 36.54,30.47 12.96,14.78 45.66,67.74 59.93,84.23 14.38,16.6 50.52,-1.71 50.52,-1.71 0,0 -71.37,-99.01 -92.23,-130.4 -20.85,-31.28 -146.11,-145.98 -337.46,-255.44 -191.35,-109.55 -431.5,-142.56 -431.5,-142.56l29.67 39.91 -29.56 29.56 141.75 0 3.43 26.92c0,0 -142.54,28.76 -147.8,30.47 -5.27,1.71 1.71,39.08 1.71,39.08 0,0 10.43,-3.45 89.6,-18.23 79.18,-14.78 86.96,49.51 86.96,49.51 0,0 0,0.91 -57.4,21.78 -57.42,20.85 -149.54,75.62 -149.54,75.62zm155.61 -33.92c35.63,-13.87 130.5,-3.45 130.5,-3.45l-129.59 129.49c0,0 -45.26,-17.4 -60.95,-30.47 -15.59,-13.05 -29.46,-33.71 -31.28,-32.08 0,0 55.68,-49.61 91.32,-63.49zm35.63 141.65l108.74 -112.08c0,0 72.2,13.07 97.39,33.01 25.21,19.94 39.19,56.49 38.28,61.65 -0.8,5.27 14.78,27.85 19.14,23.5 4.36,-4.36 12.14,-35.63 12.14,-35.63 0,0 23.5,-11.25 43.54,-5.16 20.05,6.07 20.85,60.84 20.85,60.84l3.55 149.43 -102.67 -16.5c0,0 -4.34,-22.59 1.73,-52.15 6.07,-29.56 6.07,-57.29 6.07,-57.29 0,0 -31.28,-8.71 -33.92,-3.55l-37.35 79.07c0,0 -90.51,-43.44 -118.36,-66 -27.83,-22.59 -59.13,-59.13 -59.13,-59.13zm-15.69 27.83l1.82 2.14c7.51,9.11 37.26,44.64 53.86,55.17 19.14,12.14 129.59,76.53 129.59,76.53l4.36 86.07c0,0 -6.87,27.72 -25.21,-7 -18.23,-34.72 -39.19,-66 -46.06,-76.43 -6.98,-10.43 -100.94,-65.22 -113.1,-75.65 -12.14,-10.43 -25.21,-32.99 -25.21,-32.99 0,0 -3.53,-17.43 8.21,-22.69l11.74 -5.16zm399.71 154.72l0.8 -180.73c0,0 9.62,-5.27 28.76,3.45 19.14,8.69 31.28,31.28 44.35,51.22 13.05,20.05 39.19,128.68 39.19,128.68l-113.1 -2.62zm-995.43 -152.07c27.85,13.87 46.06,29.56 78.27,37.35 32.19,7.8 39.19,-14.78 39.19,-14.78 0,0 -0.91,-13.87 -10.55,-16.5 -9.5,-2.62 -16.5,-44.35 -50.4,-70.46 -33.92,-26.03 -74.82,13.07 -74.82,13.07l-9.52 20.03c0,0 0,17.32 27.83,31.3zm-601.89 318.91c0,0 39.99,-26.92 44.35,-46.88 4.34,-20.03 -11.36,-34.81 -11.36,-34.81 0,0 -30.37,20.03 -34.7,50.42 -4.36,30.47 1.71,31.28 1.71,31.28zm833.94 38.79l-175.65 -146.51 126.95 -104.28 -6.07 -59.13 -146.09 139.94 -133.95 -149.54 9.52 -34.72c3.53,-12.16 19.14,-8.71 19.14,-8.71 0,0 0.91,-28.66 10.43,-51.24 9.62,-22.67 19.14,-7.89 37.45,-21.76 18.23,-13.87 -9.62,-60.84 -9.62,-60.84 0,0 -55.68,30.47 -78.25,44.35 -22.69,13.87 0.91,32.19 0.91,50.42 0,18.23 -19.24,39.99 -19.24,39.99l-93.05 -122.61 147.53 -96.48 -28.36 -16.09 -133.44 83.94 -44.83 -73c0,0 22.16,-28.76 48.28,-49.61 26.12,-20.85 105.29,-45.55 105.29,-45.55 0,0 -4.36,14.78 28.66,37.75 33.12,23.09 71.37,23.5 71.37,23.5l25.21 102.55c0,0 62.58,-17.4 83.53,0.82 20.85,18.31 -14.89,12.24 -40.1,22.67 -25.21,10.43 -12.16,14.78 -0.8,33.82 11.23,19.14 33.92,-16.5 55.68,-15.59 21.66,0.8 26.92,22.59 40.79,25.21 13.98,2.62 19.14,-13.96 19.14,-18.23 0,-4.36 -61.75,-79.18 -55.58,-98.3 6.07,-19.03 47.77,-12.96 47.77,-12.96l-38.26 -208.67c0.8,4.46 -94.17,21.78 -94.17,21.78 0,0 -208.75,34.81 -403.65,173.81 -194.79,139.11 -322.67,352.03 -322.67,352.03 0,0 -0.8,27.85 7,32.21 7.78,4.36 40.9,-13.98 40.9,-13.98 0,0 61.75,46.06 97.39,68.75 35.66,22.56 171.4,98.19 171.4,98.19l7.8 61.67 27.85 -27.75c0,0 137.88,54.67 161.38,54.67 23.47,0 31.28,-17.81 31.28,-17.81l-203.48 -108.64c-203.61,-108.64 -274.37,-175.55 -274.37,-175.55 0,0 19.12,-31.3 92.12,-123.42 73.09,-92.14 214.95,-169.5 214.95,-169.5l53.04 83.43c0,0 -21.76,19.94 -93.13,82.52 -71.29,62.58 -146.91,173.83 -146.91,173.83l46.08 21.76c0,0 34.83,-66.91 82.6,-125.13 47.9,-58.22 131.81,-117.75 131.81,-117.75l96.6 120.8 -85.67 79.58 15.69 43.42 98.21 -87.26 140.13 149.43 -121.79 161.7 50.42 9.52 107.01 -146.41 158.76 132.94 -34.43 49.11 22.67 10.02c0,0 22.59,-22.99 38.28,-37.77 15.59,-14.78 12.56,-41.3 12.56,-41.3zm-90.01 -863.11l133.55 961.21c0,0 1.71,0.51 15.69,11.34 13.85,10.83 31.68,-9.62 31.68,-9.62l100.94 -962.92 -281.86 0zm-4.36 1283.35c-49.11,-70.87 -137.69,-153.39 -293.91,-192.15 -87.97,-21.87 -178.49,-34.94 -262.61,-42.53 -205.24,-18.63 -372.37,-4.44 -372.37,-4.44 0,0 45.24,50.4 135.64,55.68 76.66,4.34 229.22,3.83 331.28,15.08 18.42,2.11 35.34,4.55 49.72,7.49 93.94,19.14 107.92,26.01 149.62,50.42 41.72,24.3 59.13,43.44 59.13,43.44 0,0 -28.76,-0.4 -70.06,-4.65 -41.81,-4.36 -96.58,-12.67 -147.4,-28.36 -100.83,-31.28 -273.06,-5.27 -273.06,-5.27 0,0 20.85,50.44 123.52,52.15 102.57,1.71 374.8,9.41 374.8,9.41 0,0 37.45,32.29 49.61,47.98 12.14,15.61 15.69,34.32 15.69,34.32 0,0 -129.59,-2.62 -193.99,-13.05 -64.4,-10.43 -116.52,-19.14 -116.52,-19.14 0,0 78.25,74.72 213.93,95.57 135.66,20.96 284.48,20.45 284.48,20.45 0,0 -11.44,-56.08 -57.5,-122.4zm645.11 -218.88c-191.13,47.37 -281.03,160.36 -321.24,237.21 -23.5,44.85 -30.18,77.34 -30.18,77.34 0,0 148.84,0.4 284.5,-20.45 135.66,-20.85 213.93,-95.57 213.93,-95.57 0,0 -52.15,8.71 -116.55,19.14 -64.37,10.43 -193.97,13.05 -193.97,13.05 0,0 3.43,-18.21 15.18,-33.71 0.21,-0.19 0.3,-0.4 0.51,-0.59 12.14,-15.69 49.59,-48.01 49.59,-48.01 0,0 33.33,-0.91 81.1,-2.22 88.69,-2.43 227.11,-6.07 293.72,-7.19 102.65,-1.71 123.5,-52.15 123.5,-52.15 0,0 -172.21,-26.12 -273.04,5.27 -23.5,7.19 -47.69,12.86 -71.18,17.32 -77.55,14.68 -146.3,15.69 -146.3,15.69 0,0 17.43,-19.14 59.13,-43.44 41.72,-24.4 55.68,-31.28 149.64,-50.42 20.66,-4.25 46.38,-7.49 74.82,-9.92 100.62,-8.82 235.59,-8.61 306.16,-12.65 90.41,-5.27 135.66,-55.68 135.66,-55.68 0,0 -161.48,-13.68 -361.84,3.43 -87.07,7.51 -181.43,20.77 -273.17,43.54zm-258.76 -114.11c-215.75,43.54 -240.05,142.56 -240.05,142.56 0,0 -57.52,-83.43 -137.48,-128.68 -80.09,-45.15 -267.9,-48.6 -267.9,-48.6l-443.85 -0.8 -428.96 -0.8 -104.89 -0.21c0,0 0,20.96 19.14,36.54 12.54,10.24 22.06,28.55 125.13,34.32 54.67,3.05 135.77,2.43 257.56,-4.76 69.77,-4.14 135.47,-4.04 196.1,-1.21 245.02,11.55 407.92,67.63 423.21,68.94 19.14,1.82 137.48,34.83 252.29,163.41 22.88,25.72 40.2,52.95 53.36,80.38 52.53,109.86 39.48,224.25 63.17,267.29 29.56,53.97 83.53,66.11 111.39,62.58 27.83,-3.45 48.68,-31.3 38.26,-41.72 -10.43,-10.43 -45.26,-64.29 -62.66,-159.86 -7.7,-42.32 -3.15,-88.69 7.38,-131.41 13.26,-53.97 35.85,-102.25 55.28,-129.38 34.83,-48.6 144.38,-112.99 241.76,-149.45 59.13,-22.16 229.94,-38.47 406.9,-49.91 115.02,-7.38 232.67,-12.75 323.77,-16.2 49.4,-1.82 87.57,-4.76 117.14,-8.31 108.95,-12.94 100.35,-33.39 100.35,-33.39 0,0 -31.19,0.19 -83.13,0.8 -91.02,1.02 -245.93,3.24 -410.03,7.8 -243.98,6.87 -508.35,19.03 -613.22,40.08zm956.24 1295.11c0,0 -113.1,26.01 -147.02,33.01 -33.9,6.87 -53.84,3.45 -53.84,3.45 0,0 5.16,92.12 61.75,117.33 56.51,25.21 151.25,19.14 151.25,19.14 0,0 -31.28,-23.5 -39.06,-59.93 -7.8,-36.54 -8.71,-49.61 2.62,-68.75 11.23,-19.03 24.3,-44.24 24.3,-44.24zm6.98 -410.23l177.07 328.43c0,0 -92.23,49.51 -122.7,72.18 -30.37,22.59 -44.35,46.08 -53.06,78.16 -8.69,32.19 -0.8,64.4 40.01,87.78 40.9,23.5 128.77,-13.07 128.77,-13.07 0,0 111.36,-6.87 347.88,-354.54 236.6,-347.67 434.02,-482.34 434.02,-482.34l-338.75 3.85c0,0 -9.62,-37.75 -17.02,-62.96 -7.38,-25.23 -15.69,-83.03 -5.16,-142.05 10.43,-59.13 48.2,-134.35 48.2,-134.35 0,0 -47.39,23.5 -86.96,50.42 -39.59,26.92 -70.46,50.42 -138.31,118.26 -67.84,67.72 -262.63,384.11 -313.16,422.39 -50.42,38.28 -100.83,27.85 -100.83,27.85zm-2462.34 316.29c811.89,274.27 1668.71,259.99 2564.09,-3.45l-243.47 -448.52c-728.65,163.62 -1419.23,160.89 -2073.56,0l-247.05 451.97zm319.95 -93.56c30.98,2.52 62.15,5.16 93.35,7.8 -2.54,17 -1.92,30.56 2.11,40.29 6.58,15.69 19.54,24.7 38.89,27.32 14.17,1.84 26.12,-0.19 35.74,-6.58 9.52,-6.28 15.48,-14.38 17.7,-24.09 2.14,-9.11 0.11,-17.93 -5.46,-26.12 -5.67,-8.31 -20.66,-17.02 -45.04,-27.13 -39.5,-16.41 -65.41,-35.66 -77.68,-55.89 -12.35,-20.34 -14.47,-44.03 -6.15,-71.37 5.46,-17.83 14.87,-34.13 28.23,-48.91 13.26,-14.68 29.78,-25.5 49.3,-32.29 19.56,-6.77 43.95,-7.99 73.83,-4.25 36.84,4.57 63.06,16.71 79.26,35.95 16.3,19.24 23.09,47.18 20.15,84.74 -30.39,-1.12 -60.25,-2.54 -90.01,-4.25 1.42,-16.41 -0.8,-28.76 -6.47,-36.97 -5.79,-8.29 -14.99,-13.15 -27.85,-14.78 -10.64,-1.31 -19.24,0.42 -25.82,4.86 -6.87,4.65 -11.44,10.83 -13.37,18.53 -1.42,5.58 -0.3,10.85 2.73,16.09 3.05,5.27 12.27,10.95 27.85,17.13 38.47,15.37 65.71,29.97 81.61,42.61 15.88,12.75 26.82,27.24 32.4,43.84 5.46,16.6 6.68,34.72 3.13,54.27 -4.14,22.88 -13.87,43.44 -29.35,61.46 -15.69,18.12 -35.34,31.19 -59.24,38.57 -23.39,7.19 -51.54,8.71 -84.04,4.14 -56.7,-7.89 -92.52,-25.8 -106.9,-52.34 -14.17,-26.12 -17,-57.1 -8.9,-92.63zm539.12 119.06c-39.99,-2.33 -80.09,-4.76 -119.49,-7.91 -8.48,19.24 -16.6,38.49 -24.89,57.61 -36.65,-2.81 -73,-5.96 -109.04,-9.6 31.28,-57.42 62.36,-114.73 91.53,-172.93 28.85,-57.82 56.19,-116.14 82.81,-174.26 33.5,2.94 67.42,5.29 101.23,7.61 14.99,60.95 30.37,122.19 47.9,182.63 17.62,60.65 37.05,120.99 57.8,181.43 -38.47,-1.21 -76.53,-2.52 -114.41,-4.44 -4.76,-20.05 -9.31,-40.1 -13.45,-60.14zm-15.8 -78.97c-4.25,-21.78 -8.5,-43.65 -12.35,-65.52 -3.85,-21.76 -7.51,-43.63 -10.83,-65.49 -8.12,21.15 -16.01,42.32 -24.11,63.27 -8.21,21.17 -16.81,42 -25.21,62.98 24,1.82 48.3,3.24 72.49,4.76zm182.12 -213.02c28.76,0.91 58.01,1.52 87.38,2.33 20.56,33.31 41.51,66.32 63.38,99.01 21.87,32.91 44.96,65.52 68.65,98.21 -3.05,-32.69 -5.77,-65.41 -8.5,-98.21 -2.75,-32.69 -5.98,-65.39 -8.71,-98.21 29.46,-0.4 59.21,-0.91 88.78,-1.42 7.7,59.13 15.4,118.26 23.09,177.28 7.7,59.02 15.4,118.15 23.09,177.28 -34.75,1.02 -69.45,2.11 -103.98,2.52 -24.81,-32.38 -49.21,-64.69 -72.6,-97.17 -23.18,-32.42 -45.15,-65.41 -66.91,-98.42 1.02,32.72 2.22,65.41 3.45,98 1.1,32.72 1.9,65.3 3.13,98 -34.51,-0.4 -68.86,-0.91 -103.16,-1.31 0.4,-59.62 0.99,-119.25 1.5,-179 0.61,-59.64 0.82,-119.25 1.42,-178.89zm332.19 0.51c95.06,-4.06 189.42,-9.92 282.66,-17.83 8.1,28.87 16.6,57.5 24.72,86.37 -32.61,2.83 -65.3,5.67 -98.02,8.4 10.85,43.95 21.57,88 32.1,132.03 10.53,44.05 21.36,88.08 32,132.13 -36.35,2.73 -72.2,5.35 -108.53,7.59 -8.71,-44.24 -17.32,-88.59 -26.03,-132.74 -8.71,-44.24 -17.19,-88.59 -26.01,-132.83 -33.2,1.63 -66.51,3.15 -99.63,4.46 -4.14,-29.16 -8.71,-58.33 -13.26,-87.57zm432.6 326.31c-18.1,-58.11 -36.12,-116.12 -54.05,-174.15 -17.91,-58.01 -36.04,-116.12 -53.86,-174.13 50.12,-5.37 100.24,-11.23 149.54,-17.62 27.43,-3.55 49.32,-3.74 65.92,-0.3 16.6,3.43 32.59,11.93 48.17,25.5 15.4,13.66 27.85,31.38 37.47,52.85 8.29,18.82 12.35,35.53 11.44,50.31 -1.02,14.89 -6.49,27.64 -15.4,38.28 -5.77,6.79 -14.97,13.07 -27.83,18.82 13.05,2.43 23.47,5.37 30.37,8.61 4.55,2.24 12.14,7.4 22.67,15.29 10.85,8.02 18.23,14.17 22.69,18.74 14.68,14.97 29.97,30.07 44.94,44.85 15.18,14.89 30.79,29.67 46.17,44.35 -37.66,6.77 -75.73,13.77 -113.99,19.84 -16.2,-15.99 -32.21,-32 -48.09,-48.09 -15.9,-15.99 -31.59,-32.1 -46.99,-48.41 -11.84,-12.54 -20.64,-20.75 -27.62,-23.98 -9.03,-4.25 -18.14,-5.77 -27.05,-4.65 -2.94,0.3 -5.88,0.7 -8.4,1.02 8.21,23.39 16.5,46.67 24.81,70.04 8.29,23.3 16.39,46.59 24.91,69.87 -35.15,4.36 -70.68,8.8 -105.82,12.96zm32.82 -217.97c13.37,-1.63 27.03,-3.55 40.18,-5.37 4.36,-0.61 11.95,-3.45 23.28,-8.21 5.48,-2.22 9.33,-6.49 10.85,-12.86 1.61,-6.39 1.02,-13.26 -1.92,-20.66 -4.57,-11.12 -10.93,-19.14 -19.35,-24.3 -8.4,-5.05 -20.75,-6.58 -37.45,-4.36 -13.47,1.84 -27.03,3.55 -40.5,5.27 8.31,23.5 16.6,46.99 24.91,70.49zm172.21 -172.42c28.36,-4.86 56.8,-9.73 85.14,-14.59 28.66,54.77 57.42,109.55 86.07,164.32 28.55,54.67 57.18,109.55 85.75,164.21 -32.5,6.98 -65.3,14.08 -97.81,21.06 -26.41,-55.89 -53.06,-111.77 -79.47,-167.45 -26.43,-55.89 -53.06,-111.68 -79.68,-167.55zm-1729.13 457c-33.92,-7 -146.91,-33.01 -146.91,-33.01 0,0 12.96,25.21 24.3,44.24 11.36,19.14 10.43,32.21 2.64,68.75 -7.91,36.44 -39.19,59.93 -39.19,59.93 0,0 94.87,6.07 151.35,-19.14 56.59,-25.21 61.75,-117.33 61.75,-117.33 0,0 -19.92,3.43 -53.95,-3.45zm-254.73 -471.09c-50.52,-38.28 -245.31,-354.67 -313.16,-422.39 -67.84,-67.84 -98.8,-91.34 -138.31,-118.26 -39.57,-26.92 -87.07,-50.42 -87.07,-50.42 0,0 37.88,75.22 48.3,134.35 10.43,59.02 2.22,116.82 -5.16,142.05 -7.4,25.21 -17.02,62.96 -17.02,62.96l-338.75 -3.85c0,0 197.41,134.67 434.04,482.34 236.5,347.67 347.86,354.54 347.86,354.54 0,0 87.87,36.56 128.68,13.07 40.9,-23.39 48.79,-55.6 40.1,-87.78 -8.71,-32.08 -22.69,-55.58 -53.06,-78.16 -30.47,-22.67 -122.7,-72.18 -122.7,-72.18l177.07 -328.43c0,0 -50.42,10.43 -100.83,-27.85zm931.22 -510.78c-9.71,-10.83 -23.37,-22.97 -34.83,-32.91 -96.37,-2.52 -192.76,-5.46 -289.24,-7.59l57.31 9.62c38.87,6.49 77.63,12.86 116.42,19.14 46.06,7.4 100.24,10.32 150.34,11.74zm232.65 -7c-10.38,-0.78 -20.7,-1.71 -31,-2.77 21.17,33.94 42.85,78.18 49.95,114.26l5.67 29.06 -29.56 0c-94.26,0.11 -195.3,-6.49 -288.24,-20.77 -73.89,-11.34 -171.7,-48.89 -227.09,-102.14l-53.65 -51.54c-19.84,-0.4 -39.69,-0.8 -59.43,-1.21 -38.89,-0.61 -81.4,-7.99 -113.8,-30.88 -12.05,-8.61 -26.03,-22.18 -31.81,-36.14l-12.03 -28.76 30.88 -4.76c80.89,-12.16 205.51,-18.23 283.99,6.07 18.93,5.88 38.45,10.74 58.18,14.78 -16.79,-8.33 -33.41,-17.05 -49.8,-26.16l-11.82 -2.39c-15.61,-3.13 -31.7,-5.27 -47.58,-7.08 -109.46,-12.14 -220.21,-8.71 -329.86,-14.99 -50.92,-2.94 -117.14,-24.38 -152.48,-63.68l-32.69 -36.44 48.81 -4.06c36.73,-3.13 74.61,-4.25 111.36,-4.95 76.41,-1.33 153.17,0.7 229.43,6.37 -6.83,-5.69 -13.58,-11.48 -20.28,-17.32 -9.85,-0.61 -19.69,-1.16 -29.54,-1.61 -64.5,-3.05 -129.09,-2.73 -193.59,1.12 -79.85,4.74 -163.62,8.95 -244.07,5.54 255.49,411.96 703.44,685.13 1213.38,685.13 529.77,0 992.59,-294.8 1242.26,-733.72 -33.82,3.49 -67.99,5.31 -101.87,6.6 -107.71,4.06 -215.54,9.22 -323.05,16.09l-28.95 1.9c-5.35,4.89 -10.74,9.75 -16.18,14.55l8.48 -0.76c85.54,-7.27 171.91,-9.92 257.77,-8.29 35.53,0.7 72.28,1.82 107.81,4.86l44.05 3.85 -29.56 32.88c-34.83,38.79 -100.54,59.93 -150.87,62.87 -101.74,5.88 -203.59,3.76 -305.44,12.67 -24,2.11 -48.7,4.76 -72.39,9.52 -8.14,1.67 -16.69,3.36 -25.44,5.18 -17.72,10.91 -35.76,21.34 -54.03,31.3l8.5 -1.56c23.18,-4.34 46.27,-9.81 68.73,-16.79 78.08,-24.19 202.38,-18.12 282.98,-5.88l27.94 4.14 -10.83 26.14c-5.67,13.56 -19.33,26.92 -31.09,35.13 -31.98,22.67 -74.1,29.97 -112.46,30.58 -97.81,1.61 -195.7,4.55 -293.51,7.19 -24.4,0.59 -48.89,1.5 -73.3,2.01 -12.86,11.14 -28.66,25.23 -38.89,37.58 51.54,-1.44 107.94,-4.27 155.63,-11.95 38.87,-6.28 77.65,-12.67 116.42,-19.14l70.57 -11.95 -51.62 49.59c-54.98,52.87 -152.37,90.22 -225.88,101.55 -92.84,14.27 -193.69,20.77 -287.84,20.66l-26.92 0 5.35 -26.41c5.29,-26.65 19.75,-59.45 32.1,-83.24 1.9,-3.6 3.85,-7.17 5.82,-10.7 -12.37,1.82 -24.81,3.45 -37.28,4.86 -0.76,2.79 -1.48,5.56 -2.14,8.27 -9.52,38.89 -14.27,82.12 -7.08,121.6 6.58,36.14 16.9,72.79 32.19,106.31 4.65,10.11 15.9,33.1 23.9,41.01 2.54,2.62 4.65,5.56 6.28,8.8 17,34.62 -26.84,69.34 -58.43,73.3 -54.67,6.89 -109.33,-27.64 -135.16,-74.72 -15.8,-28.85 -19.14,-83.83 -23.47,-116.95 -6.89,-52.64 -17.21,-103.35 -40.31,-151.55 -1.95,-4.08 -4,-8.1 -6.09,-12.08zm-786.87 -398.61c-208.45,-234.87 -336.61,-553.84 -336.61,-905.27 0,-456.71 216.26,-858.64 543.99,-1092.41 -466.44,245 -785.75,744.13 -785.75,1320 0,243.92 57.29,474.05 158.76,676.92l419.61 0.76zm2145.8 -12.46c97.87,-200.02 153.05,-425.98 153.05,-665.23 0,-541.45 -282.26,-1015.07 -703.74,-1273.33 293.19,238.42 482.83,618.09 482.83,1045.74 0,348.92 -126.34,665.88 -332.15,900.24 129.23,-3.49 258.64,-5.84 387.94,-7.27l12.08 -0.15z"/>
  </g>
 </g>
</svg>
