<?xml version="1.0" encoding="UTF-8"?>
<!DOCTYPE svg PUBLIC "-//W3C//DTD SVG 1.1//EN" "http://www.w3.org/Graphics/SVG/1.1/DTD/svg11.dtd">
<!-- Creator: CorelDRAW 2021.5 -->
<svg xmlns="http://www.w3.org/2000/svg" xml:space="preserve" width="3.3922in" height="3.95963in" version="1.1" style="shape-rendering:geometricPrecision; text-rendering:geometricPrecision; image-rendering:optimizeQuality; fill-rule:evenodd; clip-rule:evenodd"
viewBox="0 0 550.49 642.57"
 xmlns:xlink="http://www.w3.org/1999/xlink"
 xmlns:xodm="http://www.corel.com/coreldraw/odm/2003">
 <defs>
  <style type="text/css">
   <![CDATA[
    .fil0 {fill:#064E3B}
   ]]>
  </style>
 </defs>
 <g id="Layer_x0020_1">
  <metadata id="CorelCorpID_0Corel-Layer"/>
  <path class="fil0" d="M17.88 630.78l257.36 -600.83 257.37 600.83 -514.73 0zm-17.88 11.79l550.49 0 -137.62 -321.29 -137.63 -321.29 -275.24 642.57zm0 0z"/>
  <path class="fil0" d="M514.6 618.92l-239.36 -558.8 -239.35 558.8 478.72 0zm-255.46 -356.35l-7.39 22.58 19.21 -14 19.2 14 -7.39 -22.58 19.26 -13.92 -23.77 0.04 -7.3 -22.61 -7.31 22.61 -23.77 -0.04 19.26 13.92zm-62.57 128.45l-2.79 -8.65 -2.79 8.65 -9.09 -0.02 7.36 5.32 -2.83 8.64 7.34 -5.35 7.34 5.35 -2.83 -8.64 7.36 -5.32 -9.09 0.02zm14.33 -35.39l-9.09 0.02 -2.79 -8.65 -2.79 8.65 -9.09 -0.02 7.36 5.32 -2.83 8.63 7.34 -5.34 7.34 5.34 -2.83 -8.63 7.36 -5.32zm14.83 -24.79l-9.09 0.02 -2.79 -8.65 -2.79 8.65 -9.09 -0.02 7.36 5.33 -2.83 8.63 7.34 -5.35 7.34 5.35 -2.83 -8.63 7.36 -5.33zm16.64 -7.81l-2.83 -8.64 7.37 -5.32 -9.09 0.02 -2.8 -8.65 -2.79 8.65 -9.09 -0.02 7.36 5.32 -2.82 8.64 7.33 -5.35 7.34 5.35zm110.05 59.35l-2.79 8.65 -9.09 -0.02 7.36 5.32 -2.83 8.64 7.34 -5.35 7.34 5.35 -2.83 -8.64 7.36 -5.32 -9.09 0.02 -2.79 -8.65zm-10.05 -26.73l-9.09 -0.02 7.36 5.32 -2.83 8.63 7.34 -5.34 7.34 5.34 -2.83 -8.63 7.36 -5.32 -9.09 0.02 -2.79 -8.65 -2.79 8.65zm-14.22 -24.79l-9.09 -0.02 7.36 5.33 -2.83 8.63 7.34 -5.35 7.34 5.35 -2.83 -8.63 7.36 -5.33 -9.09 0.02 -2.79 -8.65 -2.79 8.65zm-25.32 -16.46l-2.83 8.64 7.34 -5.35 7.33 5.35 -2.82 -8.64 7.36 -5.32 -9.09 0.02 -2.79 -8.65 -2.8 8.65 -9.09 -0.02 7.37 5.32zm-30.85 30.84l12.4 0.07c3.06,0.03 10.05,-15.4 1.51,-23.43 -6.74,-6.34 -13.92,-17.99 -13.92,-17.99 0,0 -7.17,11.65 -13.92,17.99 -8.54,8.03 -1.54,23.45 1.51,23.43l12.41 -0.07zm3.64 15.72l0 10.88c0,0.23 -0.04,0.46 -0.1,0.68l5.03 0c-0.06,-0.22 -0.1,-0.45 -0.1,-0.68l0 -10.88c0,-1.46 1.2,-2.65 2.65,-2.65 1.45,0 2.65,1.19 2.65,2.65l0 10.88c0,0.23 -0.04,0.46 -0.09,0.68l3.11 0 0 -21.46 -33.73 0 0 21.46 5.23 0c-0.05,-0.22 -0.09,-0.45 -0.09,-0.68l0 -10.88c0,-1.46 1.19,-2.65 2.65,-2.65 1.45,0 2.64,1.19 2.64,2.65l0 10.88c0,0.23 -0.03,0.46 -0.09,0.68l5.02 0c-0.05,-0.22 -0.09,-0.45 -0.09,-0.68l0 -10.88c0,-1.46 1.19,-2.65 2.65,-2.65 1.45,0 2.65,1.19 2.65,2.65zm-23.3 28.34c13.16,2.97 26.52,3.08 40.09,0l0 -15.12c-13.37,3.07 -26.73,3.78 -40.09,0l0 15.12zm32.31 37.75c0,0 0.41,1.36 1.93,3.51 1.51,2.16 8.43,7.63 8.43,7.63l-6.28 0.19 -0.23 6.58 -4.53 3.85c0,0 1.89,5.07 1.29,6.89 -0.6,1.81 -1.21,1.66 -3.48,2.72 -2.27,1.06 -0.38,4.53 -0.38,4.53l12.33 0.3c0,0 0.38,0.61 2.42,2.19 2.04,1.59 7.56,3.56 7.94,3.56 0.38,0 1.43,1.73 1.43,1.73l4.31 2.34 0.76 -2.57 2.34 -0.07c0,0 0,2.04 0.68,2.87 0.68,0.83 3.03,-1.51 3.56,-2.64 0.53,-1.14 0.68,-5.14 0.68,-5.14 0,0 -5.21,2.34 -10.28,2.34 -5.07,0 -12.7,-6.73 -12.7,-6.73 0,0 2.57,-2.8 2.57,-5.59 0,-2.8 -2.95,-2.95 -5.98,-5.14 -3.02,-2.19 -1.21,-4.31 -1.21,-4.31 0,0 2.04,-0.61 4.16,-0.31 2.12,0.31 0.99,1.36 3.11,2.49 2.11,1.14 8.77,2.19 8.77,2.19l0.91 4.91c0.91,4.91 3.56,9.49 5.43,9.26 1.88,-0.23 5.51,-2.98 6.58,-4.41 1.06,-1.43 1.78,-6.65 1.78,-6.65 0,0 3.71,0.61 5.07,1.06 1.36,0.46 4.99,0.91 4.99,0.91 0,0 -0.08,10.51 -0.08,12.7 0,2.19 0.38,3.25 0.84,3.85 0.45,0.61 2.19,-0.45 2.49,-0.83 0.3,-0.38 0.38,-14.28 0.38,-14.28 0,0 2.57,0.07 3.86,0.07 1.29,0 7.56,-0.07 7.56,-0.07 0,0 0.08,0.3 0.23,1.36 0.15,1.06 0.57,8.28 0.57,8.28l1.81 1.14 0.61 -11.24c0,0 3.25,-1.51 2.64,-2.34 -0.61,-0.84 -3.86,-0.46 -3.86,-0.46 0,0 -1.36,-5.06 -2.11,-6.65 -0.76,-1.59 -1.97,-8.01 -1.97,-8.01l2.04 0.07c0,0 2.04,2.95 3.1,4.69 1.07,1.73 5.15,10.5 6.36,11.49 1.22,0.98 2.34,-0.84 2.19,-1.51 -0.15,-0.68 -7.03,-11.19 -8.24,-12.63 -1.22,-1.44 0,-3.63 0,-3.63 0,0 2.04,1.36 3.18,2.65 1.13,1.29 3.97,5.89 5.21,7.32 1.25,1.44 4.39,-0.15 4.39,-0.15 0,0 -6.21,-8.61 -8.02,-11.34 -1.81,-2.72 -12.7,-12.7 -29.34,-22.21 -16.64,-9.53 -37.52,-12.4 -37.52,-12.4l2.58 3.47 -2.57 2.57 12.33 0 0.3 2.34c0,0 -12.4,2.5 -12.85,2.65 -0.46,0.15 0.15,3.4 0.15,3.4 0,0 0.91,-0.3 7.79,-1.58 6.88,-1.29 7.56,4.3 7.56,4.3 0,0 0,0.08 -4.99,1.89 -4.99,1.81 -13,6.58 -13,6.58zm13.53 -2.95c3.1,-1.21 11.35,-0.3 11.35,-0.3l-11.27 11.26c0,0 -3.93,-1.51 -5.3,-2.65 -1.36,-1.14 -2.56,-2.93 -2.72,-2.79 0,0 4.84,-4.31 7.94,-5.52zm3.1 12.32l9.46 -9.75c0,0 6.28,1.14 8.47,2.87 2.19,1.73 3.41,4.91 3.33,5.36 -0.07,0.46 1.29,2.42 1.66,2.04 0.38,-0.38 1.06,-3.1 1.06,-3.1 0,0 2.04,-0.98 3.79,-0.45 1.74,0.53 1.81,5.29 1.81,5.29l0.31 13 -8.93 -1.44c0,0 -0.38,-1.96 0.15,-4.53 0.53,-2.57 0.53,-4.98 0.53,-4.98 0,0 -2.72,-0.76 -2.95,-0.31l-3.25 6.88c0,0 -7.87,-3.78 -10.29,-5.74 -2.42,-1.96 -5.14,-5.14 -5.14,-5.14zm-1.36 2.42l0.16 0.18c0.65,0.79 3.24,3.88 4.68,4.8 1.66,1.06 11.27,6.66 11.27,6.66l0.38 7.48c0,0 -0.6,2.41 -2.19,-0.61 -1.58,-3.02 -3.41,-5.74 -4.01,-6.65 -0.61,-0.91 -8.78,-5.67 -9.83,-6.58 -1.06,-0.91 -2.19,-2.87 -2.19,-2.87 0,0 -0.31,-1.51 0.71,-1.97l1.02 -0.45zm34.76 13.45l0.07 -15.72c0,0 0.84,-0.46 2.5,0.3 1.66,0.76 2.72,2.72 3.86,4.46 1.14,1.74 3.41,11.19 3.41,11.19l-9.83 -0.23zm-86.56 -13.22c2.42,1.21 4.01,2.57 6.81,3.25 2.8,0.68 3.41,-1.29 3.41,-1.29 0,0 -0.08,-1.21 -0.92,-1.43 -0.83,-0.23 -1.43,-3.86 -4.38,-6.13 -2.95,-2.26 -6.51,1.14 -6.51,1.14l-0.83 1.74c0,0 0,1.51 2.42,2.72zm-52.34 27.73c0,0 3.48,-2.34 3.86,-4.08 0.38,-1.74 -0.99,-3.03 -0.99,-3.03 0,0 -2.64,1.74 -3.02,4.38 -0.38,2.65 0.15,2.72 0.15,2.72zm72.52 3.37l-15.28 -12.74 11.04 -9.07 -0.53 -5.14 -12.7 12.17 -11.65 -13 0.83 -3.02c0.31,-1.06 1.66,-0.76 1.66,-0.76 0,0 0.08,-2.49 0.91,-4.46 0.84,-1.97 1.66,-0.69 3.26,-1.89 1.59,-1.21 -0.84,-5.29 -0.84,-5.29 0,0 -4.84,2.65 -6.81,3.86 -1.97,1.21 0.08,2.8 0.08,4.38 0,1.58 -1.67,3.48 -1.67,3.48l-8.09 -10.66 12.83 -8.39 -2.46 -1.4 -11.6 7.3 -3.9 -6.35c0,0 1.93,-2.5 4.2,-4.31 2.27,-1.81 9.16,-3.96 9.16,-3.96 0,0 -0.38,1.29 2.49,3.28 2.88,2.01 6.21,2.04 6.21,2.04l2.19 8.92c0,0 5.44,-1.51 7.26,0.07 1.81,1.59 -1.29,1.07 -3.49,1.97 -2.19,0.91 -1.06,1.29 -0.07,2.94 0.98,1.66 2.95,-1.43 4.84,-1.36 1.88,0.07 2.34,1.96 3.55,2.19 1.22,0.23 1.66,-1.21 1.66,-1.58 0,-0.38 -5.37,-6.89 -4.83,-8.55 0.53,-1.66 4.16,-1.13 4.16,-1.13l-3.33 -18.15c0.07,0.39 -8.19,1.89 -8.19,1.89 0,0 -18.15,3.03 -35.1,15.12 -16.94,12.1 -28.06,30.61 -28.06,30.61 0,0 -0.07,2.42 0.61,2.8 0.68,0.38 3.56,-1.22 3.56,-1.22 0,0 5.37,4.01 8.47,5.98 3.1,1.96 14.91,8.54 14.91,8.54l0.68 5.36 2.42 -2.41c0,0 11.99,4.75 14.03,4.75 2.04,0 2.72,-1.55 2.72,-1.55l-17.7 -9.45c-17.71,-9.45 -23.86,-15.27 -23.86,-15.27 0,0 1.66,-2.72 8.01,-10.73 6.36,-8.01 18.69,-14.74 18.69,-14.74l4.61 7.25c0,0 -1.89,1.73 -8.1,7.18 -6.2,5.44 -12.78,15.12 -12.78,15.12l4.01 1.89c0,0 3.03,-5.82 7.18,-10.88 4.16,-5.06 11.46,-10.24 11.46,-10.24l8.4 10.5 -7.45 6.92 1.36 3.78 8.54 -7.59 12.19 12.99 -10.59 14.06 4.38 0.83 9.31 -12.73 13.81 11.56 -2.99 4.27 1.97 0.87c0,0 1.96,-2 3.33,-3.28 1.36,-1.29 1.09,-3.59 1.09,-3.59zm-7.83 -75.06l11.61 83.59c0,0 0.15,0.04 1.36,0.99 1.21,0.94 2.76,-0.84 2.76,-0.84l8.78 -83.74 -24.51 0zm-0.38 111.6c-4.27,-6.16 -11.97,-13.34 -25.56,-16.71 -7.65,-1.9 -15.52,-3.04 -22.84,-3.7 -17.85,-1.62 -32.38,-0.39 -32.38,-0.39 0,0 3.93,4.38 11.8,4.84 6.67,0.38 19.93,0.33 28.81,1.31 1.6,0.18 3.07,0.4 4.32,0.65 8.17,1.66 9.39,2.26 13.01,4.38 3.63,2.11 5.14,3.78 5.14,3.78 0,0 -2.5,-0.04 -6.09,-0.41 -3.64,-0.38 -8.4,-1.1 -12.82,-2.46 -8.77,-2.72 -23.75,-0.46 -23.75,-0.46 0,0 1.81,4.38 10.74,4.53 8.92,0.15 32.59,0.82 32.59,0.82 0,0 3.26,2.81 4.31,4.17 1.06,1.36 1.36,2.98 1.36,2.98 0,0 -11.27,-0.23 -16.87,-1.14 -5.6,-0.91 -10.13,-1.66 -10.13,-1.66 0,0 6.81,6.5 18.6,8.31 11.8,1.82 24.74,1.78 24.74,1.78 0,0 -0.99,-4.88 -5,-10.64zm56.1 -19.03c-16.62,4.12 -24.44,13.95 -27.94,20.63 -2.04,3.9 -2.62,6.73 -2.62,6.73 0,0 12.94,0.04 24.74,-1.78 11.8,-1.81 18.6,-8.31 18.6,-8.31 0,0 -4.53,0.76 -10.13,1.66 -5.6,0.91 -16.87,1.14 -16.87,1.14 0,0 0.3,-1.58 1.32,-2.93 0.02,-0.02 0.03,-0.04 0.04,-0.05 1.06,-1.36 4.31,-4.17 4.31,-4.17 0,0 2.9,-0.08 7.05,-0.19 7.71,-0.21 19.75,-0.53 25.54,-0.63 8.93,-0.15 10.74,-4.53 10.74,-4.53 0,0 -14.98,-2.27 -23.74,0.46 -2.04,0.62 -4.15,1.12 -6.19,1.51 -6.74,1.28 -12.72,1.36 -12.72,1.36 0,0 1.51,-1.66 5.14,-3.78 3.63,-2.12 4.84,-2.72 13.01,-4.38 1.8,-0.37 4.03,-0.65 6.51,-0.86 8.75,-0.77 20.49,-0.75 26.62,-1.1 7.86,-0.46 11.8,-4.84 11.8,-4.84 0,0 -14.04,-1.19 -31.47,0.3 -7.57,0.65 -15.78,1.8 -23.75,3.79zm-22.5 -9.92c-18.76,3.79 -20.88,12.4 -20.88,12.4 0,0 -5,-7.25 -11.96,-11.19 -6.96,-3.93 -23.3,-4.23 -23.3,-4.23l-38.6 -0.07 -37.3 -0.07 -9.12 -0.02c0,0 0,1.82 1.66,3.18 1.09,0.89 1.92,2.48 10.88,2.98 4.75,0.26 11.81,0.21 22.4,-0.41 6.07,-0.36 11.78,-0.35 17.05,-0.11 21.31,1 35.47,5.88 36.8,6 1.66,0.16 11.96,3.03 21.94,14.21 1.99,2.24 3.5,4.6 4.64,6.99 4.57,9.55 3.43,19.5 5.49,23.24 2.57,4.69 7.26,5.75 9.69,5.44 2.42,-0.3 4.23,-2.72 3.33,-3.63 -0.91,-0.91 -3.94,-5.59 -5.45,-13.9 -0.67,-3.68 -0.27,-7.71 0.64,-11.43 1.15,-4.69 3.12,-8.89 4.81,-11.25 3.03,-4.23 12.56,-9.83 21.02,-13 5.14,-1.93 20,-3.35 35.38,-4.34 10,-0.64 20.23,-1.11 28.16,-1.41 4.3,-0.16 7.62,-0.41 10.19,-0.72 9.47,-1.13 8.73,-2.91 8.73,-2.91 0,0 -2.71,0.02 -7.23,0.07 -7.92,0.09 -21.39,0.28 -35.66,0.68 -21.22,0.6 -44.21,1.66 -53.33,3.49zm83.16 112.62c0,0 -9.83,2.26 -12.78,2.87 -2.95,0.6 -4.68,0.3 -4.68,0.3 0,0 0.45,8.01 5.37,10.2 4.91,2.19 13.15,1.66 13.15,1.66 0,0 -2.72,-2.04 -3.4,-5.21 -0.68,-3.18 -0.76,-4.31 0.23,-5.98 0.98,-1.66 2.11,-3.85 2.11,-3.85zm0.61 -35.67l15.4 28.56c0,0 -8.02,4.31 -10.67,6.28 -2.64,1.96 -3.86,4.01 -4.61,6.8 -0.76,2.8 -0.07,5.6 3.48,7.63 3.56,2.04 11.2,-1.14 11.2,-1.14 0,0 9.69,-0.6 30.25,-30.83 20.58,-30.23 37.74,-41.94 37.74,-41.94l-29.46 0.33c0,0 -0.84,-3.28 -1.48,-5.48 -0.64,-2.19 -1.36,-7.22 -0.45,-12.35 0.91,-5.14 4.19,-11.68 4.19,-11.68 0,0 -4.12,2.04 -7.56,4.38 -3.44,2.34 -6.13,4.38 -12.03,10.28 -5.9,5.89 -22.84,33.4 -27.23,36.73 -4.38,3.33 -8.77,2.42 -8.77,2.42zm-214.13 27.5c70.6,23.85 145.11,22.61 222.98,-0.3l-21.17 -39c-63.36,14.23 -123.42,13.99 -180.32,0l-21.48 39.3zm27.82 -8.14c2.69,0.22 5.41,0.45 8.12,0.68 -0.22,1.48 -0.17,2.66 0.18,3.5 0.57,1.36 1.7,2.15 3.38,2.38 1.23,0.16 2.27,-0.02 3.11,-0.57 0.83,-0.55 1.35,-1.25 1.54,-2.1 0.18,-0.79 0.01,-1.56 -0.48,-2.27 -0.49,-0.72 -1.8,-1.48 -3.92,-2.36 -3.43,-1.43 -5.69,-3.1 -6.75,-4.86 -1.07,-1.77 -1.26,-3.83 -0.54,-6.21 0.48,-1.55 1.29,-2.97 2.46,-4.25 1.15,-1.28 2.59,-2.22 4.29,-2.81 1.7,-0.59 3.82,-0.7 6.42,-0.37 3.2,0.4 5.48,1.45 6.89,3.13 1.42,1.67 2.01,4.1 1.75,7.37 -2.64,-0.1 -5.24,-0.22 -7.83,-0.37 0.12,-1.43 -0.07,-2.5 -0.56,-3.21 -0.5,-0.72 -1.3,-1.14 -2.42,-1.29 -0.92,-0.11 -1.67,0.04 -2.25,0.42 -0.6,0.4 -0.99,0.94 -1.16,1.61 -0.12,0.48 -0.03,0.94 0.24,1.4 0.26,0.46 1.07,0.95 2.42,1.49 3.35,1.34 5.71,2.61 7.1,3.71 1.38,1.11 2.33,2.37 2.82,3.81 0.48,1.44 0.58,3.02 0.27,4.72 -0.36,1.99 -1.21,3.78 -2.55,5.34 -1.36,1.58 -3.07,2.71 -5.15,3.35 -2.03,0.62 -4.48,0.76 -7.31,0.36 -4.93,-0.69 -8.05,-2.25 -9.3,-4.55 -1.23,-2.27 -1.48,-4.97 -0.77,-8.06zm46.88 10.35c-3.48,-0.2 -6.96,-0.41 -10.39,-0.69 -0.74,1.67 -1.44,3.35 -2.17,5.01 -3.19,-0.25 -6.35,-0.52 -9.48,-0.84 2.72,-4.99 5.42,-9.98 7.96,-15.04 2.51,-5.03 4.89,-10.1 7.2,-15.15 2.91,0.26 5.86,0.46 8.8,0.66 1.3,5.3 2.64,10.63 4.16,15.88 1.53,5.27 3.22,10.52 5.03,15.78 -3.35,-0.11 -6.66,-0.22 -9.95,-0.39 -0.41,-1.74 -0.81,-3.49 -1.17,-5.23zm-1.37 -6.87c-0.37,-1.89 -0.74,-3.8 -1.07,-5.7 -0.33,-1.89 -0.65,-3.8 -0.94,-5.7 -0.7,1.84 -1.39,3.68 -2.1,5.5 -0.71,1.84 -1.46,3.65 -2.19,5.48 2.09,0.16 4.2,0.28 6.3,0.41zm15.84 -18.52c2.5,0.08 5.04,0.13 7.6,0.2 1.79,2.9 3.61,5.77 5.51,8.61 1.9,2.86 3.91,5.7 5.97,8.54 -0.26,-2.84 -0.5,-5.69 -0.74,-8.54 -0.24,-2.84 -0.52,-5.69 -0.76,-8.54 2.56,-0.04 5.15,-0.08 7.72,-0.12 0.67,5.14 1.34,10.28 2.01,15.42 0.67,5.13 1.34,10.27 2.01,15.42 -3.02,0.09 -6.04,0.18 -9.04,0.22 -2.16,-2.82 -4.28,-5.63 -6.31,-8.45 -2.02,-2.82 -3.93,-5.69 -5.82,-8.56 0.09,2.84 0.19,5.69 0.3,8.52 0.1,2.84 0.17,5.68 0.27,8.52 -3,-0.04 -5.99,-0.08 -8.97,-0.11 0.04,-5.19 0.09,-10.37 0.13,-15.57 0.05,-5.19 0.07,-10.37 0.12,-15.56zm28.89 0.04c8.27,-0.35 16.47,-0.86 24.58,-1.55 0.7,2.51 1.44,5 2.15,7.51 -2.83,0.25 -5.68,0.49 -8.52,0.73 0.94,3.82 1.88,7.65 2.79,11.48 0.92,3.83 1.86,7.66 2.78,11.49 -3.16,0.24 -6.28,0.47 -9.44,0.66 -0.76,-3.85 -1.51,-7.7 -2.26,-11.54 -0.76,-3.85 -1.5,-7.7 -2.26,-11.55 -2.89,0.14 -5.78,0.27 -8.66,0.39 -0.36,-2.54 -0.76,-5.07 -1.15,-7.62zm37.62 28.38c-1.58,-5.05 -3.14,-10.1 -4.7,-15.14 -1.56,-5.04 -3.13,-10.1 -4.68,-15.14 4.36,-0.47 8.72,-0.98 13,-1.53 2.39,-0.31 4.29,-0.33 5.73,-0.03 1.44,0.3 2.83,1.04 4.19,2.22 1.34,1.19 2.42,2.73 3.26,4.6 0.72,1.64 1.07,3.09 0.99,4.38 -0.09,1.29 -0.56,2.4 -1.34,3.33 -0.5,0.59 -1.3,1.14 -2.42,1.64 1.14,0.21 2.04,0.47 2.64,0.75 0.4,0.19 1.06,0.64 1.97,1.33 0.94,0.7 1.59,1.23 1.97,1.63 1.28,1.3 2.61,2.61 3.91,3.9 1.32,1.29 2.68,2.58 4.01,3.86 -3.28,0.59 -6.59,1.2 -9.91,1.73 -1.41,-1.39 -2.8,-2.78 -4.18,-4.18 -1.38,-1.39 -2.75,-2.79 -4.09,-4.21 -1.03,-1.09 -1.8,-1.8 -2.4,-2.09 -0.78,-0.37 -1.58,-0.5 -2.35,-0.4 -0.25,0.03 -0.51,0.06 -0.73,0.09 0.71,2.03 1.43,4.06 2.16,6.09 0.72,2.03 1.43,4.05 2.17,6.08 -3.06,0.38 -6.15,0.77 -9.2,1.13zm2.85 -18.96c1.16,-0.14 2.35,-0.31 3.5,-0.47 0.38,-0.05 1.04,-0.3 2.02,-0.71 0.48,-0.19 0.81,-0.56 0.94,-1.12 0.14,-0.55 0.09,-1.15 -0.17,-1.8 -0.4,-0.97 -0.95,-1.66 -1.68,-2.11 -0.73,-0.44 -1.8,-0.57 -3.26,-0.38 -1.17,0.16 -2.35,0.31 -3.52,0.46 0.72,2.04 1.44,4.09 2.17,6.13zm14.98 -14.99c2.47,-0.42 4.94,-0.85 7.4,-1.27 2.49,4.76 4.99,9.53 7.48,14.29 2.48,4.75 4.97,9.53 7.46,14.28 -2.83,0.61 -5.68,1.22 -8.51,1.83 -2.3,-4.86 -4.61,-9.72 -6.91,-14.56 -2.3,-4.86 -4.61,-9.71 -6.93,-14.57zm-150.37 39.74c-2.95,-0.61 -12.77,-2.87 -12.77,-2.87 0,0 1.13,2.19 2.11,3.85 0.99,1.66 0.91,2.8 0.23,5.98 -0.69,3.17 -3.41,5.21 -3.41,5.21 0,0 8.25,0.53 13.16,-1.66 4.92,-2.19 5.37,-10.2 5.37,-10.2 0,0 -1.73,0.3 -4.69,-0.3zm-22.15 -40.97c-4.39,-3.33 -21.33,-30.84 -27.23,-36.73 -5.9,-5.9 -8.59,-7.94 -12.03,-10.28 -3.44,-2.34 -7.57,-4.38 -7.57,-4.38 0,0 3.29,6.54 4.2,11.68 0.91,5.13 0.19,10.16 -0.45,12.35 -0.64,2.19 -1.48,5.48 -1.48,5.48l-29.46 -0.33c0,0 17.17,11.71 37.74,41.94 20.57,30.23 30.25,30.83 30.25,30.83 0,0 7.64,3.18 11.19,1.14 3.56,-2.03 4.24,-4.83 3.49,-7.63 -0.76,-2.79 -1.97,-4.83 -4.61,-6.8 -2.65,-1.97 -10.67,-6.28 -10.67,-6.28l15.4 -28.56c0,0 -4.38,0.91 -8.77,-2.42zm80.98 -44.42c-0.85,-0.94 -2.03,-2 -3.03,-2.86 -8.38,-0.22 -16.76,-0.48 -25.15,-0.66l4.98 0.84c3.38,0.56 6.75,1.12 10.12,1.66 4.01,0.64 8.72,0.9 13.07,1.02zm20.23 -0.61c-0.9,-0.07 -1.8,-0.15 -2.7,-0.24 1.84,2.95 3.73,6.8 4.34,9.94l0.49 2.53 -2.57 0c-8.2,0.01 -16.98,-0.56 -25.07,-1.8 -6.43,-0.99 -14.93,-4.25 -19.75,-8.88l-4.67 -4.48c-1.73,-0.04 -3.45,-0.07 -5.17,-0.11 -3.38,-0.05 -7.08,-0.7 -9.9,-2.69 -1.05,-0.75 -2.26,-1.93 -2.76,-3.14l-1.05 -2.5 2.69 -0.41c7.03,-1.06 17.87,-1.59 24.7,0.53 1.65,0.51 3.34,0.93 5.06,1.29 -1.46,-0.72 -2.91,-1.48 -4.33,-2.28l-1.03 -0.21c-1.36,-0.27 -2.76,-0.46 -4.14,-0.62 -9.52,-1.06 -19.15,-0.76 -28.68,-1.3 -4.43,-0.26 -10.19,-2.12 -13.26,-5.54l-2.84 -3.17 4.24 -0.35c3.2,-0.27 6.49,-0.37 9.68,-0.43 6.64,-0.11 13.32,0.06 19.95,0.55 -0.59,-0.5 -1.18,-1 -1.76,-1.51 -0.86,-0.05 -1.71,-0.1 -2.57,-0.14 -5.61,-0.26 -11.23,-0.24 -16.83,0.1 -6.94,0.41 -14.23,0.78 -21.22,0.48 22.22,35.82 61.17,59.58 105.52,59.58 46.07,0 86.32,-25.64 108.03,-63.81 -2.94,0.3 -5.91,0.46 -8.86,0.57 -9.37,0.35 -18.74,0.8 -28.09,1.4l-2.52 0.16c-0.47,0.43 -0.94,0.85 -1.41,1.27l0.74 -0.07c7.44,-0.63 14.95,-0.86 22.42,-0.72 3.09,0.06 6.29,0.16 9.38,0.42l3.83 0.33 -2.57 2.86c-3.03,3.37 -8.74,5.21 -13.12,5.47 -8.85,0.51 -17.71,0.33 -26.56,1.1 -2.09,0.18 -4.23,0.41 -6.3,0.83 -0.71,0.15 -1.45,0.29 -2.22,0.45 -1.54,0.95 -3.1,1.86 -4.69,2.72l0.74 -0.14c2.02,-0.38 4.02,-0.85 5.98,-1.46 6.79,-2.1 17.6,-1.58 24.61,-0.51l2.43 0.36 -0.94 2.27c-0.49,1.18 -1.68,2.34 -2.7,3.06 -2.78,1.97 -6.44,2.61 -9.78,2.66 -8.5,0.14 -17.02,0.4 -25.52,0.63 -2.12,0.05 -4.25,0.13 -6.37,0.18 -1.12,0.97 -2.49,2.19 -3.38,3.27 4.48,-0.12 9.39,-0.37 13.53,-1.04 3.38,-0.55 6.75,-1.1 10.12,-1.66l6.14 -1.04 -4.49 4.31c-4.78,4.6 -13.25,7.85 -19.64,8.83 -8.07,1.24 -16.84,1.8 -25.03,1.8l-2.34 0 0.47 -2.3c0.46,-2.32 1.72,-5.17 2.79,-7.24 0.16,-0.31 0.33,-0.62 0.5,-0.93 -1.08,0.16 -2.16,0.3 -3.24,0.42 -0.06,0.24 -0.13,0.48 -0.18,0.72 -0.83,3.38 -1.24,7.14 -0.62,10.57 0.57,3.14 1.47,6.33 2.8,9.24 0.41,0.88 1.38,2.88 2.08,3.57 0.22,0.23 0.41,0.48 0.55,0.77 1.48,3.01 -2.33,6.03 -5.08,6.37 -4.75,0.6 -9.51,-2.4 -11.75,-6.5 -1.37,-2.51 -1.66,-7.29 -2.04,-10.17 -0.6,-4.58 -1.5,-8.99 -3.5,-13.18 -0.17,-0.35 -0.35,-0.7 -0.53,-1.05zm-68.43 -34.66c-18.13,-20.42 -29.27,-48.16 -29.27,-78.72 0,-39.72 18.81,-74.67 47.31,-95 -40.56,21.31 -68.33,64.71 -68.33,114.79 0,21.21 4.98,41.22 13.81,58.87l36.49 0.07zm186.6 -1.08c8.51,-17.39 13.31,-37.04 13.31,-57.85 0,-47.09 -24.55,-88.27 -61.2,-110.73 25.5,20.73 41.99,53.75 41.99,90.94 0,30.34 -10.98,57.9 -28.88,78.29 11.23,-0.3 22.48,-0.51 33.73,-0.63l1.05 -0.01z"/>
 </g>
</svg>
