<?xml version="1.0" encoding="UTF-8"?>
<!DOCTYPE svg PUBLIC "-//W3C//DTD SVG 1.1//EN" "http://www.w3.org/Graphics/SVG/1.1/DTD/svg11.dtd">
<!-- Creator: CorelDRAW 2021.5 -->
<svg xmlns="http://www.w3.org/2000/svg" xml:space="preserve" width="86.1618mm" height="100.575mm" version="1.1" style="shape-rendering:geometricPrecision; text-rendering:geometricPrecision; image-rendering:optimizeQuality; fill-rule:evenodd; clip-rule:evenodd"
viewBox="0 0 631.31 736.91"
 xmlns:xlink="http://www.w3.org/1999/xlink"
 xmlns:xodm="http://www.corel.com/coreldraw/odm/2003">
 <defs>
  <style type="text/css">
   <![CDATA[
    .fil2 {fill:#009035}
    .fil0 {fill:#00923F}
    .fil1 {fill:white}
   ]]>
  </style>
 </defs>
 <g id="Layer_x0020_1">
  <metadata id="CorelCorpID_0Corel-Layer"/>
  <path class="fil0" d="M20.51 723.39l295.14 -689.04 295.15 689.04 -590.29 0zm-20.51 13.52l631.31 0 -157.82 -368.46 -157.83 -368.45 -315.65 736.91zm0 0z"/>
  <path class="fil1" d="M315.65 34.35l-295.14 689.04 590.29 0 -295.15 -689.04zm-274.49 675.43l274.49 -640.84 274.5 640.84 -549 0zm0 0z"/>
  <path class="fil0" d="M590.15 709.78l-274.5 -640.84 -274.49 640.84 549 0zm0 0z"/>
  <path class="fil1" d="M312.84 582.04c-66.5,0 -120.41,-58.36 -120.41,-130.35 0,-45.55 21.57,-85.63 54.25,-108.95 -46.52,24.43 -78.36,74.21 -78.36,131.64 0,81.57 64.24,147.7 143.47,147.7 79.24,0 143.48,-66.12 143.48,-147.7 0,-54 -28.15,-101.23 -70.18,-126.99 29.24,23.78 48.15,61.64 48.15,104.29 0,71.99 -53.91,130.35 -120.4,130.35zm0 0z"/>
  <path class="fil1" d="M188.41 633.37c-5.04,-3.82 -24.46,-35.37 -31.23,-42.12 -6.77,-6.77 -9.85,-9.11 -13.79,-11.79 -3.95,-2.69 -8.68,-5.03 -8.68,-5.03 0,0 3.78,7.5 4.82,13.4 1.04,5.89 0.22,11.65 -0.52,14.17 -0.74,2.51 -1.7,6.28 -1.7,6.28l-33.78 -0.38c0,0 19.69,13.43 43.29,48.1 23.59,34.67 34.69,35.36 34.69,35.36 0,0 8.76,3.65 12.83,1.3 4.08,-2.33 4.87,-5.54 4,-8.75 -0.87,-3.2 -2.26,-5.54 -5.29,-7.79 -3.04,-2.26 -12.24,-7.2 -12.24,-7.2l17.66 -32.75c0,0 -5.03,1.04 -10.06,-2.78zm0 0z"/>
  <path class="fil1" d="M213.81 680.35c-3.38,-0.7 -14.65,-3.29 -14.65,-3.29 0,0 1.29,2.51 2.42,4.41 1.13,1.91 1.04,3.21 0.26,6.86 -0.79,3.63 -3.91,5.98 -3.91,5.98 0,0 9.46,0.61 15.09,-1.91 5.64,-2.51 6.16,-11.7 6.16,-11.7 0,0 -1.99,0.34 -5.38,-0.34zm0 0z"/>
  <path class="fil1" d="M187.28 667.69c80.97,27.35 166.42,25.93 255.71,-0.34l-24.28 -44.73c-72.67,16.32 -141.54,16.04 -206.79,0l-24.64 45.07zm31.91 -9.33c3.09,0.25 6.2,0.51 9.31,0.78 -0.25,1.7 -0.19,3.05 0.21,4.02 0.66,1.57 1.95,2.46 3.88,2.73 1.41,0.18 2.6,-0.02 3.56,-0.66 0.95,-0.63 1.54,-1.43 1.77,-2.4 0.21,-0.91 0.01,-1.79 -0.55,-2.6 -0.57,-0.83 -2.06,-1.7 -4.49,-2.71 -3.94,-1.64 -6.52,-3.55 -7.74,-5.57 -1.23,-2.03 -1.44,-4.39 -0.62,-7.12 0.55,-1.78 1.48,-3.4 2.82,-4.88 1.32,-1.46 2.97,-2.54 4.92,-3.22 1.95,-0.68 4.38,-0.8 7.36,-0.42 3.68,0.46 6.29,1.67 7.91,3.58 1.63,1.92 2.3,4.71 2.01,8.45 -3.03,-0.11 -6.01,-0.25 -8.98,-0.42 0.14,-1.64 -0.08,-2.87 -0.65,-3.69 -0.58,-0.83 -1.49,-1.31 -2.78,-1.47 -1.06,-0.13 -1.92,0.04 -2.57,0.49 -0.69,0.46 -1.14,1.08 -1.33,1.85 -0.14,0.56 -0.03,1.08 0.27,1.61 0.3,0.53 1.22,1.09 2.78,1.71 3.84,1.54 6.55,2.99 8.14,4.25 1.58,1.27 2.68,2.72 3.23,4.37 0.55,1.66 0.67,3.46 0.31,5.41 -0.41,2.28 -1.38,4.33 -2.93,6.13 -1.56,1.81 -3.52,3.11 -5.91,3.85 -2.33,0.72 -5.14,0.87 -8.38,0.41 -5.65,-0.79 -9.23,-2.57 -10.66,-5.22 -1.41,-2.61 -1.7,-5.7 -0.89,-9.24zm53.77 11.87c-3.99,-0.23 -7.99,-0.47 -11.91,-0.79 -0.85,1.92 -1.66,3.84 -2.48,5.75 -3.65,-0.28 -7.28,-0.6 -10.87,-0.96 3.12,-5.72 6.22,-11.44 9.13,-17.25 2.88,-5.76 5.6,-11.58 8.26,-17.38 3.34,0.29 6.72,0.53 10.1,0.76 1.49,6.08 3.03,12.19 4.78,18.21 1.76,6.05 3.7,12.07 5.77,18.09 -3.84,-0.12 -7.63,-0.25 -11.41,-0.44 -0.47,-2 -0.93,-4 -1.34,-6zm-1.58 -7.88c-0.42,-2.17 -0.85,-4.35 -1.23,-6.53 -0.38,-2.17 -0.75,-4.35 -1.08,-6.53 -0.81,2.11 -1.6,4.22 -2.4,6.31 -0.82,2.11 -1.68,4.19 -2.51,6.28 2.39,0.18 4.82,0.32 7.23,0.47zm18.16 -21.24c2.87,0.09 5.79,0.15 8.71,0.23 2.05,3.32 4.14,6.61 6.32,9.87 2.18,3.28 4.48,6.53 6.85,9.79 -0.3,-3.26 -0.58,-6.52 -0.85,-9.79 -0.27,-3.26 -0.6,-6.52 -0.87,-9.79 2.94,-0.04 5.91,-0.09 8.85,-0.14 0.77,5.9 1.54,11.79 2.3,17.68 0.77,5.89 1.54,11.78 2.3,17.68 -3.46,0.1 -6.93,0.21 -10.37,0.25 -2.47,-3.23 -4.91,-6.45 -7.24,-9.69 -2.31,-3.23 -4.5,-6.52 -6.67,-9.81 0.1,3.26 0.22,6.52 0.34,9.77 0.11,3.26 0.19,6.51 0.31,9.77 -3.44,-0.04 -6.87,-0.09 -10.29,-0.13 0.04,-5.95 0.1,-11.89 0.15,-17.85 0.06,-5.95 0.08,-11.89 0.14,-17.84zm33.13 0.05c9.48,-0.4 18.89,-0.99 28.19,-1.78 0.81,2.88 1.66,5.73 2.46,8.61 -3.25,0.28 -6.51,0.57 -9.77,0.84 1.08,4.38 2.15,8.77 3.2,13.17 1.05,4.39 2.13,8.78 3.19,13.18 -3.62,0.27 -7.2,0.53 -10.82,0.76 -0.87,-4.41 -1.73,-8.83 -2.6,-13.24 -0.87,-4.41 -1.72,-8.83 -2.59,-13.25 -3.31,0.16 -6.63,0.31 -9.94,0.44 -0.41,-2.91 -0.87,-5.82 -1.32,-8.73zm43.14 32.54c-1.81,-5.8 -3.6,-11.58 -5.39,-17.37 -1.79,-5.79 -3.59,-11.58 -5.37,-17.37 5,-0.53 10,-1.12 14.91,-1.76 2.74,-0.35 4.92,-0.37 6.57,-0.03 1.66,0.34 3.25,1.19 4.81,2.54 1.54,1.36 2.78,3.13 3.74,5.27 0.83,1.88 1.23,3.54 1.14,5.02 -0.1,1.48 -0.65,2.76 -1.53,3.82 -0.58,0.68 -1.49,1.3 -2.78,1.88 1.3,0.24 2.34,0.53 3.03,0.86 0.45,0.22 1.21,0.74 2.26,1.52 1.08,0.8 1.82,1.41 2.26,1.87 1.46,1.49 2.99,3 4.48,4.47 1.51,1.48 3.07,2.96 4.6,4.42 -3.76,0.68 -7.55,1.37 -11.37,1.98 -1.61,-1.6 -3.21,-3.19 -4.8,-4.8 -1.59,-1.6 -3.15,-3.2 -4.68,-4.83 -1.18,-1.25 -2.06,-2.07 -2.76,-2.39 -0.9,-0.42 -1.81,-0.58 -2.7,-0.46 -0.29,0.03 -0.59,0.07 -0.84,0.1 0.82,2.33 1.65,4.65 2.47,6.99 0.83,2.32 1.64,4.64 2.48,6.97 -3.5,0.43 -7.05,0.88 -10.55,1.29zm3.27 -21.74c1.33,-0.16 2.7,-0.35 4.01,-0.54 0.43,-0.06 1.19,-0.34 2.32,-0.82 0.55,-0.22 0.93,-0.65 1.08,-1.28 0.16,-0.64 0.1,-1.32 -0.19,-2.06 -0.45,-1.11 -1.09,-1.91 -1.93,-2.42 -0.84,-0.5 -2.07,-0.66 -3.74,-0.43 -1.34,0.18 -2.7,0.35 -4.04,0.52 0.83,2.34 1.66,4.69 2.48,7.03zm17.17 -17.19c2.83,-0.49 5.66,-0.97 8.49,-1.45 2.86,5.46 5.72,10.93 8.58,16.39 2.85,5.45 5.7,10.92 8.55,16.38 -3.24,0.7 -6.51,1.4 -9.75,2.1 -2.63,-5.57 -5.29,-11.15 -7.93,-16.7 -2.64,-5.57 -5.29,-11.14 -7.95,-16.71zm0 0z"/>
  <path class="fil1" d="M432.84 636.14l17.66 32.75c0,0 -9.2,4.94 -12.24,7.2 -3.03,2.25 -4.42,4.59 -5.29,7.79 -0.87,3.21 -0.08,6.42 3.99,8.75 4.08,2.34 12.84,-1.3 12.84,-1.3 0,0 11.11,-0.69 34.69,-35.36 23.6,-34.67 43.28,-48.1 43.28,-48.1l-33.78 0.38c0,0 -0.96,-3.77 -1.7,-6.28 -0.74,-2.51 -1.57,-8.28 -0.52,-14.17 1.04,-5.9 4.81,-13.4 4.81,-13.4 0,0 -4.73,2.34 -8.67,5.03 -3.95,2.69 -7.03,5.03 -13.79,11.79 -6.77,6.75 -26.19,38.31 -31.23,42.12 -5.03,3.82 -10.06,2.78 -10.06,2.78zm0 0z"/>
  <path class="fil1" d="M432.15 677.06c0,0 -11.28,2.59 -14.66,3.29 -3.38,0.69 -5.37,0.34 -5.37,0.34 0,0 0.52,9.19 6.16,11.7 5.63,2.51 15.08,1.91 15.08,1.91 0,0 -3.12,-2.34 -3.9,-5.98 -0.78,-3.65 -0.87,-4.95 0.26,-6.86 1.12,-1.9 2.42,-4.41 2.42,-4.41zm0 0z"/>
  <path class="fil0" d="M312.5 557.76c0.84,-1.12 1.81,-2.15 2.66,-2.93 5.59,-5.09 13.89,-7.79 21.15,-9.26 6.95,-1.4 14.93,-1.88 22.01,-2.34 10.37,-0.69 20.77,-1.1 31.15,-1.44 2.81,-0.09 5.6,-0.17 8.41,-0.25 13.63,-0.38 27.28,-0.64 40.92,-0.79 2.77,-0.03 5.54,-0.07 8.32,-0.07l1.57 0 0.61 1.45c0.74,1.74 -0.45,3.31 -1.92,4.16 -2.52,1.47 -7.14,2.1 -10,2.43 -3.93,0.47 -7.92,0.7 -11.86,0.85 -10.74,0.4 -21.5,0.92 -32.22,1.61 -8.2,0.52 -16.43,1.14 -24.59,2.08 -4.39,0.5 -11.21,1.21 -15.32,2.76 -6.46,2.41 -19.12,8.61 -23.02,14.06 -2.35,3.29 -4.18,8.18 -5.14,12.08 -0.95,3.88 -1.42,8.19 -0.71,12.13 0.66,3.6 1.69,7.26 3.21,10.6 0.46,1.01 1.59,3.3 2.38,4.09 0.25,0.26 0.46,0.56 0.63,0.88 1.7,3.45 -2.68,6.92 -5.83,7.31 -5.45,0.69 -10.9,-2.76 -13.48,-7.45 -1.58,-2.88 -1.91,-8.36 -2.34,-11.66 -0.69,-5.25 -1.72,-10.31 -4.02,-15.11 -1.3,-2.72 -2.95,-5.21 -4.96,-7.46 -4.39,-4.93 -9.64,-9.27 -15.5,-12.37 -1.79,-0.95 -6.04,-2.95 -8.1,-3.14 -1.15,-0.1 -3.05,-0.74 -4.2,-1.04 -2.85,-0.76 -5.7,-1.44 -8.59,-2.06 -9.63,-2.06 -19.47,-3.31 -29.31,-3.77 -6.43,-0.3 -12.87,-0.27 -19.31,0.11 -8.5,0.5 -17.45,0.95 -25.96,0.47 -3.22,-0.17 -7.33,-0.51 -10.36,-1.7 -1.67,-0.65 -2.2,-1.2 -3.49,-2.25 -1.57,-1.28 -2.78,-3.41 -2.78,-5.48l0 -2.37 99.92 0.18c7.66,0.14 21.2,1.41 27.84,5.16 4.21,2.38 8.78,6.43 12.21,10.54zm0 0z"/>
  <path class="fil1" d="M336.78 547.9c-21.52,4.34 -23.94,14.22 -23.94,14.22 0,0 -5.73,-8.32 -13.71,-12.83 -7.99,-4.5 -26.72,-4.85 -26.72,-4.85l-44.27 -0.08 -42.78 -0.08 -10.46 -0.02c0,0 0,2.09 1.91,3.65 1.25,1.02 2.2,2.85 12.48,3.42 5.45,0.3 13.54,0.24 25.69,-0.47 6.96,-0.41 13.51,-0.4 19.56,-0.12 24.43,1.15 40.68,6.74 42.2,6.88 1.91,0.18 13.71,3.47 25.16,16.3 2.28,2.56 4.01,5.28 5.32,8.02 5.24,10.96 3.94,22.36 6.3,26.66 2.95,5.38 8.33,6.59 11.11,6.24 2.78,-0.34 4.86,-3.12 3.82,-4.16 -1.04,-1.04 -4.51,-6.41 -6.25,-15.94 -0.77,-4.22 -0.31,-8.85 0.74,-13.11 1.32,-5.38 3.57,-10.2 5.51,-12.9 3.47,-4.85 14.4,-11.27 24.11,-14.9 5.9,-2.21 22.93,-3.84 40.58,-4.98 11.47,-0.74 23.2,-1.27 32.29,-1.62 4.93,-0.18 8.73,-0.47 11.68,-0.83 10.86,-1.29 10.01,-3.33 10.01,-3.33 0,0 -3.11,0.02 -8.29,0.08 -9.08,0.1 -24.53,0.32 -40.89,0.78 -24.33,0.69 -50.7,1.9 -61.16,4zm0 0z"/>
  <path class="fil2" d="M361.05 569.04c2.29,-0.26 4.56,-0.61 6.69,-1.01 2.31,-0.43 4.61,-0.98 6.86,-1.68 7.78,-2.41 20.18,-1.81 28.22,-0.59l2.79 0.41 -1.08 2.61c-0.57,1.35 -1.93,2.69 -3.1,3.5 -3.19,2.26 -7.39,2.99 -11.22,3.05 -9.75,0.16 -19.52,0.45 -29.27,0.72 -2.43,0.06 -4.88,0.15 -7.31,0.2 -1.28,1.11 -2.86,2.51 -3.88,3.75 5.14,-0.14 10.76,-0.42 15.52,-1.19 3.88,-0.63 7.74,-1.26 11.61,-1.91l7.04 -1.19 -5.15 4.95c-5.48,5.27 -15.2,9 -22.53,10.13 -9.26,1.42 -19.32,2.07 -28.7,2.06l-2.69 0 0.53 -2.63c0.53,-2.66 1.97,-5.93 3.2,-8.3 6.9,-13.15 19.24,-21.24 33.47,-24.78 9.03,-2.23 18.33,-3.59 27.58,-4.39 8.53,-0.73 17.14,-0.99 25.71,-0.83 3.54,0.07 7.21,0.18 10.75,0.48l4.39 0.38 -2.95 3.28c-3.47,3.87 -10.03,5.98 -15.04,6.27 -10.15,0.59 -20.3,0.37 -30.46,1.26 -2.39,0.21 -4.86,0.47 -7.22,0.95 -3.53,0.73 -7.88,1.5 -11.16,3.08 -0.89,0.42 -1.76,0.92 -2.62,1.41zm0 0z"/>
  <path class="fil1" d="M362.59 559.28c-19.06,4.73 -28.03,15.99 -32.04,23.66 -2.34,4.47 -3.01,7.71 -3.01,7.71 0,0 14.84,0.04 28.37,-2.04 13.53,-2.08 21.33,-9.53 21.33,-9.53 0,0 -5.2,0.87 -11.62,1.91 -6.42,1.04 -19.35,1.3 -19.35,1.3 0,0 0.34,-1.82 1.51,-3.36 0.02,-0.02 0.03,-0.04 0.05,-0.06 1.21,-1.57 4.95,-4.79 4.95,-4.79 0,0 3.32,-0.09 8.09,-0.22 8.85,-0.24 22.65,-0.61 29.29,-0.72 10.24,-0.17 12.32,-5.2 12.32,-5.2 0,0 -17.17,-2.6 -27.23,0.53 -2.34,0.72 -4.76,1.28 -7.1,1.73 -7.73,1.46 -14.59,1.57 -14.59,1.57 0,0 1.74,-1.91 5.9,-4.33 4.16,-2.43 5.55,-3.12 14.92,-5.03 2.06,-0.42 4.62,-0.75 7.46,-0.99 10.04,-0.88 23.5,-0.86 30.53,-1.26 9.02,-0.53 13.53,-5.55 13.53,-5.55 0,0 -16.1,-1.36 -36.09,0.34 -8.68,0.75 -18.09,2.07 -27.24,4.34zm0 0z"/>
  <path class="fil0" d="M281.28 582.43c-0.97,-1.08 -2.33,-2.29 -3.47,-3.28 -9.61,-0.25 -19.22,-0.55 -28.85,-0.76l5.72 0.96c3.88,0.65 7.74,1.28 11.61,1.91 4.59,0.74 10,1.03 14.99,1.17zm-34.04 -4.08c-1.98,-0.04 -3.96,-0.08 -5.93,-0.12 -3.88,-0.06 -8.12,-0.8 -11.35,-3.08 -1.2,-0.86 -2.6,-2.21 -3.17,-3.6l-1.2 -2.87 3.08 -0.47c8.07,-1.21 20.5,-1.82 28.32,0.61 3.97,1.23 8.19,2.02 12.35,2.52 -0.51,-0.29 -1.05,-0.58 -1.58,-0.83 -3.26,-1.57 -7.58,-2.35 -11.11,-3.07 -1.55,-0.31 -3.16,-0.52 -4.74,-0.71 -10.92,-1.21 -21.96,-0.87 -32.9,-1.49 -5.08,-0.29 -11.68,-2.43 -15.21,-6.35l-3.26 -3.63 4.87 -0.4c3.66,-0.31 7.44,-0.42 11.11,-0.49 8.82,-0.15 17.68,0.14 26.45,0.93 8.92,0.81 17.86,2.15 26.55,4.3 12.39,3.08 23.38,9.55 30.73,20.14 2.41,3.48 5.28,8.88 6.12,13.13l0.57 2.9 -2.95 0c-9.4,0.01 -19.48,-0.65 -28.75,-2.07 -7.37,-1.13 -17.12,-4.88 -22.65,-10.19l-5.35 -5.14zm0 0z"/>
  <path class="fil1" d="M298.25 581.11c-4.9,-7.07 -13.73,-15.3 -29.31,-19.16 -8.77,-2.18 -17.8,-3.48 -26.19,-4.24 -20.47,-1.86 -37.14,-0.44 -37.14,-0.44 0,0 4.51,5.03 13.53,5.55 7.64,0.43 22.86,0.38 33.04,1.5 1.84,0.21 3.52,0.45 4.96,0.75 9.37,1.91 10.76,2.59 14.92,5.03 4.16,2.42 5.9,4.33 5.9,4.33 0,0 -2.87,-0.04 -6.99,-0.46 -4.17,-0.43 -9.63,-1.26 -14.7,-2.83 -10.06,-3.12 -27.23,-0.53 -27.23,-0.53 0,0 2.08,5.03 12.32,5.2 10.23,0.17 37.38,0.94 37.38,0.94 0,0 3.74,3.22 4.95,4.79 1.21,1.55 1.57,3.42 1.57,3.42 0,0 -12.92,-0.26 -19.35,-1.3 -6.42,-1.04 -11.62,-1.91 -11.62,-1.91 0,0 7.8,7.45 21.33,9.53 13.53,2.09 28.37,2.04 28.37,2.04 0,0 -1.14,-5.59 -5.73,-12.21zm0 0z"/>
  <path class="fil1" d="M298.69 453.12l13.32 95.86c0,0 0.17,0.05 1.57,1.13 1.38,1.08 3.16,-0.96 3.16,-0.96l10.07 -96.03 -28.11 0zm0 0z"/>
  <path class="fil1" d="M307.66 539.19l-17.52 -14.61 12.66 -10.4 -0.61 -5.9 -14.57 13.95 -13.36 -14.91 0.95 -3.46c0.35,-1.21 1.91,-0.87 1.91,-0.87 0,0 0.09,-2.86 1.04,-5.11 0.96,-2.26 1.91,-0.79 3.74,-2.17 1.82,-1.38 -0.96,-6.07 -0.96,-6.07 0,0 -5.55,3.04 -7.8,4.42 -2.26,1.38 0.09,3.21 0.09,5.03 0,1.82 -1.92,3.99 -1.92,3.99l-9.28 -12.23 14.71 -9.62 -2.83 -1.61 -13.31 8.37 -4.47 -7.28c0,0 2.21,-2.87 4.82,-4.95 2.6,-2.08 10.5,-4.54 10.5,-4.54 0,0 -0.43,1.47 2.86,3.77 3.3,2.3 7.12,2.34 7.12,2.34l2.51 10.23c0,0 6.24,-1.74 8.33,0.08 2.08,1.83 -1.48,1.22 -4,2.26 -2.51,1.04 -1.21,1.47 -0.08,3.37 1.12,1.91 3.38,-1.65 5.55,-1.55 2.16,0.08 2.69,2.25 4.07,2.51 1.39,0.26 1.91,-1.39 1.91,-1.82 0,-0.43 -6.16,-7.9 -5.54,-9.8 0.61,-1.9 4.77,-1.29 4.77,-1.29l-3.82 -20.81c0.08,0.44 -9.39,2.17 -9.39,2.17 0,0 -20.82,3.47 -40.26,17.34 -19.43,13.87 -32.18,35.11 -32.18,35.11 0,0 -0.08,2.78 0.7,3.21 0.78,0.43 4.08,-1.39 4.08,-1.39 0,0 6.16,4.59 9.71,6.86 3.55,2.25 17.09,9.79 17.09,9.79l0.78 6.15 2.78 -2.77c0,0 13.75,5.45 16.09,5.45 2.34,0 3.12,-1.78 3.12,-1.78l-20.29 -10.83c-20.31,-10.83 -27.36,-17.51 -27.36,-17.51 0,0 1.91,-3.12 9.19,-12.31 7.29,-9.19 21.44,-16.9 21.44,-16.9l5.29 8.32c0,0 -2.17,1.99 -9.29,8.23 -7.11,6.24 -14.65,17.34 -14.65,17.34l4.59 2.17c0,0 3.47,-6.67 8.24,-12.48 4.78,-5.81 13.15,-11.74 13.15,-11.74l9.63 12.05 -8.54 7.94 1.57 4.33 9.79 -8.7 13.97 14.9 -12.15 16.13 5.03 0.95 10.67 -14.6 15.83 13.26 -3.43 4.9 2.26 1c0,0 2.25,-2.29 3.82,-3.77 1.55,-1.47 1.25,-4.12 1.25,-4.12zm0 0z"/>
  <path class="fil1" d="M224.49 535.33c0,0 3.99,-2.69 4.42,-4.68 0.43,-2 -1.13,-3.47 -1.13,-3.47 0,0 -3.03,2 -3.46,5.03 -0.43,3.04 0.17,3.12 0.17,3.12zm0 0z"/>
  <path class="fil1" d="M284.52 503.52c2.78,1.38 4.59,2.95 7.81,3.73 3.21,0.78 3.91,-1.47 3.91,-1.47 0,0 -0.09,-1.38 -1.05,-1.65 -0.95,-0.26 -1.65,-4.42 -5.03,-7.03 -3.38,-2.6 -7.46,1.3 -7.46,1.3l-0.95 2c0,0 0,1.73 2.78,3.12zm0 0z"/>
  <path class="fil1" d="M326.42 489.74c0,0 0.47,1.55 2.21,4.03 1.74,2.47 9.67,8.75 9.67,8.75l-7.2 0.22 -0.26 7.54 -5.2 4.41c0,0 2.17,5.82 1.47,7.9 -0.69,2.08 -1.38,1.91 -3.99,3.12 -2.61,1.21 -0.43,5.2 -0.43,5.2l14.15 0.34c0,0 0.43,0.7 2.78,2.51 2.34,1.82 8.67,4.08 9.11,4.08 0.43,0 1.65,1.99 1.65,1.99l4.95 2.69 0.87 -2.95 2.69 -0.08c0,0 0,2.34 0.78,3.29 0.78,0.95 3.47,-1.74 4.08,-3.03 0.61,-1.3 0.78,-5.9 0.78,-5.9 0,0 -5.98,2.69 -11.79,2.69 -5.82,0 -14.57,-7.71 -14.57,-7.71 0,0 2.95,-3.21 2.95,-6.41 0,-3.21 -3.38,-3.38 -6.86,-5.9 -3.46,-2.51 -1.38,-4.94 -1.38,-4.94 0,0 2.34,-0.7 4.77,-0.35 2.43,0.35 1.13,1.57 3.56,2.86 2.42,1.3 10.06,2.51 10.06,2.51l1.04 5.63c1.04,5.63 4.08,10.88 6.23,10.62 2.15,-0.26 6.32,-3.41 7.54,-5.06 1.21,-1.65 2.04,-7.62 2.04,-7.62 0,0 4.25,0.7 5.82,1.21 1.55,0.52 5.73,1.04 5.73,1.04 0,0 -0.09,12.06 -0.09,14.57 0,2.51 0.43,3.73 0.96,4.41 0.51,0.7 2.51,-0.52 2.86,-0.95 0.34,-0.43 0.43,-16.38 0.43,-16.38 0,0 2.95,0.08 4.42,0.08 1.47,0 8.67,-0.08 8.67,-0.08 0,0 0.09,0.34 0.26,1.55 0.17,1.21 0.66,9.49 0.66,9.49l2.08 1.3 0.7 -12.89c0,0 3.73,-1.74 3.03,-2.69 -0.7,-0.96 -4.42,-0.52 -4.42,-0.52 0,0 -1.57,-5.81 -2.42,-7.62 -0.87,-1.82 -2.26,-9.19 -2.26,-9.19l2.34 0.08c0,0 2.34,3.38 3.55,5.38 1.22,1.99 5.91,12.05 7.29,13.18 1.39,1.12 2.69,-0.96 2.51,-1.74 -0.17,-0.78 -8.07,-12.83 -9.45,-14.48 -1.39,-1.65 0,-4.16 0,-4.16 0,0 2.34,1.57 3.65,3.04 1.29,1.47 4.55,6.75 5.98,8.4 1.43,1.66 5.04,-0.17 5.04,-0.17 0,0 -7.12,-9.87 -9.2,-13 -2.08,-3.12 -14.57,-14.56 -33.65,-25.47 -19.08,-10.92 -43.03,-14.22 -43.03,-14.22l2.96 3.98 -2.95 2.95 14.14 0 0.34 2.69c0,0 -14.22,2.87 -14.74,3.04 -0.53,0.17 0.17,3.9 0.17,3.9 0,0 1.04,-0.34 8.94,-1.82 7.9,-1.47 8.67,4.94 8.67,4.94 0,0 0,0.09 -5.72,2.17 -5.73,2.08 -14.91,7.54 -14.91,7.54zm15.52 -3.38c3.55,-1.38 13.01,-0.34 13.01,-0.34l-12.92 12.91c0,0 -4.51,-1.74 -6.08,-3.04 -1.56,-1.3 -2.94,-3.36 -3.12,-3.2 0,0 5.55,-4.95 9.11,-6.33zm3.55 14.12l10.84 -11.18c0,0 7.2,1.3 9.71,3.29 2.51,1.99 3.91,5.63 3.82,6.15 -0.08,0.53 1.47,2.78 1.91,2.34 0.43,-0.43 1.21,-3.55 1.21,-3.55 0,0 2.34,-1.12 4.34,-0.52 2,0.61 2.08,6.07 2.08,6.07l0.35 14.9 -10.24 -1.65c0,0 -0.43,-2.25 0.17,-5.2 0.61,-2.95 0.61,-5.72 0.61,-5.72 0,0 -3.12,-0.87 -3.38,-0.35l-3.73 7.89c0,0 -9.03,-4.33 -11.8,-6.58 -2.78,-2.25 -5.9,-5.9 -5.9,-5.9zm-1.57 2.78l0.18 0.21c0.75,0.91 3.72,4.45 5.37,5.5 1.91,1.21 12.92,7.63 12.92,7.63l0.43 8.58c0,0 -0.69,2.77 -2.51,-0.7 -1.82,-3.46 -3.91,-6.58 -4.59,-7.62 -0.7,-1.04 -10.07,-6.5 -11.28,-7.54 -1.21,-1.04 -2.51,-3.29 -2.51,-3.29 0,0 -0.35,-1.74 0.82,-2.26l1.17 -0.52zm39.86 15.43l0.08 -18.02c0,0 0.96,-0.53 2.87,0.34 1.91,0.87 3.12,3.12 4.42,5.11 1.3,2 3.91,12.83 3.91,12.83l-11.28 -0.26zm0 0z"/>
  <path class="fil1" d="M289.37 446.44c15.1,3.4 30.41,3.53 45.97,0l0 -17.34c-15.33,3.52 -30.65,4.33 -45.97,0l0 17.34zm0 0z"/>
  <path class="fil1" d="M316.08 413.94l0 12.48c0,0.26 -0.04,0.53 -0.11,0.78l5.77 0c-0.07,-0.25 -0.11,-0.51 -0.11,-0.78l0 -12.48c0,-1.68 1.37,-3.04 3.04,-3.04 1.67,0 3.04,1.36 3.04,3.04l0 12.48c0,0.26 -0.04,0.53 -0.1,0.78l3.56 0 0 -24.62 -38.68 0 0 24.62 6 0c-0.06,-0.25 -0.1,-0.51 -0.1,-0.78l0 -12.48c0,-1.68 1.36,-3.04 3.04,-3.04 1.67,0 3.03,1.36 3.03,3.04l0 12.48c0,0.26 -0.03,0.53 -0.1,0.78l5.76 0c-0.06,-0.25 -0.1,-0.51 -0.1,-0.78l0 -12.48c0,-1.68 1.36,-3.04 3.04,-3.04 1.67,0 3.04,1.36 3.04,3.04zm0 0z"/>
  <path class="fil1" d="M311.91 395.91l14.23 0.08c3.51,0.03 11.53,-17.66 1.74,-26.87 -7.73,-7.27 -15.96,-20.63 -15.96,-20.63 0,0 -8.22,13.36 -15.96,20.63 -9.79,9.21 -1.77,26.9 1.74,26.87l14.23 -0.08zm0 0z"/>
  <path class="fil1" d="M347.29 360.54l-3.24 9.91 8.42 -6.14 8.41 6.14 -3.23 -9.91 8.44 -6.1 -10.42 0.02 -3.2 -9.92 -3.21 9.92 -10.42 -0.02 8.45 6.1zm0 0z"/>
  <path class="fil1" d="M376.33 379.42l-10.42 -0.02 8.44 6.11 -3.24 9.9 8.42 -6.14 8.42 6.14 -3.24 -9.9 8.44 -6.11 -10.42 0.02 -3.2 -9.92 -3.2 9.92zm0 0z"/>
  <path class="fil1" d="M392.64 407.85l-10.42 -0.02 8.44 6.1 -3.24 9.9 8.42 -6.13 8.42 6.13 -3.24 -9.9 8.44 -6.1 -10.42 0.02 -3.2 -9.91 -3.2 9.91zm0 0z"/>
  <path class="fil1" d="M404.17 438.51l-3.2 9.92 -10.42 -0.02 8.44 6.1 -3.24 9.9 8.42 -6.14 8.42 6.14 -3.24 -9.9 8.44 -6.1 -10.42 0.02 -3.2 -9.92zm0 0z"/>
  <path class="fil1" d="M277.96 370.44l-3.24 -9.91 8.45 -6.1 -10.42 0.02 -3.21 -9.92 -3.2 9.92 -10.42 -0.02 8.44 6.1 -3.23 9.91 8.41 -6.14 8.42 6.14zm0 0z"/>
  <path class="fil1" d="M258.87 379.4l-10.42 0.02 -3.2 -9.92 -3.2 9.92 -10.42 -0.02 8.44 6.11 -3.24 9.9 8.42 -6.14 8.42 6.14 -3.24 -9.9 8.44 -6.11zm0 0z"/>
  <path class="fil1" d="M241.87 407.83l-10.42 0.02 -3.2 -9.91 -3.2 9.91 -10.42 -0.02 8.44 6.1 -3.24 9.9 8.42 -6.13 8.42 6.13 -3.24 -9.9 8.44 -6.1zm0 0z"/>
  <path class="fil1" d="M225.43 448.42l-3.2 -9.92 -3.2 9.92 -10.42 -0.02 8.44 6.1 -3.24 9.9 8.42 -6.14 8.42 6.14 -3.24 -9.9 8.44 -6.1 -10.42 0.02zm0 0z"/>
  <path class="fil1" d="M297.19 301.11l-8.47 25.9 22.03 -16.05 22.02 16.05 -8.47 -25.9 22.08 -15.96 -27.26 0.05 -8.37 -25.93 -8.38 25.93 -27.26 -0.05 22.08 15.96zm0 0z"/>
 </g>
</svg>
